  0
SECTION
  2
HEADER
  9
$ACADVER
  1
AC1024
  9
$ACADMAINTVER
 70
     6
  9
$DWGCODEPAGE
  3
UNDEFINED
  9
$INSBASE
 10
0.0
 20
0.0
 30
0.0
  9
$EXTMIN
 10
1.000000000000000E+20
 20
1.000000000000000E+20
 30
1.000000000000000E+20
  9
$EXTMAX
 10
-1.000000000000000E+20
 20
-1.000000000000000E+20
 30
-1.000000000000000E+20
  9
$LIMMIN
 10
0.0
 20
0.0
  9
$LIMMAX
 10
12.0
 20
9.0
  9
$ORTHOMODE
 70
     0
  9
$REGENMODE
 70
     1
  9
$FILLMODE
 70
     1
  9
$QTEXTMODE
 70
     0
  9
$MIRRTEXT
 70
     1
  9
$LTSCALE
 40
1.0
  9
$ATTMODE
 70
     1
  9
$TEXTSIZE
 40
0.2
  9
$TRACEWID
 40
0.05
  9
$TEXTSTYLE
  7
Standard
  9
$CLAYER
  8
0
  9
$CELTYPE
  6
ByLayer
  9
$CECOLOR
 62
   256
  9
$CELTSCALE
 40
1.0
  9
$DISPSILH
 70
     0
  9
$DIMSCALE
 40
1.0
  9
$DIMASZ
 40
0.18
  9
$DIMEXO
 40
0.0625
  9
$DIMDLI
 40
0.38
  9
$DIMRND
 40
0.0
  9
$DIMDLE
 40
0.0
  9
$DIMEXE
 40
0.18
  9
$DIMTP
 40
0.0
  9
$DIMTM
 40
0.0
  9
$DIMTXT
 40
0.18
  9
$DIMCEN
 40
0.09
  9
$DIMTSZ
 40
0.0
  9
$DIMTOL
 70
     0
  9
$DIMLIM
 70
     0
  9
$DIMTIH
 70
     1
  9
$DIMTOH
 70
     1
  9
$DIMSE1
 70
     0
  9
$DIMSE2
 70
     0
  9
$DIMTAD
 70
     0
  9
$DIMZIN
 70
     0
  9
$DIMBLK
  1

  9
$DIMASO
 70
     1
  9
$DIMSHO
 70
     1
  9
$DIMPOST
  1

  9
$DIMAPOST
  1

  9
$DIMALT
 70
     0
  9
$DIMALTD
 70
     2
  9
$DIMALTF
 40
25.4
  9
$DIMLFAC
 40
1.0
  9
$DIMTOFL
 70
     0
  9
$DIMTVP
 40
0.0
  9
$DIMTIX
 70
     0
  9
$DIMSOXD
 70
     0
  9
$DIMSAH
 70
     0
  9
$DIMBLK1
  1

  9
$DIMBLK2
  1

  9
$DIMSTYLE
  2
Standard
  9
$DIMCLRD
 70
     0
  9
$DIMCLRE
 70
     0
  9
$DIMCLRT
 70
     0
  9
$DIMTFAC
 40
1.0
  9
$DIMGAP
 40
0.09
  9
$DIMJUST
 70
     0
  9
$DIMSD1
 70
     0
  9
$DIMSD2
 70
     0
  9
$DIMTOLJ
 70
     1
  9
$DIMTZIN
 70
     0
  9
$DIMALTZ
 70
     0
  9
$DIMALTTZ
 70
     0
  9
$DIMUPT
 70
     0
  9
$DIMDEC
 70
     4
  9
$DIMTDEC
 70
     4
  9
$DIMALTU
 70
     2
  9
$DIMALTTD
 70
     2
  9
$DIMTXSTY
  7
Standard
  9
$DIMAUNIT
 70
     0
  9
$DIMADEC
 70
     0
  9
$DIMALTRND
 40
0.0
  9
$DIMAZIN
 70
     0
  9
$DIMDSEP
 70
    46
  9
$DIMATFIT
 70
     3
  9
$DIMFRAC
 70
     0
  9
$DIMLDRBLK
  1

  9
$DIMLUNIT
 70
     2
  9
$DIMLWD
 70
    -2
  9
$DIMLWE
 70
    -2
  9
$DIMTMOVE
 70
     0
  9
$DIMFXL
 40
1.0
  9
$DIMFXLON
 70
     0
  9
$DIMJOGANG
 40
0.7853981633974483
  9
$DIMTFILL
 70
     0
  9
$DIMTFILLCLR
 70
     0
  9
$DIMARCSYM
 70
     0
  9
$DIMLTYPE
  6

  9
$DIMLTEX1
  6

  9
$DIMLTEX2
  6

  9
$DIMTXTDIRECTION
 70
     0
  9
$LUNITS
 70
     2
  9
$LUPREC
 70
     4
  9
$SKETCHINC
 40
0.1
  9
$FILLETRAD
 40
0.5
  9
$AUNITS
 70
     0
  9
$AUPREC
 70
     0
  9
$MENU
  1
.
  9
$ELEVATION
 40
0.0
  9
$PELEVATION
 40
0.0
  9
$THICKNESS
 40
0.0
  9
$LIMCHECK
 70
     0
  9
$CHAMFERA
 40
0.5
  9
$CHAMFERB
 40
0.5
  9
$CHAMFERC
 40
1.0
  9
$CHAMFERD
 40
0.0
  9
$SKPOLY
 70
     0
  9
$TDCREATE
 40
2458451.564039352
  9
$TDUCREATE
 40
2458451.772372685
  9
$TDUPDATE
 40
2458451.564039352
  9
$TDUUPDATE
 40
2458451.772372685
  9
$TDINDWG
 40
0.0000000116
  9
$TDUSRTIMER
 40
0.0000000116
  9
$USRTIMER
 70
     1
  9
$ANGBASE
 50
0.0
  9
$ANGDIR
 70
     0
  9
$PDMODE
 70
     0
  9
$PDSIZE
 40
0.0
  9
$PLINEWID
 40
0.0
  9
$SPLFRAME
 70
     0
  9
$SPLINETYPE
 70
     6
  9
$SPLINESEGS
 70
     8
  9
$HANDSEED
  5
3CB
  9
$SURFTAB1
 70
     6
  9
$SURFTAB2
 70
     6
  9
$SURFTYPE
 70
     6
  9
$SURFU
 70
     6
  9
$SURFV
 70
     6
  9
$UCSBASE
  2

  9
$UCSNAME
  2

  9
$UCSORG
 10
0.0
 20
0.0
 30
0.0
  9
$UCSXDIR
 10
1.0
 20
0.0
 30
0.0
  9
$UCSYDIR
 10
0.0
 20
1.0
 30
0.0
  9
$UCSORTHOREF
  2

  9
$UCSORTHOVIEW
 70
     0
  9
$UCSORGTOP
 10
0.0
 20
0.0
 30
0.0
  9
$UCSORGBOTTOM
 10
0.0
 20
0.0
 30
0.0
  9
$UCSORGLEFT
 10
0.0
 20
0.0
 30
0.0
  9
$UCSORGRIGHT
 10
0.0
 20
0.0
 30
0.0
  9
$UCSORGFRONT
 10
0.0
 20
0.0
 30
0.0
  9
$UCSORGBACK
 10
0.0
 20
0.0
 30
0.0
  9
$PUCSBASE
  2

  9
$PUCSNAME
  2

  9
$PUCSORG
 10
0.0
 20
0.0
 30
0.0
  9
$PUCSXDIR
 10
1.0
 20
0.0
 30
0.0
  9
$PUCSYDIR
 10
0.0
 20
1.0
 30
0.0
  9
$PUCSORTHOREF
  2

  9
$PUCSORTHOVIEW
 70
     0
  9
$PUCSORGTOP
 10
0.0
 20
0.0
 30
0.0
  9
$PUCSORGBOTTOM
 10
0.0
 20
0.0
 30
0.0
  9
$PUCSORGLEFT
 10
0.0
 20
0.0
 30
0.0
  9
$PUCSORGRIGHT
 10
0.0
 20
0.0
 30
0.0
  9
$PUCSORGFRONT
 10
0.0
 20
0.0
 30
0.0
  9
$PUCSORGBACK
 10
0.0
 20
0.0
 30
0.0
  9
$USERI1
 70
     0
  9
$USERI2
 70
     0
  9
$USERI3
 70
     0
  9
$USERI4
 70
     0
  9
$USERI5
 70
     0
  9
$USERR1
 40
0.0
  9
$USERR2
 40
0.0
  9
$USERR3
 40
0.0
  9
$USERR4
 40
0.0
  9
$USERR5
 40
0.0
  9
$WORLDVIEW
 70
     1
  9
$SHADEDGE
 70
     3
  9
$SHADEDIF
 70
    70
  9
$TILEMODE
 70
     1
  9
$MAXACTVP
 70
    64
  9
$PINSBASE
 10
0.0
 20
0.0
 30
0.0
  9
$PLIMCHECK
 70
     0
  9
$PEXTMIN
 10
1.000000000000000E+20
 20
1.000000000000000E+20
 30
1.000000000000000E+20
  9
$PEXTMAX
 10
-1.000000000000000E+20
 20
-1.000000000000000E+20
 30
-1.000000000000000E+20
  9
$PLIMMIN
 10
0.0
 20
0.0
  9
$PLIMMAX
 10
12.0
 20
9.0
  9
$UNITMODE
 70
     0
  9
$VISRETAIN
 70
     1
  9
$PLINEGEN
 70
     0
  9
$PSLTSCALE
 70
     1
  9
$TREEDEPTH
 70
  3020
  9
$CMLSTYLE
  2
Standard
  9
$CMLJUST
 70
     0
  9
$CMLSCALE
 40
1.0
  9
$PROXYGRAPHICS
 70
     1
  9
$MEASUREMENT
 70
     0
  9
$CELWEIGHT
370
    -1
  9
$ENDCAPS
280
     0
  9
$JOINSTYLE
280
     0
  9
$LWDISPLAY
290
     1
  9
$INSUNITS
 70
     1
  9
$HYPERLINKBASE
  1

  9
$STYLESHEET
  1

  9
$XEDIT
290
     1
  9
$CEPSNTYPE
380
     0
  9
$PSTYLEMODE
290
     1
  9
$FINGERPRINTGUID
  2
{2AE77D6B-68B1-DD71-8E3A-A6BB4D05B9A1}
  9
$VERSIONGUID
  2
{FAEB1C32-E019-11D5-929B-00C0DF256EC4}
  9
$EXTNAMES
290
     1
  9
$PSVPSCALE
 40
0.0
  9
$OLESTARTUP
290
     0
  9
$SORTENTS
280
   127
  9
$INDEXCTL
280
     0
  9
$HIDETEXT
280
     1
  9
$XCLIPFRAME
280
     2
  9
$HALOGAP
280
     0
  9
$OBSCOLOR
 70
   257
  9
$OBSLTYPE
280
     0
  9
$INTERSECTIONDISPLAY
280
     0
  9
$INTERSECTIONCOLOR
 70
   257
  9
$DIMASSOC
280
     2
  9
$PROJECTNAME
  1

  9
$CAMERADISPLAY
290
     0
  9
$LENSLENGTH
 40
50.0
  9
$CAMERAHEIGHT
 40
0.0
  9
$STEPSPERSEC
 40
2.0
  9
$STEPSIZE
 40
6.0
  9
$3DDWFPREC
 40
2.0
  9
$PSOLWIDTH
 40
0.25
  9
$PSOLHEIGHT
 40
4.0
  9
$LOFTANG1
 40
1.570796326794897
  9
$LOFTANG2
 40
1.570796326794897
  9
$LOFTMAG1
 40
0.0
  9
$LOFTMAG2
 40
0.0
  9
$LOFTPARAM
 70
     7
  9
$LOFTNORMALS
280
     1
  9
$LATITUDE
 40
37.795
  9
$LONGITUDE
 40
-122.394
  9
$NORTHDIRECTION
 40
0.0
  9
$TIMEZONE
 70
 -8000
  9
$LIGHTGLYPHDISPLAY
280
     1
  9
$TILEMODELIGHTSYNCH
280
     1
  9
$CMATERIAL
347
3C
  9
$SOLIDHIST
280
     1
  9
$SHOWHIST
280
     1
  9
$DWFFRAME
280
     2
  9
$DGNFRAME
280
     2
  9
$REALWORLDSCALE
290
     1
  9
$INTERFERECOLOR
 62
   256
  9
$CSHADOW
280
     0
  9
$SHADOWPLANELOCATION
 40
0.0
  0
ENDSEC
  0
SECTION
  2
CLASSES
  0
CLASS
  1
ACDBDICTIONARYWDFLT
  2
AcDbDictionaryWithDefault
  3
ObjectDBX Classes
 90
        0
 91
        4
280
     0
281
     0
  0
CLASS
  1
VISUALSTYLE
  2
AcDbVisualStyle
  3
ObjectDBX Classes
 90
     4095
 91
        4
280
     0
281
     0
  0
CLASS
  1
MATERIAL
  2
AcDbMaterial
  3
ObjectDBX Classes
 90
     1153
 91
        4
280
     0
281
     0
  0
CLASS
  1
SUN
  2
AcDbSun
  3
SCENEOE
 90
     1024
 91
        4
280
     0
281
     0
  0
ENDSEC
  0
SECTION
  2
TABLES
  0
TABLE
  2
VPORT
  5
8
330
0
100
AcDbSymbolTable
 70
     1
  0
VPORT
  5
29
330
8
100
AcDbSymbolTableRecord
100
AcDbViewportTableRecord
  2
*Active
 70
     0
 10
0.0
 20
0.0
 11
1.0
 21
1.0
 12
0.0
 22
0.0
 13
0.0
 23
0.0
 14
0.5
 24
0.5
 15
0.5
 25
0.5
 16
0.0
 26
0.0
 36
1.0
 17
12.0
 27
-18.0
 37
0.0
 40
36.0
 41
0.6666666666666666
 42
50.0
 43
0.0
 44
0.0
 50
0.0
 51
0.0
 71
     0
 72
   100
 73
     1
 74
     3
 75
     0
 76
     0
 77
     0
 78
     0
281
     0
 65
     1
110
0.0
120
0.0
130
0.0
111
1.0
121
0.0
131
0.0
112
0.0
122
1.0
132
0.0
 79
     0
146
0.0
 60
     3
 61
     5
292
     1
282
     1
141
0.0
142
0.0
 63
   250
361
3F
  0
ENDTAB
  0
TABLE
  2
LTYPE
  5
5
330
0
100
AcDbSymbolTable
 70
     1
  0
LTYPE
  5
14
330
5
100
AcDbSymbolTableRecord
100
AcDbLinetypeTableRecord
  2
ByBlock
 70
     0
  3

 72
    65
 73
     0
 40
0.0
  0
LTYPE
  5
15
330
5
100
AcDbSymbolTableRecord
100
AcDbLinetypeTableRecord
  2
ByLayer
 70
     0
  3

 72
    65
 73
     0
 40
0.0
  0
LTYPE
  5
16
330
5
100
AcDbSymbolTableRecord
100
AcDbLinetypeTableRecord
  2
Continuous
 70
     0
  3
Solid line
 72
    65
 73
     0
 40
0.0
  0
ENDTAB
  0
TABLE
  2
LAYER
  5
2
330
0
100
AcDbSymbolTable
 70
     2
  0
LAYER
  5
10
330
2
100
AcDbSymbolTableRecord
100
AcDbLayerTableRecord
  2
0
 70
     0
 62
     7
  6
Continuous
370
    -3
390
F
347
3E
  0
LAYER
  5
40
330
2
100
AcDbSymbolTableRecord
100
AcDbLayerTableRecord
  2
Layer 1
 70
     0
 62
     7
  6
Continuous
370
    -3
390
F
347
3E
  0
ENDTAB
  0
TABLE
  2
STYLE
  5
3
330
0
100
AcDbSymbolTable
 70
     1
  0
STYLE
  5
11
330
3
100
AcDbSymbolTableRecord
100
AcDbTextStyleTableRecord
  2
Standard
 70
     0
 40
0.0
 41
1.0
 50
0.0
 71
     0
 42
0.2
  3
txt
  4

  0
ENDTAB
  0
TABLE
  2
VIEW
  5
6
330
0
100
AcDbSymbolTable
 70
     0
  0
ENDTAB
  0
TABLE
  2
UCS
  5
7
330
0
100
AcDbSymbolTable
 70
     0
  0
ENDTAB
  0
TABLE
  2
APPID
  5
9
330
0
100
AcDbSymbolTable
 70
     1
  0
APPID
  5
12
330
9
100
AcDbSymbolTableRecord
100
AcDbRegAppTableRecord
  2
ACAD
 70
     0
  0
ENDTAB
  0
TABLE
  2
DIMSTYLE
  5
A
330
0
100
AcDbSymbolTable
 70
     1
100
AcDbDimStyleTable
  0
DIMSTYLE
105
27
330
A
100
AcDbSymbolTableRecord
100
AcDbDimStyleTableRecord
  2
Standard
 70
     0
178
     0
340
11
  0
ENDTAB
  0
TABLE
  2
BLOCK_RECORD
  5
1
330
0
100
AcDbSymbolTable
 70
     5
  0
BLOCK_RECORD
  5
1F
330
1
100
AcDbSymbolTableRecord
100
AcDbBlockTableRecord
  2
*Model_Space
340
22
 70
     0
280
     1
281
     0
  0
BLOCK_RECORD
  5
1B
330
1
100
AcDbSymbolTableRecord
100
AcDbBlockTableRecord
  2
*Paper_Space
340
1E
 70
     0
280
     1
281
     0
  0
BLOCK_RECORD
  5
23
330
1
100
AcDbSymbolTableRecord
100
AcDbBlockTableRecord
  2
*Paper_Space0
340
26
 70
     0
280
     1
281
     0
  0
BLOCK_RECORD
  5
1C7
330
1
100
AcDbSymbolTableRecord
100
AcDbBlockTableRecord
  2
block 2
340
0
102
{BLKREFS
331
1C8
102
}
 70
     0
280
     1
281
     0
  0
BLOCK_RECORD
  5
1D2
330
1
100
AcDbSymbolTableRecord
100
AcDbBlockTableRecord
  2
block 3
340
0
102
{BLKREFS
331
1D3
102
}
 70
     0
280
     1
281
     0
  0
BLOCK_RECORD
  5
2C5
330
1
100
AcDbSymbolTableRecord
100
AcDbBlockTableRecord
  2
block 4
340
0
102
{BLKREFS
331
2C6
102
}
 70
     0
280
     1
281
     0
  0
BLOCK_RECORD
  5
2D0
330
1
100
AcDbSymbolTableRecord
100
AcDbBlockTableRecord
  2
block 5
340
0
102
{BLKREFS
331
2D1
102
}
 70
     0
280
     1
281
     0
  0
ENDTAB
  0
ENDSEC
  0
SECTION
  2
BLOCKS
  0
BLOCK
  5
20
330
1F
100
AcDbEntity
  8
0
100
AcDbBlockBegin
  2
*Model_Space
 70
     0
 10
0.0
 20
0.0
 30
0.0
  3
*Model_Space
  1

  0
ENDBLK
  5
21
330
1F
100
AcDbEntity
  8
0
100
AcDbBlockEnd
  0
BLOCK
  5
1C
330
1B
100
AcDbEntity
 67
     1
  8
0
100
AcDbBlockBegin
  2
*Paper_Space
 70
     0
 10
0.0
 20
0.0
 30
0.0
  3
*Paper_Space
  1

  0
ENDBLK
  5
1D
330
1B
100
AcDbEntity
 67
     1
  8
0
100
AcDbBlockEnd
  0
BLOCK
  5
24
330
23
100
AcDbEntity
  8
0
100
AcDbBlockBegin
  2
*Paper_Space0
 70
     0
 10
0.0
 20
0.0
 30
0.0
  3
*Paper_Space0
  1

  0
ENDBLK
  5
25
330
23
100
AcDbEntity
  8
0
100
AcDbBlockEnd
  0
BLOCK
  5
1C9
330
1C7
100
AcDbEntity
  8
0
100
AcDbBlockBegin
  2
block 2
 70
     0
 10
0.0
 20
0.0
 30
0.0
  3
block 2
  1

  0
POLYLINE
  5
1CB
330
1C7
100
AcDbEntity
  8
Layer 1
 62
    22
420
 15540004
370
    25
100
AcDb2dPolyline
 66
     1
 10
0.0
 20
0.0
 30
0.0
  0
VERTEX
  5
1CC
330
1CB
100
AcDbEntity
  8
Layer 1
 62
    22
420
 15540004
370
    25
100
AcDbVertex
100
AcDb2dVertex
 10
5.888272569318284
 20
-7.345712767786785
 30
0.0
  0
VERTEX
  5
1CD
330
1CB
100
AcDbEntity
  8
Layer 1
 62
    22
420
 15540004
370
    25
100
AcDbVertex
100
AcDb2dVertex
 10
7.668287613358276
 20
-7.587340353565574
 30
0.0
  0
VERTEX
  5
1CE
330
1CB
100
AcDbEntity
  8
Layer 1
 62
    22
420
 15540004
370
    25
100
AcDbVertex
100
AcDb2dVertex
 10
7.976394659173074
 20
-5.30815723555381
 30
0.0
  0
VERTEX
  5
1CF
330
1CB
100
AcDbEntity
  8
Layer 1
 62
    22
420
 15540004
370
    25
100
AcDbVertex
100
AcDb2dVertex
 10
6.196379615133032
 20
-5.066529649775021
 30
0.0
  0
VERTEX
  5
1D0
330
1CB
100
AcDbEntity
  8
Layer 1
 62
    22
420
 15540004
370
    25
100
AcDbVertex
100
AcDb2dVertex
 10
5.888272569318284
 20
-7.345712767786785
 30
0.0
  0
SEQEND
  5
1D1
330
1CB
100
AcDbEntity
  8
Layer 1
 62
    22
420
 15540004
370
    25
  0
INSERT
  5
1D3
330
1C7
100
AcDbEntity
  8
Layer 1
100
AcDbBlockReference
  2
block 3
 10
0.0
 20
0.0
 30
0.0
  0
ENDBLK
  5
1CA
330
1C7
100
AcDbEntity
  8
0
100
AcDbBlockEnd
  0
BLOCK
  5
1D4
330
1D2
100
AcDbEntity
  8
0
100
AcDbBlockBegin
  2
block 3
 70
     0
 10
0.0
 20
0.0
 30
0.0
  3
block 3
  1

  0
POLYLINE
  5
1D6
330
1D2
100
AcDbEntity
  8
Layer 1
 62
    22
420
 15540004
370
    25
100
AcDb2dPolyline
 66
     1
 10
0.0
 20
0.0
 30
0.0
  0
VERTEX
  5
1D7
330
1D6
100
AcDbEntity
  8
Layer 1
 62
    22
420
 15540004
370
    25
100
AcDbVertex
100
AcDb2dVertex
 10
20.46380175938478
 20
-15.66782163552246
 30
0.0
  0
VERTEX
  5
3C3
330
1D6
100
AcDbEntity
  8
0
100
AcDbVertex
100
AcDb2dVertex
 10
20.46380175938478
 20
-15.66782163552246
 30
0.0
  0
SEQEND
  5
1D8
330
1D6
100
AcDbEntity
  8
Layer 1
 62
    22
420
 15540004
370
    25
  0
POLYLINE
  5
1D9
330
1D2
100
AcDbEntity
  8
Layer 1
 62
    22
420
 15540004
370
    25
100
AcDb2dPolyline
 66
     1
 10
0.0
 20
0.0
 30
0.0
  0
VERTEX
  5
1DA
330
1D9
100
AcDbEntity
  8
Layer 1
 62
    22
420
 15540004
370
    25
100
AcDbVertex
100
AcDb2dVertex
 10
20.31134052531327
 20
-12.19172069866474
 30
0.0
  0
VERTEX
  5
3C4
330
1D9
100
AcDbEntity
  8
0
100
AcDbVertex
100
AcDb2dVertex
 10
20.31134052531327
 20
-12.19172069866474
 30
0.0
  0
SEQEND
  5
1DB
330
1D9
100
AcDbEntity
  8
Layer 1
 62
    22
420
 15540004
370
    25
  0
POLYLINE
  5
1DC
330
1D2
100
AcDbEntity
  8
Layer 1
 62
    22
420
 15540004
370
    25
100
AcDb2dPolyline
 66
     1
 10
0.0
 20
0.0
 30
0.0
  0
VERTEX
  5
1DD
330
1DC
100
AcDbEntity
  8
Layer 1
 62
    22
420
 15540004
370
    25
100
AcDbVertex
100
AcDb2dVertex
 10
0.0385375696539541
 20
-6.946535108149065
 30
0.0
  0
VERTEX
  5
1DE
330
1DC
100
AcDbEntity
  8
Layer 1
 62
    22
420
 15540004
370
    25
100
AcDbVertex
100
AcDb2dVertex
 10
0.1615775221258673
 20
-6.995163730089795
 30
0.0
  0
VERTEX
  5
1DF
330
1DC
100
AcDbEntity
  8
Layer 1
 62
    22
420
 15540004
370
    25
100
AcDbVertex
100
AcDb2dVertex
 10
0.2837526280271605
 20
-7.045805134594275
 30
0.0
  0
VERTEX
  5
1E0
330
1DC
100
AcDbEntity
  8
Layer 1
 62
    22
420
 15540004
370
    25
100
AcDbVertex
100
AcDb2dVertex
 10
0.4050244470713172
 20
-7.098466241671379
 30
0.0
  0
VERTEX
  5
1E1
330
1DC
100
AcDbEntity
  8
Layer 1
 62
    22
420
 15540004
370
    25
100
AcDbVertex
100
AcDb2dVertex
 10
0.5253544591373485
 20
-7.153154031329954
 30
0.0
  0
VERTEX
  5
1E2
330
1DC
100
AcDbEntity
  8
Layer 1
 62
    22
420
 15540004
370
    25
100
AcDbVertex
100
AcDb2dVertex
 10
0.6447042438974222
 20
-7.209875423578801
 30
0.0
  0
VERTEX
  5
1E3
330
1DC
100
AcDbEntity
  8
Layer 1
 62
    22
420
 15540004
370
    25
100
AcDbVertex
100
AcDb2dVertex
 10
0.7630352612719787
 20
-7.26863737842685
 30
0.0
  0
VERTEX
  5
1E4
330
1DC
100
AcDbEntity
  8
Layer 1
 62
    22
420
 15540004
370
    25
100
AcDbVertex
100
AcDb2dVertex
 10
0.8803090709744007
 20
-7.329446835882891
 30
0.0
  0
VERTEX
  5
1E5
330
1DC
100
AcDbEntity
  8
Layer 1
 62
    22
420
 15540004
370
    25
100
AcDbVertex
100
AcDb2dVertex
 10
0.9964871928010426
 20
-7.39231075595583
 30
0.0
  0
VERTEX
  5
1E6
330
1DC
100
AcDbEntity
  8
Layer 1
 62
    22
420
 15540004
370
    25
100
AcDbVertex
100
AcDb2dVertex
 10
1.067323759255777
 20
-7.444201142051194
 30
0.0
  0
VERTEX
  5
1E7
330
1DC
100
AcDbEntity
  8
Layer 1
 62
    22
420
 15540004
370
    25
100
AcDbVertex
100
AcDb2dVertex
 10
1.137090763657638
 20
-7.497647690128714
 30
0.0
  0
VERTEX
  5
1E8
330
1DC
100
AcDbEntity
  8
Layer 1
 62
    22
420
 15540004
370
    25
100
AcDbVertex
100
AcDb2dVertex
 10
1.205659333249741
 20
-7.552691060240249
 30
0.0
  0
VERTEX
  5
1E9
330
1DC
100
AcDbEntity
  8
Layer 1
 62
    22
420
 15540004
370
    25
100
AcDbVertex
100
AcDb2dVertex
 10
1.272900535399104
 20
-7.609371892437442
 30
0.0
  0
VERTEX
  5
1EA
330
1DC
100
AcDbEntity
  8
Layer 1
 62
    22
420
 15540004
370
    25
100
AcDbVertex
100
AcDb2dVertex
 10
1.338685457431577
 20
-7.667730866772167
 30
0.0
  0
VERTEX
  5
1EB
330
1DC
100
AcDbEntity
  8
Layer 1
 62
    22
420
 15540004
370
    25
100
AcDbVertex
100
AcDb2dVertex
 10
1.402885166714289
 20
-7.727808663296299
 30
0.0
  0
VERTEX
  5
1EC
330
1DC
100
AcDbEntity
  8
Layer 1
 62
    22
420
 15540004
370
    25
100
AcDbVertex
100
AcDb2dVertex
 10
1.465370810448917
 20
-7.789645922061482
 30
0.0
  0
VERTEX
  5
1ED
330
1DC
100
AcDbEntity
  8
Layer 1
 62
    22
420
 15540004
370
    25
100
AcDbVertex
100
AcDb2dVertex
 10
1.526013416085258
 20
-7.853283303119597
 30
0.0
  0
VERTEX
  5
1EE
330
1DC
100
AcDbEntity
  8
Layer 1
 62
    22
420
 15540004
370
    25
100
AcDbVertex
100
AcDb2dVertex
 10
1.548704242196878
 20
-7.880122437305949
 30
0.0
  0
VERTEX
  5
1EF
330
1DC
100
AcDbEntity
  8
Layer 1
 62
    22
420
 15540004
370
    25
100
AcDbVertex
100
AcDb2dVertex
 10
1.569703017109229
 20
-7.9084415333774
 30
0.0
  0
VERTEX
  5
1F0
330
1DC
100
AcDbEntity
  8
Layer 1
 62
    22
420
 15540004
370
    25
100
AcDbVertex
100
AcDb2dVertex
 10
1.607936871695895
 20
-7.968340629673876
 30
0.0
  0
VERTEX
  5
1F1
330
1DC
100
AcDbEntity
  8
Layer 1
 62
    22
420
 15540004
370
    25
100
AcDbVertex
100
AcDb2dVertex
 10
1.678536868723882
 20
-8.092930448370124
 30
0.0
  0
VERTEX
  5
1F2
330
1DC
100
AcDbEntity
  8
Layer 1
 62
    22
420
 15540004
370
    25
100
AcDbVertex
100
AcDb2dVertex
 10
1.716152824644862
 20
-8.152905684763608
 30
0.0
  0
VERTEX
  5
1F3
330
1DC
100
AcDbEntity
  8
Layer 1
 62
    22
420
 15540004
370
    25
100
AcDbVertex
100
AcDb2dVertex
 10
1.736688160589059
 20
-8.18128186090775
 30
0.0
  0
VERTEX
  5
1F4
330
1DC
100
AcDbEntity
  8
Layer 1
 62
    22
420
 15540004
370
    25
100
AcDbVertex
100
AcDb2dVertex
 10
1.758812581253702
 20
-8.208190795183024
 30
0.0
  0
VERTEX
  5
1F5
330
1DC
100
AcDbEntity
  8
Layer 1
 62
    22
420
 15540004
370
    25
100
AcDbVertex
100
AcDb2dVertex
 10
1.782854166301124
 20
-8.233337767213975
 30
0.0
  0
VERTEX
  5
1F6
330
1DC
100
AcDbEntity
  8
Layer 1
 62
    22
420
 15540004
370
    25
100
AcDbVertex
100
AcDb2dVertex
 10
1.809141055269518
 20
-8.25642805662523
 30
0.0
  0
VERTEX
  5
1F7
330
1DC
100
AcDbEntity
  8
Layer 1
 62
    22
420
 15540004
370
    25
100
AcDbVertex
100
AcDb2dVertex
 10
1.838001347779734
 20
-8.277166963041408
 30
0.0
  0
VERTEX
  5
1F8
330
1DC
100
AcDbEntity
  8
Layer 1
 62
    22
420
 15540004
370
    25
100
AcDbVertex
100
AcDb2dVertex
 10
1.869763163411436
 20
-8.295259726087048
 30
0.0
  0
VERTEX
  5
1F9
330
1DC
100
AcDbEntity
  8
Layer 1
 62
    22
420
 15540004
370
    25
100
AcDbVertex
100
AcDb2dVertex
 10
2.02406704398273
 20
-8.387291303312294
 30
0.0
  0
VERTEX
  5
1FA
330
1DC
100
AcDbEntity
  8
Layer 1
 62
    22
420
 15540004
370
    25
100
AcDbVertex
100
AcDb2dVertex
 10
2.180531883381137
 20
-8.47548245564576
 30
0.0
  0
VERTEX
  5
1FB
330
1DC
100
AcDbEntity
  8
Layer 1
 62
    22
420
 15540004
370
    25
100
AcDbVertex
100
AcDb2dVertex
 10
2.338669094787418
 20
-8.560704744197665
 30
0.0
  0
VERTEX
  5
1FC
330
1DC
100
AcDbEntity
  8
Layer 1
 62
    22
420
 15540004
370
    25
100
AcDbVertex
100
AcDb2dVertex
 10
2.497990091382349
 20
-8.64382973007812
 30
0.0
  0
VERTEX
  5
1FD
330
1DC
100
AcDbEntity
  8
Layer 1
 62
    22
420
 15540004
370
    25
100
AcDbVertex
100
AcDb2dVertex
 10
2.81822909286172
 20
-8.807274078265335
 30
0.0
  0
VERTEX
  5
1FE
330
1DC
100
AcDbEntity
  8
Layer 1
 62
    22
420
 15540004
370
    25
100
AcDbVertex
100
AcDb2dVertex
 10
2.978169964024902
 20
-8.889336582792465
 30
0.0
  0
VERTEX
  5
1FF
330
1DC
100
AcDbEntity
  8
Layer 1
 62
    22
420
 15540004
370
    25
100
AcDbVertex
100
AcDb2dVertex
 10
3.137340293058691
 20
-8.972788049088775
 30
0.0
  0
VERTEX
  5
200
330
1DC
100
AcDbEntity
  8
Layer 1
 62
    22
420
 15540004
370
    25
100
AcDbVertex
100
AcDb2dVertex
 10
8.003638734056544
 20
-11.49730805806105
 30
0.0
  0
VERTEX
  5
201
330
1DC
100
AcDbEntity
  8
Layer 1
 62
    22
420
 15540004
370
    25
100
AcDbVertex
100
AcDb2dVertex
 10
20.44994161099524
 20
-17.95415426910396
 30
0.0
  0
VERTEX
  5
202
330
1DC
100
AcDbEntity
  8
Layer 1
 62
    22
420
 15540004
370
    25
100
AcDbVertex
100
AcDb2dVertex
 10
20.62261430023091
 20
-18.03773193556102
 30
0.0
  0
VERTEX
  5
203
330
1DC
100
AcDbEntity
  8
Layer 1
 62
    22
420
 15540004
370
    25
100
AcDbVertex
100
AcDb2dVertex
 10
20.71026162627107
 20
-18.07724104588573
 30
0.0
  0
VERTEX
  5
204
330
1DC
100
AcDbEntity
  8
Layer 1
 62
    22
420
 15540004
370
    25
100
AcDbVertex
100
AcDb2dVertex
 10
20.79903052650664
 20
-18.11370299232916
 30
0.0
  0
VERTEX
  5
205
330
1DC
100
AcDbEntity
  8
Layer 1
 62
    22
420
 15540004
370
    25
100
AcDbVertex
100
AcDb2dVertex
 10
20.88910669586271
 20
-18.14597229343217
 30
0.0
  0
VERTEX
  5
206
330
1DC
100
AcDbEntity
  8
Layer 1
 62
    22
420
 15540004
370
    25
100
AcDbVertex
100
AcDb2dVertex
 10
20.93469304360951
 20
-18.16017675152514
 30
0.0
  0
VERTEX
  5
207
330
1DC
100
AcDbEntity
  8
Layer 1
 62
    22
420
 15540004
370
    25
100
AcDbVertex
100
AcDb2dVertex
 10
20.98067582926438
 20
-18.17290348773579
 30
0.0
  0
VERTEX
  5
208
330
1DC
100
AcDbEntity
  8
Layer 1
 62
    22
420
 15540004
370
    25
100
AcDbVertex
100
AcDb2dVertex
 10
21.02707828465155
 20
-18.18400930188182
 30
0.0
  0
VERTEX
  5
209
330
1DC
100
AcDbEntity
  8
Layer 1
 62
    22
420
 15540004
370
    25
100
AcDbVertex
100
AcDb2dVertex
 10
21.07392360167806
 20
-18.19335103378085
 30
0.0
  0
VERTEX
  5
20A
330
1DC
100
AcDbEntity
  8
Layer 1
 62
    22
420
 15540004
370
    25
100
AcDbVertex
100
AcDb2dVertex
 10
21.12123501216815
 20
-18.20078548325048
 30
0.0
  0
VERTEX
  5
20B
330
1DC
100
AcDbEntity
  8
Layer 1
 62
    22
420
 15540004
370
    25
100
AcDbVertex
100
AcDb2dVertex
 10
21.16903570802884
 20
-18.20616947010831
 30
0.0
  0
VERTEX
  5
20C
330
1DC
100
AcDbEntity
  8
Layer 1
 62
    22
420
 15540004
370
    25
100
AcDbVertex
100
AcDb2dVertex
 10
21.30498976057568
 20
-18.18815026715636
 30
0.0
  0
VERTEX
  5
20D
330
1DC
100
AcDbEntity
  8
Layer 1
 62
    22
420
 15540004
370
    25
100
AcDbVertex
100
AcDb2dVertex
 10
21.37345043391181
 20
-18.1783108546234
 30
0.0
  0
VERTEX
  5
20E
330
1DC
100
AcDbEntity
  8
Layer 1
 62
    22
420
 15540004
370
    25
100
AcDbVertex
100
AcDb2dVertex
 10
21.44141501599072
 20
-18.1661620591489
 30
0.0
  0
VERTEX
  5
20F
330
1DC
100
AcDbEntity
  8
Layer 1
 62
    22
420
 15540004
370
    25
100
AcDbVertex
100
AcDb2dVertex
 10
21.50826961982769
 20
-18.15038679905514
 30
0.0
  0
VERTEX
  5
210
330
1DC
100
AcDbEntity
  8
Layer 1
 62
    22
420
 15540004
370
    25
100
AcDbVertex
100
AcDb2dVertex
 10
21.54108882275897
 20
-18.14072764675183
 30
0.0
  0
VERTEX
  5
211
330
1DC
100
AcDbEntity
  8
Layer 1
 62
    22
420
 15540004
370
    25
100
AcDbVertex
100
AcDb2dVertex
 10
21.57340029856227
 20
-18.12966793266451
 30
0.0
  0
VERTEX
  5
212
330
1DC
100
AcDbEntity
  8
Layer 1
 62
    22
420
 15540004
370
    25
100
AcDbVertex
100
AcDb2dVertex
 10
21.60512734629204
 20
-18.11704307658359
 30
0.0
  0
VERTEX
  5
213
330
1DC
100
AcDbEntity
  8
Layer 1
 62
    22
420
 15540004
370
    25
100
AcDbVertex
100
AcDb2dVertex
 10
21.63619318516834
 20
-18.10268837829926
 30
0.0
  0
VERTEX
  5
214
330
1DC
100
AcDbEntity
  8
Layer 1
 62
    22
420
 15540004
370
    25
100
AcDbVertex
100
AcDb2dVertex
 10
21.66652111424567
 20
-18.08643923760193
 30
0.0
  0
VERTEX
  5
215
330
1DC
100
AcDbEntity
  8
Layer 1
 62
    22
420
 15540004
370
    25
100
AcDbVertex
100
AcDb2dVertex
 10
21.69603437270269
 20
-18.06813099428182
 30
0.0
  0
VERTEX
  5
216
330
1DC
100
AcDbEntity
  8
Layer 1
 62
    22
420
 15540004
370
    25
100
AcDbVertex
100
AcDb2dVertex
 10
21.84325755649065
 20
-17.97812111963175
 30
0.0
  0
VERTEX
  5
217
330
1DC
100
AcDbEntity
  8
Layer 1
 62
    22
420
 15540004
370
    25
100
AcDbVertex
100
AcDb2dVertex
 10
21.99029899715871
 20
-17.88725180388696
 30
0.0
  0
VERTEX
  5
218
330
1DC
100
AcDbEntity
  8
Layer 1
 62
    22
420
 15540004
370
    25
100
AcDbVertex
100
AcDb2dVertex
 10
22.06275314923166
 20
-17.84024542401256
 30
0.0
  0
VERTEX
  5
219
330
1DC
100
AcDbEntity
  8
Layer 1
 62
    22
420
 15540004
370
    25
100
AcDbVertex
100
AcDb2dVertex
 10
22.13396376003192
 20
-17.7915248819548
 30
0.0
  0
VERTEX
  5
21A
330
1DC
100
AcDbEntity
  8
Layer 1
 62
    22
420
 15540004
370
    25
100
AcDbVertex
100
AcDb2dVertex
 10
22.20353147769406
 20
-17.74059037707694
 30
0.0
  0
VERTEX
  5
21B
330
1DC
100
AcDbEntity
  8
Layer 1
 62
    22
420
 15540004
370
    25
100
AcDbVertex
100
AcDb2dVertex
 10
22.27105691043544
 20
-17.68694216874256
 30
0.0
  0
VERTEX
  5
21C
330
1DC
100
AcDbEntity
  8
Layer 1
 62
    22
420
 15540004
370
    25
100
AcDbVertex
100
AcDb2dVertex
 10
22.33723705290067
 20
-17.58856714343736
 30
0.0
  0
VERTEX
  5
21D
330
1DC
100
AcDbEntity
  8
Layer 1
 62
    22
420
 15540004
370
    25
100
AcDbVertex
100
AcDb2dVertex
 10
22.40521824054465
 20
-17.48841573586949
 30
0.0
  0
VERTEX
  5
21E
330
1DC
100
AcDbEntity
  8
Layer 1
 62
    22
420
 15540004
370
    25
100
AcDbVertex
100
AcDb2dVertex
 10
22.47121280783646
 20
-17.38593878533948
 30
0.0
  0
VERTEX
  5
21F
330
1DC
100
AcDbEntity
  8
Layer 1
 62
    22
420
 15540004
370
    25
100
AcDbVertex
100
AcDb2dVertex
 10
22.50228146087705
 20
-17.33365665874516
 30
0.0
  0
VERTEX
  5
220
330
1DC
100
AcDbEntity
  8
Layer 1
 62
    22
420
 15540004
370
    25
100
AcDbVertex
100
AcDb2dVertex
 10
22.53143310920374
 20
-17.28058723114797
 30
0.0
  0
VERTEX
  5
221
330
1DC
100
AcDbEntity
  8
Layer 1
 62
    22
420
 15540004
370
    25
100
AcDbVertex
100
AcDb2dVertex
 10
22.55819427466657
 20
-17.22666186246051
 30
0.0
  0
VERTEX
  5
222
330
1DC
100
AcDbEntity
  8
Layer 1
 62
    22
420
 15540004
370
    25
100
AcDbVertex
100
AcDb2dVertex
 10
22.58209149907417
 20
-17.17181193259542
 30
0.0
  0
VERTEX
  5
223
330
1DC
100
AcDbEntity
  8
Layer 1
 62
    22
420
 15540004
370
    25
100
AcDbVertex
100
AcDb2dVertex
 10
22.60265132423514
 20
-17.11596880146524
 30
0.0
  0
VERTEX
  5
224
330
1DC
100
AcDbEntity
  8
Layer 1
 62
    22
420
 15540004
370
    25
100
AcDbVertex
100
AcDb2dVertex
 10
22.61940029195812
 20
-17.0590638089825
 30
0.0
  0
VERTEX
  5
225
330
1DC
100
AcDbEntity
  8
Layer 1
 62
    22
420
 15540004
370
    25
100
AcDbVertex
100
AcDb2dVertex
 10
22.63186496401037
 20
-17.0010283350598
 30
0.0
  0
VERTEX
  5
226
330
1DC
100
AcDbEntity
  8
Layer 1
 62
    22
420
 15540004
370
    25
100
AcDbVertex
100
AcDb2dVertex
 10
22.63957188220052
 20
-16.94179373960974
 30
0.0
  0
VERTEX
  5
227
330
1DC
100
AcDbEntity
  8
Layer 1
 62
    22
420
 15540004
370
    25
100
AcDbVertex
100
AcDb2dVertex
 10
22.64204756837858
 20
-16.88129138254488
 30
0.0
  0
VERTEX
  5
228
330
1DC
100
AcDbEntity
  8
Layer 1
 62
    22
420
 15540004
370
    25
100
AcDbVertex
100
AcDb2dVertex
 10
22.63881856435319
 20
-16.81945262377778
 30
0.0
  0
VERTEX
  5
229
330
1DC
100
AcDbEntity
  8
Layer 1
 62
    22
420
 15540004
370
    25
100
AcDbVertex
100
AcDb2dVertex
 10
22.63942728205737
 20
-16.79040402677712
 30
0.0
  0
VERTEX
  5
22A
330
1DC
100
AcDbEntity
  8
Layer 1
 62
    22
420
 15540004
370
    25
100
AcDbVertex
100
AcDb2dVertex
 10
22.63801956124318
 20
-16.76147670993092
 30
0.0
  0
VERTEX
  5
22B
330
1DC
100
AcDbEntity
  8
Layer 1
 62
    22
420
 15540004
370
    25
100
AcDbVertex
100
AcDb2dVertex
 10
22.63454624384955
 20
-16.73280229340687
 30
0.0
  0
VERTEX
  5
22C
330
1DC
100
AcDbEntity
  8
Layer 1
 62
    22
420
 15540004
370
    25
100
AcDbVertex
100
AcDb2dVertex
 10
22.62895817181541
 20
-16.70451243737266
 30
0.0
  0
VERTEX
  5
22D
330
1DC
100
AcDbEntity
  8
Layer 1
 62
    22
420
 15540004
370
    25
100
AcDbVertex
100
AcDb2dVertex
 10
22.62120624695545
 20
-16.676738761996
 30
0.0
  0
VERTEX
  5
22E
330
1DC
100
AcDbEntity
  8
Layer 1
 62
    22
420
 15540004
370
    25
100
AcDbVertex
100
AcDb2dVertex
 10
22.61124129124995
 20
-16.64961290744441
 30
0.0
  0
VERTEX
  5
22F
330
1DC
100
AcDbEntity
  8
Layer 1
 62
    22
420
 15540004
370
    25
100
AcDbVertex
100
AcDb2dVertex
 10
22.5990141865551
 20
-16.62326649388567
 30
0.0
  0
VERTEX
  5
230
330
1DC
100
AcDbEntity
  8
Layer 1
 62
    22
420
 15540004
370
    25
100
AcDbVertex
100
AcDb2dVertex
 10
22.58447577480974
 20
-16.59783120148748
 30
0.0
  0
VERTEX
  5
231
330
1DC
100
AcDbEntity
  8
Layer 1
 62
    22
420
 15540004
370
    25
100
AcDbVertex
100
AcDb2dVertex
 10
22.51705734018671
 20
-16.48069275228237
 30
0.0
  0
VERTEX
  5
232
330
1DC
100
AcDbEntity
  8
Layer 1
 62
    22
420
 15540004
370
    25
100
AcDbVertex
100
AcDb2dVertex
 10
22.4489932045517
 20
-16.3635267030421
 30
0.0
  0
VERTEX
  5
233
330
1DC
100
AcDbEntity
  8
Layer 1
 62
    22
420
 15540004
370
    25
100
AcDbVertex
100
AcDb2dVertex
 10
22.41278888133279
 20
-16.30642899031389
 30
0.0
  0
VERTEX
  5
234
330
1DC
100
AcDbEntity
  8
Layer 1
 62
    22
420
 15540004
370
    25
100
AcDbVertex
100
AcDb2dVertex
 10
22.3741069958263
 20
-16.25111917986305
 30
0.0
  0
VERTEX
  5
235
330
1DC
100
AcDbEntity
  8
Layer 1
 62
    22
420
 15540004
370
    25
100
AcDbVertex
100
AcDb2dVertex
 10
22.33217548904827
 20
-16.19819555245155
 30
0.0
  0
VERTEX
  5
236
330
1DC
100
AcDbEntity
  8
Layer 1
 62
    22
420
 15540004
370
    25
100
AcDbVertex
100
AcDb2dVertex
 10
22.28622234193209
 20
-16.14825632884145
 30
0.0
  0
VERTEX
  5
237
330
1DC
100
AcDbEntity
  8
Layer 1
 62
    22
420
 15540004
370
    25
100
AcDbVertex
100
AcDb2dVertex
 10
16.78622664417495
 20
-10.23919614217607
 30
0.0
  0
VERTEX
  5
238
330
1DC
100
AcDbEntity
  8
Layer 1
 62
    22
420
 15540004
370
    25
100
AcDbVertex
100
AcDb2dVertex
 10
16.44023778009753
 20
-9.8673336485162
 30
0.0
  0
VERTEX
  5
239
330
1DC
100
AcDbEntity
  8
Layer 1
 62
    22
420
 15540004
370
    25
100
AcDbVertex
100
AcDb2dVertex
 10
16.0935687664439
 20
-9.496170475747123
 30
0.0
  0
VERTEX
  5
23A
330
1DC
100
AcDbEntity
  8
Layer 1
 62
    22
420
 15540004
370
    25
100
AcDbVertex
100
AcDb2dVertex
 10
15.74853110985075
 20
-9.123562961138305
 30
0.0
  0
VERTEX
  5
23B
330
1DC
100
AcDbEntity
  8
Layer 1
 62
    22
420
 15540004
370
    25
100
AcDbVertex
100
AcDb2dVertex
 10
15.57734639500771
 20
-8.936047662290699
 30
0.0
  0
VERTEX
  5
23C
330
1DC
100
AcDbEntity
  8
Layer 1
 62
    22
420
 15540004
370
    25
100
AcDbVertex
100
AcDb2dVertex
 10
15.4074363768305
 20
-8.747367421959224
 30
0.0
  0
VERTEX
  5
23D
330
1DC
100
AcDbEntity
  8
Layer 1
 62
    22
420
 15540004
370
    25
100
AcDbVertex
100
AcDb2dVertex
 10
15.379782801954
 20
-8.695818496298797
 30
0.0
  0
VERTEX
  5
23E
330
1DC
100
AcDbEntity
  8
Layer 1
 62
    22
420
 15540004
370
    25
100
AcDbVertex
100
AcDb2dVertex
 10
15.35553933554726
 20
-8.642581988488802
 30
0.0
  0
VERTEX
  5
23F
330
1DC
100
AcDbEntity
  8
Layer 1
 62
    22
420
 15540004
370
    25
100
AcDbVertex
100
AcDb2dVertex
 10
15.33376943970575
 20
-8.588109039103882
 30
0.0
  0
VERTEX
  5
240
330
1DC
100
AcDbEntity
  8
Layer 1
 62
    22
420
 15540004
370
    25
100
AcDbVertex
100
AcDb2dVertex
 10
15.31353647673177
 20
-8.532850848718756
 30
0.0
  0
VERTEX
  5
241
330
1DC
100
AcDbEntity
  8
Layer 1
 62
    22
420
 15540004
370
    25
100
AcDbVertex
100
AcDb2dVertex
 10
15.27393511793386
 20
-8.421783507246724
 30
0.0
  0
VERTEX
  5
242
330
1DC
100
AcDbEntity
  8
Layer 1
 62
    22
420
 15540004
370
    25
100
AcDbVertex
100
AcDb2dVertex
 10
15.25269352654919
 20
-8.366876717309221
 30
0.0
  0
VERTEX
  5
243
330
1DC
100
AcDbEntity
  8
Layer 1
 62
    22
420
 15540004
370
    25
100
AcDbVertex
100
AcDb2dVertex
 10
15.22924257670358
 20
-8.312989428670283
 30
0.0
  0
VERTEX
  5
244
330
1DC
100
AcDbEntity
  8
Layer 1
 62
    22
420
 15540004
370
    25
100
AcDbVertex
100
AcDb2dVertex
 10
15.21430932373912
 20
-8.280434927203967
 30
0.0
  0
VERTEX
  5
245
330
1DC
100
AcDbEntity
  8
Layer 1
 62
    22
420
 15540004
370
    25
100
AcDbVertex
100
AcDb2dVertex
 10
15.20098441555557
 20
-8.247409245137481
 30
0.0
  0
VERTEX
  5
246
330
1DC
100
AcDbEntity
  8
Layer 1
 62
    22
420
 15540004
370
    25
100
AcDbVertex
100
AcDb2dVertex
 10
15.17863003176469
 20
-8.180115699422357
 30
0.0
  0
VERTEX
  5
247
330
1DC
100
AcDbEntity
  8
Layer 1
 62
    22
420
 15540004
370
    25
100
AcDbVertex
100
AcDb2dVertex
 10
15.16112054113543
 20
-8.111451571961425
 30
0.0
  0
VERTEX
  5
248
330
1DC
100
AcDbEntity
  8
Layer 1
 62
    22
420
 15540004
370
    25
100
AcDbVertex
100
AcDb2dVertex
 10
15.14739693972072
 20
-8.0417596431913
 30
0.0
  0
VERTEX
  5
249
330
1DC
100
AcDbEntity
  8
Layer 1
 62
    22
420
 15540004
370
    25
100
AcDbVertex
100
AcDb2dVertex
 10
15.13640034332502
 20
-7.971382673548684
 30
0.0
  0
VERTEX
  5
24A
330
1DC
100
AcDbEntity
  8
Layer 1
 62
    22
420
 15540004
370
    25
100
AcDbVertex
100
AcDb2dVertex
 10
15.12707174800117
 20
-7.900663403469984
 30
0.0
  0
VERTEX
  5
24B
330
1DC
100
AcDbEntity
  8
Layer 1
 62
    22
420
 15540004
370
    25
100
AcDbVertex
100
AcDb2dVertex
 10
15.10918292399426
 20
-7.759569103751144
 30
0.0
  0
VERTEX
  5
24C
330
1DC
100
AcDbEntity
  8
Layer 1
 62
    22
420
 15540004
370
    25
100
AcDbVertex
100
AcDb2dVertex
 10
15.11139593488115
 20
-7.705300094625979
 30
0.0
  0
VERTEX
  5
24D
330
1DC
100
AcDbEntity
  8
Layer 1
 62
    22
420
 15540004
370
    25
100
AcDbVertex
100
AcDb2dVertex
 10
15.115560299253
 20
-7.65109618558376
 30
0.0
  0
VERTEX
  5
24E
330
1DC
100
AcDbEntity
  8
Layer 1
 62
    22
420
 15540004
370
    25
100
AcDbVertex
100
AcDb2dVertex
 10
15.12149002280562
 20
-7.597011256693046
 30
0.0
  0
VERTEX
  5
24F
330
1DC
100
AcDbEntity
  8
Layer 1
 62
    22
420
 15540004
370
    25
100
AcDbVertex
100
AcDb2dVertex
 10
15.12899909127603
 20
-7.543099168022561
 30
0.0
  0
VERTEX
  5
250
330
1DC
100
AcDbEntity
  8
Layer 1
 62
    22
420
 15540004
370
    25
100
AcDbVertex
100
AcDb2dVertex
 10
15.14801116600178
 20
-7.436009031616499
 30
0.0
  0
VERTEX
  5
251
330
1DC
100
AcDbEntity
  8
Layer 1
 62
    22
420
 15540004
370
    25
100
AcDbVertex
100
AcDb2dVertex
 10
15.17110842928602
 20
-7.330256756914523
 30
0.0
  0
VERTEX
  5
252
330
1DC
100
AcDbEntity
  8
Layer 1
 62
    22
420
 15540004
370
    25
100
AcDbVertex
100
AcDb2dVertex
 10
15.21739646195116
 20
-7.248149532330469
 30
0.0
  0
VERTEX
  5
253
330
1DC
100
AcDbEntity
  8
Layer 1
 62
    22
420
 15540004
370
    25
100
AcDbVertex
100
AcDb2dVertex
 10
15.26642818503493
 20
-7.167602769734028
 30
0.0
  0
VERTEX
  5
254
330
1DC
100
AcDbEntity
  8
Layer 1
 62
    22
420
 15540004
370
    25
100
AcDbVertex
100
AcDb2dVertex
 10
15.3183514519342
 20
-7.088915889506602
 30
0.0
  0
VERTEX
  5
255
330
1DC
100
AcDbEntity
  8
Layer 1
 62
    22
420
 15540004
370
    25
100
AcDbVertex
100
AcDb2dVertex
 10
15.37331415596307
 20
-7.012388332029609
 30
0.0
  0
VERTEX
  5
256
330
1DC
100
AcDbEntity
  8
Layer 1
 62
    22
420
 15540004
370
    25
100
AcDbVertex
100
AcDb2dVertex
 10
15.40665926831778
 20
-6.985035857189409
 30
0.0
  0
VERTEX
  5
257
330
1DC
100
AcDbEntity
  8
Layer 1
 62
    22
420
 15540004
370
    25
100
AcDbVertex
100
AcDb2dVertex
 10
15.44166721246387
 20
-6.95987082513544
 30
0.0
  0
VERTEX
  5
258
330
1DC
100
AcDbEntity
  8
Layer 1
 62
    22
420
 15540004
370
    25
100
AcDbVertex
100
AcDb2dVertex
 10
15.47795612028002
 20
-6.936382715217481
 30
0.0
  0
VERTEX
  5
259
330
1DC
100
AcDbEntity
  8
Layer 1
 62
    22
420
 15540004
370
    25
100
AcDbVertex
100
AcDb2dVertex
 10
15.51514408372759
 20
-6.914060926785092
 30
0.0
  0
VERTEX
  5
25A
330
1DC
100
AcDbEntity
  8
Layer 1
 62
    22
420
 15540004
370
    25
100
AcDbVertex
100
AcDb2dVertex
 10
15.59068962519695
 20
-6.870874231776043
 30
0.0
  0
VERTEX
  5
25B
330
1DC
100
AcDbEntity
  8
Layer 1
 62
    22
420
 15540004
370
    25
100
AcDbVertex
100
AcDb2dVertex
 10
15.66524867235618
 20
-6.826226334905767
 30
0.0
  0
VERTEX
  5
25C
330
1DC
100
AcDbEntity
  8
Layer 1
 62
    22
420
 15540004
370
    25
100
AcDbVertex
100
AcDb2dVertex
 10
19.12812723294426
 20
-4.741154679045772
 30
0.0
  0
VERTEX
  5
25D
330
1DC
100
AcDbEntity
  8
Layer 1
 62
    22
420
 15540004
370
    25
100
AcDbVertex
100
AcDb2dVertex
 10
22.59079471125288
 20
-2.654678061396175
 30
0.0
  0
VERTEX
  5
25E
330
1DC
100
AcDbEntity
  8
Layer 1
 62
    22
420
 15540004
370
    25
100
AcDbVertex
100
AcDb2dVertex
 10
22.82106124832353
 20
-2.501024945680531
 30
0.0
  0
VERTEX
  5
25F
330
1DC
100
AcDbEntity
  8
Layer 1
 62
    22
420
 15540004
370
    25
100
AcDbVertex
100
AcDb2dVertex
 10
23.05014134571009
 20
-2.345483027558986
 30
0.0
  0
VERTEX
  5
260
330
1DC
100
AcDbEntity
  8
Layer 1
 62
    22
420
 15540004
370
    25
100
AcDbVertex
100
AcDb2dVertex
 10
23.27892523733754
 20
-2.189403628752871
 30
0.0
  0
VERTEX
  5
261
330
1DC
100
AcDbEntity
  8
Layer 1
 62
    22
420
 15540004
370
    25
100
AcDbVertex
100
AcDb2dVertex
 10
23.5083031770894
 20
-2.034138090983384
 30
0.0
  0
VERTEX
  5
262
330
1DC
100
AcDbEntity
  8
Layer 1
 62
    22
420
 15540004
370
    25
100
AcDbVertex
100
AcDb2dVertex
 10
23.5312767368971
 20
-2.018668371278813
 30
0.0
  0
VERTEX
  5
263
330
1DC
100
AcDbEntity
  8
Layer 1
 62
    22
420
 15540004
370
    25
100
AcDbVertex
100
AcDb2dVertex
 10
23.55300871137607
 20
-2.001945529978128
 30
0.0
  0
VERTEX
  5
264
330
1DC
100
AcDbEntity
  8
Layer 1
 62
    22
420
 15540004
370
    25
100
AcDbVertex
100
AcDb2dVertex
 10
23.59319956773485
 20
-1.965212543189485
 30
0.0
  0
VERTEX
  5
265
330
1DC
100
AcDbEntity
  8
Layer 1
 62
    22
420
 15540004
370
    25
100
AcDbVertex
100
AcDb2dVertex
 10
23.62977915277464
 20
-1.924883311820117
 30
0.0
  0
VERTEX
  5
266
330
1DC
100
AcDbEntity
  8
Layer 1
 62
    22
420
 15540004
370
    25
100
AcDbVertex
100
AcDb2dVertex
 10
23.6636508930628
 20
-1.88190197707263
 30
0.0
  0
VERTEX
  5
267
330
1DC
100
AcDbEntity
  8
Layer 1
 62
    22
420
 15540004
370
    25
100
AcDbVertex
100
AcDb2dVertex
 10
23.69571817524957
 20
-1.837212740149728
 30
0.0
  0
VERTEX
  5
268
330
1DC
100
AcDbEntity
  8
Layer 1
 62
    22
420
 15540004
370
    25
100
AcDbVertex
100
AcDb2dVertex
 10
23.72688440594371
 20
-1.791759742253993
 30
0.0
  0
VERTEX
  5
269
330
1DC
100
AcDbEntity
  8
Layer 1
 62
    22
420
 15540004
370
    25
100
AcDbVertex
100
AcDb2dVertex
 10
23.75805301171266
 20
-1.746487164588037
 30
0.0
  0
VERTEX
  5
26A
330
1DC
100
AcDbEntity
  8
Layer 1
 62
    22
420
 15540004
370
    25
100
AcDbVertex
100
AcDb2dVertex
 10
23.79012739916523
 20
-1.702339188354548
 30
0.0
  0
VERTEX
  5
26B
330
1DC
100
AcDbEntity
  8
Layer 1
 62
    22
420
 15540004
370
    25
100
AcDbVertex
100
AcDb2dVertex
 10
23.83720900619798
 20
-1.636982625106637
 30
0.0
  0
VERTEX
  5
26C
330
1DC
100
AcDbEntity
  8
Layer 1
 62
    22
420
 15540004
370
    25
100
AcDbVertex
100
AcDb2dVertex
 10
23.88520487732439
 20
-1.571771602044085
 30
0.0
  0
VERTEX
  5
26D
330
1DC
100
AcDbEntity
  8
Layer 1
 62
    22
420
 15540004
370
    25
100
AcDbVertex
100
AcDb2dVertex
 10
23.90793055117236
 20
-1.538403599541577
 30
0.0
  0
VERTEX
  5
26E
330
1DC
100
AcDbEntity
  8
Layer 1
 62
    22
420
 15540004
370
    25
100
AcDbVertex
100
AcDb2dVertex
 10
23.92894665015986
 20
-1.504091535836601
 30
0.0
  0
VERTEX
  5
26F
330
1DC
100
AcDbEntity
  8
Layer 1
 62
    22
420
 15540004
370
    25
100
AcDbVertex
100
AcDb2dVertex
 10
23.9476071738957
 20
-1.468508550512802
 30
0.0
  0
VERTEX
  5
270
330
1DC
100
AcDbEntity
  8
Layer 1
 62
    22
420
 15540004
370
    25
100
AcDbVertex
100
AcDb2dVertex
 10
23.96326606211283
 20
-1.431327843153844
 30
0.0
  0
VERTEX
  5
271
330
1DC
100
AcDbEntity
  8
Layer 1
 62
    22
420
 15540004
370
    25
100
AcDbVertex
100
AcDb2dVertex
 10
23.96855850718758
 20
-1.323826146223559
 30
0.0
  0
VERTEX
  5
272
330
1DC
100
AcDbEntity
  8
Layer 1
 62
    22
420
 15540004
370
    25
100
AcDbVertex
100
AcDb2dVertex
 10
23.97050784485277
 20
-1.215955548823381
 30
0.0
  0
VERTEX
  5
273
330
1DC
100
AcDbEntity
  8
Layer 1
 62
    22
420
 15540004
370
    25
100
AcDbVertex
100
AcDb2dVertex
 10
23.96820442145397
 20
-1.108126431476042
 30
0.0
  0
VERTEX
  5
274
330
1DC
100
AcDbEntity
  8
Layer 1
 62
    22
420
 15540004
370
    25
100
AcDbVertex
100
AcDb2dVertex
 10
23.96073848354386
 20
-1.000749094704159
 30
0.0
  0
VERTEX
  5
275
330
1DC
100
AcDbEntity
  8
Layer 1
 62
    22
420
 15540004
370
    25
100
AcDbVertex
100
AcDb2dVertex
 10
23.91370322040795
 20
-0.8522002054900086
 30
0.0
  0
VERTEX
  5
276
330
1DC
100
AcDbEntity
  8
Layer 1
 62
    22
420
 15540004
370
    25
100
AcDbVertex
100
AcDb2dVertex
 10
23.88837630075449
 20
-0.7780976511018656
 30
0.0
  0
VERTEX
  5
277
330
1DC
100
AcDbEntity
  8
Layer 1
 62
    22
420
 15540004
370
    25
100
AcDbVertex
100
AcDb2dVertex
 10
23.86027511408904
 20
-0.7052083382591263
 30
0.0
  0
VERTEX
  5
278
330
1DC
100
AcDbEntity
  8
Layer 1
 62
    22
420
 15540004
370
    25
100
AcDbVertex
100
AcDb2dVertex
 10
23.82822365908153
 20
-0.6343562480112723
 30
0.0
  0
VERTEX
  5
279
330
1DC
100
AcDbEntity
  8
Layer 1
 62
    22
420
 15540004
370
    25
100
AcDbVertex
100
AcDb2dVertex
 10
23.81034906556488
 20
-0.5999516441883972
 30
0.0
  0
VERTEX
  5
27A
330
1DC
100
AcDbEntity
  8
Layer 1
 62
    22
420
 15540004
370
    25
100
AcDbVertex
100
AcDb2dVertex
 10
23.79104587452603
 20
-0.5663653414078705
 30
0.0
  0
VERTEX
  5
27B
330
1DC
100
AcDbEntity
  8
Layer 1
 62
    22
420
 15540004
370
    25
100
AcDbVertex
100
AcDb2dVertex
 10
23.77016711074697
 20
-0.5337003598008323
 30
0.0
  0
VERTEX
  5
27C
330
1DC
100
AcDbEntity
  8
Layer 1
 62
    22
420
 15540004
370
    25
100
AcDbVertex
100
AcDb2dVertex
 10
23.74756575909252
 20
-0.5020596394985104
 30
0.0
  0
VERTEX
  5
27D
330
1DC
100
AcDbEntity
  8
Layer 1
 62
    22
420
 15540004
370
    25
100
AcDbVertex
100
AcDb2dVertex
 10
23.72309480442739
 20
-0.4715462406320259
 30
0.0
  0
VERTEX
  5
27E
330
1DC
100
AcDbEntity
  8
Layer 1
 62
    22
420
 15540004
370
    25
100
AcDbVertex
100
AcDb2dVertex
 10
23.69660725157501
 20
-0.4422631233326734
 30
0.0
  0
VERTEX
  5
27F
330
1DC
100
AcDbEntity
  8
Layer 1
 62
    22
420
 15540004
370
    25
100
AcDbVertex
100
AcDb2dVertex
 10
23.65946914473999
 20
-0.3979079868353084
 30
0.0
  0
VERTEX
  5
280
330
1DC
100
AcDbEntity
  8
Layer 1
 62
    22
420
 15540004
370
    25
100
AcDbVertex
100
AcDb2dVertex
 10
23.62293069439933
 20
-0.3517653280610678
 30
0.0
  0
VERTEX
  5
281
330
1DC
100
AcDbEntity
  8
Layer 1
 62
    22
420
 15540004
370
    25
100
AcDbVertex
100
AcDb2dVertex
 10
23.58588172272501
 20
-0.305592629248622
 30
0.0
  0
VERTEX
  5
282
330
1DC
100
AcDbEntity
  8
Layer 1
 62
    22
420
 15540004
370
    25
100
AcDbVertex
100
AcDb2dVertex
 10
23.54721199201316
 20
-0.2611474726365941
 30
0.0
  0
VERTEX
  5
283
330
1DC
100
AcDbEntity
  8
Layer 1
 62
    22
420
 15540004
370
    25
100
AcDbVertex
100
AcDb2dVertex
 10
23.50581128451848
 20
-0.2201873404636293
 30
0.0
  0
VERTEX
  5
284
330
1DC
100
AcDbEntity
  8
Layer 1
 62
    22
420
 15540004
370
    25
100
AcDbVertex
100
AcDb2dVertex
 10
23.48373989388569
 20
-0.2015633767413571
 30
0.0
  0
VERTEX
  5
285
330
1DC
100
AcDbEntity
  8
Layer 1
 62
    22
420
 15540004
370
    25
100
AcDbVertex
100
AcDb2dVertex
 10
23.46056942241302
 20
-0.1844697549683537
 30
0.0
  0
VERTEX
  5
286
330
1DC
100
AcDbEntity
  8
Layer 1
 62
    22
420
 15540004
370
    25
100
AcDbVertex
100
AcDb2dVertex
 10
23.43616111783063
 20
-0.1691261554244647
 30
0.0
  0
VERTEX
  5
287
330
1DC
100
AcDbEntity
  8
Layer 1
 62
    22
420
 15540004
370
    25
100
AcDbVertex
100
AcDb2dVertex
 10
23.41037616799281
 20
-0.1557522583894095
 30
0.0
  0
VERTEX
  5
288
330
1DC
100
AcDbEntity
  8
Layer 1
 62
    22
420
 15540004
370
    25
100
AcDbVertex
100
AcDb2dVertex
 10
23.38307584058826
 20
-0.144567764143201
 30
0.0
  0
VERTEX
  5
289
330
1DC
100
AcDbEntity
  8
Layer 1
 62
    22
420
 15540004
370
    25
100
AcDbVertex
100
AcDb2dVertex
 10
23.35412132347124
 20
-0.1357923729655492
 30
0.0
  0
VERTEX
  5
28A
330
1DC
100
AcDbEntity
  8
Layer 1
 62
    22
420
 15540004
370
    25
100
AcDbVertex
100
AcDb2dVertex
 10
23.29075005625107
 20
-0.1155804072205531
 30
0.0
  0
VERTEX
  5
28B
330
1DC
100
AcDbEntity
  8
Layer 1
 62
    22
420
 15540004
370
    25
100
AcDbVertex
100
AcDb2dVertex
 10
23.2277981194668
 20
-0.0918654770136477
 30
0.0
  0
VERTEX
  5
28C
330
1DC
100
AcDbEntity
  8
Layer 1
 62
    22
420
 15540004
370
    25
100
AcDbVertex
100
AcDb2dVertex
 10
23.16492386159999
 20
-0.0669119452291195
 30
0.0
  0
VERTEX
  5
28D
330
1DC
100
AcDbEntity
  8
Layer 1
 62
    22
420
 15540004
370
    25
100
AcDbVertex
100
AcDb2dVertex
 10
23.1017856510909
 20
-0.042984254751218
 30
0.0
  0
VERTEX
  5
28E
330
1DC
100
AcDbEntity
  8
Layer 1
 62
    22
420
 15540004
370
    25
100
AcDbVertex
100
AcDb2dVertex
 10
23.03804185637967
 20
-0.0223467484641889
 30
0.0
  0
VERTEX
  5
28F
330
1DC
100
AcDbEntity
  8
Layer 1
 62
    22
420
 15540004
370
    25
100
AcDbVertex
100
AcDb2dVertex
 10
23.00583608138499
 20
-0.0139694577936148
 30
0.0
  0
VERTEX
  5
290
330
1DC
100
AcDbEntity
  8
Layer 1
 62
    22
420
 15540004
370
    25
100
AcDbVertex
100
AcDb2dVertex
 10
22.97335080598933
 20
-0.0072638692523823
 30
0.0
  0
VERTEX
  5
291
330
1DC
100
AcDbEntity
  8
Layer 1
 62
    22
420
 15540004
370
    25
100
AcDbVertex
100
AcDb2dVertex
 10
22.94054331876325
 20
-0.0025130232009411
 30
0.0
  0
VERTEX
  5
292
330
1DC
100
AcDbEntity
  8
Layer 1
 62
    22
420
 15540004
370
    25
100
AcDbVertex
100
AcDb2dVertex
 10
22.90737090827727
 20
0.0
 30
0.0
  0
VERTEX
  5
293
330
1DC
100
AcDbEntity
  8
Layer 1
 62
    22
420
 15540004
370
    25
100
AcDbVertex
100
AcDb2dVertex
 10
22.87379088306056
 20
-0.0000078000099519
 30
0.0
  0
VERTEX
  5
294
330
1DC
100
AcDbEntity
  8
Layer 1
 62
    22
420
 15540004
370
    25
100
AcDbVertex
100
AcDb2dVertex
 10
22.83976051172506
 20
-0.0028195235913699
 30
0.0
  0
VERTEX
  5
295
330
1DC
100
AcDbEntity
  8
Layer 1
 62
    22
420
 15540004
370
    25
100
AcDbVertex
100
AcDb2dVertex
 10
22.50151930136462
 20
-0.0387203093199939
 30
0.0
  0
VERTEX
  5
296
330
1DC
100
AcDbEntity
  8
Layer 1
 62
    22
420
 15540004
370
    25
100
AcDbVertex
100
AcDb2dVertex
 10
22.16346765789998
 20
-0.0779273192599198
 30
0.0
  0
VERTEX
  5
297
330
1DC
100
AcDbEntity
  8
Layer 1
 62
    22
420
 15540004
370
    25
100
AcDbVertex
100
AcDb2dVertex
 10
21.99467731785009
 20
-0.0995563868099604
 30
0.0
  0
VERTEX
  5
298
330
1DC
100
AcDbEntity
  8
Layer 1
 62
    22
420
 15540004
370
    25
100
AcDbVertex
100
AcDb2dVertex
 10
21.82613165042342
 20
-0.1229548966137928
 30
0.0
  0
VERTEX
  5
299
330
1DC
100
AcDbEntity
  8
Layer 1
 62
    22
420
 15540004
370
    25
100
AcDbVertex
100
AcDb2dVertex
 10
21.65789637932895
 20
-0.1484371290717819
 30
0.0
  0
VERTEX
  5
29A
330
1DC
100
AcDbEntity
  8
Layer 1
 62
    22
420
 15540004
370
    25
100
AcDbVertex
100
AcDb2dVertex
 10
21.49003730811008
 20
-0.1763174245843149
 30
0.0
  0
VERTEX
  5
29B
330
1DC
100
AcDbEntity
  8
Layer 1
 62
    22
420
 15540004
370
    25
100
AcDbVertex
100
AcDb2dVertex
 10
8.003638884812972
 20
-2.445533590755935
 30
0.0
  0
VERTEX
  5
29C
330
1DC
100
AcDbEntity
  8
Layer 1
 62
    22
420
 15540004
370
    25
100
AcDbVertex
100
AcDb2dVertex
 10
2.70386177597508
 20
-3.337272030850247
 30
0.0
  0
VERTEX
  5
29D
330
1DC
100
AcDbEntity
  8
Layer 1
 62
    22
420
 15540004
370
    25
100
AcDbVertex
100
AcDb2dVertex
 10
2.663784025069845
 20
-3.345630441496799
 30
0.0
  0
VERTEX
  5
29E
330
1DC
100
AcDbEntity
  8
Layer 1
 62
    22
420
 15540004
370
    25
100
AcDbVertex
100
AcDb2dVertex
 10
2.625172154373887
 20
-3.358800658272356
 30
0.0
  0
VERTEX
  5
29F
330
1DC
100
AcDbEntity
  8
Layer 1
 62
    22
420
 15540004
370
    25
100
AcDbVertex
100
AcDb2dVertex
 10
2.60670129732686
 20
-3.367368509185654
 30
0.0
  0
VERTEX
  5
2A0
330
1DC
100
AcDbEntity
  8
Layer 1
 62
    22
420
 15540004
370
    25
100
AcDbVertex
100
AcDb2dVertex
 10
2.58893935021581
 20
-3.377353281903753
 30
0.0
  0
VERTEX
  5
2A1
330
1DC
100
AcDbEntity
  8
Layer 1
 62
    22
420
 15540004
370
    25
100
AcDbVertex
100
AcDb2dVertex
 10
2.572000476300622
 20
-3.388826276517471
 30
0.0
  0
VERTEX
  5
2A2
330
1DC
100
AcDbEntity
  8
Layer 1
 62
    22
420
 15540004
370
    25
100
AcDbVertex
100
AcDb2dVertex
 10
2.555998838841447
 20
-3.401858833117709
 30
0.0
  0
VERTEX
  5
2A3
330
1DC
100
AcDbEntity
  8
Layer 1
 62
    22
420
 15540004
370
    25
100
AcDbVertex
100
AcDb2dVertex
 10
2.452721744198887
 20
-3.487612162345992
 30
0.0
  0
VERTEX
  5
2A4
330
1DC
100
AcDbEntity
  8
Layer 1
 62
    22
420
 15540004
370
    25
100
AcDbVertex
100
AcDb2dVertex
 10
2.348468214386634
 20
-3.572351210282325
 30
0.0
  0
VERTEX
  5
2A5
330
1DC
100
AcDbEntity
  8
Layer 1
 62
    22
420
 15540004
370
    25
100
AcDbVertex
100
AcDb2dVertex
 10
2.295433951356219
 20
-3.613543962751616
 30
0.0
  0
VERTEX
  5
2A6
330
1DC
100
AcDbEntity
  8
Layer 1
 62
    22
420
 15540004
370
    25
100
AcDbVertex
100
AcDb2dVertex
 10
2.241506021519689
 20
-3.653527393680507
 30
0.0
  0
VERTEX
  5
2A7
330
1DC
100
AcDbEntity
  8
Layer 1
 62
    22
420
 15540004
370
    25
100
AcDbVertex
100
AcDb2dVertex
 10
2.186467893896419
 20
-3.691982982663325
 30
0.0
  0
VERTEX
  5
2A8
330
1DC
100
AcDbEntity
  8
Layer 1
 62
    22
420
 15540004
370
    25
100
AcDbVertex
100
AcDb2dVertex
 10
2.130103017547526
 20
-3.728592129294232
 30
0.0
  0
VERTEX
  5
2A9
330
1DC
100
AcDbEntity
  8
Layer 1
 62
    22
420
 15540004
370
    25
100
AcDbVertex
100
AcDb2dVertex
 10
2.043808526138756
 20
-3.770796643052234
 30
0.0
  0
VERTEX
  5
2AA
330
1DC
100
AcDbEntity
  8
Layer 1
 62
    22
420
 15540004
370
    25
100
AcDbVertex
100
AcDb2dVertex
 10
1.956171738245732
 20
-3.810170073204138
 30
0.0
  0
VERTEX
  5
2AB
330
1DC
100
AcDbEntity
  8
Layer 1
 62
    22
420
 15540004
370
    25
100
AcDbVertex
100
AcDb2dVertex
 10
1.867328073050026
 20
-3.846847799922393
 30
0.0
  0
VERTEX
  5
2AC
330
1DC
100
AcDbEntity
  8
Layer 1
 62
    22
420
 15540004
370
    25
100
AcDbVertex
100
AcDb2dVertex
 10
1.77741290981607
 20
-3.880965143379323
 30
0.0
  0
VERTEX
  5
2AD
330
1DC
100
AcDbEntity
  8
Layer 1
 62
    22
420
 15540004
370
    25
100
AcDbVertex
100
AcDb2dVertex
 10
1.68656164776702
 20
-3.912657483747479
 30
0.0
  0
VERTEX
  5
2AE
330
1DC
100
AcDbEntity
  8
Layer 1
 62
    22
420
 15540004
370
    25
100
AcDbVertex
100
AcDb2dVertex
 10
1.59490966616742
 20
-3.942060141199085
 30
0.0
  0
VERTEX
  5
2AF
330
1DC
100
AcDbEntity
  8
Layer 1
 62
    22
420
 15540004
370
    25
100
AcDbVertex
100
AcDb2dVertex
 10
1.502592364240273
 20
-3.969308475906675
 30
0.0
  0
VERTEX
  5
2B0
330
1DC
100
AcDbEntity
  8
Layer 1
 62
    22
420
 15540004
370
    25
100
AcDbVertex
100
AcDb2dVertex
 10
1.409745141208709
 20
-3.994537828042565
 30
0.0
  0
VERTEX
  5
2B1
330
1DC
100
AcDbEntity
  8
Layer 1
 62
    22
420
 15540004
370
    25
100
AcDbVertex
100
AcDb2dVertex
 10
1.364273495604443
 20
-4.008508285837428
 30
0.0
  0
VERTEX
  5
2B2
330
1DC
100
AcDbEntity
  8
Layer 1
 62
    22
420
 15540004
370
    25
100
AcDbVertex
100
AcDb2dVertex
 10
1.31791179570276
 20
-4.021600182513238
 30
0.0
  0
VERTEX
  5
2B3
330
1DC
100
AcDbEntity
  8
Layer 1
 62
    22
420
 15540004
370
    25
100
AcDbVertex
100
AcDb2dVertex
 10
1.271507763585242
 20
-4.035106419716814
 30
0.0
  0
VERTEX
  5
2B4
330
1DC
100
AcDbEntity
  8
Layer 1
 62
    22
420
 15540004
370
    25
100
AcDbVertex
100
AcDb2dVertex
 10
1.225909141292151
 20
-4.050319939094985
 30
0.0
  0
VERTEX
  5
2B5
330
1DC
100
AcDbEntity
  8
Layer 1
 62
    22
420
 15540004
370
    25
100
AcDbVertex
100
AcDb2dVertex
 10
1.181963610987825
 20
-4.068533662294739
 30
0.0
  0
VERTEX
  5
2B6
330
1DC
100
AcDbEntity
  8
Layer 1
 62
    22
420
 15540004
370
    25
100
AcDbVertex
100
AcDb2dVertex
 10
1.140518934671187
 20
-4.09104051096286
 30
0.0
  0
VERTEX
  5
2B7
330
1DC
100
AcDbEntity
  8
Layer 1
 62
    22
420
 15540004
370
    25
100
AcDbVertex
100
AcDb2dVertex
 10
1.120999312444976
 20
-4.104307887862155
 30
0.0
  0
VERTEX
  5
2B8
330
1DC
100
AcDbEntity
  8
Layer 1
 62
    22
420
 15540004
370
    25
100
AcDbVertex
100
AcDb2dVertex
 10
1.102422814465146
 20
-4.119133386746171
 30
0.0
  0
VERTEX
  5
2B9
330
1DC
100
AcDbEntity
  8
Layer 1
 62
    22
420
 15540004
370
    25
100
AcDbVertex
100
AcDb2dVertex
 10
1.084895381043831
 20
-4.135678647820669
 30
0.0
  0
VERTEX
  5
2BA
330
1DC
100
AcDbEntity
  8
Layer 1
 62
    22
420
 15540004
370
    25
100
AcDbVertex
100
AcDb2dVertex
 10
1.068522972451458
 20
-4.154105251291563
 30
0.0
  0
VERTEX
  5
2BB
330
1DC
100
AcDbEntity
  8
Layer 1
 62
    22
420
 15540004
370
    25
100
AcDbVertex
100
AcDb2dVertex
 10
0.0294921551472574
 20
-4.030045600470759
 30
0.0
  0
VERTEX
  5
2BC
330
1DC
100
AcDbEntity
  8
Layer 1
 62
    22
420
 15540004
370
    25
100
AcDbVertex
100
AcDb2dVertex
 10
0.0294921551472574
 20
-4.030045600470759
 30
0.0
  0
SEQEND
  5
2BD
330
1DC
100
AcDbEntity
  8
Layer 1
 62
    22
420
 15540004
370
    25
  0
POLYLINE
  5
2BE
330
1D2
100
AcDbEntity
  8
Layer 1
 62
    22
420
 15540004
370
    25
100
AcDb2dPolyline
 66
     1
 10
0.0
 20
0.0
 30
0.0
  0
VERTEX
  5
2BF
330
2BE
100
AcDbEntity
  8
Layer 1
 62
    22
420
 15540004
370
    25
100
AcDbVertex
100
AcDb2dVertex
 10
21.35143613384149
 20
-13.0944598705598
 30
0.0
  0
VERTEX
  5
3C5
330
2BE
100
AcDbEntity
  8
0
100
AcDbVertex
100
AcDb2dVertex
 10
21.35143613384149
 20
-13.0944598705598
 30
0.0
  0
SEQEND
  5
2C0
330
2BE
100
AcDbEntity
  8
Layer 1
 62
    22
420
 15540004
370
    25
  0
POLYLINE
  5
2C1
330
1D2
100
AcDbEntity
  8
Layer 1
 62
    22
420
 15540004
370
    25
100
AcDb2dPolyline
 66
     1
 10
0.0
 20
0.0
 30
0.0
  0
VERTEX
  5
2C2
330
2C1
100
AcDbEntity
  8
Layer 1
 62
    22
420
 15540004
370
    25
100
AcDbVertex
100
AcDb2dVertex
 10
0.0294921551472574
 20
-4.030045600470759
 30
0.0
  0
VERTEX
  5
2C3
330
2C1
100
AcDbEntity
  8
Layer 1
 62
    22
420
 15540004
370
    25
100
AcDbVertex
100
AcDb2dVertex
 10
0.0385375696539541
 20
-6.946535108149065
 30
0.0
  0
SEQEND
  5
2C4
330
2C1
100
AcDbEntity
  8
Layer 1
 62
    22
420
 15540004
370
    25
  0
ENDBLK
  5
1D5
330
1D2
100
AcDbEntity
  8
0
100
AcDbBlockEnd
  0
BLOCK
  5
2C7
330
2C5
100
AcDbEntity
  8
0
100
AcDbBlockBegin
  2
block 4
 70
     0
 10
0.0
 20
0.0
 30
0.0
  3
block 4
  1

  0
POLYLINE
  5
2C9
330
2C5
100
AcDbEntity
  8
Layer 1
 62
    22
420
 15540004
370
    25
100
AcDb2dPolyline
 66
     1
 10
0.0
 20
0.0
 30
0.0
  0
VERTEX
  5
2CA
330
2C9
100
AcDbEntity
  8
Layer 1
 62
    22
420
 15540004
370
    25
100
AcDbVertex
100
AcDb2dVertex
 10
18.11433883457142
 20
-20.44216199126095
 30
0.0
  0
VERTEX
  5
2CB
330
2C9
100
AcDbEntity
  8
Layer 1
 62
    22
420
 15540004
370
    25
100
AcDbVertex
100
AcDb2dVertex
 10
16.33432379053142
 20
-20.20053440548216
 30
0.0
  0
VERTEX
  5
2CC
330
2C9
100
AcDbEntity
  8
Layer 1
 62
    22
420
 15540004
370
    25
100
AcDbVertex
100
AcDb2dVertex
 10
16.02621674471665
 20
-22.47971752349392
 30
0.0
  0
VERTEX
  5
2CD
330
2C9
100
AcDbEntity
  8
Layer 1
 62
    22
420
 15540004
370
    25
100
AcDbVertex
100
AcDb2dVertex
 10
17.80623178875668
 20
-22.72134510927271
 30
0.0
  0
VERTEX
  5
2CE
330
2C9
100
AcDbEntity
  8
Layer 1
 62
    22
420
 15540004
370
    25
100
AcDbVertex
100
AcDb2dVertex
 10
18.11433883457142
 20
-20.44216199126095
 30
0.0
  0
SEQEND
  5
2CF
330
2C9
100
AcDbEntity
  8
Layer 1
 62
    22
420
 15540004
370
    25
  0
INSERT
  5
2D1
330
2C5
100
AcDbEntity
  8
Layer 1
100
AcDbBlockReference
  2
block 5
 10
0.0
 20
0.0
 30
0.0
  0
ENDBLK
  5
2C8
330
2C5
100
AcDbEntity
  8
0
100
AcDbBlockEnd
  0
BLOCK
  5
2D2
330
2D0
100
AcDbEntity
  8
0
100
AcDbBlockBegin
  2
block 5
 70
     0
 10
0.0
 20
0.0
 30
0.0
  3
block 5
  1

  0
POLYLINE
  5
2D4
330
2D0
100
AcDbEntity
  8
Layer 1
 62
    22
420
 15540004
370
    25
100
AcDb2dPolyline
 66
     1
 10
0.0
 20
0.0
 30
0.0
  0
VERTEX
  5
2D5
330
2D4
100
AcDbEntity
  8
Layer 1
 62
    22
420
 15540004
370
    25
100
AcDbVertex
100
AcDb2dVertex
 10
3.538809644504934
 20
-12.12005312352527
 30
0.0
  0
VERTEX
  5
3C6
330
2D4
100
AcDbEntity
  8
0
100
AcDbVertex
100
AcDb2dVertex
 10
3.538809644504934
 20
-12.12005312352527
 30
0.0
  0
SEQEND
  5
2D6
330
2D4
100
AcDbEntity
  8
Layer 1
 62
    22
420
 15540004
370
    25
  0
POLYLINE
  5
2D7
330
2D0
100
AcDbEntity
  8
Layer 1
 62
    22
420
 15540004
370
    25
100
AcDb2dPolyline
 66
     1
 10
0.0
 20
0.0
 30
0.0
  0
VERTEX
  5
2D8
330
2D7
100
AcDbEntity
  8
Layer 1
 62
    22
420
 15540004
370
    25
100
AcDbVertex
100
AcDb2dVertex
 10
3.691270878576435
 20
-15.59615406038299
 30
0.0
  0
VERTEX
  5
3C7
330
2D7
100
AcDbEntity
  8
0
100
AcDbVertex
100
AcDb2dVertex
 10
3.691270878576435
 20
-15.59615406038299
 30
0.0
  0
SEQEND
  5
2D9
330
2D7
100
AcDbEntity
  8
Layer 1
 62
    22
420
 15540004
370
    25
  0
POLYLINE
  5
2DA
330
2D0
100
AcDbEntity
  8
Layer 1
 62
    22
420
 15540004
370
    25
100
AcDb2dPolyline
 66
     1
 10
0.0
 20
0.0
 30
0.0
  0
VERTEX
  5
2DB
330
2DA
100
AcDbEntity
  8
Layer 1
 62
    22
420
 15540004
370
    25
100
AcDbVertex
100
AcDb2dVertex
 10
23.96407383423576
 20
-20.84133965089866
 30
0.0
  0
VERTEX
  5
2DC
330
2DA
100
AcDbEntity
  8
Layer 1
 62
    22
420
 15540004
370
    25
100
AcDbVertex
100
AcDb2dVertex
 10
23.84103388176383
 20
-20.79271102895794
 30
0.0
  0
VERTEX
  5
2DD
330
2DA
100
AcDbEntity
  8
Layer 1
 62
    22
420
 15540004
370
    25
100
AcDbVertex
100
AcDb2dVertex
 10
23.71885877586255
 20
-20.74206962445345
 30
0.0
  0
VERTEX
  5
2DE
330
2DA
100
AcDbEntity
  8
Layer 1
 62
    22
420
 15540004
370
    25
100
AcDbVertex
100
AcDb2dVertex
 10
23.59758695681838
 20
-20.68940851737635
 30
0.0
  0
VERTEX
  5
2DF
330
2DA
100
AcDbEntity
  8
Layer 1
 62
    22
420
 15540004
370
    25
100
AcDbVertex
100
AcDb2dVertex
 10
23.47725694475237
 20
-20.63472072771777
 30
0.0
  0
VERTEX
  5
2E0
330
2DA
100
AcDbEntity
  8
Layer 1
 62
    22
420
 15540004
370
    25
100
AcDbVertex
100
AcDb2dVertex
 10
23.35790715999229
 20
-20.57799933546893
 30
0.0
  0
VERTEX
  5
2E1
330
2DA
100
AcDbEntity
  8
Layer 1
 62
    22
420
 15540004
370
    25
100
AcDbVertex
100
AcDb2dVertex
 10
23.23957614261773
 20
-20.51923738062088
 30
0.0
  0
VERTEX
  5
2E2
330
2DA
100
AcDbEntity
  8
Layer 1
 62
    22
420
 15540004
370
    25
100
AcDbVertex
100
AcDb2dVertex
 10
23.12230233291532
 20
-20.45842792316484
 30
0.0
  0
VERTEX
  5
2E3
330
2DA
100
AcDbEntity
  8
Layer 1
 62
    22
420
 15540004
370
    25
100
AcDbVertex
100
AcDb2dVertex
 10
23.00612421108866
 20
-20.3955640030919
 30
0.0
  0
VERTEX
  5
2E4
330
2DA
100
AcDbEntity
  8
Layer 1
 62
    22
420
 15540004
370
    25
100
AcDbVertex
100
AcDb2dVertex
 10
22.93528764463395
 20
-20.34367361699654
 30
0.0
  0
VERTEX
  5
2E5
330
2DA
100
AcDbEntity
  8
Layer 1
 62
    22
420
 15540004
370
    25
100
AcDbVertex
100
AcDb2dVertex
 10
22.86552064023208
 20
-20.29022706891902
 30
0.0
  0
VERTEX
  5
2E6
330
2DA
100
AcDbEntity
  8
Layer 1
 62
    22
420
 15540004
370
    25
100
AcDbVertex
100
AcDb2dVertex
 10
22.79695207063997
 20
-20.23518369880748
 30
0.0
  0
VERTEX
  5
2E7
330
2DA
100
AcDbEntity
  8
Layer 1
 62
    22
420
 15540004
370
    25
100
AcDbVertex
100
AcDb2dVertex
 10
22.7297108684906
 20
-20.17850286661029
 30
0.0
  0
VERTEX
  5
2E8
330
2DA
100
AcDbEntity
  8
Layer 1
 62
    22
420
 15540004
370
    25
100
AcDbVertex
100
AcDb2dVertex
 10
22.66392594645814
 20
-20.12014389227556
 30
0.0
  0
VERTEX
  5
2E9
330
2DA
100
AcDbEntity
  8
Layer 1
 62
    22
420
 15540004
370
    25
100
AcDbVertex
100
AcDb2dVertex
 10
22.59972623717542
 20
-20.06006609575143
 30
0.0
  0
VERTEX
  5
2EA
330
2DA
100
AcDbEntity
  8
Layer 1
 62
    22
420
 15540004
370
    25
100
AcDbVertex
100
AcDb2dVertex
 10
22.53724059344078
 20
-19.99822883698625
 30
0.0
  0
VERTEX
  5
2EB
330
2DA
100
AcDbEntity
  8
Layer 1
 62
    22
420
 15540004
370
    25
100
AcDbVertex
100
AcDb2dVertex
 10
22.47659798780445
 20
-19.93459145592813
 30
0.0
  0
VERTEX
  5
2EC
330
2DA
100
AcDbEntity
  8
Layer 1
 62
    22
420
 15540004
370
    25
100
AcDbVertex
100
AcDb2dVertex
 10
22.45390716169284
 20
-19.90775232174178
 30
0.0
  0
VERTEX
  5
2ED
330
2DA
100
AcDbEntity
  8
Layer 1
 62
    22
420
 15540004
370
    25
100
AcDbVertex
100
AcDb2dVertex
 10
22.43290838678048
 20
-19.87943322567033
 30
0.0
  0
VERTEX
  5
2EE
330
2DA
100
AcDbEntity
  8
Layer 1
 62
    22
420
 15540004
370
    25
100
AcDbVertex
100
AcDb2dVertex
 10
22.3946745321938
 20
-19.81953412937385
 30
0.0
  0
VERTEX
  5
2EF
330
2DA
100
AcDbEntity
  8
Layer 1
 62
    22
420
 15540004
370
    25
100
AcDbVertex
100
AcDb2dVertex
 10
22.32407453516581
 20
-19.69494431067761
 30
0.0
  0
VERTEX
  5
2F0
330
2DA
100
AcDbEntity
  8
Layer 1
 62
    22
420
 15540004
370
    25
100
AcDbVertex
100
AcDb2dVertex
 10
22.28645857924486
 20
-19.63496907428412
 30
0.0
  0
VERTEX
  5
2F1
330
2DA
100
AcDbEntity
  8
Layer 1
 62
    22
420
 15540004
370
    25
100
AcDbVertex
100
AcDb2dVertex
 10
22.26592324330065
 20
-19.60659289813998
 30
0.0
  0
VERTEX
  5
2F2
330
2DA
100
AcDbEntity
  8
Layer 1
 62
    22
420
 15540004
370
    25
100
AcDbVertex
100
AcDb2dVertex
 10
22.24379882263601
 20
-19.57968396386471
 30
0.0
  0
VERTEX
  5
2F3
330
2DA
100
AcDbEntity
  8
Layer 1
 62
    22
420
 15540004
370
    25
100
AcDbVertex
100
AcDb2dVertex
 10
22.21975723758858
 20
-19.55453699183375
 30
0.0
  0
VERTEX
  5
2F4
330
2DA
100
AcDbEntity
  8
Layer 1
 62
    22
420
 15540004
370
    25
100
AcDbVertex
100
AcDb2dVertex
 10
22.19347034862019
 20
-19.5314467024225
 30
0.0
  0
VERTEX
  5
2F5
330
2DA
100
AcDbEntity
  8
Layer 1
 62
    22
420
 15540004
370
    25
100
AcDbVertex
100
AcDb2dVertex
 10
22.16461005610998
 20
-19.51070779600632
 30
0.0
  0
VERTEX
  5
2F6
330
2DA
100
AcDbEntity
  8
Layer 1
 62
    22
420
 15540004
370
    25
100
AcDbVertex
100
AcDb2dVertex
 10
22.13284824047827
 20
-19.49261503296068
 30
0.0
  0
VERTEX
  5
2F7
330
2DA
100
AcDbEntity
  8
Layer 1
 62
    22
420
 15540004
370
    25
100
AcDbVertex
100
AcDb2dVertex
 10
21.97854435990699
 20
-19.40058345573544
 30
0.0
  0
VERTEX
  5
2F8
330
2DA
100
AcDbEntity
  8
Layer 1
 62
    22
420
 15540004
370
    25
100
AcDbVertex
100
AcDb2dVertex
 10
21.82207952050857
 20
-19.31239230340197
 30
0.0
  0
VERTEX
  5
2F9
330
2DA
100
AcDbEntity
  8
Layer 1
 62
    22
420
 15540004
370
    25
100
AcDbVertex
100
AcDb2dVertex
 10
21.66394230910229
 20
-19.22717001485006
 30
0.0
  0
VERTEX
  5
2FA
330
2DA
100
AcDbEntity
  8
Layer 1
 62
    22
420
 15540004
370
    25
100
AcDbVertex
100
AcDb2dVertex
 10
21.50462131250735
 20
-19.14404502896961
 30
0.0
  0
VERTEX
  5
2FB
330
2DA
100
AcDbEntity
  8
Layer 1
 62
    22
420
 15540004
370
    25
100
AcDbVertex
100
AcDb2dVertex
 10
21.18438231102798
 20
-18.98060068078239
 30
0.0
  0
VERTEX
  5
2FC
330
2DA
100
AcDbEntity
  8
Layer 1
 62
    22
420
 15540004
370
    25
100
AcDbVertex
100
AcDb2dVertex
 10
21.02444143986481
 20
-18.89853817625526
 30
0.0
  0
VERTEX
  5
2FD
330
2DA
100
AcDbEntity
  8
Layer 1
 62
    22
420
 15540004
370
    25
100
AcDbVertex
100
AcDb2dVertex
 10
20.86527111083102
 20
-18.81508670995895
 30
0.0
  0
VERTEX
  5
2FE
330
2DA
100
AcDbEntity
  8
Layer 1
 62
    22
420
 15540004
370
    25
100
AcDbVertex
100
AcDb2dVertex
 10
15.99897266983317
 20
-16.29056670098667
 30
0.0
  0
VERTEX
  5
2FF
330
2DA
100
AcDbEntity
  8
Layer 1
 62
    22
420
 15540004
370
    25
100
AcDbVertex
100
AcDb2dVertex
 10
3.552669792894473
 20
-9.833720489943769
 30
0.0
  0
VERTEX
  5
300
330
2DA
100
AcDbEntity
  8
Layer 1
 62
    22
420
 15540004
370
    25
100
AcDbVertex
100
AcDb2dVertex
 10
3.379997103658802
 20
-9.750142823486714
 30
0.0
  0
VERTEX
  5
301
330
2DA
100
AcDbEntity
  8
Layer 1
 62
    22
420
 15540004
370
    25
100
AcDbVertex
100
AcDb2dVertex
 10
3.292349777618635
 20
-9.710633713161997
 30
0.0
  0
VERTEX
  5
302
330
2DA
100
AcDbEntity
  8
Layer 1
 62
    22
420
 15540004
370
    25
100
AcDbVertex
100
AcDb2dVertex
 10
3.203580877383072
 20
-9.674171766718574
 30
0.0
  0
VERTEX
  5
303
330
2DA
100
AcDbEntity
  8
Layer 1
 62
    22
420
 15540004
370
    25
100
AcDbVertex
100
AcDb2dVertex
 10
3.113504708026994
 20
-9.641902465615557
 30
0.0
  0
VERTEX
  5
304
330
2DA
100
AcDbEntity
  8
Layer 1
 62
    22
420
 15540004
370
    25
100
AcDbVertex
100
AcDb2dVertex
 10
3.067918360280196
 20
-9.627698007522591
 30
0.0
  0
VERTEX
  5
305
330
2DA
100
AcDbEntity
  8
Layer 1
 62
    22
420
 15540004
370
    25
100
AcDbVertex
100
AcDb2dVertex
 10
3.021935574625331
 20
-9.614971271311939
 30
0.0
  0
VERTEX
  5
306
330
2DA
100
AcDbEntity
  8
Layer 1
 62
    22
420
 15540004
370
    25
100
AcDbVertex
100
AcDb2dVertex
 10
2.975533119238157
 20
-9.603865457165915
 30
0.0
  0
VERTEX
  5
307
330
2DA
100
AcDbEntity
  8
Layer 1
 62
    22
420
 15540004
370
    25
100
AcDbVertex
100
AcDb2dVertex
 10
2.928687802211647
 20
-9.59452372526688
 30
0.0
  0
VERTEX
  5
308
330
2DA
100
AcDbEntity
  8
Layer 1
 62
    22
420
 15540004
370
    25
100
AcDbVertex
100
AcDb2dVertex
 10
2.881376391721561
 20
-9.587089275797249
 30
0.0
  0
VERTEX
  5
309
330
2DA
100
AcDbEntity
  8
Layer 1
 62
    22
420
 15540004
370
    25
100
AcDbVertex
100
AcDb2dVertex
 10
2.833575695860873
 20
-9.581705288939423
 30
0.0
  0
VERTEX
  5
30A
330
2DA
100
AcDbEntity
  8
Layer 1
 62
    22
420
 15540004
370
    25
100
AcDbVertex
100
AcDb2dVertex
 10
2.697621643314025
 20
-9.599724491891367
 30
0.0
  0
VERTEX
  5
30B
330
2DA
100
AcDbEntity
  8
Layer 1
 62
    22
420
 15540004
370
    25
100
AcDbVertex
100
AcDb2dVertex
 10
2.6291609699779
 20
-9.609563904424324
 30
0.0
  0
VERTEX
  5
30C
330
2DA
100
AcDbEntity
  8
Layer 1
 62
    22
420
 15540004
370
    25
100
AcDbVertex
100
AcDb2dVertex
 10
2.561196387898993
 20
-9.621712699898833
 30
0.0
  0
VERTEX
  5
30D
330
2DA
100
AcDbEntity
  8
Layer 1
 62
    22
420
 15540004
370
    25
100
AcDbVertex
100
AcDb2dVertex
 10
2.494341784062019
 20
-9.63748795999259
 30
0.0
  0
VERTEX
  5
30E
330
2DA
100
AcDbEntity
  8
Layer 1
 62
    22
420
 15540004
370
    25
100
AcDbVertex
100
AcDb2dVertex
 10
2.461522581130743
 20
-9.647147112295897
 30
0.0
  0
VERTEX
  5
30F
330
2DA
100
AcDbEntity
  8
Layer 1
 62
    22
420
 15540004
370
    25
100
AcDbVertex
100
AcDb2dVertex
 10
2.429211105327441
 20
-9.65820682638322
 30
0.0
  0
VERTEX
  5
310
330
2DA
100
AcDbEntity
  8
Layer 1
 62
    22
420
 15540004
370
    25
100
AcDbVertex
100
AcDb2dVertex
 10
2.397484057597669
 20
-9.670831682464142
 30
0.0
  0
VERTEX
  5
311
330
2DA
100
AcDbEntity
  8
Layer 1
 62
    22
420
 15540004
370
    25
100
AcDbVertex
100
AcDb2dVertex
 10
2.366418218721365
 20
-9.685186380748467
 30
0.0
  0
VERTEX
  5
312
330
2DA
100
AcDbEntity
  8
Layer 1
 62
    22
420
 15540004
370
    25
100
AcDbVertex
100
AcDb2dVertex
 10
2.336090289644037
 20
-9.701435521445799
 30
0.0
  0
VERTEX
  5
313
330
2DA
100
AcDbEntity
  8
Layer 1
 62
    22
420
 15540004
370
    25
100
AcDbVertex
100
AcDb2dVertex
 10
2.306577031187013
 20
-9.719743764765907
 30
0.0
  0
VERTEX
  5
314
330
2DA
100
AcDbEntity
  8
Layer 1
 62
    22
420
 15540004
370
    25
100
AcDbVertex
100
AcDb2dVertex
 10
2.159353847399062
 20
-9.80975363941598
 30
0.0
  0
VERTEX
  5
315
330
2DA
100
AcDbEntity
  8
Layer 1
 62
    22
420
 15540004
370
    25
100
AcDbVertex
100
AcDb2dVertex
 10
2.012312406730997
 20
-9.90062295516077
 30
0.0
  0
VERTEX
  5
316
330
2DA
100
AcDbEntity
  8
Layer 1
 62
    22
420
 15540004
370
    25
100
AcDbVertex
100
AcDb2dVertex
 10
1.939858254658045
 20
-9.947629335035167
 30
0.0
  0
VERTEX
  5
317
330
2DA
100
AcDbEntity
  8
Layer 1
 62
    22
420
 15540004
370
    25
100
AcDbVertex
100
AcDb2dVertex
 10
1.868647643857786
 20
-9.996349877092927
 30
0.0
  0
VERTEX
  5
318
330
2DA
100
AcDbEntity
  8
Layer 1
 62
    22
420
 15540004
370
    25
100
AcDbVertex
100
AcDb2dVertex
 10
1.799079926195645
 20
-10.04728438197079
 30
0.0
  0
VERTEX
  5
319
330
2DA
100
AcDbEntity
  8
Layer 1
 62
    22
420
 15540004
370
    25
100
AcDbVertex
100
AcDb2dVertex
 10
1.731554493454269
 20
-10.10093259030517
 30
0.0
  0
VERTEX
  5
31A
330
2DA
100
AcDbEntity
  8
Layer 1
 62
    22
420
 15540004
370
    25
100
AcDbVertex
100
AcDb2dVertex
 10
1.665374350989042
 20
-10.19930761561037
 30
0.0
  0
VERTEX
  5
31B
330
2DA
100
AcDbEntity
  8
Layer 1
 62
    22
420
 15540004
370
    25
100
AcDbVertex
100
AcDb2dVertex
 10
1.597393163345057
 20
-10.29945902317824
 30
0.0
  0
VERTEX
  5
31C
330
2DA
100
AcDbEntity
  8
Layer 1
 62
    22
420
 15540004
370
    25
100
AcDbVertex
100
AcDb2dVertex
 10
1.531398596053249
 20
-10.40193597370825
 30
0.0
  0
VERTEX
  5
31D
330
2DA
100
AcDbEntity
  8
Layer 1
 62
    22
420
 15540004
370
    25
100
AcDbVertex
100
AcDb2dVertex
 10
1.500329943012654
 20
-10.45421810030257
 30
0.0
  0
VERTEX
  5
31E
330
2DA
100
AcDbEntity
  8
Layer 1
 62
    22
420
 15540004
370
    25
100
AcDbVertex
100
AcDb2dVertex
 10
1.471178294685968
 20
-10.50728752789976
 30
0.0
  0
VERTEX
  5
31F
330
2DA
100
AcDbEntity
  8
Layer 1
 62
    22
420
 15540004
370
    25
100
AcDbVertex
100
AcDb2dVertex
 10
1.444417129223135
 20
-10.56121289658722
 30
0.0
  0
VERTEX
  5
320
330
2DA
100
AcDbEntity
  8
Layer 1
 62
    22
420
 15540004
370
    25
100
AcDbVertex
100
AcDb2dVertex
 10
1.420519904815541
 20
-10.61606282645231
 30
0.0
  0
VERTEX
  5
321
330
2DA
100
AcDbEntity
  8
Layer 1
 62
    22
420
 15540004
370
    25
100
AcDbVertex
100
AcDb2dVertex
 10
1.399960079654571
 20
-10.67190595758249
 30
0.0
  0
VERTEX
  5
322
330
2DA
100
AcDbEntity
  8
Layer 1
 62
    22
420
 15540004
370
    25
100
AcDbVertex
100
AcDb2dVertex
 10
1.383211111931587
 20
-10.72881095006523
 30
0.0
  0
VERTEX
  5
323
330
2DA
100
AcDbEntity
  8
Layer 1
 62
    22
420
 15540004
370
    25
100
AcDbVertex
100
AcDb2dVertex
 10
1.370746439879339
 20
-10.78684642398793
 30
0.0
  0
VERTEX
  5
324
330
2DA
100
AcDbEntity
  8
Layer 1
 62
    22
420
 15540004
370
    25
100
AcDbVertex
100
AcDb2dVertex
 10
1.363039521689188
 20
-10.84608101943799
 30
0.0
  0
VERTEX
  5
325
330
2DA
100
AcDbEntity
  8
Layer 1
 62
    22
420
 15540004
370
    25
100
AcDbVertex
100
AcDb2dVertex
 10
1.36056383551113
 20
-10.90658337650284
 30
0.0
  0
VERTEX
  5
326
330
2DA
100
AcDbEntity
  8
Layer 1
 62
    22
420
 15540004
370
    25
100
AcDbVertex
100
AcDb2dVertex
 10
1.363792839536523
 20
-10.96842213526995
 30
0.0
  0
VERTEX
  5
327
330
2DA
100
AcDbEntity
  8
Layer 1
 62
    22
420
 15540004
370
    25
100
AcDbVertex
100
AcDb2dVertex
 10
1.363184121832344
 20
-10.99747073227061
 30
0.0
  0
VERTEX
  5
328
330
2DA
100
AcDbEntity
  8
Layer 1
 62
    22
420
 15540004
370
    25
100
AcDbVertex
100
AcDb2dVertex
 10
1.364591842646531
 20
-11.0263980491168
 30
0.0
  0
VERTEX
  5
329
330
2DA
100
AcDbEntity
  8
Layer 1
 62
    22
420
 15540004
370
    25
100
AcDbVertex
100
AcDb2dVertex
 10
1.368065160040159
 20
-11.05507246564086
 30
0.0
  0
VERTEX
  5
32A
330
2DA
100
AcDbEntity
  8
Layer 1
 62
    22
420
 15540004
370
    25
100
AcDbVertex
100
AcDb2dVertex
 10
1.3736532320743
 20
-11.08336232167507
 30
0.0
  0
VERTEX
  5
32B
330
2DA
100
AcDbEntity
  8
Layer 1
 62
    22
420
 15540004
370
    25
100
AcDbVertex
100
AcDb2dVertex
 10
1.381405156934256
 20
-11.11113599705173
 30
0.0
  0
VERTEX
  5
32C
330
2DA
100
AcDbEntity
  8
Layer 1
 62
    22
420
 15540004
370
    25
100
AcDbVertex
100
AcDb2dVertex
 10
1.391370112639758
 20
-11.13826185160332
 30
0.0
  0
VERTEX
  5
32D
330
2DA
100
AcDbEntity
  8
Layer 1
 62
    22
420
 15540004
370
    25
100
AcDbVertex
100
AcDb2dVertex
 10
1.403597217334613
 20
-11.16460826516206
 30
0.0
  0
VERTEX
  5
32E
330
2DA
100
AcDbEntity
  8
Layer 1
 62
    22
420
 15540004
370
    25
100
AcDbVertex
100
AcDb2dVertex
 10
1.418135629079971
 20
-11.19004355756025
 30
0.0
  0
VERTEX
  5
32F
330
2DA
100
AcDbEntity
  8
Layer 1
 62
    22
420
 15540004
370
    25
100
AcDbVertex
100
AcDb2dVertex
 10
1.485554063702996
 20
-11.30718200676536
 30
0.0
  0
VERTEX
  5
330
330
2DA
100
AcDbEntity
  8
Layer 1
 62
    22
420
 15540004
370
    25
100
AcDbVertex
100
AcDb2dVertex
 10
1.553618199338012
 20
-11.42434805600563
 30
0.0
  0
VERTEX
  5
331
330
2DA
100
AcDbEntity
  8
Layer 1
 62
    22
420
 15540004
370
    25
100
AcDbVertex
100
AcDb2dVertex
 10
1.589822522556915
 20
-11.48144576873384
 30
0.0
  0
VERTEX
  5
332
330
2DA
100
AcDbEntity
  8
Layer 1
 62
    22
420
 15540004
370
    25
100
AcDbVertex
100
AcDb2dVertex
 10
1.628504408063413
 20
-11.53675557918468
 30
0.0
  0
VERTEX
  5
333
330
2DA
100
AcDbEntity
  8
Layer 1
 62
    22
420
 15540004
370
    25
100
AcDbVertex
100
AcDb2dVertex
 10
1.670435914841442
 20
-11.58967920659618
 30
0.0
  0
VERTEX
  5
334
330
2DA
100
AcDbEntity
  8
Layer 1
 62
    22
420
 15540004
370
    25
100
AcDbVertex
100
AcDb2dVertex
 10
1.71638906195762
 20
-11.63961843020628
 30
0.0
  0
VERTEX
  5
335
330
2DA
100
AcDbEntity
  8
Layer 1
 62
    22
420
 15540004
370
    25
100
AcDbVertex
100
AcDb2dVertex
 10
7.216384759714755
 20
-17.54867861687166
 30
0.0
  0
VERTEX
  5
336
330
2DA
100
AcDbEntity
  8
Layer 1
 62
    22
420
 15540004
370
    25
100
AcDbVertex
100
AcDb2dVertex
 10
7.56237362379218
 20
-17.92054111053153
 30
0.0
  0
VERTEX
  5
337
330
2DA
100
AcDbEntity
  8
Layer 1
 62
    22
420
 15540004
370
    25
100
AcDbVertex
100
AcDb2dVertex
 10
7.909042637445812
 20
-18.29170428330061
 30
0.0
  0
VERTEX
  5
338
330
2DA
100
AcDbEntity
  8
Layer 1
 62
    22
420
 15540004
370
    25
100
AcDbVertex
100
AcDb2dVertex
 10
8.25408029403896
 20
-18.66431179790942
 30
0.0
  0
VERTEX
  5
339
330
2DA
100
AcDbEntity
  8
Layer 1
 62
    22
420
 15540004
370
    25
100
AcDbVertex
100
AcDb2dVertex
 10
8.425265008882004
 20
-18.85182709675703
 30
0.0
  0
VERTEX
  5
33A
330
2DA
100
AcDbEntity
  8
Layer 1
 62
    22
420
 15540004
370
    25
100
AcDbVertex
100
AcDb2dVertex
 10
8.595175027059213
 20
-19.04050733708851
 30
0.0
  0
VERTEX
  5
33B
330
2DA
100
AcDbEntity
  8
Layer 1
 62
    22
420
 15540004
370
    25
100
AcDbVertex
100
AcDb2dVertex
 10
8.622828601935705
 20
-19.09205626274893
 30
0.0
  0
VERTEX
  5
33C
330
2DA
100
AcDbEntity
  8
Layer 1
 62
    22
420
 15540004
370
    25
100
AcDbVertex
100
AcDb2dVertex
 10
8.647072068342442
 20
-19.14529277055893
 30
0.0
  0
VERTEX
  5
33D
330
2DA
100
AcDbEntity
  8
Layer 1
 62
    22
420
 15540004
370
    25
100
AcDbVertex
100
AcDb2dVertex
 10
8.668841964183962
 20
-19.19976571994385
 30
0.0
  0
VERTEX
  5
33E
330
2DA
100
AcDbEntity
  8
Layer 1
 62
    22
420
 15540004
370
    25
100
AcDbVertex
100
AcDb2dVertex
 10
8.68907492715794
 20
-19.25502391032897
 30
0.0
  0
VERTEX
  5
33F
330
2DA
100
AcDbEntity
  8
Layer 1
 62
    22
420
 15540004
370
    25
100
AcDbVertex
100
AcDb2dVertex
 10
8.728676285955846
 20
-19.36609125180101
 30
0.0
  0
VERTEX
  5
340
330
2DA
100
AcDbEntity
  8
Layer 1
 62
    22
420
 15540004
370
    25
100
AcDbVertex
100
AcDb2dVertex
 10
8.749917877340522
 20
-19.42099804173851
 30
0.0
  0
VERTEX
  5
341
330
2DA
100
AcDbEntity
  8
Layer 1
 62
    22
420
 15540004
370
    25
100
AcDbVertex
100
AcDb2dVertex
 10
8.77336882718613
 20
-19.47488533037745
 30
0.0
  0
VERTEX
  5
342
330
2DA
100
AcDbEntity
  8
Layer 1
 62
    22
420
 15540004
370
    25
100
AcDbVertex
100
AcDb2dVertex
 10
8.78830208015059
 20
-19.50743983184376
 30
0.0
  0
VERTEX
  5
343
330
2DA
100
AcDbEntity
  8
Layer 1
 62
    22
420
 15540004
370
    25
100
AcDbVertex
100
AcDb2dVertex
 10
8.80162698833414
 20
-19.54046551391025
 30
0.0
  0
VERTEX
  5
344
330
2DA
100
AcDbEntity
  8
Layer 1
 62
    22
420
 15540004
370
    25
100
AcDbVertex
100
AcDb2dVertex
 10
8.823981372125015
 20
-19.60775905962537
 30
0.0
  0
VERTEX
  5
345
330
2DA
100
AcDbEntity
  8
Layer 1
 62
    22
420
 15540004
370
    25
100
AcDbVertex
100
AcDb2dVertex
 10
8.841490862754274
 20
-19.6764231870863
 30
0.0
  0
VERTEX
  5
346
330
2DA
100
AcDbEntity
  8
Layer 1
 62
    22
420
 15540004
370
    25
100
AcDbVertex
100
AcDb2dVertex
 10
8.855214464168991
 20
-19.74611511585643
 30
0.0
  0
VERTEX
  5
347
330
2DA
100
AcDbEntity
  8
Layer 1
 62
    22
420
 15540004
370
    25
100
AcDbVertex
100
AcDb2dVertex
 10
8.866211060564687
 20
-19.81649208549905
 30
0.0
  0
VERTEX
  5
348
330
2DA
100
AcDbEntity
  8
Layer 1
 62
    22
420
 15540004
370
    25
100
AcDbVertex
100
AcDb2dVertex
 10
8.875539655888536
 20
-19.88721135557774
 30
0.0
  0
VERTEX
  5
349
330
2DA
100
AcDbEntity
  8
Layer 1
 62
    22
420
 15540004
370
    25
100
AcDbVertex
100
AcDb2dVertex
 10
8.893428479895444
 20
-20.02830565529658
 30
0.0
  0
VERTEX
  5
34A
330
2DA
100
AcDbEntity
  8
Layer 1
 62
    22
420
 15540004
370
    25
100
AcDbVertex
100
AcDb2dVertex
 10
8.891215469008557
 20
-20.08257466442175
 30
0.0
  0
VERTEX
  5
34B
330
2DA
100
AcDbEntity
  8
Layer 1
 62
    22
420
 15540004
370
    25
100
AcDbVertex
100
AcDb2dVertex
 10
8.887051104636713
 20
-20.13677857346397
 30
0.0
  0
VERTEX
  5
34C
330
2DA
100
AcDbEntity
  8
Layer 1
 62
    22
420
 15540004
370
    25
100
AcDbVertex
100
AcDb2dVertex
 10
8.881121381084085
 20
-20.19086350235468
 30
0.0
  0
VERTEX
  5
34D
330
2DA
100
AcDbEntity
  8
Layer 1
 62
    22
420
 15540004
370
    25
100
AcDbVertex
100
AcDb2dVertex
 10
8.873612312613684
 20
-20.24477559102517
 30
0.0
  0
VERTEX
  5
34E
330
2DA
100
AcDbEntity
  8
Layer 1
 62
    22
420
 15540004
370
    25
100
AcDbVertex
100
AcDb2dVertex
 10
8.854600237887931
 20
-20.35186572743123
 30
0.0
  0
VERTEX
  5
34F
330
2DA
100
AcDbEntity
  8
Layer 1
 62
    22
420
 15540004
370
    25
100
AcDbVertex
100
AcDb2dVertex
 10
8.831502974603683
 20
-20.45761800213321
 30
0.0
  0
VERTEX
  5
350
330
2DA
100
AcDbEntity
  8
Layer 1
 62
    22
420
 15540004
370
    25
100
AcDbVertex
100
AcDb2dVertex
 10
8.785214941938547
 20
-20.53972522671726
 30
0.0
  0
VERTEX
  5
351
330
2DA
100
AcDbEntity
  8
Layer 1
 62
    22
420
 15540004
370
    25
100
AcDbVertex
100
AcDb2dVertex
 10
8.736183218854775
 20
-20.6202719893137
 30
0.0
  0
VERTEX
  5
352
330
2DA
100
AcDbEntity
  8
Layer 1
 62
    22
420
 15540004
370
    25
100
AcDbVertex
100
AcDb2dVertex
 10
8.684259951955507
 20
-20.69895886954113
 30
0.0
  0
VERTEX
  5
353
330
2DA
100
AcDbEntity
  8
Layer 1
 62
    22
420
 15540004
370
    25
100
AcDbVertex
100
AcDb2dVertex
 10
8.62929724792664
 20
-20.77548642701812
 30
0.0
  0
VERTEX
  5
354
330
2DA
100
AcDbEntity
  8
Layer 1
 62
    22
420
 15540004
370
    25
100
AcDbVertex
100
AcDb2dVertex
 10
8.595952135571931
 20
-20.80283890185832
 30
0.0
  0
VERTEX
  5
355
330
2DA
100
AcDbEntity
  8
Layer 1
 62
    22
420
 15540004
370
    25
100
AcDbVertex
100
AcDb2dVertex
 10
8.560944191425834
 20
-20.82800393391229
 30
0.0
  0
VERTEX
  5
356
330
2DA
100
AcDbEntity
  8
Layer 1
 62
    22
420
 15540004
370
    25
100
AcDbVertex
100
AcDb2dVertex
 10
8.524655283609693
 20
-20.85149204383025
 30
0.0
  0
VERTEX
  5
357
330
2DA
100
AcDbEntity
  8
Layer 1
 62
    22
420
 15540004
370
    25
100
AcDbVertex
100
AcDb2dVertex
 10
8.487467320162118
 20
-20.87381383226264
 30
0.0
  0
VERTEX
  5
358
330
2DA
100
AcDbEntity
  8
Layer 1
 62
    22
420
 15540004
370
    25
100
AcDbVertex
100
AcDb2dVertex
 10
8.41192177869276
 20
-20.91700052727169
 30
0.0
  0
VERTEX
  5
359
330
2DA
100
AcDbEntity
  8
Layer 1
 62
    22
420
 15540004
370
    25
100
AcDbVertex
100
AcDb2dVertex
 10
8.33736273153353
 20
-20.96164842414196
 30
0.0
  0
VERTEX
  5
35A
330
2DA
100
AcDbEntity
  8
Layer 1
 62
    22
420
 15540004
370
    25
100
AcDbVertex
100
AcDb2dVertex
 10
4.874484170945455
 20
-23.04672008000196
 30
0.0
  0
VERTEX
  5
35B
330
2DA
100
AcDbEntity
  8
Layer 1
 62
    22
420
 15540004
370
    25
100
AcDbVertex
100
AcDb2dVertex
 10
1.411816692636825
 20
-25.13319669765156
 30
0.0
  0
VERTEX
  5
35C
330
2DA
100
AcDbEntity
  8
Layer 1
 62
    22
420
 15540004
370
    25
100
AcDbVertex
100
AcDb2dVertex
 10
1.181550155566179
 20
-25.2868498133672
 30
0.0
  0
VERTEX
  5
35D
330
2DA
100
AcDbEntity
  8
Layer 1
 62
    22
420
 15540004
370
    25
100
AcDbVertex
100
AcDb2dVertex
 10
0.952470058179617
 20
-25.44239173148874
 30
0.0
  0
VERTEX
  5
35E
330
2DA
100
AcDbEntity
  8
Layer 1
 62
    22
420
 15540004
370
    25
100
AcDbVertex
100
AcDb2dVertex
 10
0.7236861665521701
 20
-25.59847113029486
 30
0.0
  0
VERTEX
  5
35F
330
2DA
100
AcDbEntity
  8
Layer 1
 62
    22
420
 15540004
370
    25
100
AcDbVertex
100
AcDb2dVertex
 10
0.4943082268003107
 20
-25.75373666806435
 30
0.0
  0
VERTEX
  5
360
330
2DA
100
AcDbEntity
  8
Layer 1
 62
    22
420
 15540004
370
    25
100
AcDbVertex
100
AcDb2dVertex
 10
0.4713346669926118
 20
-25.76920638776892
 30
0.0
  0
VERTEX
  5
361
330
2DA
100
AcDbEntity
  8
Layer 1
 62
    22
420
 15540004
370
    25
100
AcDbVertex
100
AcDb2dVertex
 10
0.4496026925136347
 20
-25.7859292290696
 30
0.0
  0
VERTEX
  5
362
330
2DA
100
AcDbEntity
  8
Layer 1
 62
    22
420
 15540004
370
    25
100
AcDbVertex
100
AcDb2dVertex
 10
0.4094118361548579
 20
-25.82266221585824
 30
0.0
  0
VERTEX
  5
363
330
2DA
100
AcDbEntity
  8
Layer 1
 62
    22
420
 15540004
370
    25
100
AcDbVertex
100
AcDb2dVertex
 10
0.372832251115066
 20
-25.86299144722761
 30
0.0
  0
VERTEX
  5
364
330
2DA
100
AcDbEntity
  8
Layer 1
 62
    22
420
 15540004
370
    25
100
AcDbVertex
100
AcDb2dVertex
 10
0.3389605108269128
 20
-25.9059727819751
 30
0.0
  0
VERTEX
  5
365
330
2DA
100
AcDbEntity
  8
Layer 1
 62
    22
420
 15540004
370
    25
100
AcDbVertex
100
AcDb2dVertex
 10
0.3068932286401428
 20
-25.950662018898
 30
0.0
  0
VERTEX
  5
366
330
2DA
100
AcDbEntity
  8
Layer 1
 62
    22
420
 15540004
370
    25
100
AcDbVertex
100
AcDb2dVertex
 10
0.2757269979459933
 20
-25.99611501679374
 30
0.0
  0
VERTEX
  5
367
330
2DA
100
AcDbEntity
  8
Layer 1
 62
    22
420
 15540004
370
    25
100
AcDbVertex
100
AcDb2dVertex
 10
0.2445583921770422
 20
-26.04138759445969
 30
0.0
  0
VERTEX
  5
368
330
2DA
100
AcDbEntity
  8
Layer 1
 62
    22
420
 15540004
370
    25
100
AcDbVertex
100
AcDb2dVertex
 10
0.2124840047244763
 20
-26.08553557069318
 30
0.0
  0
VERTEX
  5
369
330
2DA
100
AcDbEntity
  8
Layer 1
 62
    22
420
 15540004
370
    25
100
AcDbVertex
100
AcDb2dVertex
 10
0.1654023976917263
 20
-26.15089213394109
 30
0.0
  0
VERTEX
  5
36A
330
2DA
100
AcDbEntity
  8
Layer 1
 62
    22
420
 15540004
370
    25
100
AcDbVertex
100
AcDb2dVertex
 10
0.1174065265653199
 20
-26.21610315700364
 30
0.0
  0
VERTEX
  5
36B
330
2DA
100
AcDbEntity
  8
Layer 1
 62
    22
420
 15540004
370
    25
100
AcDbVertex
100
AcDb2dVertex
 10
0.0946808527173491
 20
-26.24947115950615
 30
0.0
  0
VERTEX
  5
36C
330
2DA
100
AcDbEntity
  8
Layer 1
 62
    22
420
 15540004
370
    25
100
AcDbVertex
100
AcDb2dVertex
 10
0.073664753729847
 20
-26.28378322321113
 30
0.0
  0
VERTEX
  5
36D
330
2DA
100
AcDbEntity
  8
Layer 1
 62
    22
420
 15540004
370
    25
100
AcDbVertex
100
AcDb2dVertex
 10
0.0550042299940085
 20
-26.31936620853493
 30
0.0
  0
VERTEX
  5
36E
330
2DA
100
AcDbEntity
  8
Layer 1
 62
    22
420
 15540004
370
    25
100
AcDbVertex
100
AcDb2dVertex
 10
0.0393453417768796
 20
-26.35654691589389
 30
0.0
  0
VERTEX
  5
36F
330
2DA
100
AcDbEntity
  8
Layer 1
 62
    22
420
 15540004
370
    25
100
AcDbVertex
100
AcDb2dVertex
 10
0.0340528967021277
 20
-26.46404861282417
 30
0.0
  0
VERTEX
  5
370
330
2DA
100
AcDbEntity
  8
Layer 1
 62
    22
420
 15540004
370
    25
100
AcDbVertex
100
AcDb2dVertex
 10
0.0321035590369421
 20
-26.57191921022435
 30
0.0
  0
VERTEX
  5
371
330
2DA
100
AcDbEntity
  8
Layer 1
 62
    22
420
 15540004
370
    25
100
AcDbVertex
100
AcDb2dVertex
 10
0.0344069824357373
 20
-26.67974832757169
 30
0.0
  0
VERTEX
  5
372
330
2DA
100
AcDbEntity
  8
Layer 1
 62
    22
420
 15540004
370
    25
100
AcDbVertex
100
AcDb2dVertex
 10
0.0418729203458447
 20
-26.78712566434357
 30
0.0
  0
VERTEX
  5
373
330
2DA
100
AcDbEntity
  8
Layer 1
 62
    22
420
 15540004
370
    25
100
AcDbVertex
100
AcDb2dVertex
 10
0.0889081834817615
 20
-26.93567455355772
 30
0.0
  0
VERTEX
  5
374
330
2DA
100
AcDbEntity
  8
Layer 1
 62
    22
420
 15540004
370
    25
100
AcDbVertex
100
AcDb2dVertex
 10
0.1142351031352165
 20
-27.00977710794587
 30
0.0
  0
VERTEX
  5
375
330
2DA
100
AcDbEntity
  8
Layer 1
 62
    22
420
 15540004
370
    25
100
AcDbVertex
100
AcDb2dVertex
 10
0.142336289800672
 20
-27.0826664207886
 30
0.0
  0
VERTEX
  5
376
330
2DA
100
AcDbEntity
  8
Layer 1
 62
    22
420
 15540004
370
    25
100
AcDbVertex
100
AcDb2dVertex
 10
0.174387744808175
 20
-27.15351851103646
 30
0.0
  0
VERTEX
  5
377
330
2DA
100
AcDbEntity
  8
Layer 1
 62
    22
420
 15540004
370
    25
100
AcDbVertex
100
AcDb2dVertex
 10
0.1922623383248315
 20
-27.18792311485933
 30
0.0
  0
VERTEX
  5
378
330
2DA
100
AcDbEntity
  8
Layer 1
 62
    22
420
 15540004
370
    25
100
AcDbVertex
100
AcDb2dVertex
 10
0.2115655293636741
 20
-27.22150941763986
 30
0.0
  0
VERTEX
  5
379
330
2DA
100
AcDbEntity
  8
Layer 1
 62
    22
420
 15540004
370
    25
100
AcDbVertex
100
AcDb2dVertex
 10
0.2324442931427357
 20
-27.2541743992469
 30
0.0
  0
VERTEX
  5
37A
330
2DA
100
AcDbEntity
  8
Layer 1
 62
    22
420
 15540004
370
    25
100
AcDbVertex
100
AcDb2dVertex
 10
0.2550456447971909
 20
-27.28581511954922
 30
0.0
  0
VERTEX
  5
37B
330
2DA
100
AcDbEntity
  8
Layer 1
 62
    22
420
 15540004
370
    25
100
AcDbVertex
100
AcDb2dVertex
 10
0.2795165994623151
 20
-27.3163285184157
 30
0.0
  0
VERTEX
  5
37C
330
2DA
100
AcDbEntity
  8
Layer 1
 62
    22
420
 15540004
370
    25
100
AcDbVertex
100
AcDb2dVertex
 10
0.3060041523146992
 20
-27.34561163571506
 30
0.0
  0
VERTEX
  5
37D
330
2DA
100
AcDbEntity
  8
Layer 1
 62
    22
420
 15540004
370
    25
100
AcDbVertex
100
AcDb2dVertex
 10
0.3431422591497216
 20
-27.38996677221242
 30
0.0
  0
VERTEX
  5
37E
330
2DA
100
AcDbEntity
  8
Layer 1
 62
    22
420
 15540004
370
    25
100
AcDbVertex
100
AcDb2dVertex
 10
0.3796807094903821
 20
-27.43610943098666
 30
0.0
  0
VERTEX
  5
37F
330
2DA
100
AcDbEntity
  8
Layer 1
 62
    22
420
 15540004
370
    25
100
AcDbVertex
100
AcDb2dVertex
 10
0.4167296811646994
 20
-27.48228212979911
 30
0.0
  0
VERTEX
  5
380
330
2DA
100
AcDbEntity
  8
Layer 1
 62
    22
420
 15540004
370
    25
100
AcDbVertex
100
AcDb2dVertex
 10
0.4553994118765432
 20
-27.52672728641113
 30
0.0
  0
VERTEX
  5
381
330
2DA
100
AcDbEntity
  8
Layer 1
 62
    22
420
 15540004
370
    25
100
AcDbVertex
100
AcDb2dVertex
 10
0.4968001193712249
 20
-27.5676874185841
 30
0.0
  0
VERTEX
  5
382
330
2DA
100
AcDbEntity
  8
Layer 1
 62
    22
420
 15540004
370
    25
100
AcDbVertex
100
AcDb2dVertex
 10
0.51887151000402
 20
-27.58631138230637
 30
0.0
  0
VERTEX
  5
383
330
2DA
100
AcDbEntity
  8
Layer 1
 62
    22
420
 15540004
370
    25
100
AcDbVertex
100
AcDb2dVertex
 10
0.5420419814766875
 20
-27.60340500407938
 30
0.0
  0
VERTEX
  5
384
330
2DA
100
AcDbEntity
  8
Layer 1
 62
    22
420
 15540004
370
    25
100
AcDbVertex
100
AcDb2dVertex
 10
0.5664502860590801
 20
-27.61874860362326
 30
0.0
  0
VERTEX
  5
385
330
2DA
100
AcDbEntity
  8
Layer 1
 62
    22
420
 15540004
370
    25
100
AcDbVertex
100
AcDb2dVertex
 10
0.5922352358969015
 20
-27.63212250065832
 30
0.0
  0
VERTEX
  5
386
330
2DA
100
AcDbEntity
  8
Layer 1
 62
    22
420
 15540004
370
    25
100
AcDbVertex
100
AcDb2dVertex
 10
0.6195355633014464
 20
-27.64330699490453
 30
0.0
  0
VERTEX
  5
387
330
2DA
100
AcDbEntity
  8
Layer 1
 62
    22
420
 15540004
370
    25
100
AcDbVertex
100
AcDb2dVertex
 10
0.648490080418469
 20
-27.65208238608218
 30
0.0
  0
VERTEX
  5
388
330
2DA
100
AcDbEntity
  8
Layer 1
 62
    22
420
 15540004
370
    25
100
AcDbVertex
100
AcDb2dVertex
 10
0.7118613476386346
 20
-27.67229435182718
 30
0.0
  0
VERTEX
  5
389
330
2DA
100
AcDbEntity
  8
Layer 1
 62
    22
420
 15540004
370
    25
100
AcDbVertex
100
AcDb2dVertex
 10
0.7748132844229126
 20
-27.69600928203408
 30
0.0
  0
VERTEX
  5
38A
330
2DA
100
AcDbEntity
  8
Layer 1
 62
    22
420
 15540004
370
    25
100
AcDbVertex
100
AcDb2dVertex
 10
0.8376875422897126
 20
-27.72096281381861
 30
0.0
  0
VERTEX
  5
38B
330
2DA
100
AcDbEntity
  8
Layer 1
 62
    22
420
 15540004
370
    25
100
AcDbVertex
100
AcDb2dVertex
 10
0.9008257527988108
 20
-27.74489050429651
 30
0.0
  0
VERTEX
  5
38C
330
2DA
100
AcDbEntity
  8
Layer 1
 62
    22
420
 15540004
370
    25
100
AcDbVertex
100
AcDb2dVertex
 10
0.9645695475100334
 20
-27.76552801058354
 30
0.0
  0
VERTEX
  5
38D
330
2DA
100
AcDbEntity
  8
Layer 1
 62
    22
420
 15540004
370
    25
100
AcDbVertex
100
AcDb2dVertex
 10
0.9967753225047191
 20
-27.77390530125411
 30
0.0
  0
VERTEX
  5
38E
330
2DA
100
AcDbEntity
  8
Layer 1
 62
    22
420
 15540004
370
    25
100
AcDbVertex
100
AcDb2dVertex
 10
1.029260597900374
 20
-27.78061088979535
 30
0.0
  0
VERTEX
  5
38F
330
2DA
100
AcDbEntity
  8
Layer 1
 62
    22
420
 15540004
370
    25
100
AcDbVertex
100
AcDb2dVertex
 10
1.06206808512646
 20
-27.78536173584679
 30
0.0
  0
VERTEX
  5
390
330
2DA
100
AcDbEntity
  8
Layer 1
 62
    22
420
 15540004
370
    25
100
AcDbVertex
100
AcDb2dVertex
 10
1.095240495612441
 20
-27.78787475904773
 30
0.0
  0
VERTEX
  5
391
330
2DA
100
AcDbEntity
  8
Layer 1
 62
    22
420
 15540004
370
    25
100
AcDbVertex
100
AcDb2dVertex
 10
1.128820520829145
 20
-27.78786695903778
 30
0.0
  0
VERTEX
  5
392
330
2DA
100
AcDbEntity
  8
Layer 1
 62
    22
420
 15540004
370
    25
100
AcDbVertex
100
AcDb2dVertex
 10
1.162850892164645
 20
-27.78505523545636
 30
0.0
  0
VERTEX
  5
393
330
2DA
100
AcDbEntity
  8
Layer 1
 62
    22
420
 15540004
370
    25
100
AcDbVertex
100
AcDb2dVertex
 10
1.501092102525086
 20
-27.74915444972774
 30
0.0
  0
VERTEX
  5
394
330
2DA
100
AcDbEntity
  8
Layer 1
 62
    22
420
 15540004
370
    25
100
AcDbVertex
100
AcDb2dVertex
 10
1.839143745989734
 20
-27.70994743978781
 30
0.0
  0
VERTEX
  5
395
330
2DA
100
AcDbEntity
  8
Layer 1
 62
    22
420
 15540004
370
    25
100
AcDbVertex
100
AcDb2dVertex
 10
2.007934086039616
 20
-27.68831837223777
 30
0.0
  0
VERTEX
  5
396
330
2DA
100
AcDbEntity
  8
Layer 1
 62
    22
420
 15540004
370
    25
100
AcDbVertex
100
AcDb2dVertex
 10
2.176479753466285
 20
-27.66491986243394
 30
0.0
  0
VERTEX
  5
397
330
2DA
100
AcDbEntity
  8
Layer 1
 62
    22
420
 15540004
370
    25
100
AcDbVertex
100
AcDb2dVertex
 10
2.344715024560754
 20
-27.63943762997595
 30
0.0
  0
VERTEX
  5
398
330
2DA
100
AcDbEntity
  8
Layer 1
 62
    22
420
 15540004
370
    25
100
AcDbVertex
100
AcDb2dVertex
 10
2.51257409577963
 20
-27.61155733446341
 30
0.0
  0
VERTEX
  5
399
330
2DA
100
AcDbEntity
  8
Layer 1
 62
    22
420
 15540004
370
    25
100
AcDbVertex
100
AcDb2dVertex
 10
15.99897251907674
 20
-25.3423411682918
 30
0.0
  0
VERTEX
  5
39A
330
2DA
100
AcDbEntity
  8
Layer 1
 62
    22
420
 15540004
370
    25
100
AcDbVertex
100
AcDb2dVertex
 10
21.29874962791463
 20
-24.45060272819748
 30
0.0
  0
VERTEX
  5
39B
330
2DA
100
AcDbEntity
  8
Layer 1
 62
    22
420
 15540004
370
    25
100
AcDbVertex
100
AcDb2dVertex
 10
21.33882737881986
 20
-24.44224431755093
 30
0.0
  0
VERTEX
  5
39C
330
2DA
100
AcDbEntity
  8
Layer 1
 62
    22
420
 15540004
370
    25
100
AcDbVertex
100
AcDb2dVertex
 10
21.37743924951582
 20
-24.42907410077537
 30
0.0
  0
VERTEX
  5
39D
330
2DA
100
AcDbEntity
  8
Layer 1
 62
    22
420
 15540004
370
    25
100
AcDbVertex
100
AcDb2dVertex
 10
21.39591010656285
 20
-24.42050624986208
 30
0.0
  0
VERTEX
  5
39E
330
2DA
100
AcDbEntity
  8
Layer 1
 62
    22
420
 15540004
370
    25
100
AcDbVertex
100
AcDb2dVertex
 10
21.41367205367388
 20
-24.41052147714398
 30
0.0
  0
VERTEX
  5
39F
330
2DA
100
AcDbEntity
  8
Layer 1
 62
    22
420
 15540004
370
    25
100
AcDbVertex
100
AcDb2dVertex
 10
21.43061092758909
 20
-24.39904848253026
 30
0.0
  0
VERTEX
  5
3A0
330
2DA
100
AcDbEntity
  8
Layer 1
 62
    22
420
 15540004
370
    25
100
AcDbVertex
100
AcDb2dVertex
 10
21.44661256504825
 20
-24.38601592593002
 30
0.0
  0
VERTEX
  5
3A1
330
2DA
100
AcDbEntity
  8
Layer 1
 62
    22
420
 15540004
370
    25
100
AcDbVertex
100
AcDb2dVertex
 10
21.54988965969083
 20
-24.30026259670174
 30
0.0
  0
VERTEX
  5
3A2
330
2DA
100
AcDbEntity
  8
Layer 1
 62
    22
420
 15540004
370
    25
100
AcDbVertex
100
AcDb2dVertex
 10
21.65414318950307
 20
-24.2155235487654
 30
0.0
  0
VERTEX
  5
3A3
330
2DA
100
AcDbEntity
  8
Layer 1
 62
    22
420
 15540004
370
    25
100
AcDbVertex
100
AcDb2dVertex
 10
21.70717745253349
 20
-24.17433079629611
 30
0.0
  0
VERTEX
  5
3A4
330
2DA
100
AcDbEntity
  8
Layer 1
 62
    22
420
 15540004
370
    25
100
AcDbVertex
100
AcDb2dVertex
 10
21.76110538237003
 20
-24.13434736536722
 30
0.0
  0
VERTEX
  5
3A5
330
2DA
100
AcDbEntity
  8
Layer 1
 62
    22
420
 15540004
370
    25
100
AcDbVertex
100
AcDb2dVertex
 10
21.81614350999328
 20
-24.09589177638441
 30
0.0
  0
VERTEX
  5
3A6
330
2DA
100
AcDbEntity
  8
Layer 1
 62
    22
420
 15540004
370
    25
100
AcDbVertex
100
AcDb2dVertex
 10
21.87250838634218
 20
-24.0592826297535
 30
0.0
  0
VERTEX
  5
3A7
330
2DA
100
AcDbEntity
  8
Layer 1
 62
    22
420
 15540004
370
    25
100
AcDbVertex
100
AcDb2dVertex
 10
21.95880287775094
 20
-24.0170781159955
 30
0.0
  0
VERTEX
  5
3A8
330
2DA
100
AcDbEntity
  8
Layer 1
 62
    22
420
 15540004
370
    25
100
AcDbVertex
100
AcDb2dVertex
 10
22.04643966564398
 20
-23.97770468584359
 30
0.0
  0
VERTEX
  5
3A9
330
2DA
100
AcDbEntity
  8
Layer 1
 62
    22
420
 15540004
370
    25
100
AcDbVertex
100
AcDb2dVertex
 10
22.13528333083968
 20
-23.94102695912534
 30
0.0
  0
VERTEX
  5
3AA
330
2DA
100
AcDbEntity
  8
Layer 1
 62
    22
420
 15540004
370
    25
100
AcDbVertex
100
AcDb2dVertex
 10
22.22519849407364
 20
-23.90690961566841
 30
0.0
  0
VERTEX
  5
3AB
330
2DA
100
AcDbEntity
  8
Layer 1
 62
    22
420
 15540004
370
    25
100
AcDbVertex
100
AcDb2dVertex
 10
22.31604975612269
 20
-23.87521727530025
 30
0.0
  0
VERTEX
  5
3AC
330
2DA
100
AcDbEntity
  8
Layer 1
 62
    22
420
 15540004
370
    25
100
AcDbVertex
100
AcDb2dVertex
 10
22.40770173772229
 20
-23.84581461784865
 30
0.0
  0
VERTEX
  5
3AD
330
2DA
100
AcDbEntity
  8
Layer 1
 62
    22
420
 15540004
370
    25
100
AcDbVertex
100
AcDb2dVertex
 10
22.50001903964943
 20
-23.81856628314106
 30
0.0
  0
VERTEX
  5
3AE
330
2DA
100
AcDbEntity
  8
Layer 1
 62
    22
420
 15540004
370
    25
100
AcDbVertex
100
AcDb2dVertex
 10
22.592866262681
 20
-23.79333693100516
 30
0.0
  0
VERTEX
  5
3AF
330
2DA
100
AcDbEntity
  8
Layer 1
 62
    22
420
 15540004
370
    25
100
AcDbVertex
100
AcDb2dVertex
 10
22.63833790828527
 20
-23.7793664732103
 30
0.0
  0
VERTEX
  5
3B0
330
2DA
100
AcDbEntity
  8
Layer 1
 62
    22
420
 15540004
370
    25
100
AcDbVertex
100
AcDb2dVertex
 10
22.68469960818695
 20
-23.76627457653449
 30
0.0
  0
VERTEX
  5
3B1
330
2DA
100
AcDbEntity
  8
Layer 1
 62
    22
420
 15540004
370
    25
100
AcDbVertex
100
AcDb2dVertex
 10
22.73110364030448
 20
-23.75276833933092
 30
0.0
  0
VERTEX
  5
3B2
330
2DA
100
AcDbEntity
  8
Layer 1
 62
    22
420
 15540004
370
    25
100
AcDbVertex
100
AcDb2dVertex
 10
22.77670226259756
 20
-23.73755481995275
 30
0.0
  0
VERTEX
  5
3B3
330
2DA
100
AcDbEntity
  8
Layer 1
 62
    22
420
 15540004
370
    25
100
AcDbVertex
100
AcDb2dVertex
 10
22.82064779290188
 20
-23.71934109675299
 30
0.0
  0
VERTEX
  5
3B4
330
2DA
100
AcDbEntity
  8
Layer 1
 62
    22
420
 15540004
370
    25
100
AcDbVertex
100
AcDb2dVertex
 10
22.86209246921852
 20
-23.69683424808487
 30
0.0
  0
VERTEX
  5
3B5
330
2DA
100
AcDbEntity
  8
Layer 1
 62
    22
420
 15540004
370
    25
100
AcDbVertex
100
AcDb2dVertex
 10
22.88161209144474
 20
-23.68356687118558
 30
0.0
  0
VERTEX
  5
3B6
330
2DA
100
AcDbEntity
  8
Layer 1
 62
    22
420
 15540004
370
    25
100
AcDbVertex
100
AcDb2dVertex
 10
22.90018858942456
 20
-23.66874137230156
 30
0.0
  0
VERTEX
  5
3B7
330
2DA
100
AcDbEntity
  8
Layer 1
 62
    22
420
 15540004
370
    25
100
AcDbVertex
100
AcDb2dVertex
 10
22.91771602284588
 20
-23.65219611122706
 30
0.0
  0
VERTEX
  5
3B8
330
2DA
100
AcDbEntity
  8
Layer 1
 62
    22
420
 15540004
370
    25
100
AcDbVertex
100
AcDb2dVertex
 10
22.93408843143826
 20
-23.63376950775617
 30
0.0
  0
VERTEX
  5
3B9
330
2DA
100
AcDbEntity
  8
Layer 1
 62
    22
420
 15540004
370
    25
100
AcDbVertex
100
AcDb2dVertex
 10
23.97311924874245
 20
-23.75782915857697
 30
0.0
  0
VERTEX
  5
3BA
330
2DA
100
AcDbEntity
  8
Layer 1
 62
    22
420
 15540004
370
    25
100
AcDbVertex
100
AcDb2dVertex
 10
23.97311924874245
 20
-23.75782915857697
 30
0.0
  0
SEQEND
  5
3BB
330
2DA
100
AcDbEntity
  8
Layer 1
 62
    22
420
 15540004
370
    25
  0
POLYLINE
  5
3BC
330
2D0
100
AcDbEntity
  8
Layer 1
 62
    22
420
 15540004
370
    25
100
AcDb2dPolyline
 66
     1
 10
0.0
 20
0.0
 30
0.0
  0
VERTEX
  5
3BD
330
3BC
100
AcDbEntity
  8
Layer 1
 62
    22
420
 15540004
370
    25
100
AcDbVertex
100
AcDb2dVertex
 10
2.65117527004822
 20
-14.69341488848792
 30
0.0
  0
VERTEX
  5
3C8
330
3BC
100
AcDbEntity
  8
0
100
AcDbVertex
100
AcDb2dVertex
 10
2.65117527004822
 20
-14.69341488848792
 30
0.0
  0
SEQEND
  5
3BE
330
3BC
100
AcDbEntity
  8
Layer 1
 62
    22
420
 15540004
370
    25
  0
POLYLINE
  5
3BF
330
2D0
100
AcDbEntity
  8
Layer 1
 62
    22
420
 15540004
370
    25
100
AcDb2dPolyline
 66
     1
 10
0.0
 20
0.0
 30
0.0
  0
VERTEX
  5
3C0
330
3BF
100
AcDbEntity
  8
Layer 1
 62
    22
420
 15540004
370
    25
100
AcDbVertex
100
AcDb2dVertex
 10
23.97311924874245
 20
-23.75782915857697
 30
0.0
  0
VERTEX
  5
3C1
330
3BF
100
AcDbEntity
  8
Layer 1
 62
    22
420
 15540004
370
    25
100
AcDbVertex
100
AcDb2dVertex
 10
23.96407383423576
 20
-20.84133965089866
 30
0.0
  0
SEQEND
  5
3C2
330
3BF
100
AcDbEntity
  8
Layer 1
 62
    22
420
 15540004
370
    25
  0
ENDBLK
  5
2D3
330
2D0
100
AcDbEntity
  8
0
100
AcDbBlockEnd
  0
ENDSEC
  0
SECTION
  2
ENTITIES
  0
POLYLINE
  5
41
330
1F
100
AcDbEntity
  8
Layer 1
 62
    22
420
 15540004
370
    25
100
AcDb2dPolyline
 66
     1
 10
0.0
 20
0.0
 30
0.0
  0
VERTEX
  5
42
330
41
100
AcDbEntity
  8
Layer 1
 62
    22
420
 15540004
370
    25
100
AcDbVertex
100
AcDb2dVertex
 10
0.0129306250472736
 20
-5.375084554922864
 30
0.0
  0
VERTEX
  5
43
330
41
100
AcDbEntity
  8
Layer 1
 62
    22
420
 15540004
370
    25
100
AcDbVertex
100
AcDb2dVertex
 10
0.0253300444105662
 20
-8.29600836210904
 30
0.0
  0
SEQEND
  5
44
330
41
100
AcDbEntity
  8
Layer 1
 62
    22
420
 15540004
370
    25
  0
POLYLINE
  5
45
330
1F
100
AcDbEntity
  8
Layer 1
 62
    22
420
 15540004
370
    25
100
AcDb2dPolyline
 66
     1
 10
0.0
 20
0.0
 30
0.0
  0
VERTEX
  5
46
330
45
100
AcDbEntity
  8
Layer 1
 62
    22
420
 15540004
370
    25
100
AcDbVertex
100
AcDb2dVertex
 10
0.0191298744256806
 20
-31.471286393292
 30
0.0
  0
VERTEX
  5
47
330
45
100
AcDbEntity
  8
Layer 1
 62
    22
420
 15540004
370
    25
100
AcDbVertex
100
AcDb2dVertex
 10
0.0263464438382673
 20
-31.46846739113016
 30
0.0
  0
VERTEX
  5
48
330
45
100
AcDbEntity
  8
Layer 1
 62
    22
420
 15540004
370
    25
100
AcDbVertex
100
AcDb2dVertex
 10
0.0490686221156314
 20
-31.45959144661639
 30
0.0
  0
VERTEX
  5
49
330
45
100
AcDbEntity
  8
Layer 1
 62
    22
420
 15540004
370
    25
100
AcDbVertex
100
AcDb2dVertex
 10
0.0893477622820203
 20
-31.44205230427593
 30
0.0
  0
VERTEX
  5
4A
330
45
100
AcDbEntity
  8
Layer 1
 62
    22
420
 15540004
370
    25
100
AcDbVertex
100
AcDb2dVertex
 10
0.1679140467385752
 20
-31.40316201473944
 30
0.0
  0
VERTEX
  5
4B
330
45
100
AcDbEntity
  8
Layer 1
 62
    22
420
 15540004
370
    25
100
AcDbVertex
100
AcDb2dVertex
 10
0.2444219068378035
 20
-31.36033010018228
 30
0.0
  0
VERTEX
  5
4C
330
45
100
AcDbEntity
  8
Layer 1
 62
    22
420
 15540004
370
    25
100
AcDbVertex
100
AcDb2dVertex
 10
0.3195884387325931
 20
-31.31492574234845
 30
0.0
  0
VERTEX
  5
4D
330
45
100
AcDbEntity
  8
Layer 1
 62
    22
420
 15540004
370
    25
100
AcDbVertex
100
AcDb2dVertex
 10
0.4687660023531887
 20
-31.22187650382698
 30
0.0
  0
VERTEX
  5
4E
330
45
100
AcDbEntity
  8
Layer 1
 62
    22
420
 15540004
370
    25
100
AcDbVertex
100
AcDb2dVertex
 10
0.5442112862845331
 20
-31.17697002662736
 30
0.0
  0
VERTEX
  5
4F
330
45
100
AcDbEntity
  8
Layer 1
 62
    22
420
 15540004
370
    25
100
AcDbVertex
100
AcDb2dVertex
 10
0.6211836865227521
 20
-31.13496795312722
 30
0.0
  0
VERTEX
  5
50
330
45
100
AcDbEntity
  8
Layer 1
 62
    22
420
 15540004
370
    25
100
AcDbVertex
100
AcDb2dVertex
 10
0.6826113030402641
 20
-31.11221022413959
 30
0.0
  0
VERTEX
  5
51
330
45
100
AcDbEntity
  8
Layer 1
 62
    22
420
 15540004
370
    25
100
AcDbVertex
100
AcDb2dVertex
 10
0.7445055961102172
 20
-31.09117681734824
 30
0.0
  0
VERTEX
  5
52
330
45
100
AcDbEntity
  8
Layer 1
 62
    22
420
 15540004
370
    25
100
AcDbVertex
100
AcDb2dVertex
 10
0.8695074254812248
 20
-31.05360568949203
 30
0.0
  0
VERTEX
  5
53
330
45
100
AcDbEntity
  8
Layer 1
 62
    22
420
 15540004
370
    25
100
AcDbVertex
100
AcDb2dVertex
 10
0.9958155618495033
 20
-31.02090014783334
 30
0.0
  0
VERTEX
  5
54
330
45
100
AcDbEntity
  8
Layer 1
 62
    22
420
 15540004
370
    25
100
AcDbVertex
100
AcDb2dVertex
 10
1.123056432361939
 20
-30.99170583064713
 30
0.0
  0
VERTEX
  5
55
330
45
100
AcDbEntity
  8
Layer 1
 62
    22
420
 15540004
370
    25
100
AcDbVertex
100
AcDb2dVertex
 10
1.378841964607634
 20
-30.93843322279114
 30
0.0
  0
VERTEX
  5
56
330
45
100
AcDbEntity
  8
Layer 1
 62
    22
420
 15540004
370
    25
100
AcDbVertex
100
AcDb2dVertex
 10
1.506639420735193
 20
-30.91164616867112
 30
0.0
  0
VERTEX
  5
57
330
45
100
AcDbEntity
  8
Layer 1
 62
    22
420
 15540004
370
    25
100
AcDbVertex
100
AcDb2dVertex
 10
1.633875199795006
 20
-30.88295273212285
 30
0.0
  0
VERTEX
  5
58
330
45
100
AcDbEntity
  8
Layer 1
 62
    22
420
 15540004
370
    25
100
AcDbVertex
100
AcDb2dVertex
 10
1.66115847716205
 20
-30.87400654072765
 30
0.0
  0
VERTEX
  5
59
330
45
100
AcDbEntity
  8
Layer 1
 62
    22
420
 15540004
370
    25
100
AcDbVertex
100
AcDb2dVertex
 10
1.687000054826361
 20
-30.86169636504756
 30
0.0
  0
VERTEX
  5
5A
330
45
100
AcDbEntity
  8
Layer 1
 62
    22
420
 15540004
370
    25
100
AcDbVertex
100
AcDb2dVertex
 10
1.736551548746408
 20
-30.83222072750297
 30
0.0
  0
VERTEX
  5
5B
330
45
100
AcDbEntity
  8
Layer 1
 62
    22
420
 15540004
370
    25
100
AcDbVertex
100
AcDb2dVertex
 10
1.761358183852002
 20
-30.81767358897352
 30
0.0
  0
VERTEX
  5
5C
330
45
100
AcDbEntity
  8
Layer 1
 62
    22
420
 15540004
370
    25
100
AcDbVertex
100
AcDb2dVertex
 10
1.786916576920918
 20
-30.80499915282947
 30
0.0
  0
VERTEX
  5
5D
330
45
100
AcDbEntity
  8
Layer 1
 62
    22
420
 15540004
370
    25
100
AcDbVertex
100
AcDb2dVertex
 10
1.813775087378404
 20
-30.79550654073824
 30
0.0
  0
VERTEX
  5
5E
330
45
100
AcDbEntity
  8
Layer 1
 62
    22
420
 15540004
370
    25
100
AcDbVertex
100
AcDb2dVertex
 10
1.842482054682566
 20
-30.79050493436747
 30
0.0
  0
VERTEX
  5
5F
330
45
100
AcDbEntity
  8
Layer 1
 62
    22
420
 15540004
370
    25
100
AcDbVertex
100
AcDb2dVertex
 10
9.348871055478499
 20
-29.67455019292012
 30
0.0
  0
VERTEX
  5
60
330
45
100
AcDbEntity
  8
Layer 1
 62
    22
420
 15540004
370
    25
100
AcDbVertex
100
AcDb2dVertex
 10
13.10221834936965
 20
-29.11776308371251
 30
0.0
  0
VERTEX
  5
61
330
45
100
AcDbEntity
  8
Layer 1
 62
    22
420
 15540004
370
    25
100
AcDbVertex
100
AcDb2dVertex
 10
16.85585487769979
 20
-28.56415951855999
 30
0.0
  0
VERTEX
  5
62
330
45
100
AcDbEntity
  8
Layer 1
 62
    22
420
 15540004
370
    25
100
AcDbVertex
100
AcDb2dVertex
 10
17.00810434426967
 20
-28.64468998113569
 30
0.0
  0
VERTEX
  5
63
330
45
100
AcDbEntity
  8
Layer 1
 62
    22
420
 15540004
370
    25
100
AcDbVertex
100
AcDb2dVertex
 10
17.15951617704306
 20
-28.72880544827775
 30
0.0
  0
VERTEX
  5
64
330
45
100
AcDbEntity
  8
Layer 1
 62
    22
420
 15540004
370
    25
100
AcDbVertex
100
AcDb2dVertex
 10
17.23442232606349
 20
-28.77258932404746
 30
0.0
  0
VERTEX
  5
65
330
45
100
AcDbEntity
  8
Layer 1
 62
    22
420
 15540004
370
    25
100
AcDbVertex
100
AcDb2dVertex
 10
17.30853626503055
 20
-28.81772756154229
 30
0.0
  0
VERTEX
  5
66
330
45
100
AcDbEntity
  8
Layer 1
 62
    22
420
 15540004
370
    25
100
AcDbVertex
100
AcDb2dVertex
 10
17.38166377998722
 20
-28.8643728409567
 30
0.0
  0
VERTEX
  5
67
330
45
100
AcDbEntity
  8
Layer 1
 62
    22
420
 15540004
370
    25
100
AcDbVertex
100
AcDb2dVertex
 10
17.45361055714324
 20
-28.91267788248529
 30
0.0
  0
VERTEX
  5
68
330
45
100
AcDbEntity
  8
Layer 1
 62
    22
420
 15540004
370
    25
100
AcDbVertex
100
AcDb2dVertex
 10
17.52418236257502
 20
-28.96279538632244
 30
0.0
  0
VERTEX
  5
69
330
45
100
AcDbEntity
  8
Layer 1
 62
    22
420
 15540004
370
    25
100
AcDbVertex
100
AcDb2dVertex
 10
17.59318492242569
 20
-29.01487803266269
 30
0.0
  0
VERTEX
  5
6A
330
45
100
AcDbEntity
  8
Layer 1
 62
    22
420
 15540004
370
    25
100
AcDbVertex
100
AcDb2dVertex
 10
17.66042398280489
 20
-29.06907856170063
 30
0.0
  0
VERTEX
  5
6B
330
45
100
AcDbEntity
  8
Layer 1
 62
    22
420
 15540004
370
    25
100
AcDbVertex
100
AcDb2dVertex
 10
17.72570528982199
 20
-29.12554963363062
 30
0.0
  0
VERTEX
  5
6C
330
45
100
AcDbEntity
  8
Layer 1
 62
    22
420
 15540004
370
    25
100
AcDbVertex
100
AcDb2dVertex
 10
17.78883456962037
 20
-29.18444394864729
 30
0.0
  0
VERTEX
  5
6D
330
45
100
AcDbEntity
  8
Layer 1
 62
    22
420
 15540004
370
    25
100
AcDbVertex
100
AcDb2dVertex
 10
17.84961756830979
 20
-29.24591424694507
 30
0.0
  0
VERTEX
  5
6E
330
45
100
AcDbEntity
  8
Layer 1
 62
    22
420
 15540004
370
    25
100
AcDbVertex
100
AcDb2dVertex
 10
17.90786003199951
 20
-29.31011318871848
 30
0.0
  0
VERTEX
  5
6F
330
45
100
AcDbEntity
  8
Layer 1
 62
    22
420
 15540004
370
    25
100
AcDbVertex
100
AcDb2dVertex
 10
17.9633676868331
 20
-29.37719351416207
 30
0.0
  0
VERTEX
  5
70
330
45
100
AcDbEntity
  8
Layer 1
 62
    22
420
 15540004
370
    25
100
AcDbVertex
100
AcDb2dVertex
 10
18.01402117075385
 20
-29.43859717237496
 30
0.0
  0
VERTEX
  5
71
330
45
100
AcDbEntity
  8
Layer 1
 62
    22
420
 15540004
370
    25
100
AcDbVertex
100
AcDb2dVertex
 10
18.06146805784667
 20
-29.50259331389002
 30
0.0
  0
VERTEX
  5
72
330
45
100
AcDbEntity
  8
Layer 1
 62
    22
420
 15540004
370
    25
100
AcDbVertex
100
AcDb2dVertex
 10
18.10682579216862
 20
-29.56829521757784
 30
0.0
  0
VERTEX
  5
73
330
45
100
AcDbEntity
  8
Layer 1
 62
    22
420
 15540004
370
    25
100
AcDbVertex
100
AcDb2dVertex
 10
18.15121185770886
 20
-29.63481612230882
 30
0.0
  0
VERTEX
  5
74
330
45
100
AcDbEntity
  8
Layer 1
 62
    22
420
 15540004
370
    25
100
AcDbVertex
100
AcDb2dVertex
 10
18.19574369852444
 20
-29.70126930695359
 30
0.0
  0
VERTEX
  5
75
330
45
100
AcDbEntity
  8
Layer 1
 62
    22
420
 15540004
370
    25
100
AcDbVertex
100
AcDb2dVertex
 10
18.24153879860508
 20
-29.76676803038259
 30
0.0
  0
VERTEX
  5
76
330
45
100
AcDbEntity
  8
Layer 1
 62
    22
420
 15540004
370
    25
100
AcDbVertex
100
AcDb2dVertex
 10
18.28971460200753
 20
-29.8304255714664
 30
0.0
  0
VERTEX
  5
77
330
45
100
AcDbEntity
  8
Layer 1
 62
    22
420
 15540004
370
    25
100
AcDbVertex
100
AcDb2dVertex
 10
18.34138861268795
 20
-29.89135518907546
 30
0.0
  0
VERTEX
  5
78
330
45
100
AcDbEntity
  8
Layer 1
 62
    22
420
 15540004
370
    25
100
AcDbVertex
100
AcDb2dVertex
 10
18.37850606064138
 20
-29.90054346077906
 30
0.0
  0
VERTEX
  5
79
330
45
100
AcDbEntity
  8
Layer 1
 62
    22
420
 15540004
370
    25
100
AcDbVertex
100
AcDb2dVertex
 10
18.41599564386155
 20
-29.90758578974919
 30
0.0
  0
VERTEX
  5
7A
330
45
100
AcDbEntity
  8
Layer 1
 62
    22
420
 15540004
370
    25
100
AcDbVertex
100
AcDb2dVertex
 10
18.45380301358793
 20
-29.91261839615951
 30
0.0
  0
VERTEX
  5
7B
330
45
100
AcDbEntity
  8
Layer 1
 62
    22
420
 15540004
370
    25
100
AcDbVertex
100
AcDb2dVertex
 10
18.49187388095965
 20
-29.9157776001835
 30
0.0
  0
VERTEX
  5
7C
330
45
100
AcDbEntity
  8
Layer 1
 62
    22
420
 15540004
370
    25
100
AcDbVertex
100
AcDb2dVertex
 10
18.53015395711559
 20
-29.91719962199482
 30
0.0
  0
VERTEX
  5
7D
330
45
100
AcDbEntity
  8
Layer 1
 62
    22
420
 15540004
370
    25
100
AcDbVertex
100
AcDb2dVertex
 10
18.56858889329563
 20
-29.91702076176701
 30
0.0
  0
VERTEX
  5
7E
330
45
100
AcDbEntity
  8
Layer 1
 62
    22
420
 15540004
370
    25
100
AcDbVertex
100
AcDb2dVertex
 10
18.64570621025056
 20
-29.91240545588824
 30
0.0
  0
VERTEX
  5
7F
330
45
100
AcDbEntity
  8
Layer 1
 62
    22
420
 15540004
370
    25
100
AcDbVertex
100
AcDb2dVertex
 10
18.72279138117159
 20
-29.90302180393584
 30
0.0
  0
VERTEX
  5
80
330
45
100
AcDbEntity
  8
Layer 1
 62
    22
420
 15540004
370
    25
100
AcDbVertex
100
AcDb2dVertex
 10
18.79940989550672
 20
-29.88995994729829
 30
0.0
  0
VERTEX
  5
81
330
45
100
AcDbEntity
  8
Layer 1
 62
    22
420
 15540004
370
    25
100
AcDbVertex
100
AcDb2dVertex
 10
18.87512734253596
 20
-29.87431000736418
 30
0.0
  0
VERTEX
  5
82
330
45
100
AcDbEntity
  8
Layer 1
 62
    22
420
 15540004
370
    25
100
AcDbVertex
100
AcDb2dVertex
 10
18.9495092316734
 20
-29.85716216552206
 30
0.0
  0
VERTEX
  5
83
330
45
100
AcDbEntity
  8
Layer 1
 62
    22
420
 15540004
370
    25
100
AcDbVertex
100
AcDb2dVertex
 10
19.55762985065914
 20
-29.6697337867852
 30
0.0
  0
VERTEX
  5
84
330
45
100
AcDbEntity
  8
Layer 1
 62
    22
420
 15540004
370
    25
100
AcDbVertex
100
AcDb2dVertex
 10
19.63494777084523
 20
-29.64330601312288
 30
0.0
  0
VERTEX
  5
85
330
45
100
AcDbEntity
  8
Layer 1
 62
    22
420
 15540004
370
    25
100
AcDbVertex
100
AcDb2dVertex
 10
19.71273190835483
 20
-29.61834926133416
 30
0.0
  0
VERTEX
  5
86
330
45
100
AcDbEntity
  8
Layer 1
 62
    22
420
 15540004
370
    25
100
AcDbVertex
100
AcDb2dVertex
 10
19.86910555133793
 20
-29.57089696089184
 30
0.0
  0
VERTEX
  5
87
330
45
100
AcDbEntity
  8
Layer 1
 62
    22
420
 15540004
370
    25
100
AcDbVertex
100
AcDb2dVertex
 10
20.02556437132767
 20
-29.5234731404857
 30
0.0
  0
VERTEX
  5
88
330
45
100
AcDbEntity
  8
Layer 1
 62
    22
420
 15540004
370
    25
100
AcDbVertex
100
AcDb2dVertex
 10
20.10345493017934
 20
-29.49855200874243
 30
0.0
  0
VERTEX
  5
89
330
45
100
AcDbEntity
  8
Layer 1
 62
    22
420
 15540004
370
    25
100
AcDbVertex
100
AcDb2dVertex
 10
20.18092188017716
 20
-29.47217411514359
 30
0.0
  0
VERTEX
  5
8A
330
45
100
AcDbEntity
  8
Layer 1
 62
    22
420
 15540004
370
    25
100
AcDbVertex
100
AcDb2dVertex
 10
20.79157105427374
 20
-29.28981134285904
 30
0.0
  0
VERTEX
  5
8B
330
45
100
AcDbEntity
  8
Layer 1
 62
    22
420
 15540004
370
    25
100
AcDbVertex
100
AcDb2dVertex
 10
20.86672123362071
 20
-29.26289938857988
 30
0.0
  0
VERTEX
  5
8C
330
45
100
AcDbEntity
  8
Layer 1
 62
    22
420
 15540004
370
    25
100
AcDbVertex
100
AcDb2dVertex
 10
20.94235492126351
 20
-29.23737141606362
 30
0.0
  0
VERTEX
  5
8D
330
45
100
AcDbEntity
  8
Layer 1
 62
    22
420
 15540004
370
    25
100
AcDbVertex
100
AcDb2dVertex
 10
21.09469038346591
 20
-29.18932819486862
 30
0.0
  0
VERTEX
  5
8E
330
45
100
AcDbEntity
  8
Layer 1
 62
    22
420
 15540004
370
    25
100
AcDbVertex
100
AcDb2dVertex
 10
21.40095595081478
 20
-29.09731731766972
 30
0.0
  0
VERTEX
  5
8F
330
45
100
AcDbEntity
  8
Layer 1
 62
    22
420
 15540004
370
    25
100
AcDbVertex
100
AcDb2dVertex
 10
21.97367661854676
 20
-28.92002019183752
 30
0.0
  0
VERTEX
  5
90
330
45
100
AcDbEntity
  8
Layer 1
 62
    22
420
 15540004
370
    25
100
AcDbVertex
100
AcDb2dVertex
 10
22.28841925475818
 20
-28.81960126392889
 30
0.0
  0
VERTEX
  5
91
330
45
100
AcDbEntity
  8
Layer 1
 62
    22
420
 15540004
370
    25
100
AcDbVertex
100
AcDb2dVertex
 10
22.60400311873304
 20
-28.72150377897727
 30
0.0
  0
VERTEX
  5
92
330
45
100
AcDbEntity
  8
Layer 1
 62
    22
420
 15540004
370
    25
100
AcDbVertex
100
AcDb2dVertex
 10
22.91986258004019
 20
-28.62388467463491
 30
0.0
  0
VERTEX
  5
93
330
45
100
AcDbEntity
  8
Layer 1
 62
    22
420
 15540004
370
    25
100
AcDbVertex
100
AcDb2dVertex
 10
23.23543208811523
 20
-28.52490086855429
 30
0.0
  0
VERTEX
  5
94
330
45
100
AcDbEntity
  8
Layer 1
 62
    22
420
 15540004
370
    25
100
AcDbVertex
100
AcDb2dVertex
 10
23.30325440932731
 20
-28.49448908981725
 30
0.0
  0
VERTEX
  5
95
330
45
100
AcDbEntity
  8
Layer 1
 62
    22
420
 15540004
370
    25
100
AcDbVertex
100
AcDb2dVertex
 10
23.37070335735103
 20
-28.4613433475979
 30
0.0
  0
VERTEX
  5
96
330
45
100
AcDbEntity
  8
Layer 1
 62
    22
420
 15540004
370
    25
100
AcDbVertex
100
AcDb2dVertex
 10
23.43678807561713
 20
-28.42491094119214
 30
0.0
  0
VERTEX
  5
97
330
45
100
AcDbEntity
  8
Layer 1
 62
    22
420
 15540004
370
    25
100
AcDbVertex
100
AcDb2dVertex
 10
23.50051766762327
 20
-28.38463922989604
 30
0.0
  0
VERTEX
  5
98
330
45
100
AcDbEntity
  8
Layer 1
 62
    22
420
 15540004
370
    25
100
AcDbVertex
100
AcDb2dVertex
 10
23.53118965608822
 20
-28.36289092219411
 30
0.0
  0
VERTEX
  5
99
330
45
100
AcDbEntity
  8
Layer 1
 62
    22
420
 15540004
370
    25
100
AcDbVertex
100
AcDb2dVertex
 10
23.5609012568333
 20
-28.33997553300565
 30
0.0
  0
VERTEX
  5
9A
330
45
100
AcDbEntity
  8
Layer 1
 62
    22
420
 15540004
370
    25
100
AcDbVertex
100
AcDb2dVertex
 10
23.58952865771208
 20
-28.31582396224258
 30
0.0
  0
VERTEX
  5
9B
330
45
100
AcDbEntity
  8
Layer 1
 62
    22
420
 15540004
370
    25
100
AcDbVertex
100
AcDb2dVertex
 10
23.6169479667118
 20
-28.29036716981697
 30
0.0
  0
VERTEX
  5
9C
330
45
100
AcDbEntity
  8
Layer 1
 62
    22
420
 15540004
370
    25
100
AcDbVertex
100
AcDb2dVertex
 10
23.64303533175295
 20
-28.2635360356408
 30
0.0
  0
VERTEX
  5
9D
330
45
100
AcDbEntity
  8
Layer 1
 62
    22
420
 15540004
370
    25
100
AcDbVertex
100
AcDb2dVertex
 10
23.66766688078971
 20
-28.23526147962613
 30
0.0
  0
VERTEX
  5
9E
330
45
100
AcDbEntity
  8
Layer 1
 62
    22
420
 15540004
370
    25
100
AcDbVertex
100
AcDb2dVertex
 10
23.69071878170896
 20
-28.2054744416849
 30
0.0
  0
VERTEX
  5
9F
330
45
100
AcDbEntity
  8
Layer 1
 62
    22
420
 15540004
370
    25
100
AcDbVertex
100
AcDb2dVertex
 10
23.71206716246428
 20
-28.17410582172907
 30
0.0
  0
VERTEX
  5
A0
330
45
100
AcDbEntity
  8
Layer 1
 62
    22
420
 15540004
370
    25
100
AcDbVertex
100
AcDb2dVertex
 10
23.73827602354024
 20
-28.14179222056964
 30
0.0
  0
VERTEX
  5
A1
330
45
100
AcDbEntity
  8
Layer 1
 62
    22
420
 15540004
370
    25
100
AcDbVertex
100
AcDb2dVertex
 10
23.7628770637947
 20
-28.1083826580142
 30
0.0
  0
VERTEX
  5
A2
330
45
100
AcDbEntity
  8
Layer 1
 62
    22
420
 15540004
370
    25
100
AcDbVertex
100
AcDb2dVertex
 10
23.7859378298312
 20
-28.07395879416683
 30
0.0
  0
VERTEX
  5
A3
330
45
100
AcDbEntity
  8
Layer 1
 62
    22
420
 15540004
370
    25
100
AcDbVertex
100
AcDb2dVertex
 10
23.80752590818691
 20
-28.03860226913144
 30
0.0
  0
VERTEX
  5
A4
330
45
100
AcDbEntity
  8
Layer 1
 62
    22
420
 15540004
370
    25
100
AcDbVertex
100
AcDb2dVertex
 10
23.82770884546613
 20
-28.0023947230121
 30
0.0
  0
VERTEX
  5
A5
330
45
100
AcDbEntity
  8
Layer 1
 62
    22
420
 15540004
370
    25
100
AcDbVertex
100
AcDb2dVertex
 10
23.84655416830613
 20
-27.96541781591274
 30
0.0
  0
VERTEX
  5
A6
330
45
100
AcDbEntity
  8
Layer 1
 62
    22
420
 15540004
370
    25
100
AcDbVertex
100
AcDb2dVertex
 10
23.88050229685137
 20
-27.88948247919011
 30
0.0
  0
VERTEX
  5
A7
330
45
100
AcDbEntity
  8
Layer 1
 62
    22
420
 15540004
370
    25
100
AcDbVertex
100
AcDb2dVertex
 10
23.90991074652048
 20
-27.81144941979553
 30
0.0
  0
VERTEX
  5
A8
330
45
100
AcDbEntity
  8
Layer 1
 62
    22
420
 15540004
370
    25
100
AcDbVertex
100
AcDb2dVertex
 10
23.93531997001264
 20
-27.73197179856091
 30
0.0
  0
VERTEX
  5
A9
330
45
100
AcDbEntity
  8
Layer 1
 62
    22
420
 15540004
370
    25
100
AcDbVertex
100
AcDb2dVertex
 10
23.95727040005946
 20
-27.65170279631825
 30
0.0
  0
VERTEX
  5
AA
330
45
100
AcDbEntity
  8
Layer 1
 62
    22
420
 15540004
370
    25
100
AcDbVertex
100
AcDb2dVertex
 10
23.97630252929265
 20
-27.57129555389949
 30
0.0
  0
VERTEX
  5
AB
330
45
100
AcDbEntity
  8
Layer 1
 62
    22
420
 15540004
370
    25
100
AcDbVertex
100
AcDb2dVertex
 10
23.9834851512473
 20
-27.52825663907869
 30
0.0
  0
VERTEX
  5
AC
330
45
100
AcDbEntity
  8
Layer 1
 62
    22
420
 15540004
370
    25
100
AcDbVertex
100
AcDb2dVertex
 10
23.98609293335372
 20
-27.48548956460414
 30
0.0
  0
VERTEX
  5
AD
330
45
100
AcDbEntity
  8
Layer 1
 62
    22
420
 15540004
370
    25
100
AcDbVertex
100
AcDb2dVertex
 10
23.98433881812808
 20
-27.44311871063428
 30
0.0
  0
VERTEX
  5
AE
330
45
100
AcDbEntity
  8
Layer 1
 62
    22
420
 15540004
370
    25
100
AcDbVertex
100
AcDb2dVertex
 10
23.97843572812033
 20
-27.40126845732751
 30
0.0
  0
VERTEX
  5
AF
330
45
100
AcDbEntity
  8
Layer 1
 62
    22
420
 15540004
370
    25
100
AcDbVertex
100
AcDb2dVertex
 10
23.96859666574594
 20
-27.36006320484229
 30
0.0
  0
VERTEX
  5
B0
330
45
100
AcDbEntity
  8
Layer 1
 62
    22
420
 15540004
370
    25
100
AcDbVertex
100
AcDb2dVertex
 10
23.95503453358853
 20
-27.31962733333709
 30
0.0
  0
VERTEX
  5
B1
330
45
100
AcDbEntity
  8
Layer 1
 62
    22
420
 15540004
370
    25
100
AcDbVertex
100
AcDb2dVertex
 10
23.93796233406339
 20
-27.28008522297038
 30
0.0
  0
VERTEX
  5
B2
330
45
100
AcDbEntity
  8
Layer 1
 62
    22
420
 15540004
370
    25
100
AcDbVertex
100
AcDb2dVertex
 10
23.91759298972081
 20
-27.24156125390047
 30
0.0
  0
VERTEX
  5
B3
330
45
100
AcDbEntity
  8
Layer 1
 62
    22
420
 15540004
370
    25
100
AcDbVertex
100
AcDb2dVertex
 10
23.89413946304315
 20
-27.20417980628584
 30
0.0
  0
VERTEX
  5
B4
330
45
100
AcDbEntity
  8
Layer 1
 62
    22
420
 15540004
370
    25
100
AcDbVertex
100
AcDb2dVertex
 10
23.86781469654685
 20
-27.16806528028494
 30
0.0
  0
VERTEX
  5
B5
330
45
100
AcDbEntity
  8
Layer 1
 62
    22
420
 15540004
370
    25
100
AcDbVertex
100
AcDb2dVertex
 10
23.83883167268116
 20
-27.13334203605624
 30
0.0
  0
VERTEX
  5
B6
330
45
100
AcDbEntity
  8
Layer 1
 62
    22
420
 15540004
370
    25
100
AcDbVertex
100
AcDb2dVertex
 10
23.80740331399556
 20
-27.10013445375807
 30
0.0
  0
VERTEX
  5
B7
330
45
100
AcDbEntity
  8
Layer 1
 62
    22
420
 15540004
370
    25
100
AcDbVertex
100
AcDb2dVertex
 10
23.77374260293972
 20
-27.06856695354892
 30
0.0
  0
VERTEX
  5
B8
330
45
100
AcDbEntity
  8
Layer 1
 62
    22
420
 15540004
370
    25
100
AcDbVertex
100
AcDb2dVertex
 10
23.73806248202976
 20
-27.03876389558733
 30
0.0
  0
VERTEX
  5
B9
330
45
100
AcDbEntity
  8
Layer 1
 62
    22
420
 15540004
370
    25
100
AcDbVertex
100
AcDb2dVertex
 10
23.70057589378161
 20
-27.01084964003151
 30
0.0
  0
VERTEX
  5
BA
330
45
100
AcDbEntity
  8
Layer 1
 62
    22
420
 15540004
370
    25
100
AcDbVertex
100
AcDb2dVertex
 10
23.66149580067839
 20
-26.98494860704007
 30
0.0
  0
VERTEX
  5
BB
330
45
100
AcDbEntity
  8
Layer 1
 62
    22
420
 15540004
370
    25
100
AcDbVertex
100
AcDb2dVertex
 10
23.61156556258655
 20
-26.95255998578508
 30
0.0
  0
VERTEX
  5
BC
330
45
100
AcDbEntity
  8
Layer 1
 62
    22
420
 15540004
370
    25
100
AcDbVertex
100
AcDb2dVertex
 10
23.56217679548409
 20
-26.91899154302731
 30
0.0
  0
VERTEX
  5
BD
330
45
100
AcDbEntity
  8
Layer 1
 62
    22
420
 15540004
370
    25
100
AcDbVertex
100
AcDb2dVertex
 10
23.46303255689483
 20
-26.85253841838261
 30
0.0
  0
VERTEX
  5
BE
330
45
100
AcDbEntity
  8
Layer 1
 62
    22
420
 15540004
370
    25
100
AcDbVertex
100
AcDb2dVertex
 10
23.41228149678303
 20
-26.82176531918538
 30
0.0
  0
VERTEX
  5
BF
330
45
100
AcDbEntity
  8
Layer 1
 62
    22
420
 15540004
370
    25
100
AcDbVertex
100
AcDb2dVertex
 10
23.36008077034274
 20
-26.79403562386465
 30
0.0
  0
VERTEX
  5
C0
330
45
100
AcDbEntity
  8
Layer 1
 62
    22
420
 15540004
370
    25
100
AcDbVertex
100
AcDb2dVertex
 10
23.3059326132111
 20
-26.77040509376527
 30
0.0
  0
VERTEX
  5
C1
330
45
100
AcDbEntity
  8
Layer 1
 62
    22
420
 15540004
370
    25
100
AcDbVertex
100
AcDb2dVertex
 10
23.27797267181434
 20
-26.76045694109386
 30
0.0
  0
VERTEX
  5
C2
330
45
100
AcDbEntity
  8
Layer 1
 62
    22
420
 15540004
370
    25
100
AcDbVertex
100
AcDb2dVertex
 10
23.24933920112547
 20
-26.75192953023204
 30
0.0
  0
VERTEX
  5
C3
330
45
100
AcDbEntity
  8
Layer 1
 62
    22
420
 15540004
370
    25
100
AcDbVertex
100
AcDb2dVertex
 10
23.18400144886755
 20
-26.73211662499534
 30
0.0
  0
VERTEX
  5
C4
330
45
100
AcDbEntity
  8
Layer 1
 62
    22
420
 15540004
370
    25
100
AcDbVertex
100
AcDb2dVertex
 10
23.1191905920677
 20
-26.71078093781903
 30
0.0
  0
VERTEX
  5
C5
330
45
100
AcDbEntity
  8
Layer 1
 62
    22
420
 15540004
370
    25
100
AcDbVertex
100
AcDb2dVertex
 10
22.99031586444264
 20
-26.66632984119946
 30
0.0
  0
VERTEX
  5
C6
330
45
100
AcDbEntity
  8
Layer 1
 62
    22
420
 15540004
370
    25
100
AcDbVertex
100
AcDb2dVertex
 10
22.92583513343419
 20
-26.64460875353219
 30
0.0
  0
VERTEX
  5
C7
330
45
100
AcDbEntity
  8
Layer 1
 62
    22
420
 15540004
370
    25
100
AcDbVertex
100
AcDb2dVertex
 10
22.86104761745026
 20
-26.62415352747737
 30
0.0
  0
VERTEX
  5
C8
330
45
100
AcDbEntity
  8
Layer 1
 62
    22
420
 15540004
370
    25
100
AcDbVertex
100
AcDb2dVertex
 10
22.79574486643302
 20
-26.60566132392291
 30
0.0
  0
VERTEX
  5
C9
330
45
100
AcDbEntity
  8
Layer 1
 62
    22
420
 15540004
370
    25
100
AcDbVertex
100
AcDb2dVertex
 10
22.72971847025701
 20
-26.58982928375685
 30
0.0
  0
VERTEX
  5
CA
330
45
100
AcDbEntity
  8
Layer 1
 62
    22
420
 15540004
370
    25
100
AcDbVertex
100
AcDb2dVertex
 10
22.16830773563005
 20
-26.4646391242959
 30
0.0
  0
VERTEX
  5
CB
330
45
100
AcDbEntity
  8
Layer 1
 62
    22
420
 15540004
370
    25
100
AcDbVertex
100
AcDb2dVertex
 10
21.88803632979064
 20
-26.40148178384925
 30
0.0
  0
VERTEX
  5
CC
330
45
100
AcDbEntity
  8
Layer 1
 62
    22
420
 15540004
370
    25
100
AcDbVertex
100
AcDb2dVertex
 10
21.6082985481132
 20
-26.33654766113942
 30
0.0
  0
VERTEX
  5
CD
330
45
100
AcDbEntity
  8
Layer 1
 62
    22
420
 15540004
370
    25
100
AcDbVertex
100
AcDb2dVertex
 10
20.71318544650057
 20
-26.1389880094978
 30
0.0
  0
VERTEX
  5
CE
330
45
100
AcDbEntity
  8
Layer 1
 62
    22
420
 15540004
370
    25
100
AcDbVertex
100
AcDb2dVertex
 10
20.60821025679807
 20
-26.11421029793716
 30
0.0
  0
VERTEX
  5
CF
330
45
100
AcDbEntity
  8
Layer 1
 62
    22
420
 15540004
370
    25
100
AcDbVertex
100
AcDb2dVertex
 10
20.50319389621265
 20
-26.0905307877754
 30
0.0
  0
VERTEX
  5
D0
330
45
100
AcDbEntity
  8
Layer 1
 62
    22
420
 15540004
370
    25
100
AcDbVertex
100
AcDb2dVertex
 10
20.39855380395516
 20
-26.06606831661631
 30
0.0
  0
VERTEX
  5
D1
330
45
100
AcDbEntity
  8
Layer 1
 62
    22
420
 15540004
370
    25
100
AcDbVertex
100
AcDb2dVertex
 10
20.29470743920355
 20
-26.03894176206389
 30
0.0
  0
VERTEX
  5
D2
330
45
100
AcDbEntity
  8
Layer 1
 62
    22
420
 15540004
370
    25
100
AcDbVertex
100
AcDb2dVertex
 10
19.41476574812335
 20
-25.84771413848769
 30
0.0
  0
VERTEX
  5
D3
330
45
100
AcDbEntity
  8
Layer 1
 62
    22
420
 15540004
370
    25
100
AcDbVertex
100
AcDb2dVertex
 10
19.29037022090405
 20
-25.81754820006386
 30
0.0
  0
VERTEX
  5
D4
330
45
100
AcDbEntity
  8
Layer 1
 62
    22
420
 15540004
370
    25
100
AcDbVertex
100
AcDb2dVertex
 10
19.16552351112144
 20
-25.78888662355611
 30
0.0
  0
VERTEX
  5
D5
330
45
100
AcDbEntity
  8
Layer 1
 62
    22
420
 15540004
370
    25
100
AcDbVertex
100
AcDb2dVertex
 10
18.91537355797567
 20
-25.73373741330983
 30
0.0
  0
VERTEX
  5
D6
330
45
100
AcDbEntity
  8
Layer 1
 62
    22
420
 15540004
370
    25
100
AcDbVertex
100
AcDb2dVertex
 10
18.06577468796018
 20
-25.5399769865075
 30
0.0
  0
VERTEX
  5
D7
330
45
100
AcDbEntity
  8
Layer 1
 62
    22
420
 15540004
370
    25
100
AcDbVertex
100
AcDb2dVertex
 10
18.02039630829752
 20
-25.53254881704586
 30
0.0
  0
VERTEX
  5
D8
330
45
100
AcDbEntity
  8
Layer 1
 62
    22
420
 15540004
370
    25
100
AcDbVertex
100
AcDb2dVertex
 10
17.97275398929176
 20
-25.52092020223391
 30
0.0
  0
VERTEX
  5
D9
330
45
100
AcDbEntity
  8
Layer 1
 62
    22
420
 15540004
370
    25
100
AcDbVertex
100
AcDb2dVertex
 10
17.92391511903315
 20
-25.50825250609842
 30
0.0
  0
VERTEX
  5
DA
330
45
100
AcDbEntity
  8
Layer 1
 62
    22
420
 15540004
370
    25
100
AcDbVertex
100
AcDb2dVertex
 10
17.87494712554397
 20
-25.49770713266626
 30
0.0
  0
VERTEX
  5
DB
330
45
100
AcDbEntity
  8
Layer 1
 62
    22
420
 15540004
370
    25
100
AcDbVertex
100
AcDb2dVertex
 10
17.8507482900761
 20
-25.49421826822234
 30
0.0
  0
VERTEX
  5
DC
330
45
100
AcDbEntity
  8
Layer 1
 62
    22
420
 15540004
370
    25
100
AcDbVertex
100
AcDb2dVertex
 10
17.82691743684684
 20
-25.49244550596429
 30
0.0
  0
VERTEX
  5
DD
330
45
100
AcDbEntity
  8
Layer 1
 62
    22
420
 15540004
370
    25
100
AcDbVertex
100
AcDb2dVertex
 10
17.80358802181323
 20
-25.49278402639543
 30
0.0
  0
VERTEX
  5
DE
330
45
100
AcDbEntity
  8
Layer 1
 62
    22
420
 15540004
370
    25
100
AcDbVertex
100
AcDb2dVertex
 10
17.78089346099846
 20
-25.49562901001925
 30
0.0
  0
VERTEX
  5
DF
330
45
100
AcDbEntity
  8
Layer 1
 62
    22
420
 15540004
370
    25
100
AcDbVertex
100
AcDb2dVertex
 10
17.75896719039297
 20
-25.50137561733901
 30
0.0
  0
VERTEX
  5
E0
330
45
100
AcDbEntity
  8
Layer 1
 62
    22
420
 15540004
370
    25
100
AcDbVertex
100
AcDb2dVertex
 10
17.73794262602102
 20
-25.51041902885805
 30
0.0
  0
VERTEX
  5
E1
330
45
100
AcDbEntity
  8
Layer 1
 62
    22
420
 15540004
370
    25
100
AcDbVertex
100
AcDb2dVertex
 10
17.717953183906
 20
-25.52315442507976
 30
0.0
  0
VERTEX
  5
E2
330
45
100
AcDbEntity
  8
Layer 1
 62
    22
420
 15540004
370
    25
100
AcDbVertex
100
AcDb2dVertex
 10
17.69913232000459
 20
-25.5399769865075
 30
0.0
  0
VERTEX
  5
E3
330
45
100
AcDbEntity
  8
Layer 1
 62
    22
420
 15540004
370
    25
100
AcDbVertex
100
AcDb2dVertex
 10
17.66722724162673
 20
-25.60684293167802
 30
0.0
  0
VERTEX
  5
E4
330
45
100
AcDbEntity
  8
Layer 1
 62
    22
420
 15540004
370
    25
100
AcDbVertex
100
AcDb2dVertex
 10
17.63784836231535
 20
-25.67487485833367
 30
0.0
  0
VERTEX
  5
E5
330
45
100
AcDbEntity
  8
Layer 1
 62
    22
420
 15540004
370
    25
100
AcDbVertex
100
AcDb2dVertex
 10
17.58259981250148
 20
-25.81252105366053
 30
0.0
  0
VERTEX
  5
E6
330
45
100
AcDbEntity
  8
Layer 1
 62
    22
420
 15540004
370
    25
100
AcDbVertex
100
AcDb2dVertex
 10
17.55469545778694
 20
-25.88117748111164
 30
0.0
  0
VERTEX
  5
E7
330
45
100
AcDbEntity
  8
Layer 1
 62
    22
420
 15540004
370
    25
100
AcDbVertex
100
AcDb2dVertex
 10
17.52524795368158
 20
-25.94908426760791
 30
0.0
  0
VERTEX
  5
E8
330
45
100
AcDbEntity
  8
Layer 1
 62
    22
420
 15540004
370
    25
100
AcDbVertex
100
AcDb2dVertex
 10
17.49323992812954
 20
-26.01576249253932
 30
0.0
  0
VERTEX
  5
E9
330
45
100
AcDbEntity
  8
Layer 1
 62
    22
420
 15540004
370
    25
100
AcDbVertex
100
AcDb2dVertex
 10
17.45765406897474
 20
-26.08073323529576
 30
0.0
  0
VERTEX
  5
EA
330
45
100
AcDbEntity
  8
Layer 1
 62
    22
420
 15540004
370
    25
100
AcDbVertex
100
AcDb2dVertex
 10
17.43627653715753
 20
-26.11417791789593
 30
0.0
  0
VERTEX
  5
EB
330
45
100
AcDbEntity
  8
Layer 1
 62
    22
420
 15540004
370
    25
100
AcDbVertex
100
AcDb2dVertex
 10
17.41367360252257
 20
-26.14660029919393
 30
0.0
  0
VERTEX
  5
EC
330
45
100
AcDbEntity
  8
Layer 1
 62
    22
420
 15540004
370
    25
100
AcDbVertex
100
AcDb2dVertex
 10
17.38988905156202
 20
-26.17799431918209
 30
0.0
  0
VERTEX
  5
ED
330
45
100
AcDbEntity
  8
Layer 1
 62
    22
420
 15540004
370
    25
100
AcDbVertex
100
AcDb2dVertex
 10
17.36496669073434
 20
-26.20835393785263
 30
0.0
  0
VERTEX
  5
EE
330
45
100
AcDbEntity
  8
Layer 1
 62
    22
420
 15540004
370
    25
100
AcDbVertex
100
AcDb2dVertex
 10
17.31188372537973
 20
-26.26594571121015
 30
0.0
  0
VERTEX
  5
EF
330
45
100
AcDbEntity
  8
Layer 1
 62
    22
420
 15540004
370
    25
100
AcDbVertex
100
AcDb2dVertex
 10
17.25477511819362
 20
-26.31932723920489
 30
0.0
  0
VERTEX
  5
F0
330
45
100
AcDbEntity
  8
Layer 1
 62
    22
420
 15540004
370
    25
100
AcDbVertex
100
AcDb2dVertex
 10
17.19399124097921
 20
-26.36845012177517
 30
0.0
  0
VERTEX
  5
F1
330
45
100
AcDbEntity
  8
Layer 1
 62
    22
420
 15540004
370
    25
100
AcDbVertex
100
AcDb2dVertex
 10
17.12988250547202
 20
-26.41326599885936
 30
0.0
  0
VERTEX
  5
F2
330
45
100
AcDbEntity
  8
Layer 1
 62
    22
420
 15540004
370
    25
100
AcDbVertex
100
AcDb2dVertex
 10
17.06279926350802
 20
-26.45372643039587
 30
0.0
  0
VERTEX
  5
F3
330
45
100
AcDbEntity
  8
Layer 1
 62
    22
420
 15540004
370
    25
100
AcDbVertex
100
AcDb2dVertex
 10
16.99309192682277
 20
-26.48978305632297
 30
0.0
  0
VERTEX
  5
F4
330
45
100
AcDbEntity
  8
Layer 1
 62
    22
420
 15540004
370
    25
100
AcDbVertex
100
AcDb2dVertex
 10
16.92111090715237
 20
-26.52138745657905
 30
0.0
  0
VERTEX
  5
F5
330
45
100
AcDbEntity
  8
Layer 1
 62
    22
420
 15540004
370
    25
100
AcDbVertex
100
AcDb2dVertex
 10
16.84720655633262
 20
-26.54849123110251
 30
0.0
  0
VERTEX
  5
F6
330
45
100
AcDbEntity
  8
Layer 1
 62
    22
420
 15540004
370
    25
100
AcDbVertex
100
AcDb2dVertex
 10
16.77172926613295
 20
-26.57104601983166
 30
0.0
  0
VERTEX
  5
F7
330
45
100
AcDbEntity
  8
Layer 1
 62
    22
420
 15540004
370
    25
100
AcDbVertex
100
AcDb2dVertex
 10
16.69502946825509
 20
-26.5890034027049
 30
0.0
  0
VERTEX
  5
F8
330
45
100
AcDbEntity
  8
Layer 1
 62
    22
420
 15540004
370
    25
100
AcDbVertex
100
AcDb2dVertex
 10
16.61745749456895
 20
-26.60231499966054
 30
0.0
  0
VERTEX
  5
F9
330
45
100
AcDbEntity
  8
Layer 1
 62
    22
420
 15540004
370
    25
100
AcDbVertex
100
AcDb2dVertex
 10
16.5393637967432
 20
-26.61093239063696
 30
0.0
  0
VERTEX
  5
FA
330
45
100
AcDbEntity
  8
Layer 1
 62
    22
420
 15540004
370
    25
100
AcDbVertex
100
AcDb2dVertex
 10
16.46109870664744
 20
-26.6148072155725
 30
0.0
  0
VERTEX
  5
FB
330
45
100
AcDbEntity
  8
Layer 1
 62
    22
420
 15540004
370
    25
100
AcDbVertex
100
AcDb2dVertex
 10
16.3830126559838
 20
-26.61389103440549
 30
0.0
  0
VERTEX
  5
FC
330
45
100
AcDbEntity
  8
Layer 1
 62
    22
420
 15540004
370
    25
100
AcDbVertex
100
AcDb2dVertex
 10
16.29474845220471
 20
-26.6195013815517
 30
0.0
  0
VERTEX
  5
FD
330
45
100
AcDbEntity
  8
Layer 1
 62
    22
420
 15540004
370
    25
100
AcDbVertex
100
AcDb2dVertex
 10
16.20664056600284
 20
-26.62727785145696
 30
0.0
  0
VERTEX
  5
FE
330
45
100
AcDbEntity
  8
Layer 1
 62
    22
420
 15540004
370
    25
100
AcDbVertex
100
AcDb2dVertex
 10
16.03071734247341
 20
-26.64721845685633
 30
0.0
  0
VERTEX
  5
FF
330
45
100
AcDbEntity
  8
Layer 1
 62
    22
420
 15540004
370
    25
100
AcDbVertex
100
AcDb2dVertex
 10
15.85489023758201
 20
-26.66949146522655
 30
0.0
  0
VERTEX
  5
100
330
45
100
AcDbEntity
  8
Layer 1
 62
    22
420
 15540004
370
    25
100
AcDbVertex
100
AcDb2dVertex
 10
15.67880644361513
 20
-26.68987553119076
 30
0.0
  0
VERTEX
  5
101
330
45
100
AcDbEntity
  8
Layer 1
 62
    22
420
 15540004
370
    25
100
AcDbVertex
100
AcDb2dVertex
 10
0.0263466963500226
 20
-28.55803322388925
 30
0.0
  0
VERTEX
  5
102
330
45
100
AcDbEntity
  8
Layer 1
 62
    22
420
 15540004
370
    25
100
AcDbVertex
100
AcDb2dVertex
 10
0.0263464438382673
 20
-31.46846739113016
 30
0.0
  0
VERTEX
  5
103
330
45
100
AcDbEntity
  8
Layer 1
 62
    22
420
 15540004
370
    25
100
AcDbVertex
100
AcDb2dVertex
 10
0.0356384003599715
 20
-30.03365086809355
 30
0.0
  0
VERTEX
  5
104
330
45
100
AcDbEntity
  8
Layer 1
 62
    22
420
 15540004
370
    25
100
AcDbVertex
100
AcDb2dVertex
 10
0.0263466963500226
 20
-28.55803322388925
 30
0.0
  0
SEQEND
  5
105
330
45
100
AcDbEntity
  8
Layer 1
 62
    22
420
 15540004
370
    25
  0
POLYLINE
  5
106
330
1F
100
AcDbEntity
  8
Layer 1
 62
    22
420
 15540004
370
    25
100
AcDb2dPolyline
 66
     1
 10
0.0
 20
0.0
 30
0.0
  0
VERTEX
  5
107
330
106
100
AcDbEntity
  8
Layer 1
 62
    22
420
 15540004
370
    25
100
AcDbVertex
100
AcDb2dVertex
 10
23.97572935056084
 20
-29.44040892266083
 30
0.0
  0
VERTEX
  5
108
330
106
100
AcDbEntity
  8
Layer 1
 62
    22
420
 15540004
370
    25
100
AcDbVertex
100
AcDb2dVertex
 10
23.96851902180679
 20
-29.44322548703973
 30
0.0
  0
VERTEX
  5
109
330
106
100
AcDbEntity
  8
Layer 1
 62
    22
420
 15540004
370
    25
100
AcDbVertex
100
AcDb2dVertex
 10
23.94581649294287
 20
-29.45209375592043
 30
0.0
  0
VERTEX
  5
10A
330
106
100
AcDbEntity
  8
Layer 1
 62
    22
420
 15540004
370
    25
100
AcDbVertex
100
AcDb2dVertex
 10
23.9055721848893
 20
-29.46961773097124
 30
0.0
  0
VERTEX
  5
10B
330
106
100
AcDbEntity
  8
Layer 1
 62
    22
420
 15540004
370
    25
100
AcDbVertex
100
AcDb2dVertex
 10
23.82707384204405
 20
-29.50847438942853
 30
0.0
  0
VERTEX
  5
10C
330
106
100
AcDbEntity
  8
Layer 1
 62
    22
420
 15540004
370
    25
100
AcDbVertex
100
AcDb2dVertex
 10
23.75063214349656
 20
-29.55126926431517
 30
0.0
  0
VERTEX
  5
10D
330
106
100
AcDbEntity
  8
Layer 1
 62
    22
420
 15540004
370
    25
100
AcDbVertex
100
AcDb2dVertex
 10
23.67553061321574
 20
-29.59663435791175
 30
0.0
  0
VERTEX
  5
10E
330
106
100
AcDbEntity
  8
Layer 1
 62
    22
420
 15540004
370
    25
100
AcDbVertex
100
AcDb2dVertex
 10
23.5264820535835
 20
-29.6896031304262
 30
0.0
  0
VERTEX
  5
10F
330
106
100
AcDbEntity
  8
Layer 1
 62
    22
420
 15540004
370
    25
100
AcDbVertex
100
AcDb2dVertex
 10
23.45110201232198
 20
-29.73447077393985
 30
0.0
  0
VERTEX
  5
110
330
106
100
AcDbEntity
  8
Layer 1
 62
    22
420
 15540004
370
    25
100
AcDbVertex
100
AcDb2dVertex
 10
23.37419617535493
 20
-29.77643652538947
 30
0.0
  0
VERTEX
  5
111
330
106
100
AcDbEntity
  8
Layer 1
 62
    22
420
 15540004
370
    25
100
AcDbVertex
100
AcDb2dVertex
 10
23.31282167947658
 20
-29.79917457422056
 30
0.0
  0
VERTEX
  5
112
330
106
100
AcDbEntity
  8
Layer 1
 62
    22
420
 15540004
370
    25
100
AcDbVertex
100
AcDb2dVertex
 10
23.25098091061272
 20
-29.82018979199407
 30
0.0
  0
VERTEX
  5
113
330
106
100
AcDbEntity
  8
Layer 1
 62
    22
420
 15540004
370
    25
100
AcDbVertex
100
AcDb2dVertex
 10
23.1260871788279
 20
-29.85772842953995
 30
0.0
  0
VERTEX
  5
114
330
106
100
AcDbEntity
  8
Layer 1
 62
    22
420
 15540004
370
    25
100
AcDbVertex
100
AcDb2dVertex
 10
22.99988826969833
 20
-29.89040568849168
 30
0.0
  0
VERTEX
  5
115
330
106
100
AcDbEntity
  8
Layer 1
 62
    22
420
 15540004
370
    25
100
AcDbVertex
100
AcDb2dVertex
 10
22.87275743302325
 20
-29.91957475936563
 30
0.0
  0
VERTEX
  5
116
330
106
100
AcDbEntity
  8
Layer 1
 62
    22
420
 15540004
370
    25
100
AcDbVertex
100
AcDb2dVertex
 10
22.6171930959293
 20
-29.97280129877329
 30
0.0
  0
VERTEX
  5
117
330
106
100
AcDbEntity
  8
Layer 1
 62
    22
420
 15540004
370
    25
100
AcDbVertex
100
AcDb2dVertex
 10
22.48950615495657
 20
-29.99956518830519
 30
0.0
  0
VERTEX
  5
118
330
106
100
AcDbEntity
  8
Layer 1
 62
    22
420
 15540004
370
    25
100
AcDbVertex
100
AcDb2dVertex
 10
22.3623804053312
 20
-30.02823381168676
 30
0.0
  0
VERTEX
  5
119
330
106
100
AcDbEntity
  8
Layer 1
 62
    22
420
 15540004
370
    25
100
AcDbVertex
100
AcDb2dVertex
 10
22.33512072167029
 20
-30.03717226670162
 30
0.0
  0
VERTEX
  5
11A
330
106
100
AcDbEntity
  8
Layer 1
 62
    22
420
 15540004
370
    25
100
AcDbVertex
100
AcDb2dVertex
 10
22.30930149097627
 20
-30.0494717969353
 30
0.0
  0
VERTEX
  5
11B
330
106
100
AcDbEntity
  8
Layer 1
 62
    22
420
 15540004
370
    25
100
AcDbVertex
100
AcDb2dVertex
 10
22.25979284760418
 20
-30.07892194489076
 30
0.0
  0
VERTEX
  5
11C
330
106
100
AcDbEntity
  8
Layer 1
 62
    22
420
 15540004
370
    25
100
AcDbVertex
100
AcDb2dVertex
 10
22.23500766448365
 20
-30.09345650351982
 30
0.0
  0
VERTEX
  5
11D
330
106
100
AcDbEntity
  8
Layer 1
 62
    22
420
 15540004
370
    25
100
AcDbVertex
100
AcDb2dVertex
 10
22.20947137349604
 20
-30.10611997921668
 30
0.0
  0
VERTEX
  5
11E
330
106
100
AcDbEntity
  8
Layer 1
 62
    22
420
 15540004
370
    25
100
AcDbVertex
100
AcDb2dVertex
 10
22.18263608941983
 20
-30.11560438240041
 30
0.0
  0
VERTEX
  5
11F
330
106
100
AcDbEntity
  8
Layer 1
 62
    22
420
 15540004
370
    25
100
AcDbVertex
100
AcDb2dVertex
 10
22.15395394698334
 20
-30.12060166354187
 30
0.0
  0
VERTEX
  5
120
330
106
100
AcDbEntity
  8
Layer 1
 62
    22
420
 15540004
370
    25
100
AcDbVertex
100
AcDb2dVertex
 10
14.65405623144261
 20
-31.23559136300193
 30
0.0
  0
VERTEX
  5
121
330
106
100
AcDbEntity
  8
Layer 1
 62
    22
420
 15540004
370
    25
100
AcDbVertex
100
AcDb2dVertex
 10
10.90395471231002
 20
-31.79189698051601
 30
0.0
  0
VERTEX
  5
122
330
106
100
AcDbEntity
  8
Layer 1
 62
    22
420
 15540004
370
    25
100
AcDbVertex
100
AcDb2dVertex
 10
7.153564208859115
 20
-32.34502180700214
 30
0.0
  0
VERTEX
  5
123
330
106
100
AcDbEntity
  8
Layer 1
 62
    22
420
 15540004
370
    25
100
AcDbVertex
100
AcDb2dVertex
 10
7.00144640276105
 20
-32.2645609845962
 30
0.0
  0
VERTEX
  5
124
330
106
100
AcDbEntity
  8
Layer 1
 62
    22
420
 15540004
370
    25
100
AcDbVertex
100
AcDb2dVertex
 10
6.850165506100539
 20
-32.18051825782125
 30
0.0
  0
VERTEX
  5
125
330
106
100
AcDbEntity
  8
Layer 1
 62
    22
420
 15540004
370
    25
100
AcDbVertex
100
AcDb2dVertex
 10
6.775324133523289
 20
-32.1367722449477
 30
0.0
  0
VERTEX
  5
126
330
106
100
AcDbEntity
  8
Layer 1
 62
    22
420
 15540004
370
    25
100
AcDbVertex
100
AcDb2dVertex
 10
6.7012742859215
 20
-32.09167304155774
 30
0.0
  0
VERTEX
  5
127
330
106
100
AcDbEntity
  8
Layer 1
 62
    22
420
 15540004
370
    25
100
AcDbVertex
100
AcDb2dVertex
 10
6.62821000930214
 20
-32.04506809948988
 30
0.0
  0
VERTEX
  5
128
330
106
100
AcDbEntity
  8
Layer 1
 62
    22
420
 15540004
370
    25
100
AcDbVertex
100
AcDb2dVertex
 10
6.556325449419116
 20
-31.99680483061707
 30
0.0
  0
VERTEX
  5
129
330
106
100
AcDbEntity
  8
Layer 1
 62
    22
420
 15540004
370
    25
100
AcDbVertex
100
AcDb2dVertex
 10
6.485814672228734
 20
-31.94673066679514
 30
0.0
  0
VERTEX
  5
12A
330
106
100
AcDbEntity
  8
Layer 1
 62
    22
420
 15540004
370
    25
100
AcDbVertex
100
AcDb2dVertex
 10
6.416871783586076
 20
-31.89469305986257
 30
0.0
  0
VERTEX
  5
12B
330
106
100
AcDbEntity
  8
Layer 1
 62
    22
420
 15540004
370
    25
100
AcDbVertex
100
AcDb2dVertex
 10
6.349690869396883
 20
-31.84053940170952
 30
0.0
  0
VERTEX
  5
12C
330
106
100
AcDbEntity
  8
Layer 1
 62
    22
420
 15540004
370
    25
100
AcDbVertex
100
AcDb2dVertex
 10
6.28446601556728
 20
-31.78411716415738
 30
0.0
  0
VERTEX
  5
12D
330
106
100
AcDbEntity
  8
Layer 1
 62
    22
420
 15540004
370
    25
100
AcDbVertex
100
AcDb2dVertex
 10
6.221391327952043
 20
-31.72527377906168
 30
0.0
  0
VERTEX
  5
12E
330
106
100
AcDbEntity
  8
Layer 1
 62
    22
420
 15540004
370
    25
100
AcDbVertex
100
AcDb2dVertex
 10
6.160660892456879
 20
-31.66385663831289
 30
0.0
  0
VERTEX
  5
12F
330
106
100
AcDbEntity
  8
Layer 1
 62
    22
420
 15540004
370
    25
100
AcDbVertex
100
AcDb2dVertex
 10
6.102468794987948
 20
-31.5997132137321
 30
0.0
  0
VERTEX
  5
130
330
106
100
AcDbEntity
  8
Layer 1
 62
    22
420
 15540004
370
    25
100
AcDbVertex
100
AcDb2dVertex
 10
6.047009141399877
 20
-31.53269089720963
 30
0.0
  0
VERTEX
  5
131
330
106
100
AcDbEntity
  8
Layer 1
 62
    22
420
 15540004
370
    25
100
AcDbVertex
100
AcDb2dVertex
 10
5.99639946099281
 20
-31.47134033891752
 30
0.0
  0
VERTEX
  5
132
330
106
100
AcDbEntity
  8
Layer 1
 62
    22
420
 15540004
370
    25
100
AcDbVertex
100
AcDb2dVertex
 10
5.948993604451238
 20
-31.4073995392199
 30
0.0
  0
VERTEX
  5
133
330
106
100
AcDbEntity
  8
Layer 1
 62
    22
420
 15540004
370
    25
100
AcDbVertex
100
AcDb2dVertex
 10
5.903675094048013
 20
-31.34175445243813
 30
0.0
  0
VERTEX
  5
134
330
106
100
AcDbEntity
  8
Layer 1
 62
    22
420
 15540004
370
    25
100
AcDbVertex
100
AcDb2dVertex
 10
5.859327412158387
 20
-31.27529107285914
 30
0.0
  0
VERTEX
  5
135
330
106
100
AcDbEntity
  8
Layer 1
 62
    22
420
 15540004
370
    25
100
AcDbVertex
100
AcDb2dVertex
 10
5.814834081055222
 20
-31.20889535480417
 30
0.0
  0
VERTEX
  5
136
330
106
100
AcDbEntity
  8
Layer 1
 62
    22
420
 15540004
370
    25
100
AcDbVertex
100
AcDb2dVertex
 10
5.769078583113216
 20
-31.14345327257744
 30
0.0
  0
VERTEX
  5
137
330
106
100
AcDbEntity
  8
Layer 1
 62
    22
420
 15540004
370
    25
100
AcDbVertex
100
AcDb2dVertex
 10
5.720944440605535
 20
-31.07985078050024
 30
0.0
  0
VERTEX
  5
138
330
106
100
AcDbEntity
  8
Layer 1
 62
    22
420
 15540004
370
    25
100
AcDbVertex
100
AcDb2dVertex
 10
5.669315115957716
 20
-31.01897385287677
 30
0.0
  0
VERTEX
  5
139
330
106
100
AcDbEntity
  8
Layer 1
 62
    22
420
 15540004
370
    25
100
AcDbVertex
100
AcDb2dVertex
 10
5.632229765986759
 20
-31.00979352689683
 30
0.0
  0
VERTEX
  5
13A
330
106
100
AcDbEntity
  8
Layer 1
 62
    22
420
 15540004
370
    25
100
AcDbVertex
100
AcDb2dVertex
 10
5.594772602559752
 20
-31.00275728790767
 30
0.0
  0
VERTEX
  5
13B
330
106
100
AcDbEntity
  8
Layer 1
 62
    22
420
 15540004
370
    25
100
AcDbVertex
100
AcDb2dVertex
 10
5.556997927438147
 20
-30.99772903353452
 30
0.0
  0
VERTEX
  5
13C
330
106
100
AcDbEntity
  8
Layer 1
 62
    22
420
 15540004
370
    25
100
AcDbVertex
100
AcDb2dVertex
 10
5.518959982535534
 20
-30.99457256148917
 30
0.0
  0
VERTEX
  5
13D
330
106
100
AcDbEntity
  8
Layer 1
 62
    22
420
 15540004
370
    25
100
AcDbVertex
100
AcDb2dVertex
 10
5.480713009765774
 20
-30.99315176939687
 30
0.0
  0
VERTEX
  5
13E
330
106
100
AcDbEntity
  8
Layer 1
 62
    22
420
 15540004
370
    25
100
AcDbVertex
100
AcDb2dVertex
 10
5.442311310889914
 20
-30.99333047495207
 30
0.0
  0
VERTEX
  5
13F
330
106
100
AcDbEntity
  8
Layer 1
 62
    22
420
 15540004
370
    25
100
AcDbVertex
100
AcDb2dVertex
 10
5.365260682525521
 20
-30.99794178966183
 30
0.0
  0
VERTEX
  5
140
330
106
100
AcDbEntity
  8
Layer 1
 62
    22
420
 15540004
370
    25
100
AcDbVertex
100
AcDb2dVertex
 10
5.288242172396167
 20
-31.007317326932
 30
0.0
  0
VERTEX
  5
141
330
106
100
AcDbEntity
  8
Layer 1
 62
    22
420
 15540004
370
    25
100
AcDbVertex
100
AcDb2dVertex
 10
5.211689915303016
 20
-31.02036788809346
 30
0.0
  0
VERTEX
  5
142
330
106
100
AcDbEntity
  8
Layer 1
 62
    22
420
 15540004
370
    25
100
AcDbVertex
100
AcDb2dVertex
 10
5.136037946301548
 20
-31.03600429445979
 30
0.0
  0
VERTEX
  5
143
330
106
100
AcDbEntity
  8
Layer 1
 62
    22
420
 15540004
370
    25
100
AcDbVertex
100
AcDb2dVertex
 10
5.061720380244108
 20
-31.05313730739645
 30
0.0
  0
VERTEX
  5
144
330
106
100
AcDbEntity
  8
Layer 1
 62
    22
420
 15540004
370
    25
100
AcDbVertex
100
AcDb2dVertex
 10
4.454125644530197
 20
-31.2404036040628
 30
0.0
  0
VERTEX
  5
145
330
106
100
AcDbEntity
  8
Layer 1
 62
    22
420
 15540004
370
    25
100
AcDbVertex
100
AcDb2dVertex
 10
4.376874586409914
 20
-31.26680852383126
 30
0.0
  0
VERTEX
  5
146
330
106
100
AcDbEntity
  8
Layer 1
 62
    22
420
 15540004
370
    25
100
AcDbVertex
100
AcDb2dVertex
 10
4.299157714135946
 20
-31.29174369381882
 30
0.0
  0
VERTEX
  5
147
330
106
100
AcDbEntity
  8
Layer 1
 62
    22
420
 15540004
370
    25
100
AcDbVertex
100
AcDb2dVertex
 10
4.142919298080591
 20
-31.33915495902859
 30
0.0
  0
VERTEX
  5
148
330
106
100
AcDbEntity
  8
Layer 1
 62
    22
420
 15540004
370
    25
100
AcDbVertex
100
AcDb2dVertex
 10
3.986595778676941
 20
-31.3865377688308
 30
0.0
  0
VERTEX
  5
149
330
106
100
AcDbEntity
  8
Layer 1
 62
    22
420
 15540004
370
    25
100
AcDbVertex
100
AcDb2dVertex
 10
3.908772577090669
 20
-31.41143734957599
 30
0.0
  0
VERTEX
  5
14A
330
106
100
AcDbEntity
  8
Layer 1
 62
    22
420
 15540004
370
    25
100
AcDbVertex
100
AcDb2dVertex
 10
3.831372618034872
 20
-31.43779243241564
 30
0.0
  0
VERTEX
  5
14B
330
106
100
AcDbEntity
  8
Layer 1
 62
    22
420
 15540004
370
    25
100
AcDbVertex
100
AcDb2dVertex
 10
3.221251513823757
 20
-31.61999750320423
 30
0.0
  0
VERTEX
  5
14C
330
106
100
AcDbEntity
  8
Layer 1
 62
    22
420
 15540004
370
    25
100
AcDbVertex
100
AcDb2dVertex
 10
3.146166321949598
 20
-31.64688618488561
 30
0.0
  0
VERTEX
  5
14D
330
106
100
AcDbEntity
  8
Layer 1
 62
    22
420
 15540004
370
    25
100
AcDbVertex
100
AcDb2dVertex
 10
3.070598039902127
 20
-31.67239208162727
 30
0.0
  0
VERTEX
  5
14E
330
106
100
AcDbEntity
  8
Layer 1
 62
    22
420
 15540004
370
    25
100
AcDbVertex
100
AcDb2dVertex
 10
2.918394312537821
 20
-31.72039375658035
 30
0.0
  0
VERTEX
  5
14F
330
106
100
AcDbEntity
  8
Layer 1
 62
    22
420
 15540004
370
    25
100
AcDbVertex
100
AcDb2dVertex
 10
2.612393593861371
 20
-31.8123250657139
 30
0.0
  0
VERTEX
  5
150
330
106
100
AcDbEntity
  8
Layer 1
 62
    22
420
 15540004
370
    25
100
AcDbVertex
100
AcDb2dVertex
 10
2.040168196654993
 20
-31.98946887065927
 30
0.0
  0
VERTEX
  5
151
330
106
100
AcDbEntity
  8
Layer 1
 62
    22
420
 15540004
370
    25
100
AcDbVertex
100
AcDb2dVertex
 10
1.725697739814159
 20
-32.08980095948906
 30
0.0
  0
VERTEX
  5
152
330
106
100
AcDbEntity
  8
Layer 1
 62
    22
420
 15540004
370
    25
100
AcDbVertex
100
AcDb2dVertex
 10
1.410386782676773
 20
-32.18781361287152
 30
0.0
  0
VERTEX
  5
153
330
106
100
AcDbEntity
  8
Layer 1
 62
    22
420
 15540004
370
    25
100
AcDbVertex
100
AcDb2dVertex
 10
1.094800466534846
 20
-32.28534829933298
 30
0.0
  0
VERTEX
  5
154
330
106
100
AcDbEntity
  8
Layer 1
 62
    22
420
 15540004
370
    25
100
AcDbVertex
100
AcDb2dVertex
 10
0.7795038528827515
 20
-32.38424650738226
 30
0.0
  0
VERTEX
  5
155
330
106
100
AcDbEntity
  8
Layer 1
 62
    22
420
 15540004
370
    25
100
AcDbVertex
100
AcDb2dVertex
 10
0.7117401822460149
 20
-32.41463198698521
 30
0.0
  0
VERTEX
  5
156
330
106
100
AcDbEntity
  8
Layer 1
 62
    22
420
 15540004
370
    25
100
AcDbVertex
100
AcDb2dVertex
 10
0.6443495619164423
 20
-32.44774906582625
 30
0.0
  0
VERTEX
  5
157
330
106
100
AcDbEntity
  8
Layer 1
 62
    22
420
 15540004
370
    25
100
AcDbVertex
100
AcDb2dVertex
 10
0.5783219916022012
 20
-32.48414996665158
 30
0.0
  0
VERTEX
  5
158
330
106
100
AcDbEntity
  8
Layer 1
 62
    22
420
 15540004
370
    25
100
AcDbVertex
100
AcDb2dVertex
 10
0.5146475109100189
 20
-32.52438685225908
 30
0.0
  0
VERTEX
  5
159
330
106
100
AcDbEntity
  8
Layer 1
 62
    22
420
 15540004
370
    25
100
AcDbVertex
100
AcDb2dVertex
 10
0.4840020466002291
 20
-32.54611635271971
 30
0.0
  0
VERTEX
  5
15A
330
106
100
AcDbEntity
  8
Layer 1
 62
    22
420
 15540004
370
    25
100
AcDbVertex
100
AcDb2dVertex
 10
0.4543161394976904
 20
-32.56901192541214
 30
0.0
  0
VERTEX
  5
15B
330
106
100
AcDbEntity
  8
Layer 1
 62
    22
420
 15540004
370
    25
100
AcDbVertex
100
AcDb2dVertex
 10
0.4257134946800786
 20
-32.59314261066886
 30
0.0
  0
VERTEX
  5
15C
330
106
100
AcDbEntity
  8
Layer 1
 62
    22
420
 15540004
370
    25
100
AcDbVertex
100
AcDb2dVertex
 10
0.3983178970222778
 20
-32.61857738887415
 30
0.0
  0
VERTEX
  5
15D
330
106
100
AcDbEntity
  8
Layer 1
 62
    22
420
 15540004
370
    25
100
AcDbVertex
100
AcDb2dVertex
 10
0.3722530915004982
 20
-32.64538532034317
 30
0.0
  0
VERTEX
  5
15E
330
106
100
AcDbEntity
  8
Layer 1
 62
    22
420
 15540004
370
    25
100
AcDbVertex
100
AcDb2dVertex
 10
0.3476428430399588
 20
-32.67363542542562
 30
0.0
  0
VERTEX
  5
15F
330
106
100
AcDbEntity
  8
Layer 1
 62
    22
420
 15540004
370
    25
100
AcDbVertex
100
AcDb2dVertex
 10
0.3246108766677354
 20
-32.70339670448864
 30
0.0
  0
VERTEX
  5
160
330
106
100
AcDbEntity
  8
Layer 1
 62
    22
420
 15540004
370
    25
100
AcDbVertex
100
AcDb2dVertex
 10
0.3032809573096529
 20
-32.73473819786467
 30
0.0
  0
VERTEX
  5
161
330
106
100
AcDbEntity
  8
Layer 1
 62
    22
420
 15540004
370
    25
100
AcDbVertex
100
AcDb2dVertex
 10
0.2770947608189545
 20
-32.76702385525477
 30
0.0
  0
VERTEX
  5
162
330
106
100
AcDbEntity
  8
Layer 1
 62
    22
420
 15540004
370
    25
100
AcDbVertex
100
AcDb2dVertex
 10
0.2525149947577018
 20
-32.8004045262885
 30
0.0
  0
VERTEX
  5
163
330
106
100
AcDbEntity
  8
Layer 1
 62
    22
420
 15540004
370
    25
100
AcDbVertex
100
AcDb2dVertex
 10
0.2294741709344963
 20
-32.83479862147881
 30
0.0
  0
VERTEX
  5
164
330
106
100
AcDbEntity
  8
Layer 1
 62
    22
420
 15540004
370
    25
100
AcDbVertex
100
AcDb2dVertex
 10
0.2079047612588485
 20
-32.87012457132159
 30
0.0
  0
VERTEX
  5
165
330
106
100
AcDbEntity
  8
Layer 1
 62
    22
420
 15540004
370
    25
100
AcDbVertex
100
AcDb2dVertex
 10
0.1877392775386271
 20
-32.90630080631247
 30
0.0
  0
VERTEX
  5
166
330
106
100
AcDbEntity
  8
Layer 1
 62
    22
420
 15540004
370
    25
100
AcDbVertex
100
AcDb2dVertex
 10
0.168910251531391
 20
-32.9432457369646
 30
0.0
  0
VERTEX
  5
167
330
106
100
AcDbEntity
  8
Layer 1
 62
    22
420
 15540004
370
    25
100
AcDbVertex
100
AcDb2dVertex
 10
0.1349914802425221
 20
-33.0191154072354
 30
0.0
  0
VERTEX
  5
168
330
106
100
AcDbEntity
  8
Layer 1
 62
    22
420
 15540004
370
    25
100
AcDbVertex
100
AcDb2dVertex
 10
0.1056084620605967
 20
-33.09708098613466
 30
0.0
  0
VERTEX
  5
169
330
106
100
AcDbEntity
  8
Layer 1
 62
    22
420
 15540004
370
    25
100
AcDbVertex
100
AcDb2dVertex
 10
0.0802212116526688
 20
-33.17648987766307
 30
0.0
  0
VERTEX
  5
16A
330
106
100
AcDbEntity
  8
Layer 1
 62
    22
420
 15540004
370
    25
100
AcDbVertex
100
AcDb2dVertex
 10
0.0582897636360763
 20
-33.25668946583848
 30
0.0
  0
VERTEX
  5
16B
330
106
100
AcDbEntity
  8
Layer 1
 62
    22
420
 15540004
370
    25
100
AcDbVertex
100
AcDb2dVertex
 10
0.0392740927798564
 20
-33.33702717464434
 30
0.0
  0
VERTEX
  5
16C
330
106
100
AcDbEntity
  8
Layer 1
 62
    22
420
 15540004
370
    25
100
AcDbVertex
100
AcDb2dVertex
 10
0.0320976821270733
 20
-33.3800288707874
 30
0.0
  0
VERTEX
  5
16D
330
106
100
AcDbEntity
  8
Layer 1
 62
    22
420
 15540004
370
    25
100
AcDbVertex
100
AcDb2dVertex
 10
0.0294921551472574
 20
-33.42275896166307
 30
0.0
  0
VERTEX
  5
16E
330
106
100
AcDbEntity
  8
Layer 1
 62
    22
420
 15540004
370
    25
100
AcDbVertex
100
AcDb2dVertex
 10
0.0312447534701177
 20
-33.46509317467285
 30
0.0
  0
VERTEX
  5
16F
330
106
100
AcDbEntity
  8
Layer 1
 62
    22
420
 15540004
370
    25
100
AcDbVertex
100
AcDb2dVertex
 10
0.0371427386743335
 20
-33.50690723721838
 30
0.0
  0
VERTEX
  5
170
330
106
100
AcDbEntity
  8
Layer 1
 62
    22
420
 15540004
370
    25
100
AcDbVertex
100
AcDb2dVertex
 10
0.0469732925421087
 20
-33.54807685671842
 30
0.0
  0
VERTEX
  5
171
330
106
100
AcDbEntity
  8
Layer 1
 62
    22
420
 15540004
370
    25
100
AcDbVertex
100
AcDb2dVertex
 10
0.0605236966011565
 20
-33.58847776057453
 30
0.0
  0
VERTEX
  5
172
330
106
100
AcDbEntity
  8
Layer 1
 62
    22
420
 15540004
370
    25
100
AcDbVertex
100
AcDb2dVertex
 10
0.0775811326338953
 20
-33.62798567618822
 30
0.0
  0
VERTEX
  5
173
330
106
100
AcDbEntity
  8
Layer 1
 62
    22
420
 15540004
370
    25
100
AcDbVertex
100
AcDb2dVertex
 10
0.0979328622186131
 20
-33.66647633096115
 30
0.0
  0
VERTEX
  5
174
330
106
100
AcDbEntity
  8
Layer 1
 62
    22
420
 15540004
370
    25
100
AcDbVertex
100
AcDb2dVertex
 10
0.1213661070361367
 20
-33.70382545229485
 30
0.0
  0
VERTEX
  5
175
330
106
100
AcDbEntity
  8
Layer 1
 62
    22
420
 15540004
370
    25
100
AcDbVertex
100
AcDb2dVertex
 10
0.1476681087158719
 20
-33.73990874760812
 30
0.0
  0
VERTEX
  5
176
330
106
100
AcDbEntity
  8
Layer 1
 62
    22
420
 15540004
370
    25
100
AcDbVertex
100
AcDb2dVertex
 10
0.1766260689890057
 20
-33.77460196428519
 30
0.0
  0
VERTEX
  5
177
330
106
100
AcDbEntity
  8
Layer 1
 62
    22
420
 15540004
370
    25
100
AcDbVertex
100
AcDb2dVertex
 10
0.2080272494346597
 20
-33.80778082972771
 30
0.0
  0
VERTEX
  5
178
330
106
100
AcDbEntity
  8
Layer 1
 62
    22
420
 15540004
370
    25
100
AcDbVertex
100
AcDb2dVertex
 10
0.2416588517836039
 20
-33.83932103137178
 30
0.0
  0
VERTEX
  5
179
330
106
100
AcDbEntity
  8
Layer 1
 62
    22
420
 15540004
370
    25
100
AcDbVertex
100
AcDb2dVertex
 10
0.2773081176655599
 20
-33.86909831660154
 30
0.0
  0
VERTEX
  5
17A
330
106
100
AcDbEntity
  8
Layer 1
 62
    22
420
 15540004
370
    25
100
AcDbVertex
100
AcDb2dVertex
 10
0.3147622887105146
 20
-33.89698843280149
 30
0.0
  0
VERTEX
  5
17B
330
106
100
AcDbEntity
  8
Layer 1
 62
    22
420
 15540004
370
    25
100
AcDbVertex
100
AcDb2dVertex
 10
0.3538085865984613
 20
-33.92286706740755
 30
0.0
  0
VERTEX
  5
17C
330
106
100
AcDbEntity
  8
Layer 1
 62
    22
420
 15540004
370
    25
100
AcDbVertex
100
AcDb2dVertex
 10
0.4036956466165091
 20
-33.95522768001825
 30
0.0
  0
VERTEX
  5
17D
330
106
100
AcDbEntity
  8
Layer 1
 62
    22
420
 15540004
370
    25
100
AcDbVertex
100
AcDb2dVertex
 10
0.453041703891952
 20
-33.98876709385978
 30
0.0
  0
VERTEX
  5
17E
330
106
100
AcDbEntity
  8
Layer 1
 62
    22
420
 15540004
370
    25
100
AcDbVertex
100
AcDb2dVertex
 10
0.5521002057129686
 20
-34.05516275196653
 30
0.0
  0
VERTEX
  5
17F
330
106
100
AcDbEntity
  8
Layer 1
 62
    22
420
 15540004
370
    25
100
AcDbVertex
100
AcDb2dVertex
 10
0.6028073779303263
 20
-34.08590923957129
 30
0.0
  0
VERTEX
  5
180
330
106
100
AcDbEntity
  8
Layer 1
 62
    22
420
 15540004
370
    25
100
AcDbVertex
100
AcDb2dVertex
 10
0.6549629628510476
 20
-34.11361495513794
 30
0.0
  0
VERTEX
  5
181
330
106
100
AcDbEntity
  8
Layer 1
 62
    22
420
 15540004
370
    25
100
AcDbVertex
100
AcDb2dVertex
 10
0.7090642943873414
 20
-34.13722505031026
 30
0.0
  0
VERTEX
  5
182
330
106
100
AcDbEntity
  8
Layer 1
 62
    22
420
 15540004
370
    25
100
AcDbVertex
100
AcDb2dVertex
 10
0.7370000569205533
 20
-34.14716460013725
 30
0.0
  0
VERTEX
  5
183
330
106
100
AcDbEntity
  8
Layer 1
 62
    22
420
 15540004
370
    25
100
AcDbVertex
100
AcDb2dVertex
 10
0.7656087662992882
 20
-34.15568463676674
 30
0.0
  0
VERTEX
  5
184
330
106
100
AcDbEntity
  8
Layer 1
 62
    22
420
 15540004
370
    25
100
AcDbVertex
100
AcDb2dVertex
 10
0.8308900165576713
 20
-34.17548040843636
 30
0.0
  0
VERTEX
  5
185
330
106
100
AcDbEntity
  8
Layer 1
 62
    22
420
 15540004
370
    25
100
AcDbVertex
100
AcDb2dVertex
 10
0.8956448270003218
 20
-34.19679764519242
 30
0.0
  0
VERTEX
  5
186
330
106
100
AcDbEntity
  8
Layer 1
 62
    22
420
 15540004
370
    25
100
AcDbVertex
100
AcDb2dVertex
 10
1.024408107880618
 20
-34.24121030192459
 30
0.0
  0
VERTEX
  5
187
330
106
100
AcDbEntity
  8
Layer 1
 62
    22
420
 15540004
370
    25
100
AcDbVertex
100
AcDb2dVertex
 10
1.088833078014103
 20
-34.2629126058896
 30
0.0
  0
VERTEX
  5
188
330
106
100
AcDbEntity
  8
Layer 1
 62
    22
420
 15540004
370
    25
100
AcDbVertex
100
AcDb2dVertex
 10
1.15356456782523
 20
-34.28335014291878
 30
0.0
  0
VERTEX
  5
189
330
106
100
AcDbEntity
  8
Layer 1
 62
    22
420
 15540004
370
    25
100
AcDbVertex
100
AcDb2dVertex
 10
1.218810847110894
 20
-34.30182635500675
 30
0.0
  0
VERTEX
  5
18A
330
106
100
AcDbEntity
  8
Layer 1
 62
    22
420
 15540004
370
    25
100
AcDbVertex
100
AcDb2dVertex
 10
1.284780145770128
 20
-34.31764470413057
 30
0.0
  0
VERTEX
  5
18B
330
106
100
AcDbEntity
  8
Layer 1
 62
    22
420
 15540004
370
    25
100
AcDbVertex
100
AcDb2dVertex
 10
1.845705390340097
 20
-34.44272660314351
 30
0.0
  0
VERTEX
  5
18C
330
106
100
AcDbEntity
  8
Layer 1
 62
    22
420
 15540004
370
    25
100
AcDbVertex
100
AcDb2dVertex
 10
2.125734426427016
 20
-34.50582932714105
 30
0.0
  0
VERTEX
  5
18D
330
106
100
AcDbEntity
  8
Layer 1
 62
    22
420
 15540004
370
    25
100
AcDbVertex
100
AcDb2dVertex
 10
2.405230299813082
 20
-34.57070729689728
 30
0.0
  0
VERTEX
  5
18E
330
106
100
AcDbEntity
  8
Layer 1
 62
    22
420
 15540004
370
    25
100
AcDbVertex
100
AcDb2dVertex
 10
3.299569336229031
 20
-34.76809610526743
 30
0.0
  0
VERTEX
  5
18F
330
106
100
AcDbEntity
  8
Layer 1
 62
    22
420
 15540004
370
    25
100
AcDbVertex
100
AcDb2dVertex
 10
3.404453746743166
 20
-34.79285238985517
 30
0.0
  0
VERTEX
  5
190
330
106
100
AcDbEntity
  8
Layer 1
 62
    22
420
 15540004
370
    25
100
AcDbVertex
100
AcDb2dVertex
 10
3.509379292536955
 20
-34.81651142273348
 30
0.0
  0
VERTEX
  5
191
330
106
100
AcDbEntity
  8
Layer 1
 62
    22
420
 15540004
370
    25
100
AcDbVertex
100
AcDb2dVertex
 10
3.61392889538763
 20
-34.84095273952951
 30
0.0
  0
VERTEX
  5
192
330
106
100
AcDbEntity
  8
Layer 1
 62
    22
420
 15540004
370
    25
100
AcDbVertex
100
AcDb2dVertex
 10
3.717685457122608
 20
-34.86805583590469
 30
0.0
  0
VERTEX
  5
193
330
106
100
AcDbEntity
  8
Layer 1
 62
    22
420
 15540004
370
    25
100
AcDbVertex
100
AcDb2dVertex
 10
4.596866202756979
 20
-35.05911809194488
 30
0.0
  0
VERTEX
  5
194
330
106
100
AcDbEntity
  8
Layer 1
 62
    22
420
 15540004
370
    25
100
AcDbVertex
100
AcDb2dVertex
 10
4.721154156700828
 20
-35.08925794382948
 30
0.0
  0
VERTEX
  5
195
330
106
100
AcDbEntity
  8
Layer 1
 62
    22
420
 15540004
370
    25
100
AcDbVertex
100
AcDb2dVertex
 10
4.845892903039726
 20
-35.11789473472206
 30
0.0
  0
VERTEX
  5
196
330
106
100
AcDbEntity
  8
Layer 1
 62
    22
420
 15540004
370
    25
100
AcDbVertex
100
AcDb2dVertex
 10
5.09582653450242
 20
-35.17299625369424
 30
0.0
  0
VERTEX
  5
197
330
106
100
AcDbEntity
  8
Layer 1
 62
    22
420
 15540004
370
    25
100
AcDbVertex
100
AcDb2dVertex
 10
5.944690698573784
 20
-35.3665891226733
 30
0.0
  0
VERTEX
  5
198
330
106
100
AcDbEntity
  8
Layer 1
 62
    22
420
 15540004
370
    25
100
AcDbVertex
100
AcDb2dVertex
 10
5.990029836464297
 20
-35.37401086849145
 30
0.0
  0
VERTEX
  5
199
330
106
100
AcDbEntity
  8
Layer 1
 62
    22
420
 15540004
370
    25
100
AcDbVertex
100
AcDb2dVertex
 10
6.037630955915549
 20
-35.38562942724904
 30
0.0
  0
VERTEX
  5
19A
330
106
100
AcDbEntity
  8
Layer 1
 62
    22
420
 15540004
370
    25
100
AcDbVertex
100
AcDb2dVertex
 10
6.086427591880351
 20
-35.39828616876586
 30
0.0
  0
VERTEX
  5
19B
330
106
100
AcDbEntity
  8
Layer 1
 62
    22
420
 15540004
370
    25
100
AcDbVertex
100
AcDb2dVertex
 10
6.135353239414106
 20
-35.40882242289616
 30
0.0
  0
VERTEX
  5
19C
330
106
100
AcDbEntity
  8
Layer 1
 62
    22
420
 15540004
370
    25
100
AcDbVertex
100
AcDb2dVertex
 10
6.159531148502613
 20
-35.41230827028166
 30
0.0
  0
VERTEX
  5
19D
330
106
100
AcDbEntity
  8
Layer 1
 62
    22
420
 15540004
370
    25
100
AcDbVertex
100
AcDb2dVertex
 10
6.183341393571784
 20
-35.41407949951154
 30
0.0
  0
VERTEX
  5
19E
330
106
100
AcDbEntity
  8
Layer 1
 62
    22
420
 15540004
370
    25
100
AcDbVertex
100
AcDb2dVertex
 10
6.206650634073033
 20
-35.41374127182207
 30
0.0
  0
VERTEX
  5
19F
330
106
100
AcDbEntity
  8
Layer 1
 62
    22
420
 15540004
370
    25
100
AcDbVertex
100
AcDb2dVertex
 10
6.229325569357065
 20
-35.41089874844915
 30
0.0
  0
VERTEX
  5
1A0
330
106
100
AcDbEntity
  8
Layer 1
 62
    22
420
 15540004
370
    25
100
AcDbVertex
100
AcDb2dVertex
 10
6.251232878824642
 20
-35.4051571106117
 30
0.0
  0
VERTEX
  5
1A1
330
106
100
AcDbEntity
  8
Layer 1
 62
    22
420
 15540004
370
    25
100
AcDbVertex
100
AcDb2dVertex
 10
6.272239261825411
 20
-35.39612151954586
 30
0.0
  0
VERTEX
  5
1A2
330
106
100
AcDbEntity
  8
Layer 1
 62
    22
420
 15540004
370
    25
100
AcDbVertex
100
AcDb2dVertex
 10
6.292211417709886
 20
-35.38339713648767
 30
0.0
  0
VERTEX
  5
1A3
330
106
100
AcDbEntity
  8
Layer 1
 62
    22
420
 15540004
370
    25
100
AcDbVertex
100
AcDb2dVertex
 10
6.311016005929824
 20
-35.3665891226733
 30
0.0
  0
VERTEX
  5
1A4
330
106
100
AcDbEntity
  8
Layer 1
 62
    22
420
 15540004
370
    25
100
AcDbVertex
100
AcDb2dVertex
 10
6.342893493815798
 20
-35.29978100103472
 30
0.0
  0
VERTEX
  5
1A5
330
106
100
AcDbEntity
  8
Layer 1
 62
    22
420
 15540004
370
    25
100
AcDbVertex
100
AcDb2dVertex
 10
6.372246967211481
 20
-35.23180790621447
 30
0.0
  0
VERTEX
  5
1A6
330
106
100
AcDbEntity
  8
Layer 1
 62
    22
420
 15540004
370
    25
100
AcDbVertex
100
AcDb2dVertex
 10
6.427447739845572
 20
-35.09428074291728
 30
0.0
  0
VERTEX
  5
1A7
330
106
100
AcDbEntity
  8
Layer 1
 62
    22
420
 15540004
370
    25
100
AcDbVertex
100
AcDb2dVertex
 10
6.455327963766156
 20
-35.02568368734993
 30
0.0
  0
VERTEX
  5
1A8
330
106
100
AcDbEntity
  8
Layer 1
 62
    22
420
 15540004
370
    25
100
AcDbVertex
100
AcDb2dVertex
 10
6.484750002611311
 20
-34.9578356244719
 30
0.0
  0
VERTEX
  5
1A9
330
106
100
AcDbEntity
  8
Layer 1
 62
    22
420
 15540004
370
    25
100
AcDbVertex
100
AcDb2dVertex
 10
6.516730348646028
 20
-34.89121506073793
 30
0.0
  0
VERTEX
  5
1AA
330
106
100
AcDbEntity
  8
Layer 1
 62
    22
420
 15540004
370
    25
100
AcDbVertex
100
AcDb2dVertex
 10
6.552285434287391
 20
-34.82630050260293
 30
0.0
  0
VERTEX
  5
1AB
330
106
100
AcDbEntity
  8
Layer 1
 62
    22
420
 15540004
370
    25
100
AcDbVertex
100
AcDb2dVertex
 10
6.573644479498448
 20
-34.79288474189517
 30
0.0
  0
VERTEX
  5
1AC
330
106
100
AcDbEntity
  8
Layer 1
 62
    22
420
 15540004
370
    25
100
AcDbVertex
100
AcDb2dVertex
 10
6.596227867838074
 20
-34.7604903984361
 30
0.0
  0
VERTEX
  5
1AD
330
106
100
AcDbEntity
  8
Layer 1
 62
    22
420
 15540004
370
    25
100
AcDbVertex
100
AcDb2dVertex
 10
6.61999185067926
 20
-34.72912352699288
 30
0.0
  0
VERTEX
  5
1AE
330
106
100
AcDbEntity
  8
Layer 1
 62
    22
420
 15540004
370
    25
100
AcDbVertex
100
AcDb2dVertex
 10
6.644892659445973
 20
-34.69879016235005
 30
0.0
  0
VERTEX
  5
1AF
330
106
100
AcDbEntity
  8
Layer 1
 62
    22
420
 15540004
370
    25
100
AcDbVertex
100
AcDb2dVertex
 10
6.697929720349015
 20
-34.64124819251715
 30
0.0
  0
VERTEX
  5
1B0
330
106
100
AcDbEntity
  8
Layer 1
 62
    22
420
 15540004
370
    25
100
AcDbVertex
100
AcDb2dVertex
 10
6.754988941837192
 20
-34.58791282716139
 30
0.0
  0
VERTEX
  5
1B1
330
106
100
AcDbEntity
  8
Layer 1
 62
    22
420
 15540004
370
    25
100
AcDbVertex
100
AcDb2dVertex
 10
6.815720255097643
 20
-34.53883242448968
 30
0.0
  0
VERTEX
  5
1B2
330
106
100
AcDbEntity
  8
Layer 1
 62
    22
420
 15540004
370
    25
100
AcDbVertex
100
AcDb2dVertex
 10
6.87977355141969
 20
-34.49405530274336
 30
0.0
  0
VERTEX
  5
1B3
330
106
100
AcDbEntity
  8
Layer 1
 62
    22
420
 15540004
370
    25
100
AcDbVertex
100
AcDb2dVertex
 10
6.946798781940451
 20
-34.45362986009468
 30
0.0
  0
VERTEX
  5
1B4
330
106
100
AcDbEntity
  8
Layer 1
 62
    22
420
 15540004
370
    25
100
AcDbVertex
100
AcDb2dVertex
 10
7.016445837949226
 20
-34.41760441478507
 30
0.0
  0
VERTEX
  5
1B5
330
106
100
AcDbEntity
  8
Layer 1
 62
    22
420
 15540004
370
    25
100
AcDbVertex
100
AcDb2dVertex
 10
7.088364610734793
 20
-34.38602734500407
 30
0.0
  0
VERTEX
  5
1B6
330
106
100
AcDbEntity
  8
Layer 1
 62
    22
420
 15540004
370
    25
100
AcDbVertex
100
AcDb2dVertex
 10
7.162205051434423
 20
-34.35894700895839
 30
0.0
  0
VERTEX
  5
1B7
330
106
100
AcDbEntity
  8
Layer 1
 62
    22
420
 15540004
370
    25
100
AcDbVertex
100
AcDb2dVertex
 10
7.23761707128627
 20
-34.33641172488956
 30
0.0
  0
VERTEX
  5
1B8
330
106
100
AcDbEntity
  8
Layer 1
 62
    22
420
 15540004
370
    25
100
AcDbVertex
100
AcDb2dVertex
 10
7.314250541630738
 20
-34.31846987098697
 30
0.0
  0
VERTEX
  5
1B9
330
106
100
AcDbEntity
  8
Layer 1
 62
    22
420
 15540004
370
    25
100
AcDbVertex
100
AcDb2dVertex
 10
7.391755433553739
 20
-34.30516978547485
 30
0.0
  0
VERTEX
  5
1BA
330
106
100
AcDbEntity
  8
Layer 1
 62
    22
420
 15540004
370
    25
100
AcDbVertex
100
AcDb2dVertex
 10
7.469781598445997
 20
-34.2965598465427
 30
0.0
  0
VERTEX
  5
1BB
330
106
100
AcDbEntity
  8
Layer 1
 62
    22
420
 15540004
370
    25
100
AcDbVertex
100
AcDb2dVertex
 10
7.547979007393703
 20
-34.29268837243189
 30
0.0
  0
VERTEX
  5
1BC
330
106
100
AcDbEntity
  8
Layer 1
 62
    22
420
 15540004
370
    25
100
AcDbVertex
100
AcDb2dVertex
 10
7.625997531736857
 20
-34.29360376131472
 30
0.0
  0
VERTEX
  5
1BD
330
106
100
AcDbEntity
  8
Layer 1
 62
    22
420
 15540004
370
    25
100
AcDbVertex
100
AcDb2dVertex
 10
7.714185407454011
 20
-34.28799826581737
 30
0.0
  0
VERTEX
  5
1BE
330
106
100
AcDbEntity
  8
Layer 1
 62
    22
420
 15540004
370
    25
100
AcDbVertex
100
AcDb2dVertex
 10
7.802217100772395
 20
-34.28022852075471
 30
0.0
  0
VERTEX
  5
1BF
330
106
100
AcDbEntity
  8
Layer 1
 62
    22
420
 15540004
370
    25
100
AcDbVertex
100
AcDb2dVertex
 10
7.977988191521755
 20
-34.26030515935344
 30
0.0
  0
VERTEX
  5
1C0
330
106
100
AcDbEntity
  8
Layer 1
 62
    22
420
 15540004
370
    25
100
AcDbVertex
100
AcDb2dVertex
 10
8.153663246753416
 20
-34.23805141196888
 30
0.0
  0
VERTEX
  5
1C1
330
106
100
AcDbEntity
  8
Layer 1
 62
    22
420
 15540004
370
    25
100
AcDbVertex
100
AcDb2dVertex
 10
8.329594769084046
 20
-34.21768497349331
 30
0.0
  0
VERTEX
  5
1C2
330
106
100
AcDbEntity
  8
Layer 1
 62
    22
420
 15540004
370
    25
100
AcDbVertex
100
AcDb2dVertex
 10
23.96851876951339
 20
-32.35114280384909
 30
0.0
  0
VERTEX
  5
1C3
330
106
100
AcDbEntity
  8
Layer 1
 62
    22
420
 15540004
370
    25
100
AcDbVertex
100
AcDb2dVertex
 10
23.96851902180679
 20
-29.44322548703973
 30
0.0
  0
VERTEX
  5
1C4
330
106
100
AcDbEntity
  8
Layer 1
 62
    22
420
 15540004
370
    25
100
AcDbVertex
100
AcDb2dVertex
 10
23.95923510067205
 20
-30.87680122661322
 30
0.0
  0
VERTEX
  5
1C5
330
106
100
AcDbEntity
  8
Layer 1
 62
    22
420
 15540004
370
    25
100
AcDbVertex
100
AcDb2dVertex
 10
23.96851876951339
 20
-32.35114280384909
 30
0.0
  0
SEQEND
  5
1C6
330
106
100
AcDbEntity
  8
Layer 1
 62
    22
420
 15540004
370
    25
  0
INSERT
  5
1C8
330
1F
100
AcDbEntity
  8
Layer 1
100
AcDbBlockReference
  2
block 2
 10
0.0
 20
0.0
 30
0.0
  0
INSERT
  5
2C6
330
1F
100
AcDbEntity
  8
Layer 1
100
AcDbBlockReference
  2
block 4
 10
0.0
 20
0.0
 30
0.0
  0
ENDSEC
  0
SECTION
  2
OBJECTS
  0
DICTIONARY
  5
C
330
0
100
AcDbDictionary
281
     1
  3
ACAD_GROUP
350
D
  3
ACAD_LAYOUT
350
1A
  3
ACAD_MATERIAL
350
3B
  3
ACAD_MLEADERSTYLE
350
3CA
  3
ACAD_MLINESTYLE
350
17
  3
ACAD_PLOTSETTINGS
350
19
  3
ACAD_PLOTSTYLENAME
350
E
  3
ACAD_TABLESTYLE
350
3C9
  3
ACAD_VISUALSTYLE
350
2A
  0
SUN
  5
3F
330
29
100
AcDbSun
 90
        1
290
     0
 63
     7
421
 16777215
 40
1.0
291
     1
 91
  2455826
 92
 54000000
292
     0
 70
     2
 71
   256
280
     1
  0
DICTIONARY
  5
D
102
{ACAD_REACTORS
330
C
102
}
330
C
100
AcDbDictionary
281
     1
  0
DICTIONARY
  5
1A
102
{ACAD_REACTORS
330
C
102
}
330
C
100
AcDbDictionary
281
     1
  3
Layout1
350
1E
  3
Layout2
350
26
  3
Model
350
22
  0
DICTIONARY
  5
3B
102
{ACAD_REACTORS
330
C
102
}
330
C
100
AcDbDictionary
281
     1
  3
ByBlock
350
3D
  3
ByLayer
350
3C
  3
Global
350
3E
  0
DICTIONARY
  5
3CA
102
{ACAD_REACTORS
330
C
102
}
330
C
100
AcDbDictionary
281
     1
  0
DICTIONARY
  5
17
102
{ACAD_REACTORS
330
C
102
}
330
C
100
AcDbDictionary
281
     1
  3
Standard
350
18
  0
DICTIONARY
  5
19
102
{ACAD_REACTORS
330
C
102
}
330
C
100
AcDbDictionary
281
     1
  0
ACDBDICTIONARYWDFLT
  5
E
102
{ACAD_REACTORS
330
C
102
}
330
C
100
AcDbDictionary
281
     1
  3
Normal
350
F
100
AcDbDictionaryWithDefault
340
F
  0
DICTIONARY
  5
3C9
102
{ACAD_REACTORS
330
C
102
}
330
C
100
AcDbDictionary
281
     1
  0
DICTIONARY
  5
2A
102
{ACAD_REACTORS
330
C
102
}
330
C
100
AcDbDictionary
281
     1
  3
2dWireframe
350
2F
  3
3D Hidden
350
31
  3
3dWireframe
350
30
  3
Basic
350
32
  3
Brighten
350
36
  3
ColorChange
350
3A
  3
Conceptual
350
34
  3
Dim
350
35
  3
Facepattern
350
39
  3
Flat
350
2B
  3
FlatWithEdges
350
2C
  3
Gouraud
350
2D
  3
GouraudWithEdges
350
2E
  3
Linepattern
350
38
  3
Realistic
350
33
  3
Thicken
350
37
  0
LAYOUT
  5
1E
102
{ACAD_REACTORS
330
1A
102
}
330
1A
100
AcDbPlotSettings
  1

  2
none_device
  4

  6

 40
0.0
 41
0.0
 42
0.0
 43
0.0
 44
0.0
 45
0.0
 46
0.0
 47
0.0
 48
0.0
 49
0.0
140
0.0
141
0.0
142
1.0
143
1.0
 70
   688
 72
     0
 73
     0
 74
     5
  7

 75
    16
 76
     0
 77
     2
 78
   300
147
1.0
148
0.0
149
0.0
100
AcDbLayout
  1
Layout1
 70
     1
 71
     1
 10
0.0
 20
0.0
 11
12.0
 21
9.0
 12
0.0
 22
0.0
 32
0.0
 14
1.000000000000000E+20
 24
1.000000000000000E+20
 34
1.000000000000000E+20
 15
-1.000000000000000E+20
 25
-1.000000000000000E+20
 35
-1.000000000000000E+20
146
0.0
 13
0.0
 23
0.0
 33
0.0
 16
1.0
 26
0.0
 36
0.0
 17
0.0
 27
1.0
 37
0.0
 76
     0
330
1B
  0
LAYOUT
  5
26
102
{ACAD_REACTORS
330
1A
102
}
330
1A
100
AcDbPlotSettings
  1

  2
none_device
  4

  6

 40
0.0
 41
0.0
 42
0.0
 43
0.0
 44
0.0
 45
0.0
 46
0.0
 47
0.0
 48
0.0
 49
0.0
140
0.0
141
0.0
142
1.0
143
1.0
 70
   688
 72
     0
 73
     0
 74
     5
  7

 75
    16
 76
     0
 77
     2
 78
   300
147
1.0
148
0.0
149
0.0
100
AcDbLayout
  1
Layout2
 70
     1
 71
     2
 10
0.0
 20
0.0
 11
0.0
 21
0.0
 12
0.0
 22
0.0
 32
0.0
 14
0.0
 24
0.0
 34
0.0
 15
0.0
 25
0.0
 35
0.0
146
0.0
 13
0.0
 23
0.0
 33
0.0
 16
1.0
 26
0.0
 36
0.0
 17
0.0
 27
1.0
 37
0.0
 76
     0
330
23
  0
LAYOUT
  5
22
102
{ACAD_REACTORS
330
1A
102
}
330
1A
100
AcDbPlotSettings
  1

  2
none_device
  4

  6

 40
0.0
 41
0.0
 42
0.0
 43
0.0
 44
0.0
 45
0.0
 46
0.0
 47
0.0
 48
0.0
 49
0.0
140
0.0
141
0.0
142
1.0
143
1.0
 70
  1712
 72
     0
 73
     0
 74
     0
  7

 75
     0
 76
     0
 77
     2
 78
   300
147
1.0
148
0.0
149
0.0
100
AcDbLayout
  1
Model
 70
     1
 71
     0
 10
0.0
 20
0.0
 11
12.0
 21
9.0
 12
0.0
 22
0.0
 32
0.0
 14
1.000000000000000E+20
 24
1.000000000000000E+20
 34
1.000000000000000E+20
 15
-1.000000000000000E+20
 25
-1.000000000000000E+20
 35
-1.000000000000000E+20
146
0.0
 13
0.0
 23
0.0
 33
0.0
 16
1.0
 26
0.0
 36
0.0
 17
0.0
 27
1.0
 37
0.0
 76
     0
330
1F
331
29
  0
MATERIAL
  5
3D
102
{ACAD_REACTORS
330
3B
102
}
330
3B
100
AcDbMaterial
  1
ByBlock
 72
     1
 94
      127
  0
MATERIAL
  5
3C
102
{ACAD_REACTORS
330
3B
102
}
330
3B
100
AcDbMaterial
  1
ByLayer
 72
     1
 94
      127
  0
MATERIAL
  5
3E
102
{ACAD_REACTORS
330
3B
102
}
330
3B
100
AcDbMaterial
  1
Global
 72
     1
 94
      127
  0
MLINESTYLE
  5
18
102
{ACAD_REACTORS
330
17
102
}
330
17
100
AcDbMlineStyle
  2
Standard
 70
     0
  3

 62
   256
 51
90.0
 52
90.0
 71
     2
 49
0.5
 62
   256
  6
BYLAYER
 49
-0.5
 62
   256
  6
BYLAYER
  0
ACDBPLACEHOLDER
  5
F
102
{ACAD_REACTORS
330
E
102
}
330
E
  0
VISUALSTYLE
  5
2F
102
{ACAD_REACTORS
330
2A
102
}
330
2A
100
AcDbVisualStyle
  2
2dWireframe
 70
     4
177
     2
291
     0
 71
     0
176
     1
 72
     2
176
     1
 73
     0
176
     1
 90
        0
176
     1
 40
-0.6
176
     1
 41
-30.0
176
     1
 62
     5
 63
     7
421
 16777215
176
     1
 74
     1
176
     1
 91
        4
176
     1
 64
     7
176
     1
 65
   257
176
     1
 75
     1
176
     1
175
     1
176
     1
 42
1.0
176
     1
 92
        0
176
     1
 66
   257
176
     1
 43
1.0
176
     1
 76
     1
176
     1
 77
     6
176
     1
 78
     2
176
     1
 67
     7
176
     1
 79
     5
176
     1
170
     0
176
     1
171
     0
176
     1
290
     0
176
     1
 93
        1
176
     1
 44
0.0
176
     1
173
     0
176
     1
  0
VISUALSTYLE
  5
31
102
{ACAD_REACTORS
330
2A
102
}
330
2A
100
AcDbVisualStyle
  2
3D Hidden
 70
     6
177
     2
291
     0
 71
     1
176
     1
 72
     2
176
     1
 73
     2
176
     1
 90
        0
176
     1
 40
-0.6
176
     1
 41
-30.0
176
     1
 62
     5
 63
     7
421
 16777215
176
     1
 74
     2
176
     1
 91
        2
176
     1
 64
     7
176
     1
 65
   257
176
     1
 75
     2
176
     1
175
     1
176
     1
 42
40.0
176
     1
 92
        0
176
     1
 66
   257
176
     1
 43
1.0
176
     1
 76
     1
176
     1
 77
     6
176
     1
 78
     2
176
     1
 67
     7
176
     1
 79
     3
176
     1
170
     0
176
     1
171
     0
176
     1
290
     0
176
     1
 93
        1
176
     1
 44
0.0
176
     1
173
     0
176
     1
  0
VISUALSTYLE
  5
30
102
{ACAD_REACTORS
330
2A
102
}
330
2A
100
AcDbVisualStyle
  2
3dWireframe
 70
     5
177
     2
291
     0
 71
     0
176
     1
 72
     2
176
     1
 73
     0
176
     1
 90
        0
176
     1
 40
-0.6
176
     1
 41
-30.0
176
     1
 62
     5
 63
     7
421
 16777215
176
     1
 74
     1
176
     1
 91
        4
176
     1
 64
     7
176
     1
 65
   257
176
     1
 75
     1
176
     1
175
     1
176
     1
 42
1.0
176
     1
 92
        0
176
     1
 66
   257
176
     1
 43
1.0
176
     1
 76
     1
176
     1
 77
     6
176
     1
 78
     2
176
     1
 67
     7
176
     1
 79
     5
176
     1
170
     0
176
     1
171
     0
176
     1
290
     0
176
     1
 93
        1
176
     1
 44
0.0
176
     1
173
     0
176
     1
  0
VISUALSTYLE
  5
32
102
{ACAD_REACTORS
330
2A
102
}
330
2A
100
AcDbVisualStyle
  2
Basic
 70
     7
177
     2
291
     1
 71
     1
176
     1
 72
     0
176
     1
 73
     1
176
     1
 90
        0
176
     1
 40
-0.6
176
     1
 41
-30.0
176
     1
 62
     5
 63
     7
421
 16777215
176
     1
 74
     0
176
     1
 91
        4
176
     1
 64
     7
176
     1
 65
   257
176
     1
 75
     1
176
     1
175
     1
176
     1
 42
1.0
176
     1
 92
        8
176
     1
 66
     7
176
     1
 43
1.0
176
     1
 76
     1
176
     1
 77
     6
176
     1
 78
     2
176
     1
 67
     7
176
     1
 79
     5
176
     1
170
     0
176
     1
171
     0
176
     1
290
     0
176
     1
 93
        1
176
     1
 44
0.0
176
     1
173
     0
176
     1
  0
VISUALSTYLE
  5
36
102
{ACAD_REACTORS
330
2A
102
}
330
2A
100
AcDbVisualStyle
  2
Brighten
 70
    12
177
     2
291
     1
 71
     2
176
     1
 72
     2
176
     1
 73
     0
176
     1
 90
        0
176
     1
 40
-0.6
176
     1
 41
-30.0
176
     1
 62
     5
 63
     7
421
 16777215
176
     1
 74
     1
176
     1
 91
        4
176
     1
 64
     7
176
     1
 65
   257
176
     1
 75
     1
176
     1
175
     1
176
     1
 42
1.0
176
     1
 92
        8
176
     1
 66
     7
176
     1
 43
1.0
176
     1
 76
     1
176
     1
 77
     6
176
     1
 78
     2
176
     1
 67
     7
176
     1
 79
     5
176
     1
170
     0
176
     1
171
     0
176
     1
290
     0
176
     1
 93
        1
176
     1
 44
50.0
176
     1
173
     0
176
     1
  0
VISUALSTYLE
  5
3A
102
{ACAD_REACTORS
330
2A
102
}
330
2A
100
AcDbVisualStyle
  2
ColorChange
 70
    16
177
     2
291
     1
 71
     2
176
     1
 72
     2
176
     1
 73
     3
176
     1
 90
        0
176
     1
 40
-0.6
176
     1
 41
-30.0
176
     1
 62
     5
 63
     8
421
  8421504
176
     1
 74
     1
176
     1
 91
        4
176
     1
 64
     7
176
     1
 65
   257
176
     1
 75
     1
176
     1
175
     1
176
     1
 42
1.0
176
     1
 92
        8
176
     1
 66
     8
424
  8421504
176
     1
 43
1.0
176
     1
 76
     1
176
     1
 77
     6
176
     1
 78
     2
176
     1
 67
     7
176
     1
 79
     5
176
     1
170
     0
176
     1
171
     0
176
     1
290
     0
176
     1
 93
        1
176
     1
 44
0.0
176
     1
173
     0
176
     1
  0
VISUALSTYLE
  5
34
102
{ACAD_REACTORS
330
2A
102
}
330
2A
100
AcDbVisualStyle
  2
Conceptual
 70
     9
177
     2
291
     0
 71
     3
176
     1
 72
     2
176
     1
 73
     0
176
     1
 90
        0
176
     1
 40
-0.6
176
     1
 41
-30.0
176
     1
 62
     5
 63
     7
421
 16777215
176
     1
 74
     2
176
     1
 91
        2
176
     1
 64
     7
176
     1
 65
   257
176
     1
 75
     1
176
     1
175
     1
176
     1
 42
40.0
176
     1
 92
        8
176
     1
 66
     7
176
     1
 43
1.0
176
     1
 76
     1
176
     1
 77
     6
176
     1
 78
     2
176
     1
 67
     7
176
     1
 79
     3
176
     1
170
     0
176
     1
171
     0
176
     1
290
     0
176
     1
 93
        1
176
     1
 44
0.0
176
     1
173
     0
176
     1
  0
VISUALSTYLE
  5
35
102
{ACAD_REACTORS
330
2A
102
}
330
2A
100
AcDbVisualStyle
  2
Dim
 70
    11
177
     2
291
     1
 71
     2
176
     1
 72
     2
176
     1
 73
     0
176
     1
 90
        0
176
     1
 40
-0.6
176
     1
 41
-30.0
176
     1
 62
     5
 63
     7
421
 16777215
176
     1
 74
     1
176
     1
 91
        4
176
     1
 64
     7
176
     1
 65
   257
176
     1
 75
     1
176
     1
175
     1
176
     1
 42
1.0
176
     1
 92
        8
176
     1
 66
     7
176
     1
 43
1.0
176
     1
 76
     1
176
     1
 77
     6
176
     1
 78
     2
176
     1
 67
     7
176
     1
 79
     5
176
     1
170
     0
176
     1
171
     0
176
     1
290
     0
176
     1
 93
        1
176
     1
 44
-50.0
176
     1
173
     0
176
     1
  0
VISUALSTYLE
  5
39
102
{ACAD_REACTORS
330
2A
102
}
330
2A
100
AcDbVisualStyle
  2
Facepattern
 70
    15
177
     2
291
     1
 71
     2
176
     1
 72
     2
176
     1
 73
     0
176
     1
 90
        0
176
     1
 40
-0.6
176
     1
 41
-30.0
176
     1
 62
     5
 63
     7
421
 16777215
176
     1
 74
     1
176
     1
 91
        4
176
     1
 64
     7
176
     1
 65
   257
176
     1
 75
     1
176
     1
175
     1
176
     1
 42
1.0
176
     1
 92
        8
176
     1
 66
     7
176
     1
 43
1.0
176
     1
 76
     1
176
     1
 77
     6
176
     1
 78
     2
176
     1
 67
     7
176
     1
 79
     5
176
     1
170
     0
176
     1
171
     0
176
     1
290
     0
176
     1
 93
        1
176
     1
 44
0.0
176
     1
173
     0
176
     1
  0
VISUALSTYLE
  5
2B
102
{ACAD_REACTORS
330
2A
102
}
330
2A
100
AcDbVisualStyle
  2
Flat
 70
     0
177
     2
291
     1
 71
     2
176
     1
 72
     1
176
     1
 73
     1
176
     1
 90
        2
176
     1
 40
-0.6
176
     1
 41
30.0
176
     1
 62
     5
 63
     7
421
 16777215
176
     1
 74
     0
176
     1
 91
        4
176
     1
 64
     7
176
     1
 65
   257
176
     1
 75
     1
176
     1
175
     1
176
     1
 42
1.0
176
     1
 92
        8
176
     1
 66
     7
176
     1
 43
1.0
176
     1
 76
     1
176
     1
 77
     6
176
     1
 78
     2
176
     1
 67
     7
176
     1
 79
     5
176
     1
170
     0
176
     1
171
     0
176
     1
290
     0
176
     1
 93
       13
176
     1
 44
0.0
176
     1
173
     0
176
     1
  0
VISUALSTYLE
  5
2C
102
{ACAD_REACTORS
330
2A
102
}
330
2A
100
AcDbVisualStyle
  2
FlatWithEdges
 70
     1
177
     2
291
     1
 71
     2
176
     1
 72
     1
176
     1
 73
     1
176
     1
 90
        2
176
     1
 40
-0.6
176
     1
 41
30.0
176
     1
 62
     5
 63
     7
421
 16777215
176
     1
 74
     1
176
     1
 91
        4
176
     1
 64
     7
176
     1
 65
   257
176
     1
 75
     1
176
     1
175
     1
176
     1
 42
1.0
176
     1
 92
        0
176
     1
 66
   257
176
     1
 43
1.0
176
     1
 76
     1
176
     1
 77
     6
176
     1
 78
     2
176
     1
 67
     7
176
     1
 79
     5
176
     1
170
     0
176
     1
171
     0
176
     1
290
     0
176
     1
 93
       13
176
     1
 44
0.0
176
     1
173
     0
176
     1
  0
VISUALSTYLE
  5
2D
102
{ACAD_REACTORS
330
2A
102
}
330
2A
100
AcDbVisualStyle
  2
Gouraud
 70
     2
177
     2
291
     1
 71
     2
176
     1
 72
     2
176
     1
 73
     1
176
     1
 90
        2
176
     1
 40
-0.6
176
     1
 41
30.0
176
     1
 62
     5
 63
     7
421
 16777215
176
     1
 74
     0
176
     1
 91
        4
176
     1
 64
     7
176
     1
 65
   257
176
     1
 75
     1
176
     1
175
     1
176
     1
 42
1.0
176
     1
 92
        0
176
     1
 66
     7
176
     1
 43
1.0
176
     1
 76
     1
176
     1
 77
     6
176
     1
 78
     2
176
     1
 67
     7
176
     1
 79
     5
176
     1
170
     0
176
     1
171
     0
176
     1
290
     0
176
     1
 93
       13
176
     1
 44
0.0
176
     1
173
     0
176
     1
  0
VISUALSTYLE
  5
2E
102
{ACAD_REACTORS
330
2A
102
}
330
2A
100
AcDbVisualStyle
  2
GouraudWithEdges
 70
     3
177
     2
291
     1
 71
     2
176
     1
 72
     2
176
     1
 73
     1
176
     1
 90
        2
176
     1
 40
-0.6
176
     1
 41
30.0
176
     1
 62
     5
 63
     7
421
 16777215
176
     1
 74
     1
176
     1
 91
        4
176
     1
 64
     7
176
     1
 65
   257
176
     1
 75
     1
176
     1
175
     1
176
     1
 42
1.0
176
     1
 92
        0
176
     1
 66
   257
176
     1
 43
1.0
176
     1
 76
     1
176
     1
 77
     6
176
     1
 78
     2
176
     1
 67
     7
176
     1
 79
     5
176
     1
170
     0
176
     1
171
     0
176
     1
290
     0
176
     1
 93
       13
176
     1
 44
0.0
176
     1
173
     0
176
     1
  0
VISUALSTYLE
  5
38
102
{ACAD_REACTORS
330
2A
102
}
330
2A
100
AcDbVisualStyle
  2
Linepattern
 70
    14
177
     2
291
     1
 71
     2
176
     1
 72
     2
176
     1
 73
     0
176
     1
 90
        0
176
     1
 40
-0.6
176
     1
 41
-30.0
176
     1
 62
     5
 63
     7
421
 16777215
176
     1
 74
     1
176
     1
 91
        4
176
     1
 64
     7
176
     1
 65
   257
176
     1
 75
     7
176
     1
175
     7
176
     1
 42
1.0
176
     1
 92
        8
176
     1
 66
     7
176
     1
 43
1.0
176
     1
 76
     1
176
     1
 77
     6
176
     1
 78
     2
176
     1
 67
     7
176
     1
 79
     5
176
     1
170
     0
176
     1
171
     0
176
     1
290
     0
176
     1
 93
        1
176
     1
 44
0.0
176
     1
173
     0
176
     1
  0
VISUALSTYLE
  5
33
102
{ACAD_REACTORS
330
2A
102
}
330
2A
100
AcDbVisualStyle
  2
Realistic
 70
     8
177
     2
291
     0
 71
     2
176
     1
 72
     2
176
     1
 73
     0
176
     1
 90
        0
176
     1
 40
-0.6
176
     1
 41
-30.0
176
     1
 62
     5
 63
     7
421
 16777215
176
     1
 74
     1
176
     1
 91
        0
176
     1
 64
     7
176
     1
 65
   257
176
     1
 75
     1
176
     1
175
     1
176
     1
 42
1.0
176
     1
 92
        8
176
     1
 66
     8
424
  7895160
176
     1
 43
1.0
176
     1
 76
     1
176
     1
 77
     6
176
     1
 78
     2
176
     1
 67
     7
176
     1
 79
     5
176
     1
170
     0
176
     1
171
     0
176
     1
290
     0
176
     1
 93
       13
176
     1
 44
0.0
176
     1
173
     0
176
     1
  0
VISUALSTYLE
  5
37
102
{ACAD_REACTORS
330
2A
102
}
330
2A
100
AcDbVisualStyle
  2
Thicken
 70
    13
177
     2
291
     1
 71
     2
176
     1
 72
     2
176
     1
 73
     0
176
     1
 90
        0
176
     1
 40
-0.6
176
     1
 41
-30.0
176
     1
 62
     5
 63
     7
421
 16777215
176
     1
 74
     1
176
     1
 91
        4
176
     1
 64
     7
176
     1
 65
   257
176
     1
 75
     1
176
     1
175
     1
176
     1
 42
1.0
176
     1
 92
       12
176
     1
 66
     7
176
     1
 43
1.0
176
     1
 76
     1
176
     1
 77
     6
176
     1
 78
     2
176
     1
 67
     7
176
     1
 79
     5
176
     1
170
     0
176
     1
171
     0
176
     1
290
     0
176
     1
 93
        1
176
     1
 44
0.0
176
     1
173
     0
176
     1
  0
ENDSEC
  0
EOF
