  0
SECTION
  2
HEADER
  9
$ACADVER
  1
AC1024
  9
$ACADMAINTVER
 70
     6
  9
$DWGCODEPAGE
  3
UNDEFINED
  9
$INSBASE
 10
0.0
 20
0.0
 30
0.0
  9
$EXTMIN
 10
1.000000000000000E+20
 20
1.000000000000000E+20
 30
1.000000000000000E+20
  9
$EXTMAX
 10
-1.000000000000000E+20
 20
-1.000000000000000E+20
 30
-1.000000000000000E+20
  9
$LIMMIN
 10
0.0
 20
0.0
  9
$LIMMAX
 10
12.0
 20
9.0
  9
$ORTHOMODE
 70
     0
  9
$REGENMODE
 70
     1
  9
$FILLMODE
 70
     1
  9
$QTEXTMODE
 70
     0
  9
$MIRRTEXT
 70
     1
  9
$LTSCALE
 40
1.0
  9
$ATTMODE
 70
     1
  9
$TEXTSIZE
 40
0.2
  9
$TRACEWID
 40
0.05
  9
$TEXTSTYLE
  7
Standard
  9
$CLAYER
  8
0
  9
$CELTYPE
  6
ByLayer
  9
$CECOLOR
 62
   256
  9
$CELTSCALE
 40
1.0
  9
$DISPSILH
 70
     0
  9
$DIMSCALE
 40
1.0
  9
$DIMASZ
 40
0.18
  9
$DIMEXO
 40
0.0625
  9
$DIMDLI
 40
0.38
  9
$DIMRND
 40
0.0
  9
$DIMDLE
 40
0.0
  9
$DIMEXE
 40
0.18
  9
$DIMTP
 40
0.0
  9
$DIMTM
 40
0.0
  9
$DIMTXT
 40
0.18
  9
$DIMCEN
 40
0.09
  9
$DIMTSZ
 40
0.0
  9
$DIMTOL
 70
     0
  9
$DIMLIM
 70
     0
  9
$DIMTIH
 70
     1
  9
$DIMTOH
 70
     1
  9
$DIMSE1
 70
     0
  9
$DIMSE2
 70
     0
  9
$DIMTAD
 70
     0
  9
$DIMZIN
 70
     0
  9
$DIMBLK
  1

  9
$DIMASO
 70
     1
  9
$DIMSHO
 70
     1
  9
$DIMPOST
  1

  9
$DIMAPOST
  1

  9
$DIMALT
 70
     0
  9
$DIMALTD
 70
     2
  9
$DIMALTF
 40
25.4
  9
$DIMLFAC
 40
1.0
  9
$DIMTOFL
 70
     0
  9
$DIMTVP
 40
0.0
  9
$DIMTIX
 70
     0
  9
$DIMSOXD
 70
     0
  9
$DIMSAH
 70
     0
  9
$DIMBLK1
  1

  9
$DIMBLK2
  1

  9
$DIMSTYLE
  2
Standard
  9
$DIMCLRD
 70
     0
  9
$DIMCLRE
 70
     0
  9
$DIMCLRT
 70
     0
  9
$DIMTFAC
 40
1.0
  9
$DIMGAP
 40
0.09
  9
$DIMJUST
 70
     0
  9
$DIMSD1
 70
     0
  9
$DIMSD2
 70
     0
  9
$DIMTOLJ
 70
     1
  9
$DIMTZIN
 70
     0
  9
$DIMALTZ
 70
     0
  9
$DIMALTTZ
 70
     0
  9
$DIMUPT
 70
     0
  9
$DIMDEC
 70
     4
  9
$DIMTDEC
 70
     4
  9
$DIMALTU
 70
     2
  9
$DIMALTTD
 70
     2
  9
$DIMTXSTY
  7
Standard
  9
$DIMAUNIT
 70
     0
  9
$DIMADEC
 70
     0
  9
$DIMALTRND
 40
0.0
  9
$DIMAZIN
 70
     0
  9
$DIMDSEP
 70
    46
  9
$DIMATFIT
 70
     3
  9
$DIMFRAC
 70
     0
  9
$DIMLDRBLK
  1

  9
$DIMLUNIT
 70
     2
  9
$DIMLWD
 70
    -2
  9
$DIMLWE
 70
    -2
  9
$DIMTMOVE
 70
     0
  9
$DIMFXL
 40
1.0
  9
$DIMFXLON
 70
     0
  9
$DIMJOGANG
 40
0.7853981633974483
  9
$DIMTFILL
 70
     0
  9
$DIMTFILLCLR
 70
     0
  9
$DIMARCSYM
 70
     0
  9
$DIMLTYPE
  6

  9
$DIMLTEX1
  6

  9
$DIMLTEX2
  6

  9
$DIMTXTDIRECTION
 70
     0
  9
$LUNITS
 70
     2
  9
$LUPREC
 70
     4
  9
$SKETCHINC
 40
0.1
  9
$FILLETRAD
 40
0.5
  9
$AUNITS
 70
     0
  9
$AUPREC
 70
     0
  9
$MENU
  1
.
  9
$ELEVATION
 40
0.0
  9
$PELEVATION
 40
0.0
  9
$THICKNESS
 40
0.0
  9
$LIMCHECK
 70
     0
  9
$CHAMFERA
 40
0.5
  9
$CHAMFERB
 40
0.5
  9
$CHAMFERC
 40
1.0
  9
$CHAMFERD
 40
0.0
  9
$SKPOLY
 70
     0
  9
$TDCREATE
 40
2458451.563888877
  9
$TDUCREATE
 40
2458451.772222222
  9
$TDUPDATE
 40
2458451.563888877
  9
$TDUUPDATE
 40
2458451.772222222
  9
$TDINDWG
 40
0.0000000116
  9
$TDUSRTIMER
 40
0.0000000116
  9
$USRTIMER
 70
     1
  9
$ANGBASE
 50
0.0
  9
$ANGDIR
 70
     0
  9
$PDMODE
 70
     0
  9
$PDSIZE
 40
0.0
  9
$PLINEWID
 40
0.0
  9
$SPLFRAME
 70
     0
  9
$SPLINETYPE
 70
     6
  9
$SPLINESEGS
 70
     8
  9
$HANDSEED
  5
3A5
  9
$SURFTAB1
 70
     6
  9
$SURFTAB2
 70
     6
  9
$SURFTYPE
 70
     6
  9
$SURFU
 70
     6
  9
$SURFV
 70
     6
  9
$UCSBASE
  2

  9
$UCSNAME
  2

  9
$UCSORG
 10
0.0
 20
0.0
 30
0.0
  9
$UCSXDIR
 10
1.0
 20
0.0
 30
0.0
  9
$UCSYDIR
 10
0.0
 20
1.0
 30
0.0
  9
$UCSORTHOREF
  2

  9
$UCSORTHOVIEW
 70
     0
  9
$UCSORGTOP
 10
0.0
 20
0.0
 30
0.0
  9
$UCSORGBOTTOM
 10
0.0
 20
0.0
 30
0.0
  9
$UCSORGLEFT
 10
0.0
 20
0.0
 30
0.0
  9
$UCSORGRIGHT
 10
0.0
 20
0.0
 30
0.0
  9
$UCSORGFRONT
 10
0.0
 20
0.0
 30
0.0
  9
$UCSORGBACK
 10
0.0
 20
0.0
 30
0.0
  9
$PUCSBASE
  2

  9
$PUCSNAME
  2

  9
$PUCSORG
 10
0.0
 20
0.0
 30
0.0
  9
$PUCSXDIR
 10
1.0
 20
0.0
 30
0.0
  9
$PUCSYDIR
 10
0.0
 20
1.0
 30
0.0
  9
$PUCSORTHOREF
  2

  9
$PUCSORTHOVIEW
 70
     0
  9
$PUCSORGTOP
 10
0.0
 20
0.0
 30
0.0
  9
$PUCSORGBOTTOM
 10
0.0
 20
0.0
 30
0.0
  9
$PUCSORGLEFT
 10
0.0
 20
0.0
 30
0.0
  9
$PUCSORGRIGHT
 10
0.0
 20
0.0
 30
0.0
  9
$PUCSORGFRONT
 10
0.0
 20
0.0
 30
0.0
  9
$PUCSORGBACK
 10
0.0
 20
0.0
 30
0.0
  9
$USERI1
 70
     0
  9
$USERI2
 70
     0
  9
$USERI3
 70
     0
  9
$USERI4
 70
     0
  9
$USERI5
 70
     0
  9
$USERR1
 40
0.0
  9
$USERR2
 40
0.0
  9
$USERR3
 40
0.0
  9
$USERR4
 40
0.0
  9
$USERR5
 40
0.0
  9
$WORLDVIEW
 70
     1
  9
$SHADEDGE
 70
     3
  9
$SHADEDIF
 70
    70
  9
$TILEMODE
 70
     1
  9
$MAXACTVP
 70
    64
  9
$PINSBASE
 10
0.0
 20
0.0
 30
0.0
  9
$PLIMCHECK
 70
     0
  9
$PEXTMIN
 10
1.000000000000000E+20
 20
1.000000000000000E+20
 30
1.000000000000000E+20
  9
$PEXTMAX
 10
-1.000000000000000E+20
 20
-1.000000000000000E+20
 30
-1.000000000000000E+20
  9
$PLIMMIN
 10
0.0
 20
0.0
  9
$PLIMMAX
 10
12.0
 20
9.0
  9
$UNITMODE
 70
     0
  9
$VISRETAIN
 70
     1
  9
$PLINEGEN
 70
     0
  9
$PSLTSCALE
 70
     1
  9
$TREEDEPTH
 70
  3020
  9
$CMLSTYLE
  2
Standard
  9
$CMLJUST
 70
     0
  9
$CMLSCALE
 40
1.0
  9
$PROXYGRAPHICS
 70
     1
  9
$MEASUREMENT
 70
     0
  9
$CELWEIGHT
370
    -1
  9
$ENDCAPS
280
     0
  9
$JOINSTYLE
280
     0
  9
$LWDISPLAY
290
     1
  9
$INSUNITS
 70
     1
  9
$HYPERLINKBASE
  1

  9
$STYLESHEET
  1

  9
$XEDIT
290
     1
  9
$CEPSNTYPE
380
     0
  9
$PSTYLEMODE
290
     1
  9
$FINGERPRINTGUID
  2
{34D795BE-BFF4-6E9F-B2CF-141573CAD39A}
  9
$VERSIONGUID
  2
{FAEB1C32-E019-11D5-929B-00C0DF256EC4}
  9
$EXTNAMES
290
     1
  9
$PSVPSCALE
 40
0.0
  9
$OLESTARTUP
290
     0
  9
$SORTENTS
280
   127
  9
$INDEXCTL
280
     0
  9
$HIDETEXT
280
     1
  9
$XCLIPFRAME
280
     2
  9
$HALOGAP
280
     0
  9
$OBSCOLOR
 70
   257
  9
$OBSLTYPE
280
     0
  9
$INTERSECTIONDISPLAY
280
     0
  9
$INTERSECTIONCOLOR
 70
   257
  9
$DIMASSOC
280
     2
  9
$PROJECTNAME
  1

  9
$CAMERADISPLAY
290
     0
  9
$LENSLENGTH
 40
50.0
  9
$CAMERAHEIGHT
 40
0.0
  9
$STEPSPERSEC
 40
2.0
  9
$STEPSIZE
 40
6.0
  9
$3DDWFPREC
 40
2.0
  9
$PSOLWIDTH
 40
0.25
  9
$PSOLHEIGHT
 40
4.0
  9
$LOFTANG1
 40
1.570796326794897
  9
$LOFTANG2
 40
1.570796326794897
  9
$LOFTMAG1
 40
0.0
  9
$LOFTMAG2
 40
0.0
  9
$LOFTPARAM
 70
     7
  9
$LOFTNORMALS
280
     1
  9
$LATITUDE
 40
37.795
  9
$LONGITUDE
 40
-122.394
  9
$NORTHDIRECTION
 40
0.0
  9
$TIMEZONE
 70
 -8000
  9
$LIGHTGLYPHDISPLAY
280
     1
  9
$TILEMODELIGHTSYNCH
280
     1
  9
$CMATERIAL
347
3C
  9
$SOLIDHIST
280
     1
  9
$SHOWHIST
280
     1
  9
$DWFFRAME
280
     2
  9
$DGNFRAME
280
     2
  9
$REALWORLDSCALE
290
     1
  9
$INTERFERECOLOR
 62
   256
  9
$CSHADOW
280
     0
  9
$SHADOWPLANELOCATION
 40
0.0
  0
ENDSEC
  0
SECTION
  2
CLASSES
  0
CLASS
  1
ACDBDICTIONARYWDFLT
  2
AcDbDictionaryWithDefault
  3
ObjectDBX Classes
 90
        0
 91
        4
280
     0
281
     0
  0
CLASS
  1
VISUALSTYLE
  2
AcDbVisualStyle
  3
ObjectDBX Classes
 90
     4095
 91
        4
280
     0
281
     0
  0
CLASS
  1
MATERIAL
  2
AcDbMaterial
  3
ObjectDBX Classes
 90
     1153
 91
        4
280
     0
281
     0
  0
CLASS
  1
SUN
  2
AcDbSun
  3
SCENEOE
 90
     1024
 91
        4
280
     0
281
     0
  0
ENDSEC
  0
SECTION
  2
TABLES
  0
TABLE
  2
VPORT
  5
8
330
0
100
AcDbSymbolTable
 70
     1
  0
VPORT
  5
29
330
8
100
AcDbSymbolTableRecord
100
AcDbViewportTableRecord
  2
*Active
 70
     0
 10
0.0
 20
0.0
 11
1.0
 21
1.0
 12
0.0
 22
0.0
 13
0.0
 23
0.0
 14
0.5
 24
0.5
 15
0.5
 25
0.5
 16
0.0
 26
0.0
 36
1.0
 17
12.0
 27
-18.0
 37
0.0
 40
36.0
 41
0.6666666666666666
 42
50.0
 43
0.0
 44
0.0
 50
0.0
 51
0.0
 71
     0
 72
   100
 73
     1
 74
     3
 75
     0
 76
     0
 77
     0
 78
     0
281
     0
 65
     1
110
0.0
120
0.0
130
0.0
111
1.0
121
0.0
131
0.0
112
0.0
122
1.0
132
0.0
 79
     0
146
0.0
 60
     3
 61
     5
292
     1
282
     1
141
0.0
142
0.0
 63
   250
361
3F
  0
ENDTAB
  0
TABLE
  2
LTYPE
  5
5
330
0
100
AcDbSymbolTable
 70
     1
  0
LTYPE
  5
14
330
5
100
AcDbSymbolTableRecord
100
AcDbLinetypeTableRecord
  2
ByBlock
 70
     0
  3

 72
    65
 73
     0
 40
0.0
  0
LTYPE
  5
15
330
5
100
AcDbSymbolTableRecord
100
AcDbLinetypeTableRecord
  2
ByLayer
 70
     0
  3

 72
    65
 73
     0
 40
0.0
  0
LTYPE
  5
16
330
5
100
AcDbSymbolTableRecord
100
AcDbLinetypeTableRecord
  2
Continuous
 70
     0
  3
Solid line
 72
    65
 73
     0
 40
0.0
  0
ENDTAB
  0
TABLE
  2
LAYER
  5
2
330
0
100
AcDbSymbolTable
 70
     2
  0
LAYER
  5
10
330
2
100
AcDbSymbolTableRecord
100
AcDbLayerTableRecord
  2
0
 70
     0
 62
     7
  6
Continuous
370
    -3
390
F
347
3E
  0
LAYER
  5
40
330
2
100
AcDbSymbolTableRecord
100
AcDbLayerTableRecord
  2
Layer 1
 70
     0
 62
     7
  6
Continuous
370
    -3
390
F
347
3E
  0
ENDTAB
  0
TABLE
  2
STYLE
  5
3
330
0
100
AcDbSymbolTable
 70
     1
  0
STYLE
  5
11
330
3
100
AcDbSymbolTableRecord
100
AcDbTextStyleTableRecord
  2
Standard
 70
     0
 40
0.0
 41
1.0
 50
0.0
 71
     0
 42
0.2
  3
txt
  4

  0
ENDTAB
  0
TABLE
  2
VIEW
  5
6
330
0
100
AcDbSymbolTable
 70
     0
  0
ENDTAB
  0
TABLE
  2
UCS
  5
7
330
0
100
AcDbSymbolTable
 70
     0
  0
ENDTAB
  0
TABLE
  2
APPID
  5
9
330
0
100
AcDbSymbolTable
 70
     1
  0
APPID
  5
12
330
9
100
AcDbSymbolTableRecord
100
AcDbRegAppTableRecord
  2
ACAD
 70
     0
  0
ENDTAB
  0
TABLE
  2
DIMSTYLE
  5
A
330
0
100
AcDbSymbolTable
 70
     1
100
AcDbDimStyleTable
  0
DIMSTYLE
105
27
330
A
100
AcDbSymbolTableRecord
100
AcDbDimStyleTableRecord
  2
Standard
 70
     0
178
     0
340
11
  0
ENDTAB
  0
TABLE
  2
BLOCK_RECORD
  5
1
330
0
100
AcDbSymbolTable
 70
     3
  0
BLOCK_RECORD
  5
1F
330
1
100
AcDbSymbolTableRecord
100
AcDbBlockTableRecord
  2
*Model_Space
340
22
 70
     0
280
     1
281
     0
  0
BLOCK_RECORD
  5
1B
330
1
100
AcDbSymbolTableRecord
100
AcDbBlockTableRecord
  2
*Paper_Space
340
1E
 70
     0
280
     1
281
     0
  0
BLOCK_RECORD
  5
23
330
1
100
AcDbSymbolTableRecord
100
AcDbBlockTableRecord
  2
*Paper_Space0
340
26
 70
     0
280
     1
281
     0
  0
BLOCK_RECORD
  5
2CD
330
1
100
AcDbSymbolTableRecord
100
AcDbBlockTableRecord
  2
block 2
340
0
102
{BLKREFS
331
2CE
102
}
 70
     0
280
     1
281
     0
  0
BLOCK_RECORD
  5
338
330
1
100
AcDbSymbolTableRecord
100
AcDbBlockTableRecord
  2
block 3
340
0
102
{BLKREFS
331
339
102
}
 70
     0
280
     1
281
     0
  0
ENDTAB
  0
ENDSEC
  0
SECTION
  2
BLOCKS
  0
BLOCK
  5
20
330
1F
100
AcDbEntity
  8
0
100
AcDbBlockBegin
  2
*Model_Space
 70
     0
 10
0.0
 20
0.0
 30
0.0
  3
*Model_Space
  1

  0
ENDBLK
  5
21
330
1F
100
AcDbEntity
  8
0
100
AcDbBlockEnd
  0
BLOCK
  5
1C
330
1B
100
AcDbEntity
 67
     1
  8
0
100
AcDbBlockBegin
  2
*Paper_Space
 70
     0
 10
0.0
 20
0.0
 30
0.0
  3
*Paper_Space
  1

  0
ENDBLK
  5
1D
330
1B
100
AcDbEntity
 67
     1
  8
0
100
AcDbBlockEnd
  0
BLOCK
  5
24
330
23
100
AcDbEntity
  8
0
100
AcDbBlockBegin
  2
*Paper_Space0
 70
     0
 10
0.0
 20
0.0
 30
0.0
  3
*Paper_Space0
  1

  0
ENDBLK
  5
25
330
23
100
AcDbEntity
  8
0
100
AcDbBlockEnd
  0
BLOCK
  5
2CF
330
2CD
100
AcDbEntity
  8
0
100
AcDbBlockBegin
  2
block 2
 70
     0
 10
0.0
 20
0.0
 30
0.0
  3
block 2
  1

  0
POLYLINE
  5
2D1
330
2CD
100
AcDbEntity
  8
Layer 1
 62
    22
420
 15540004
370
    25
100
AcDb2dPolyline
 66
     1
 10
0.0
 20
0.0
 30
0.0
  0
VERTEX
  5
2D2
330
2D1
100
AcDbEntity
  8
Layer 1
 62
    22
420
 15540004
370
    25
100
AcDbVertex
100
AcDb2dVertex
 10
18.22710986845863
 20
-3.117795870362872
 30
0.0
  0
VERTEX
  5
2D3
330
2D1
100
AcDbEntity
  8
Layer 1
 62
    22
420
 15540004
370
    25
100
AcDbVertex
100
AcDb2dVertex
 10
17.98548228267984
 20
-1.334087343223246
 30
0.0
  0
VERTEX
  5
2D4
330
2D1
100
AcDbEntity
  8
Layer 1
 62
    22
420
 15540004
370
    25
100
AcDbVertex
100
AcDb2dVertex
 10
20.26466540069163
 20
-1.02534098361702
 30
0.0
  0
VERTEX
  5
2D5
330
2D1
100
AcDbEntity
  8
Layer 1
 62
    22
420
 15540004
370
    25
100
AcDbVertex
100
AcDb2dVertex
 10
20.50629298647042
 20
-2.809049510756672
 30
0.0
  0
VERTEX
  5
2D6
330
2D1
100
AcDbEntity
  8
Layer 1
 62
    22
420
 15540004
370
    25
100
AcDbVertex
100
AcDb2dVertex
 10
18.22710986845863
 20
-3.117795870362872
 30
0.0
  0
SEQEND
  5
2D7
330
2D1
100
AcDbEntity
  8
Layer 1
 62
    22
420
 15540004
370
    25
  0
POLYLINE
  5
2D8
330
2CD
100
AcDbEntity
  8
Layer 1
 62
    22
420
 15540004
370
    25
100
AcDb2dPolyline
 66
     1
 10
0.0
 20
0.0
 30
0.0
  0
VERTEX
  5
2D9
330
2D8
100
AcDbEntity
  8
Layer 1
 62
    22
420
 15540004
370
    25
100
AcDbVertex
100
AcDb2dVertex
 10
14.29538380836614
 20
-0.998040447851142
 30
0.0
  0
VERTEX
  5
2DA
330
2D8
100
AcDbEntity
  8
Layer 1
 62
    22
420
 15540004
370
    25
100
AcDbVertex
100
AcDb2dVertex
 10
16.81990381733845
 20
-5.874436326569972
 30
0.0
  0
VERTEX
  5
2DB
330
2D8
100
AcDbEntity
  8
Layer 1
 62
    22
420
 15540004
370
    25
100
AcDbVertex
100
AcDb2dVertex
 10
16.90335528363473
 20
-6.033936929733878
 30
0.0
  0
VERTEX
  5
2DC
330
2D8
100
AcDbEntity
  8
Layer 1
 62
    22
420
 15540004
370
    25
100
AcDbVertex
100
AcDb2dVertex
 10
16.98541778816186
 20
-6.194209673881283
 30
0.0
  0
VERTEX
  5
2DD
330
2D8
100
AcDbEntity
  8
Layer 1
 62
    22
420
 15540004
370
    25
100
AcDbVertex
100
AcDb2dVertex
 10
17.14886213634908
 20
-6.515113162632107
 30
0.0
  0
VERTEX
  5
2DE
330
2D8
100
AcDbEntity
  8
Layer 1
 62
    22
420
 15540004
370
    25
100
AcDbVertex
100
AcDb2dVertex
 10
17.23198712222953
 20
-6.67476474598829
 30
0.0
  0
VERTEX
  5
2DF
330
2D8
100
AcDbEntity
  8
Layer 1
 62
    22
420
 15540004
370
    25
100
AcDbVertex
100
AcDb2dVertex
 10
17.31720941078144
 20
-6.833230087833524
 30
0.0
  0
VERTEX
  5
2E0
330
2D8
100
AcDbEntity
  8
Layer 1
 62
    22
420
 15540004
370
    25
100
AcDbVertex
100
AcDb2dVertex
 10
17.40540056311491
 20
-6.990019587544161
 30
0.0
  0
VERTEX
  5
2E1
330
2D8
100
AcDbEntity
  8
Layer 1
 62
    22
420
 15540004
370
    25
100
AcDbVertex
100
AcDb2dVertex
 10
17.49743214034015
 20
-7.144643644496555
 30
0.0
  0
VERTEX
  5
2E2
330
2D8
100
AcDbEntity
  8
Layer 1
 62
    22
420
 15540004
370
    25
100
AcDbVertex
100
AcDb2dVertex
 10
17.51552490338579
 20
-7.176471365037109
 30
0.0
  0
VERTEX
  5
2E3
330
2D8
100
AcDbEntity
  8
Layer 1
 62
    22
420
 15540004
370
    25
100
AcDbVertex
100
AcDb2dVertex
 10
17.53626380980197
 20
-7.205391541874178
 30
0.0
  0
VERTEX
  5
2E4
330
2D8
100
AcDbEntity
  8
Layer 1
 62
    22
420
 15540004
370
    25
100
AcDbVertex
100
AcDb2dVertex
 10
17.55935409921322
 20
-7.231732975426565
 30
0.0
  0
VERTEX
  5
2E5
330
2D8
100
AcDbEntity
  8
Layer 1
 62
    22
420
 15540004
370
    25
100
AcDbVertex
100
AcDb2dVertex
 10
17.58450107124418
 20
-7.255824446113087
 30
0.0
  0
VERTEX
  5
2E6
330
2D8
100
AcDbEntity
  8
Layer 1
 62
    22
420
 15540004
370
    25
100
AcDbVertex
100
AcDb2dVertex
 10
17.61141000551945
 20
-7.27799477435254
 30
0.0
  0
VERTEX
  5
2E7
330
2D8
100
AcDbEntity
  8
Layer 1
 62
    22
420
 15540004
370
    25
100
AcDbVertex
100
AcDb2dVertex
 10
17.63978618166362
 20
-7.298572720563723
 30
0.0
  0
VERTEX
  5
2E8
330
2D8
100
AcDbEntity
  8
Layer 1
 62
    22
420
 15540004
370
    25
100
AcDbVertex
100
AcDb2dVertex
 10
17.69976141805708
 20
-7.336266728576447
 30
0.0
  0
VERTEX
  5
2E9
330
2D8
100
AcDbEntity
  8
Layer 1
 62
    22
420
 15540004
370
    25
100
AcDbVertex
100
AcDb2dVertex
 10
17.82435123675335
 20
-7.407013218689801
 30
0.0
  0
VERTEX
  5
2EA
330
2D8
100
AcDbEntity
  8
Layer 1
 62
    22
420
 15540004
370
    25
100
AcDbVertex
100
AcDb2dVertex
 10
17.8842503330498
 20
-7.445326407491216
 30
0.0
  0
VERTEX
  5
2EB
330
2D8
100
AcDbEntity
  8
Layer 1
 62
    22
420
 15540004
370
    25
100
AcDbVertex
100
AcDb2dVertex
 10
17.91256942912125
 20
-7.466368754293903
 30
0.0
  0
VERTEX
  5
2EC
330
2D8
100
AcDbEntity
  8
Layer 1
 62
    22
420
 15540004
370
    25
100
AcDbVertex
100
AcDb2dVertex
 10
17.9394085633076
 20
-7.489106663256305
 30
0.0
  0
VERTEX
  5
2ED
330
2D8
100
AcDbEntity
  8
Layer 1
 62
    22
420
 15540004
370
    25
100
AcDbVertex
100
AcDb2dVertex
 10
18.00304594436572
 20
-7.549875100660099
 30
0.0
  0
VERTEX
  5
2EE
330
2D8
100
AcDbEntity
  8
Layer 1
 62
    22
420
 15540004
370
    25
100
AcDbVertex
100
AcDb2dVertex
 10
18.0648832031309
 20
-7.612490400416365
 30
0.0
  0
VERTEX
  5
2EF
330
2D8
100
AcDbEntity
  8
Layer 1
 62
    22
420
 15540004
370
    25
100
AcDbVertex
100
AcDb2dVertex
 10
18.12496099965503
 20
-7.676823322360406
 30
0.0
  0
VERTEX
  5
2F0
330
2D8
100
AcDbEntity
  8
Layer 1
 62
    22
420
 15540004
370
    25
100
AcDbVertex
100
AcDb2dVertex
 10
18.18331997398976
 20
-7.742744746327818
 30
0.0
  0
VERTEX
  5
2F1
330
2D8
100
AcDbEntity
  8
Layer 1
 62
    22
420
 15540004
370
    25
100
AcDbVertex
100
AcDb2dVertex
 10
18.24000080618695
 20
-7.810125472154014
 30
0.0
  0
VERTEX
  5
2F2
330
2D8
100
AcDbEntity
  8
Layer 1
 62
    22
420
 15540004
370
    25
100
AcDbVertex
100
AcDb2dVertex
 10
18.29504417629849
 20
-7.878836319674494
 30
0.0
  0
VERTEX
  5
2F3
330
2D8
100
AcDbEntity
  8
Layer 1
 62
    22
420
 15540004
370
    25
100
AcDbVertex
100
AcDb2dVertex
 10
18.34849072437601
 20
-7.948748088724566
 30
0.0
  0
VERTEX
  5
2F4
330
2D8
100
AcDbEntity
  8
Layer 1
 62
    22
420
 15540004
370
    25
100
AcDbVertex
100
AcDb2dVertex
 10
18.40038111047139
 20
-8.019731639139865
 30
0.0
  0
VERTEX
  5
2F5
330
2D8
100
AcDbEntity
  8
Layer 1
 62
    22
420
 15540004
370
    25
100
AcDbVertex
100
AcDb2dVertex
 10
18.46324503054433
 20
-8.136150827428814
 30
0.0
  0
VERTEX
  5
2F6
330
2D8
100
AcDbEntity
  8
Layer 1
 62
    22
420
 15540004
370
    25
100
AcDbVertex
100
AcDb2dVertex
 10
18.52405448800037
 20
-8.253667977116265
 30
0.0
  0
VERTEX
  5
2F7
330
2D8
100
AcDbEntity
  8
Layer 1
 62
    22
420
 15540004
370
    25
100
AcDbVertex
100
AcDb2dVertex
 10
18.58281644284842
 20
-8.372244528153184
 30
0.0
  0
VERTEX
  5
2F8
330
2D8
100
AcDbEntity
  8
Layer 1
 62
    22
420
 15540004
370
    25
100
AcDbVertex
100
AcDb2dVertex
 10
18.63953783509724
 20
-8.49184196049042
 30
0.0
  0
VERTEX
  5
2F9
330
2D8
100
AcDbEntity
  8
Layer 1
 62
    22
420
 15540004
370
    25
100
AcDbVertex
100
AcDb2dVertex
 10
18.69422562475584
 20
-8.612421654078792
 30
0.0
  0
VERTEX
  5
2FA
330
2D8
100
AcDbEntity
  8
Layer 1
 62
    22
420
 15540004
370
    25
100
AcDbVertex
100
AcDb2dVertex
 10
18.7468867318329
 20
-8.733945108869268
 30
0.0
  0
VERTEX
  5
2FB
330
2D8
100
AcDbEntity
  8
Layer 1
 62
    22
420
 15540004
370
    25
100
AcDbVertex
100
AcDb2dVertex
 10
18.79752813633741
 20
-8.856373724812732
 30
0.0
  0
VERTEX
  5
2FC
330
2D8
100
AcDbEntity
  8
Layer 1
 62
    22
420
 15540004
370
    25
100
AcDbVertex
100
AcDb2dVertex
 10
18.84615675827813
 20
-8.979668981860073
 30
0.0
  0
VERTEX
  5
2FD
330
2D8
100
AcDbEntity
  8
Layer 1
 62
    22
420
 15540004
370
    25
100
AcDbVertex
100
AcDb2dVertex
 10
18.86219703870943
 20
-9.020800654251577
 30
0.0
  0
VERTEX
  5
2FE
330
2D8
100
AcDbEntity
  8
Layer 1
 62
    22
420
 15540004
370
    25
100
AcDbVertex
100
AcDb2dVertex
 10
18.87973618104989
 20
-9.061147465643254
 30
0.0
  0
VERTEX
  5
2FF
330
2D8
100
AcDbEntity
  8
Layer 1
 62
    22
420
 15540004
370
    25
100
AcDbVertex
100
AcDb2dVertex
 10
18.91862647058643
 20
-9.139845745885205
 30
0.0
  0
VERTEX
  5
300
330
2D8
100
AcDbEntity
  8
Layer 1
 62
    22
420
 15540004
370
    25
100
AcDbVertex
100
AcDb2dVertex
 10
18.96145838514359
 20
-9.21648214350086
 30
0.0
  0
VERTEX
  5
301
330
2D8
100
AcDbEntity
  8
Layer 1
 62
    22
420
 15540004
370
    25
100
AcDbVertex
100
AcDb2dVertex
 10
19.00686274297737
 20
-9.291774959405062
 30
0.0
  0
VERTEX
  5
302
330
2D8
100
AcDbEntity
  8
Layer 1
 62
    22
420
 15540004
370
    25
100
AcDbVertex
100
AcDb2dVertex
 10
19.09991198149883
 20
-9.44120314973923
 30
0.0
  0
VERTEX
  5
303
330
2D8
100
AcDbEntity
  8
Layer 1
 62
    22
420
 15540004
370
    25
100
AcDbVertex
100
AcDb2dVertex
 10
19.14481845869846
 20
-9.516775185999109
 30
0.0
  0
VERTEX
  5
304
330
2D8
100
AcDbEntity
  8
Layer 1
 62
    22
420
 15540004
370
    25
100
AcDbVertex
100
AcDb2dVertex
 10
19.1868205321986
 20
-9.593876904207377
 30
0.0
  0
VERTEX
  5
305
330
2D8
100
AcDbEntity
  8
Layer 1
 62
    22
420
 15540004
370
    25
100
AcDbVertex
100
AcDb2dVertex
 10
19.20957826118623
 20
-9.655407722582279
 30
0.0
  0
VERTEX
  5
306
330
2D8
100
AcDbEntity
  8
Layer 1
 62
    22
420
 15540004
370
    25
100
AcDbVertex
100
AcDb2dVertex
 10
19.23061166797758
 20
-9.717406001552577
 30
0.0
  0
VERTEX
  5
307
330
2D8
100
AcDbEntity
  8
Layer 1
 62
    22
420
 15540004
370
    25
100
AcDbVertex
100
AcDb2dVertex
 10
19.26818279583378
 20
-9.842617841041134
 30
0.0
  0
VERTEX
  5
308
330
2D8
100
AcDbEntity
  8
Layer 1
 62
    22
420
 15540004
370
    25
100
AcDbVertex
100
AcDb2dVertex
 10
19.30088833749247
 20
-9.969138182196438
 30
0.0
  0
VERTEX
  5
309
330
2D8
100
AcDbEntity
  8
Layer 1
 62
    22
420
 15540004
370
    25
100
AcDbVertex
100
AcDb2dVertex
 10
19.33008265467874
 20
-10.09659282454172
 30
0.0
  0
VERTEX
  5
30A
330
2D8
100
AcDbEntity
  8
Layer 1
 62
    22
420
 15540004
370
    25
100
AcDbVertex
100
AcDb2dVertex
 10
19.38335526253473
 20
-10.35280809089592
 30
0.0
  0
VERTEX
  5
30B
330
2D8
100
AcDbEntity
  8
Layer 1
 62
    22
420
 15540004
370
    25
100
AcDbVertex
100
AcDb2dVertex
 10
19.41014231665475
 20
-10.48082025395157
 30
0.0
  0
VERTEX
  5
30C
330
2D8
100
AcDbEntity
  8
Layer 1
 62
    22
420
 15540004
370
    25
100
AcDbVertex
100
AcDb2dVertex
 10
19.43883575320297
 20
-10.6082697962904
 30
0.0
  0
VERTEX
  5
30D
330
2D8
100
AcDbEntity
  8
Layer 1
 62
    22
420
 15540004
370
    25
100
AcDbVertex
100
AcDb2dVertex
 10
19.44778194459822
 20
-10.63559891110088
 30
0.0
  0
VERTEX
  5
30E
330
2D8
100
AcDbEntity
  8
Layer 1
 62
    22
420
 15540004
370
    25
100
AcDbVertex
100
AcDb2dVertex
 10
19.4600921202783
 20
-10.66148390407197
 30
0.0
  0
VERTEX
  5
30F
330
2D8
100
AcDbEntity
  8
Layer 1
 62
    22
420
 15540004
370
    25
100
AcDbVertex
100
AcDb2dVertex
 10
19.4895677578229
 20
-10.71111864729413
 30
0.0
  0
VERTEX
  5
310
330
2D8
100
AcDbEntity
  8
Layer 1
 62
    22
420
 15540004
370
    25
100
AcDbVertex
100
AcDb2dVertex
 10
19.5041148963523
 20
-10.73596695894469
 30
0.0
  0
VERTEX
  5
311
330
2D8
100
AcDbEntity
  8
Layer 1
 62
    22
420
 15540004
370
    25
100
AcDbVertex
100
AcDb2dVertex
 10
19.51678933249635
 20
-10.76156829155425
 30
0.0
  0
VERTEX
  5
312
330
2D8
100
AcDbEntity
  8
Layer 1
 62
    22
420
 15540004
370
    25
100
AcDbVertex
100
AcDb2dVertex
 10
19.52628194458758
 20
-10.78847192582282
 30
0.0
  0
VERTEX
  5
313
330
2D8
100
AcDbEntity
  8
Layer 1
 62
    22
420
 15540004
370
    25
100
AcDbVertex
100
AcDb2dVertex
 10
19.53128355095835
 20
-10.81722712244978
 30
0.0
  0
VERTEX
  5
314
330
2D8
100
AcDbEntity
  8
Layer 1
 62
    22
420
 15540004
370
    25
100
AcDbVertex
100
AcDb2dVertex
 10
20.44862731419708
 20
-16.99804041526176
 30
0.0
  0
VERTEX
  5
315
330
2D8
100
AcDbEntity
  8
Layer 1
 62
    22
420
 15540004
370
    25
100
AcDbVertex
100
AcDb2dVertex
 10
22.71697248091861
 20
-16.99804022449489
 30
0.0
  0
VERTEX
  5
316
330
2D8
100
AcDbEntity
  8
Layer 1
 62
    22
420
 15540004
370
    25
100
AcDbVertex
100
AcDb2dVertex
 10
21.63858661513564
 20
-7.947546387193925
 30
0.0
  0
VERTEX
  5
317
330
2D8
100
AcDbEntity
  8
Layer 1
 62
    22
420
 15540004
370
    25
100
AcDbVertex
100
AcDb2dVertex
 10
21.65701321860653
 20
-7.931140006296295
 30
0.0
  0
VERTEX
  5
318
330
2D8
100
AcDbEntity
  8
Layer 1
 62
    22
420
 15540004
370
    25
100
AcDbVertex
100
AcDb2dVertex
 10
21.67355847968103
 20
-7.913576203924422
 30
0.0
  0
VERTEX
  5
319
330
2D8
100
AcDbEntity
  8
Layer 1
 62
    22
420
 15540004
370
    25
100
AcDbVertex
100
AcDb2dVertex
 10
21.68838397856505
 20
-7.89496116021347
 30
0.0
  0
VERTEX
  5
31A
330
2D8
100
AcDbEntity
  8
Layer 1
 62
    22
420
 15540004
370
    25
100
AcDbVertex
100
AcDb2dVertex
 10
21.70165135546434
 20
-7.875401035298763
 30
0.0
  0
VERTEX
  5
31B
330
2D8
100
AcDbEntity
  8
Layer 1
 62
    22
420
 15540004
370
    25
100
AcDbVertex
100
AcDb2dVertex
 10
21.72415820413246
 20
-7.833870362399087
 30
0.0
  0
VERTEX
  5
31C
330
2D8
100
AcDbEntity
  8
Layer 1
 62
    22
420
 15540004
370
    25
100
AcDbVertex
100
AcDb2dVertex
 10
21.74237192733221
 20
-7.789833646307291
 30
0.0
  0
VERTEX
  5
31D
330
2D8
100
AcDbEntity
  8
Layer 1
 62
    22
420
 15540004
370
    25
100
AcDbVertex
100
AcDb2dVertex
 10
21.75758544671038
 20
-7.744140408105572
 30
0.0
  0
VERTEX
  5
31E
330
2D8
100
AcDbEntity
  8
Layer 1
 62
    22
420
 15540004
370
    25
100
AcDbVertex
100
AcDb2dVertex
 10
21.77109168391396
 20
-7.697640088875763
 30
0.0
  0
VERTEX
  5
31F
330
2D8
100
AcDbEntity
  8
Layer 1
 62
    22
420
 15540004
370
    25
100
AcDbVertex
100
AcDb2dVertex
 10
21.78418358058977
 20
-7.651182189700016
 30
0.0
  0
VERTEX
  5
320
330
2D8
100
AcDbEntity
  8
Layer 1
 62
    22
420
 15540004
370
    25
100
AcDbVertex
100
AcDb2dVertex
 10
21.79815403838463
 20
-7.605616191660298
 30
0.0
  0
VERTEX
  5
321
330
2D8
100
AcDbEntity
  8
Layer 1
 62
    22
420
 15540004
370
    25
100
AcDbVertex
100
AcDb2dVertex
 10
21.82338339052052
 20
-7.512576313150778
 30
0.0
  0
VERTEX
  5
322
330
2D8
100
AcDbEntity
  8
Layer 1
 62
    22
420
 15540004
370
    25
100
AcDbVertex
100
AcDb2dVertex
 10
21.85063172522812
 20
-7.420067455317621
 30
0.0
  0
VERTEX
  5
323
330
2D8
100
AcDbEntity
  8
Layer 1
 62
    22
420
 15540004
370
    25
100
AcDbVertex
100
AcDb2dVertex
 10
21.88003438267972
 20
-7.32822529833369
 30
0.0
  0
VERTEX
  5
324
330
2D8
100
AcDbEntity
  8
Layer 1
 62
    22
420
 15540004
370
    25
100
AcDbVertex
100
AcDb2dVertex
 10
21.91172672304788
 20
-7.237185522371747
 30
0.0
  0
VERTEX
  5
325
330
2D8
100
AcDbEntity
  8
Layer 1
 62
    22
420
 15540004
370
    25
100
AcDbVertex
100
AcDb2dVertex
 10
21.94584406650481
 20
-7.147083787604666
 30
0.0
  0
VERTEX
  5
326
330
2D8
100
AcDbEntity
  8
Layer 1
 62
    22
420
 15540004
370
    25
100
AcDbVertex
100
AcDb2dVertex
 10
21.98252179322306
 20
-7.058055774205235
 30
0.0
  0
VERTEX
  5
327
330
2D8
100
AcDbEntity
  8
Layer 1
 62
    22
420
 15540004
370
    25
100
AcDbVertex
100
AcDb2dVertex
 10
22.02189522337497
 20
-6.970237142346301
 30
0.0
  0
VERTEX
  5
328
330
2D8
100
AcDbEntity
  8
Layer 1
 62
    22
420
 15540004
370
    25
100
AcDbVertex
100
AcDb2dVertex
 10
22.06409973713297
 20
-6.883763592200567
 30
0.0
  0
VERTEX
  5
329
330
2D8
100
AcDbEntity
  8
Layer 1
 62
    22
420
 15540004
370
    25
100
AcDbVertex
100
AcDb2dVertex
 10
22.10070888376388
 20
-6.827281760256887
 30
0.0
  0
VERTEX
  5
32A
330
2D8
100
AcDbEntity
  8
Layer 1
 62
    22
420
 15540004
370
    25
100
AcDbVertex
100
AcDb2dVertex
 10
22.13916447274669
 20
-6.772129430006569
 30
0.0
  0
VERTEX
  5
32B
330
2D8
100
AcDbEntity
  8
Layer 1
 62
    22
420
 15540004
370
    25
100
AcDbVertex
100
AcDb2dVertex
 10
22.17914790367558
 20
-6.718089601173359
 30
0.0
  0
VERTEX
  5
32C
330
2D8
100
AcDbEntity
  8
Layer 1
 62
    22
420
 15540004
370
    25
100
AcDbVertex
100
AcDb2dVertex
 10
22.22034065614487
 20
-6.664945293480766
 30
0.0
  0
VERTEX
  5
32D
330
2D8
100
AcDbEntity
  8
Layer 1
 62
    22
420
 15540004
370
    25
100
AcDbVertex
100
AcDb2dVertex
 10
22.30507970408121
 20
-6.560475440412296
 30
0.0
  0
VERTEX
  5
32E
330
2D8
100
AcDbEntity
  8
Layer 1
 62
    22
420
 15540004
370
    25
100
AcDbVertex
100
AcDb2dVertex
 10
22.39083303330949
 20
-6.45698404859013
 30
0.0
  0
VERTEX
  5
32F
330
2D8
100
AcDbEntity
  8
Layer 1
 62
    22
420
 15540004
370
    25
100
AcDbVertex
100
AcDb2dVertex
 10
22.40386558990973
 20
-6.440949208165748
 30
0.0
  0
VERTEX
  5
330
330
2D8
100
AcDbEntity
  8
Layer 1
 62
    22
420
 15540004
370
    25
100
AcDbVertex
100
AcDb2dVertex
 10
22.41533858452345
 20
-6.423975186545097
 30
0.0
  0
VERTEX
  5
331
330
2D8
100
AcDbEntity
  8
Layer 1
 62
    22
420
 15540004
370
    25
100
AcDbVertex
100
AcDb2dVertex
 10
22.42532335724155
 20
-6.406176383873899
 30
0.0
  0
VERTEX
  5
332
330
2D8
100
AcDbEntity
  8
Layer 1
 62
    22
420
 15540004
370
    25
100
AcDbVertex
100
AcDb2dVertex
 10
22.43389120815484
 20
-6.387667200297805
 30
0.0
  0
VERTEX
  5
333
330
2D8
100
AcDbEntity
  8
Layer 1
 62
    22
420
 15540004
370
    25
100
AcDbVertex
100
AcDb2dVertex
 10
22.4470614249304
 20
-6.348975211013895
 30
0.0
  0
VERTEX
  5
334
330
2D8
100
AcDbEntity
  8
Layer 1
 62
    22
420
 15540004
370
    25
100
AcDbVertex
100
AcDb2dVertex
 10
22.45541983557695
 20
-6.308814299858922
 30
0.0
  0
VERTEX
  5
335
330
2D8
100
AcDbEntity
  8
Layer 1
 62
    22
420
 15540004
370
    25
100
AcDbVertex
100
AcDb2dVertex
 10
23.34715827567124
 20
-0.9980402967818867
 30
0.0
  0
VERTEX
  5
336
330
2D8
100
AcDbEntity
  8
Layer 1
 62
    22
420
 15540004
370
    25
100
AcDbVertex
100
AcDb2dVertex
 10
14.29538380836614
 20
-0.998040447851142
 30
0.0
  0
SEQEND
  5
337
330
2D8
100
AcDbEntity
  8
Layer 1
 62
    22
420
 15540004
370
    25
  0
ENDBLK
  5
2D0
330
2CD
100
AcDbEntity
  8
0
100
AcDbBlockEnd
  0
BLOCK
  5
33A
330
338
100
AcDbEntity
  8
0
100
AcDbBlockBegin
  2
block 3
 70
     0
 10
0.0
 20
0.0
 30
0.0
  3
block 3
  1

  0
POLYLINE
  5
33C
330
338
100
AcDbEntity
  8
Layer 1
 62
    22
420
 15540004
370
    25
100
AcDb2dPolyline
 66
     1
 10
0.0
 20
0.0
 30
0.0
  0
VERTEX
  5
33D
330
33C
100
AcDbEntity
  8
Layer 1
 62
    22
420
 15540004
370
    25
100
AcDbVertex
100
AcDb2dVertex
 10
6.037771295727023
 20
-33.07806699275372
 30
0.0
  0
VERTEX
  5
33E
330
33C
100
AcDbEntity
  8
Layer 1
 62
    22
420
 15540004
370
    25
100
AcDbVertex
100
AcDb2dVertex
 10
6.279398881505813
 20
-34.86177551989335
 30
0.0
  0
VERTEX
  5
33F
330
33C
100
AcDbEntity
  8
Layer 1
 62
    22
420
 15540004
370
    25
100
AcDbVertex
100
AcDb2dVertex
 10
4.000215763494023
 20
-35.17052187949957
 30
0.0
  0
VERTEX
  5
340
330
33C
100
AcDbEntity
  8
Layer 1
 62
    22
420
 15540004
370
    25
100
AcDbVertex
100
AcDb2dVertex
 10
3.758588177715233
 20
-33.38681335235992
 30
0.0
  0
VERTEX
  5
341
330
33C
100
AcDbEntity
  8
Layer 1
 62
    22
420
 15540004
370
    25
100
AcDbVertex
100
AcDb2dVertex
 10
6.037771295727023
 20
-33.07806699275372
 30
0.0
  0
SEQEND
  5
342
330
33C
100
AcDbEntity
  8
Layer 1
 62
    22
420
 15540004
370
    25
  0
POLYLINE
  5
343
330
338
100
AcDbEntity
  8
Layer 1
 62
    22
420
 15540004
370
    25
100
AcDb2dPolyline
 66
     1
 10
0.0
 20
0.0
 30
0.0
  0
VERTEX
  5
344
330
343
100
AcDbEntity
  8
Layer 1
 62
    22
420
 15540004
370
    25
100
AcDbVertex
100
AcDb2dVertex
 10
9.969497355819511
 20
-35.19782241526543
 30
0.0
  0
VERTEX
  5
345
330
343
100
AcDbEntity
  8
Layer 1
 62
    22
420
 15540004
370
    25
100
AcDbVertex
100
AcDb2dVertex
 10
7.444977346847205
 20
-30.32142653654662
 30
0.0
  0
VERTEX
  5
346
330
343
100
AcDbEntity
  8
Layer 1
 62
    22
420
 15540004
370
    25
100
AcDbVertex
100
AcDb2dVertex
 10
7.36152588055092
 20
-30.16192593338272
 30
0.0
  0
VERTEX
  5
347
330
343
100
AcDbEntity
  8
Layer 1
 62
    22
420
 15540004
370
    25
100
AcDbVertex
100
AcDb2dVertex
 10
7.279463376023791
 20
-30.00165318923531
 30
0.0
  0
VERTEX
  5
348
330
343
100
AcDbEntity
  8
Layer 1
 62
    22
420
 15540004
370
    25
100
AcDbVertex
100
AcDb2dVertex
 10
7.116019027836576
 20
-29.68074970048448
 30
0.0
  0
VERTEX
  5
349
330
343
100
AcDbEntity
  8
Layer 1
 62
    22
420
 15540004
370
    25
100
AcDbVertex
100
AcDb2dVertex
 10
7.032894041956119
 20
-29.5210981171283
 30
0.0
  0
VERTEX
  5
34A
330
343
100
AcDbEntity
  8
Layer 1
 62
    22
420
 15540004
370
    25
100
AcDbVertex
100
AcDb2dVertex
 10
6.947671753404215
 20
-29.36263277528307
 30
0.0
  0
VERTEX
  5
34B
330
343
100
AcDbEntity
  8
Layer 1
 62
    22
420
 15540004
370
    25
100
AcDbVertex
100
AcDb2dVertex
 10
6.859480601070749
 20
-29.20584327557243
 30
0.0
  0
VERTEX
  5
34C
330
343
100
AcDbEntity
  8
Layer 1
 62
    22
420
 15540004
370
    25
100
AcDbVertex
100
AcDb2dVertex
 10
6.767449023845503
 20
-29.05121921862004
 30
0.0
  0
VERTEX
  5
34D
330
343
100
AcDbEntity
  8
Layer 1
 62
    22
420
 15540004
370
    25
100
AcDbVertex
100
AcDb2dVertex
 10
6.749356260799863
 20
-29.01939149807948
 30
0.0
  0
VERTEX
  5
34E
330
343
100
AcDbEntity
  8
Layer 1
 62
    22
420
 15540004
370
    25
100
AcDbVertex
100
AcDb2dVertex
 10
6.728617354383687
 20
-28.99047132124241
 30
0.0
  0
VERTEX
  5
34F
330
343
100
AcDbEntity
  8
Layer 1
 62
    22
420
 15540004
370
    25
100
AcDbVertex
100
AcDb2dVertex
 10
6.70552706497243
 20
-28.96412988769003
 30
0.0
  0
VERTEX
  5
350
330
343
100
AcDbEntity
  8
Layer 1
 62
    22
420
 15540004
370
    25
100
AcDbVertex
100
AcDb2dVertex
 10
6.680380092941479
 20
-28.94003841700351
 30
0.0
  0
VERTEX
  5
351
330
343
100
AcDbEntity
  8
Layer 1
 62
    22
420
 15540004
370
    25
100
AcDbVertex
100
AcDb2dVertex
 10
6.653471158666207
 20
-28.91786808876405
 30
0.0
  0
VERTEX
  5
352
330
343
100
AcDbEntity
  8
Layer 1
 62
    22
420
 15540004
370
    25
100
AcDbVertex
100
AcDb2dVertex
 10
6.625094982522038
 20
-28.89729014255287
 30
0.0
  0
VERTEX
  5
353
330
343
100
AcDbEntity
  8
Layer 1
 62
    22
420
 15540004
370
    25
100
AcDbVertex
100
AcDb2dVertex
 10
6.56511974612858
 20
-28.85959613454014
 30
0.0
  0
VERTEX
  5
354
330
343
100
AcDbEntity
  8
Layer 1
 62
    22
420
 15540004
370
    25
100
AcDbVertex
100
AcDb2dVertex
 10
6.440529927432307
 20
-28.78884964442679
 30
0.0
  0
VERTEX
  5
355
330
343
100
AcDbEntity
  8
Layer 1
 62
    22
420
 15540004
370
    25
100
AcDbVertex
100
AcDb2dVertex
 10
6.380630831135855
 20
-28.75053645562538
 30
0.0
  0
VERTEX
  5
356
330
343
100
AcDbEntity
  8
Layer 1
 62
    22
420
 15540004
370
    25
100
AcDbVertex
100
AcDb2dVertex
 10
6.352311735064404
 20
-28.72949410882269
 30
0.0
  0
VERTEX
  5
357
330
343
100
AcDbEntity
  8
Layer 1
 62
    22
420
 15540004
370
    25
100
AcDbVertex
100
AcDb2dVertex
 10
6.325472600878053
 20
-28.70675619986029
 30
0.0
  0
VERTEX
  5
358
330
343
100
AcDbEntity
  8
Layer 1
 62
    22
420
 15540004
370
    25
100
AcDbVertex
100
AcDb2dVertex
 10
6.261835219819936
 20
-28.64598776245649
 30
0.0
  0
VERTEX
  5
359
330
343
100
AcDbEntity
  8
Layer 1
 62
    22
420
 15540004
370
    25
100
AcDbVertex
100
AcDb2dVertex
 10
6.199997961054755
 20
-28.58337246270023
 30
0.0
  0
VERTEX
  5
35A
330
343
100
AcDbEntity
  8
Layer 1
 62
    22
420
 15540004
370
    25
100
AcDbVertex
100
AcDb2dVertex
 10
6.139920164530622
 20
-28.51903954075619
 30
0.0
  0
VERTEX
  5
35B
330
343
100
AcDbEntity
  8
Layer 1
 62
    22
420
 15540004
370
    25
100
AcDbVertex
100
AcDb2dVertex
 10
6.081561190195897
 20
-28.45311811678877
 30
0.0
  0
VERTEX
  5
35C
330
343
100
AcDbEntity
  8
Layer 1
 62
    22
420
 15540004
370
    25
100
AcDbVertex
100
AcDb2dVertex
 10
6.024880357998705
 20
-28.38573739096258
 30
0.0
  0
VERTEX
  5
35D
330
343
100
AcDbEntity
  8
Layer 1
 62
    22
420
 15540004
370
    25
100
AcDbVertex
100
AcDb2dVertex
 10
5.969836987887169
 20
-28.3170265434421
 30
0.0
  0
VERTEX
  5
35E
330
343
100
AcDbEntity
  8
Layer 1
 62
    22
420
 15540004
370
    25
100
AcDbVertex
100
AcDb2dVertex
 10
5.916390439809649
 20
-28.24711477439203
 30
0.0
  0
VERTEX
  5
35F
330
343
100
AcDbEntity
  8
Layer 1
 62
    22
420
 15540004
370
    25
100
AcDbVertex
100
AcDb2dVertex
 10
5.86450005371426
 20
-28.17613122397673
 30
0.0
  0
VERTEX
  5
360
330
343
100
AcDbEntity
  8
Layer 1
 62
    22
420
 15540004
370
    25
100
AcDbVertex
100
AcDb2dVertex
 10
5.80163613364132
 20
-28.05971203568778
 30
0.0
  0
VERTEX
  5
361
330
343
100
AcDbEntity
  8
Layer 1
 62
    22
420
 15540004
370
    25
100
AcDbVertex
100
AcDb2dVertex
 10
5.74082667618528
 20
-27.94219488600033
 30
0.0
  0
VERTEX
  5
362
330
343
100
AcDbEntity
  8
Layer 1
 62
    22
420
 15540004
370
    25
100
AcDbVertex
100
AcDb2dVertex
 10
5.682064721337231
 20
-27.82361833496341
 30
0.0
  0
VERTEX
  5
363
330
343
100
AcDbEntity
  8
Layer 1
 62
    22
420
 15540004
370
    25
100
AcDbVertex
100
AcDb2dVertex
 10
5.62534332908841
 20
-27.70402090262617
 30
0.0
  0
VERTEX
  5
364
330
343
100
AcDbEntity
  8
Layer 1
 62
    22
420
 15540004
370
    25
100
AcDbVertex
100
AcDb2dVertex
 10
5.570655539429809
 20
-27.5834412090378
 30
0.0
  0
VERTEX
  5
365
330
343
100
AcDbEntity
  8
Layer 1
 62
    22
420
 15540004
370
    25
100
AcDbVertex
100
AcDb2dVertex
 10
5.517994432352755
 20
-27.46191775424732
 30
0.0
  0
VERTEX
  5
366
330
343
100
AcDbEntity
  8
Layer 1
 62
    22
420
 15540004
370
    25
100
AcDbVertex
100
AcDb2dVertex
 10
5.46735302784825
 20
-27.33948913830386
 30
0.0
  0
VERTEX
  5
367
330
343
100
AcDbEntity
  8
Layer 1
 62
    22
420
 15540004
370
    25
100
AcDbVertex
100
AcDb2dVertex
 10
5.41872440590752
 20
-27.21619388125653
 30
0.0
  0
VERTEX
  5
368
330
343
100
AcDbEntity
  8
Layer 1
 62
    22
420
 15540004
370
    25
100
AcDbVertex
100
AcDb2dVertex
 10
5.402684125476222
 20
-27.17506220886503
 30
0.0
  0
VERTEX
  5
369
330
343
100
AcDbEntity
  8
Layer 1
 62
    22
420
 15540004
370
    25
100
AcDbVertex
100
AcDb2dVertex
 10
5.385144983135761
 20
-27.13471539747335
 30
0.0
  0
VERTEX
  5
36A
330
343
100
AcDbEntity
  8
Layer 1
 62
    22
420
 15540004
370
    25
100
AcDbVertex
100
AcDb2dVertex
 10
5.346254693599222
 20
-27.0560171172314
 30
0.0
  0
VERTEX
  5
36B
330
343
100
AcDbEntity
  8
Layer 1
 62
    22
420
 15540004
370
    25
100
AcDbVertex
100
AcDb2dVertex
 10
5.303422779042067
 20
-26.97938071961574
 30
0.0
  0
VERTEX
  5
36C
330
343
100
AcDbEntity
  8
Layer 1
 62
    22
420
 15540004
370
    25
100
AcDbVertex
100
AcDb2dVertex
 10
5.258018421208286
 20
-26.90408790371154
 30
0.0
  0
VERTEX
  5
36D
330
343
100
AcDbEntity
  8
Layer 1
 62
    22
420
 15540004
370
    25
100
AcDbVertex
100
AcDb2dVertex
 10
5.164969182686819
 20
-26.75465971337738
 30
0.0
  0
VERTEX
  5
36E
330
343
100
AcDbEntity
  8
Layer 1
 62
    22
420
 15540004
370
    25
100
AcDbVertex
100
AcDb2dVertex
 10
5.120062705487195
 20
-26.6790876771175
 30
0.0
  0
VERTEX
  5
36F
330
343
100
AcDbEntity
  8
Layer 1
 62
    22
420
 15540004
370
    25
100
AcDbVertex
100
AcDb2dVertex
 10
5.078060631987051
 20
-26.60198595890923
 30
0.0
  0
VERTEX
  5
370
330
343
100
AcDbEntity
  8
Layer 1
 62
    22
420
 15540004
370
    25
100
AcDbVertex
100
AcDb2dVertex
 10
5.055302902999427
 20
-26.54045514053433
 30
0.0
  0
VERTEX
  5
371
330
343
100
AcDbEntity
  8
Layer 1
 62
    22
420
 15540004
370
    25
100
AcDbVertex
100
AcDb2dVertex
 10
5.034269496208077
 20
-26.47845686156403
 30
0.0
  0
VERTEX
  5
372
330
343
100
AcDbEntity
  8
Layer 1
 62
    22
420
 15540004
370
    25
100
AcDbVertex
100
AcDb2dVertex
 10
4.996698368351872
 20
-26.35324502207547
 30
0.0
  0
VERTEX
  5
373
330
343
100
AcDbEntity
  8
Layer 1
 62
    22
420
 15540004
370
    25
100
AcDbVertex
100
AcDb2dVertex
 10
4.96399282669318
 20
-26.22672468092017
 30
0.0
  0
VERTEX
  5
374
330
343
100
AcDbEntity
  8
Layer 1
 62
    22
420
 15540004
370
    25
100
AcDbVertex
100
AcDb2dVertex
 10
4.934798509506916
 20
-26.09927003857489
 30
0.0
  0
VERTEX
  5
375
330
343
100
AcDbEntity
  8
Layer 1
 62
    22
420
 15540004
370
    25
100
AcDbVertex
100
AcDb2dVertex
 10
4.881525901650926
 20
-25.84305477222069
 30
0.0
  0
VERTEX
  5
376
330
343
100
AcDbEntity
  8
Layer 1
 62
    22
420
 15540004
370
    25
100
AcDbVertex
100
AcDb2dVertex
 10
4.854738847530901
 20
-25.71504260916504
 30
0.0
  0
VERTEX
  5
377
330
343
100
AcDbEntity
  8
Layer 1
 62
    22
420
 15540004
370
    25
100
AcDbVertex
100
AcDb2dVertex
 10
4.826045410982689
 20
-25.5875930668262
 30
0.0
  0
VERTEX
  5
378
330
343
100
AcDbEntity
  8
Layer 1
 62
    22
420
 15540004
370
    25
100
AcDbVertex
100
AcDb2dVertex
 10
4.817099219587438
 20
-25.56026395201573
 30
0.0
  0
VERTEX
  5
379
330
343
100
AcDbEntity
  8
Layer 1
 62
    22
420
 15540004
370
    25
100
AcDbVertex
100
AcDb2dVertex
 10
4.804789043907349
 20
-25.53437895904464
 30
0.0
  0
VERTEX
  5
37A
330
343
100
AcDbEntity
  8
Layer 1
 62
    22
420
 15540004
370
    25
100
AcDbVertex
100
AcDb2dVertex
 10
4.775313406362758
 20
-25.48474421582247
 30
0.0
  0
VERTEX
  5
37B
330
343
100
AcDbEntity
  8
Layer 1
 62
    22
420
 15540004
370
    25
100
AcDbVertex
100
AcDb2dVertex
 10
4.760766267833358
 20
-25.45989590417192
 30
0.0
  0
VERTEX
  5
37C
330
343
100
AcDbEntity
  8
Layer 1
 62
    22
420
 15540004
370
    25
100
AcDbVertex
100
AcDb2dVertex
 10
4.748091831689306
 20
-25.43429457156235
 30
0.0
  0
VERTEX
  5
37D
330
343
100
AcDbEntity
  8
Layer 1
 62
    22
420
 15540004
370
    25
100
AcDbVertex
100
AcDb2dVertex
 10
4.738599219598073
 20
-25.40739093729379
 30
0.0
  0
VERTEX
  5
37E
330
343
100
AcDbEntity
  8
Layer 1
 62
    22
420
 15540004
370
    25
100
AcDbVertex
100
AcDb2dVertex
 10
4.733597613227301
 20
-25.37863574066682
 30
0.0
  0
VERTEX
  5
37F
330
343
100
AcDbEntity
  8
Layer 1
 62
    22
420
 15540004
370
    25
100
AcDbVertex
100
AcDb2dVertex
 10
3.816253849988571
 20
-19.19782244785483
 30
0.0
  0
VERTEX
  5
380
330
343
100
AcDbEntity
  8
Layer 1
 62
    22
420
 15540004
370
    25
100
AcDbVertex
100
AcDb2dVertex
 10
1.547908683267047
 20
-19.1978226386217
 30
0.0
  0
VERTEX
  5
381
330
343
100
AcDbEntity
  8
Layer 1
 62
    22
420
 15540004
370
    25
100
AcDbVertex
100
AcDb2dVertex
 10
2.626294549050019
 20
-28.24831647592267
 30
0.0
  0
VERTEX
  5
382
330
343
100
AcDbEntity
  8
Layer 1
 62
    22
420
 15540004
370
    25
100
AcDbVertex
100
AcDb2dVertex
 10
2.607867945579124
 20
-28.2647228568203
 30
0.0
  0
VERTEX
  5
383
330
343
100
AcDbEntity
  8
Layer 1
 62
    22
420
 15540004
370
    25
100
AcDbVertex
100
AcDb2dVertex
 10
2.591322684504626
 20
-28.28228665919217
 30
0.0
  0
VERTEX
  5
384
330
343
100
AcDbEntity
  8
Layer 1
 62
    22
420
 15540004
370
    25
100
AcDbVertex
100
AcDb2dVertex
 10
2.57649718562061
 20
-28.30090170290312
 30
0.0
  0
VERTEX
  5
385
330
343
100
AcDbEntity
  8
Layer 1
 62
    22
420
 15540004
370
    25
100
AcDbVertex
100
AcDb2dVertex
 10
2.563229808721315
 20
-28.32046182781783
 30
0.0
  0
VERTEX
  5
386
330
343
100
AcDbEntity
  8
Layer 1
 62
    22
420
 15540004
370
    25
100
AcDbVertex
100
AcDb2dVertex
 10
2.540722960053194
 20
-28.36199250071751
 30
0.0
  0
VERTEX
  5
387
330
343
100
AcDbEntity
  8
Layer 1
 62
    22
420
 15540004
370
    25
100
AcDbVertex
100
AcDb2dVertex
 10
2.522509236853441
 20
-28.4060292168093
 30
0.0
  0
VERTEX
  5
388
330
343
100
AcDbEntity
  8
Layer 1
 62
    22
420
 15540004
370
    25
100
AcDbVertex
100
AcDb2dVertex
 10
2.50729571747527
 20
-28.45172245501102
 30
0.0
  0
VERTEX
  5
389
330
343
100
AcDbEntity
  8
Layer 1
 62
    22
420
 15540004
370
    25
100
AcDbVertex
100
AcDb2dVertex
 10
2.493789480271693
 20
-28.49822277424083
 30
0.0
  0
VERTEX
  5
38A
330
343
100
AcDbEntity
  8
Layer 1
 62
    22
420
 15540004
370
    25
100
AcDbVertex
100
AcDb2dVertex
 10
2.480697583595884
 20
-28.54468067341658
 30
0.0
  0
VERTEX
  5
38B
330
343
100
AcDbEntity
  8
Layer 1
 62
    22
420
 15540004
370
    25
100
AcDbVertex
100
AcDb2dVertex
 10
2.466727125801021
 20
-28.5902466714563
 30
0.0
  0
VERTEX
  5
38C
330
343
100
AcDbEntity
  8
Layer 1
 62
    22
420
 15540004
370
    25
100
AcDbVertex
100
AcDb2dVertex
 10
2.441497773665131
 20
-28.68328654996581
 30
0.0
  0
VERTEX
  5
38D
330
343
100
AcDbEntity
  8
Layer 1
 62
    22
420
 15540004
370
    25
100
AcDbVertex
100
AcDb2dVertex
 10
2.41424943895754
 20
-28.77579540779897
 30
0.0
  0
VERTEX
  5
38E
330
343
100
AcDbEntity
  8
Layer 1
 62
    22
420
 15540004
370
    25
100
AcDbVertex
100
AcDb2dVertex
 10
2.384846781505934
 20
-28.8676375647829
 30
0.0
  0
VERTEX
  5
38F
330
343
100
AcDbEntity
  8
Layer 1
 62
    22
420
 15540004
370
    25
100
AcDbVertex
100
AcDb2dVertex
 10
2.353154441137778
 20
-28.95867734074485
 30
0.0
  0
VERTEX
  5
390
330
343
100
AcDbEntity
  8
Layer 1
 62
    22
420
 15540004
370
    25
100
AcDbVertex
100
AcDb2dVertex
 10
2.319037097680848
 20
-29.04877907551193
 30
0.0
  0
VERTEX
  5
391
330
343
100
AcDbEntity
  8
Layer 1
 62
    22
420
 15540004
370
    25
100
AcDbVertex
100
AcDb2dVertex
 10
2.282359370962594
 20
-29.13780708891136
 30
0.0
  0
VERTEX
  5
392
330
343
100
AcDbEntity
  8
Layer 1
 62
    22
420
 15540004
370
    25
100
AcDbVertex
100
AcDb2dVertex
 10
2.24298594081069
 20
-29.22562572077029
 30
0.0
  0
VERTEX
  5
393
330
343
100
AcDbEntity
  8
Layer 1
 62
    22
420
 15540004
370
    25
100
AcDbVertex
100
AcDb2dVertex
 10
2.200781427052688
 20
-29.31209927091603
 30
0.0
  0
VERTEX
  5
394
330
343
100
AcDbEntity
  8
Layer 1
 62
    22
420
 15540004
370
    25
100
AcDbVertex
100
AcDb2dVertex
 10
2.164172280421781
 20
-29.36858110285971
 30
0.0
  0
VERTEX
  5
395
330
343
100
AcDbEntity
  8
Layer 1
 62
    22
420
 15540004
370
    25
100
AcDbVertex
100
AcDb2dVertex
 10
2.125716691438962
 20
-29.42373343311002
 30
0.0
  0
VERTEX
  5
396
330
343
100
AcDbEntity
  8
Layer 1
 62
    22
420
 15540004
370
    25
100
AcDbVertex
100
AcDb2dVertex
 10
2.085733260510071
 20
-29.47777326194323
 30
0.0
  0
VERTEX
  5
397
330
343
100
AcDbEntity
  8
Layer 1
 62
    22
420
 15540004
370
    25
100
AcDbVertex
100
AcDb2dVertex
 10
2.044540508040781
 20
-29.53091756963583
 30
0.0
  0
VERTEX
  5
398
330
343
100
AcDbEntity
  8
Layer 1
 62
    22
420
 15540004
370
    25
100
AcDbVertex
100
AcDb2dVertex
 10
1.959801460104447
 20
-29.6353874227043
 30
0.0
  0
VERTEX
  5
399
330
343
100
AcDbEntity
  8
Layer 1
 62
    22
420
 15540004
370
    25
100
AcDbVertex
100
AcDb2dVertex
 10
1.874048130876165
 20
-29.73887881452646
 30
0.0
  0
VERTEX
  5
39A
330
343
100
AcDbEntity
  8
Layer 1
 62
    22
420
 15540004
370
    25
100
AcDbVertex
100
AcDb2dVertex
 10
1.861015574275926
 20
-29.75491365495084
 30
0.0
  0
VERTEX
  5
39B
330
343
100
AcDbEntity
  8
Layer 1
 62
    22
420
 15540004
370
    25
100
AcDbVertex
100
AcDb2dVertex
 10
1.849542579662208
 20
-29.7718876765715
 30
0.0
  0
VERTEX
  5
39C
330
343
100
AcDbEntity
  8
Layer 1
 62
    22
420
 15540004
370
    25
100
AcDbVertex
100
AcDb2dVertex
 10
1.839557806944109
 20
-29.78968647924269
 30
0.0
  0
VERTEX
  5
39D
330
343
100
AcDbEntity
  8
Layer 1
 62
    22
420
 15540004
370
    25
100
AcDbVertex
100
AcDb2dVertex
 10
1.830989956030812
 20
-29.80819566281879
 30
0.0
  0
VERTEX
  5
39E
330
343
100
AcDbEntity
  8
Layer 1
 62
    22
420
 15540004
370
    25
100
AcDbVertex
100
AcDb2dVertex
 10
1.817819739255254
 20
-29.8468876521027
 30
0.0
  0
VERTEX
  5
39F
330
343
100
AcDbEntity
  8
Layer 1
 62
    22
420
 15540004
370
    25
100
AcDbVertex
100
AcDb2dVertex
 10
1.809461328608702
 20
-29.88704856325767
 30
0.0
  0
VERTEX
  5
3A0
330
343
100
AcDbEntity
  8
Layer 1
 62
    22
420
 15540004
370
    25
100
AcDbVertex
100
AcDb2dVertex
 10
0.9177228885144156
 20
-35.19782256633471
 30
0.0
  0
VERTEX
  5
3A1
330
343
100
AcDbEntity
  8
Layer 1
 62
    22
420
 15540004
370
    25
100
AcDbVertex
100
AcDb2dVertex
 10
9.969497355819511
 20
-35.19782241526543
 30
0.0
  0
SEQEND
  5
3A2
330
343
100
AcDbEntity
  8
Layer 1
 62
    22
420
 15540004
370
    25
  0
ENDBLK
  5
33B
330
338
100
AcDbEntity
  8
0
100
AcDbBlockEnd
  0
ENDSEC
  0
SECTION
  2
ENTITIES
  0
POLYLINE
  5
41
330
1F
100
AcDbEntity
  8
Layer 1
 62
    22
420
 15540004
370
    25
100
AcDb2dPolyline
 66
     1
 10
0.0
 20
0.0
 30
0.0
  0
VERTEX
  5
42
330
41
100
AcDbEntity
  8
Layer 1
 62
    22
420
 15540004
370
    25
100
AcDbVertex
100
AcDb2dVertex
 10
9.840166272221179
 20
-0.4702265487222677
 30
0.0
  0
VERTEX
  5
43
330
41
100
AcDbEntity
  8
Layer 1
 62
    22
420
 15540004
370
    25
100
AcDbVertex
100
AcDb2dVertex
 10
0.9177228885144156
 20
-1.994898668066083
 30
0.0
  0
VERTEX
  5
44
330
41
100
AcDbEntity
  8
Layer 1
 62
    22
420
 15540004
370
    25
100
AcDbVertex
100
AcDb2dVertex
 10
0.9572783481970266
 20
-15.69841308200888
 30
0.0
  0
VERTEX
  5
45
330
41
100
AcDbEntity
  8
Layer 1
 62
    22
420
 15540004
370
    25
100
AcDbVertex
100
AcDb2dVertex
 10
0.9581290885498674
 20
-15.86891325172197
 30
0.0
  0
VERTEX
  5
46
330
41
100
AcDbEntity
  8
Layer 1
 62
    22
420
 15540004
370
    25
100
AcDbVertex
100
AcDb2dVertex
 10
0.9614071268371793
 20
-16.03938108826955
 30
0.0
  0
VERTEX
  5
47
330
41
100
AcDbEntity
  8
Layer 1
 62
    22
420
 15540004
370
    25
100
AcDbVertex
100
AcDb2dVertex
 10
0.9667915070472191
 20
-16.20980454090178
 30
0.0
  0
VERTEX
  5
48
330
41
100
AcDbEntity
  8
Layer 1
 62
    22
420
 15540004
370
    25
100
AcDbVertex
100
AcDb2dVertex
 10
0.9739613457862408
 20
-16.38017162761944
 30
0.0
  0
VERTEX
  5
49
330
41
100
AcDbEntity
  8
Layer 1
 62
    22
420
 15540004
370
    25
100
AcDbVertex
100
AcDb2dVertex
 10
0.9923737594691349
 20
-16.72068863107539
 30
0.0
  0
VERTEX
  5
4A
330
41
100
AcDbEntity
  8
Layer 1
 62
    22
420
 15540004
370
    25
100
AcDbVertex
100
AcDb2dVertex
 10
1.014077155001738
 20
-17.06083598348823
 30
0.0
  0
VERTEX
  5
4B
330
41
100
AcDbEntity
  8
Layer 1
 62
    22
420
 15540004
370
    25
100
AcDbVertex
100
AcDb2dVertex
 10
1.017049541153104
 20
-17.09492333864197
 30
0.0
  0
VERTEX
  5
4C
330
41
100
AcDbEntity
  8
Layer 1
 62
    22
420
 15540004
370
    25
100
AcDbVertex
100
AcDb2dVertex
 10
1.022709775376092
 20
-17.12809357096005
 30
0.0
  0
VERTEX
  5
4D
330
41
100
AcDbEntity
  8
Layer 1
 62
    22
420
 15540004
370
    25
100
AcDbVertex
100
AcDb2dVertex
 10
1.030786014794153
 20
-17.16043657383309
 30
0.0
  0
VERTEX
  5
4E
330
41
100
AcDbEntity
  8
Layer 1
 62
    22
420
 15540004
370
    25
100
AcDbVertex
100
AcDb2dVertex
 10
1.041006508364439
 20
-17.19204218437926
 30
0.0
  0
VERTEX
  5
4F
330
41
100
AcDbEntity
  8
Layer 1
 62
    22
420
 15540004
370
    25
100
AcDbVertex
100
AcDb2dVertex
 10
1.053099429555788
 20
-17.22300027290619
 30
0.0
  0
VERTEX
  5
50
330
41
100
AcDbEntity
  8
Layer 1
 62
    22
420
 15540004
370
    25
100
AcDbVertex
100
AcDb2dVertex
 10
1.066792991265578
 20
-17.2534007029838
 30
0.0
  0
VERTEX
  5
51
330
41
100
AcDbEntity
  8
Layer 1
 62
    22
420
 15540004
370
    25
100
AcDbVertex
100
AcDb2dVertex
 10
1.097894851272081
 20
-17.31288794686874
 30
0.0
  0
VERTEX
  5
52
330
41
100
AcDbEntity
  8
Layer 1
 62
    22
420
 15540004
370
    25
100
AcDbVertex
100
AcDb2dVertex
 10
1.132137669908793
 20
-17.3712228250925
 30
0.0
  0
VERTEX
  5
53
330
41
100
AcDbEntity
  8
Layer 1
 62
    22
420
 15540004
370
    25
100
AcDbVertex
100
AcDb2dVertex
 10
1.167347120534297
 20
-17.42912419044117
 30
0.0
  0
VERTEX
  5
54
330
41
100
AcDbEntity
  8
Layer 1
 62
    22
420
 15540004
370
    25
100
AcDbVertex
100
AcDb2dVertex
 10
1.201348777935891
 20
-17.48731091254467
 30
0.0
  0
VERTEX
  5
55
330
41
100
AcDbEntity
  8
Layer 1
 62
    22
420
 15540004
370
    25
100
AcDbVertex
100
AcDb2dVertex
 10
1.231968299126758
 20
-17.5465018672721
 30
0.0
  0
VERTEX
  5
56
330
41
100
AcDbEntity
  8
Layer 1
 62
    22
420
 15540004
370
    25
100
AcDbVertex
100
AcDb2dVertex
 10
1.245505498306039
 20
-17.57362378765576
 30
0.0
  0
VERTEX
  5
57
330
41
100
AcDbEntity
  8
Layer 1
 62
    22
420
 15540004
370
    25
100
AcDbVertex
100
AcDb2dVertex
 10
1.261138171239572
 20
-17.59870598295879
 30
0.0
  0
VERTEX
  5
58
330
41
100
AcDbEntity
  8
Layer 1
 62
    22
420
 15540004
370
    25
100
AcDbVertex
100
AcDb2dVertex
 10
1.27867318660502
 20
-17.6219225720043
 30
0.0
  0
VERTEX
  5
59
330
41
100
AcDbEntity
  8
Layer 1
 62
    22
420
 15540004
370
    25
100
AcDbVertex
100
AcDb2dVertex
 10
1.29791739960481
 20
-17.64344759475842
 30
0.0
  0
VERTEX
  5
5A
330
41
100
AcDbEntity
  8
Layer 1
 62
    22
420
 15540004
370
    25
100
AcDbVertex
100
AcDb2dVertex
 10
1.318677698630861
 20
-17.6634551666755
 30
0.0
  0
VERTEX
  5
5B
330
41
100
AcDbEntity
  8
Layer 1
 62
    22
420
 15540004
370
    25
100
AcDbVertex
100
AcDb2dVertex
 10
1.340760961968688
 20
-17.68211934406708
 30
0.0
  0
VERTEX
  5
5C
330
41
100
AcDbEntity
  8
Layer 1
 62
    22
420
 15540004
370
    25
100
AcDbVertex
100
AcDb2dVertex
 10
1.38812382310098
 20
-17.71611391507816
 30
0.0
  0
VERTEX
  5
5D
330
41
100
AcDbEntity
  8
Layer 1
 62
    22
420
 15540004
370
    25
100
AcDbVertex
100
AcDb2dVertex
 10
1.438460957379144
 20
-17.74682392947339
 30
0.0
  0
VERTEX
  5
5E
330
41
100
AcDbEntity
  8
Layer 1
 62
    22
420
 15540004
370
    25
100
AcDbVertex
100
AcDb2dVertex
 10
1.490227385346922
 20
-17.77564204162551
 30
0.0
  0
VERTEX
  5
5F
330
41
100
AcDbEntity
  8
Layer 1
 62
    22
420
 15540004
370
    25
100
AcDbVertex
100
AcDb2dVertex
 10
1.541878032345443
 20
-17.80396094246551
 30
0.0
  0
VERTEX
  5
60
330
41
100
AcDbEntity
  8
Layer 1
 62
    22
420
 15540004
370
    25
100
AcDbVertex
100
AcDb2dVertex
 10
1.591867912180747
 20
-17.8331732469376
 30
0.0
  0
VERTEX
  5
61
330
41
100
AcDbEntity
  8
Layer 1
 62
    22
420
 15540004
370
    25
100
AcDbVertex
100
AcDb2dVertex
 10
1.625203429417247
 20
-17.85440410392971
 30
0.0
  0
VERTEX
  5
62
330
41
100
AcDbEntity
  8
Layer 1
 62
    22
420
 15540004
370
    25
100
AcDbVertex
100
AcDb2dVertex
 10
1.659411271427151
 20
-17.87343582371932
 30
0.0
  0
VERTEX
  5
63
330
41
100
AcDbEntity
  8
Layer 1
 62
    22
420
 15540004
370
    25
100
AcDbVertex
100
AcDb2dVertex
 10
1.694414760264092
 20
-17.8904309443833
 30
0.0
  0
VERTEX
  5
64
330
41
100
AcDbEntity
  8
Layer 1
 62
    22
420
 15540004
370
    25
100
AcDbVertex
100
AcDb2dVertex
 10
1.730137122779309
 20
-17.90555204055679
 30
0.0
  0
VERTEX
  5
65
330
41
100
AcDbEntity
  8
Layer 1
 62
    22
420
 15540004
370
    25
100
AcDbVertex
100
AcDb2dVertex
 10
1.766501704109588
 20
-17.91896166666207
 30
0.0
  0
VERTEX
  5
66
330
41
100
AcDbEntity
  8
Layer 1
 62
    22
420
 15540004
370
    25
100
AcDbVertex
100
AcDb2dVertex
 10
1.803431763797069
 20
-17.93082235116816
 30
0.0
  0
VERTEX
  5
67
330
41
100
AcDbEntity
  8
Layer 1
 62
    22
420
 15540004
370
    25
100
AcDbVertex
100
AcDb2dVertex
 10
1.878681442505265
 20
-17.95054715686638
 30
0.0
  0
VERTEX
  5
68
330
41
100
AcDbEntity
  8
Layer 1
 62
    22
420
 15540004
370
    25
100
AcDbVertex
100
AcDb2dVertex
 10
1.955272476178
 20
-17.96602690800076
 30
0.0
  0
VERTEX
  5
69
330
41
100
AcDbEntity
  8
Layer 1
 62
    22
420
 15540004
370
    25
100
AcDbVertex
100
AcDb2dVertex
 10
2.032591152268663
 20
-17.97856199914665
 30
0.0
  0
VERTEX
  5
6A
330
41
100
AcDbEntity
  8
Layer 1
 62
    22
420
 15540004
370
    25
100
AcDbVertex
100
AcDb2dVertex
 10
2.186956598859852
 20
-18.0
 30
0.0
  0
VERTEX
  5
6B
330
41
100
AcDbEntity
  8
Layer 1
 62
    22
420
 15540004
370
    25
100
AcDbVertex
100
AcDb2dVertex
 10
2.294059901110308
 20
-17.9892880026574
 30
0.0
  0
VERTEX
  5
6C
330
41
100
AcDbEntity
  8
Layer 1
 62
    22
420
 15540004
370
    25
100
AcDbVertex
100
AcDb2dVertex
 10
2.40073715574177
 20
-17.97340059591458
 30
0.0
  0
VERTEX
  5
6D
330
41
100
AcDbEntity
  8
Layer 1
 62
    22
420
 15540004
370
    25
100
AcDbVertex
100
AcDb2dVertex
 10
2.506737480512685
 20
-17.95330550608951
 30
0.0
  0
VERTEX
  5
6E
330
41
100
AcDbEntity
  8
Layer 1
 62
    22
420
 15540004
370
    25
100
AcDbVertex
100
AcDb2dVertex
 10
2.61180989748051
 20
-17.92997037440404
 30
0.0
  0
VERTEX
  5
6F
330
41
100
AcDbEntity
  8
Layer 1
 62
    22
420
 15540004
370
    25
100
AcDbVertex
100
AcDb2dVertex
 10
2.645816329168686
 20
-17.90824050994418
 30
0.0
  0
VERTEX
  5
70
330
41
100
AcDbEntity
  8
Layer 1
 62
    22
420
 15540004
370
    25
100
AcDbVertex
100
AcDb2dVertex
 10
2.677741225332031
 20
-17.88381487650539
 30
0.0
  0
VERTEX
  5
71
330
41
100
AcDbEntity
  8
Layer 1
 62
    22
420
 15540004
370
    25
100
AcDbVertex
100
AcDb2dVertex
 10
2.70801576464444
 20
-17.85727657895899
 30
0.0
  0
VERTEX
  5
72
330
41
100
AcDbEntity
  8
Layer 1
 62
    22
420
 15540004
370
    25
100
AcDbVertex
100
AcDb2dVertex
 10
2.73707117481629
 20
-17.82920865292716
 30
0.0
  0
VERTEX
  5
73
330
41
100
AcDbEntity
  8
Layer 1
 62
    22
420
 15540004
370
    25
100
AcDbVertex
100
AcDb2dVertex
 10
2.793249315696281
 20
-17.77081629546402
 30
0.0
  0
VERTEX
  5
74
330
41
100
AcDbEntity
  8
Layer 1
 62
    22
420
 15540004
370
    25
100
AcDbVertex
100
AcDb2dVertex
 10
2.849725234578677
 20
-17.7133024944821
 30
0.0
  0
VERTEX
  5
75
330
41
100
AcDbEntity
  8
Layer 1
 62
    22
420
 15540004
370
    25
100
AcDbVertex
100
AcDb2dVertex
 10
2.887828639503722
 20
-17.67418453923
 30
0.0
  0
VERTEX
  5
76
330
41
100
AcDbEntity
  8
Layer 1
 62
    22
420
 15540004
370
    25
100
AcDbVertex
100
AcDb2dVertex
 10
2.927193463192995
 20
-17.6357718497842
 30
0.0
  0
VERTEX
  5
77
330
41
100
AcDbEntity
  8
Layer 1
 62
    22
420
 15540004
370
    25
100
AcDbVertex
100
AcDb2dVertex
 10
2.966736530167029
 20
-17.59733111653041
 30
0.0
  0
VERTEX
  5
78
330
41
100
AcDbEntity
  8
Layer 1
 62
    22
420
 15540004
370
    25
100
AcDbVertex
100
AcDb2dVertex
 10
3.005374661577674
 20
-17.55812901014011
 30
0.0
  0
VERTEX
  5
79
330
41
100
AcDbEntity
  8
Layer 1
 62
    22
420
 15540004
370
    25
100
AcDbVertex
100
AcDb2dVertex
 10
3.042024721374092
 20
-17.51743221426146
 30
0.0
  0
VERTEX
  5
7A
330
41
100
AcDbEntity
  8
Layer 1
 62
    22
420
 15540004
370
    25
100
AcDbVertex
100
AcDb2dVertex
 10
3.0756035177313
 20
-17.47450744236317
 30
0.0
  0
VERTEX
  5
7B
330
41
100
AcDbEntity
  8
Layer 1
 62
    22
420
 15540004
370
    25
100
AcDbVertex
100
AcDb2dVertex
 10
3.105027911229664
 20
-17.42862135837916
 30
0.0
  0
VERTEX
  5
7C
330
41
100
AcDbEntity
  8
Layer 1
 62
    22
420
 15540004
370
    25
100
AcDbVertex
100
AcDb2dVertex
 10
3.117843710030835
 20
-17.40433866080358
 30
0.0
  0
VERTEX
  5
7D
330
41
100
AcDbEntity
  8
Layer 1
 62
    22
420
 15540004
370
    25
100
AcDbVertex
100
AcDb2dVertex
 10
3.129214726389806
 20
-17.37904065269511
 30
0.0
  0
VERTEX
  5
7E
330
41
100
AcDbEntity
  8
Layer 1
 62
    22
420
 15540004
370
    25
100
AcDbVertex
100
AcDb2dVertex
 10
3.243545478914282
 20
-17.12631812051703
 30
0.0
  0
VERTEX
  5
7F
330
41
100
AcDbEntity
  8
Layer 1
 62
    22
420
 15540004
370
    25
100
AcDbVertex
100
AcDb2dVertex
 10
3.358778732595637
 20
-16.87404527782054
 30
0.0
  0
VERTEX
  5
80
330
41
100
AcDbEntity
  8
Layer 1
 62
    22
420
 15540004
370
    25
100
AcDbVertex
100
AcDb2dVertex
 10
3.473432188943232
 20
-16.62157038840954
 30
0.0
  0
VERTEX
  5
81
330
41
100
AcDbEntity
  8
Layer 1
 62
    22
420
 15540004
370
    25
100
AcDbVertex
100
AcDb2dVertex
 10
3.586023572549202
 20
-16.36824173243343
 30
0.0
  0
VERTEX
  5
82
330
41
100
AcDbEntity
  8
Layer 1
 62
    22
420
 15540004
370
    25
100
AcDbVertex
100
AcDb2dVertex
 10
5.058230250669567
 20
-12.59652223231622
 30
0.0
  0
VERTEX
  5
83
330
41
100
AcDbEntity
  8
Layer 1
 62
    22
420
 15540004
370
    25
100
AcDbVertex
100
AcDb2dVertex
 10
6.52901641272068
 20
-8.824830884494101
 30
0.0
  0
VERTEX
  5
84
330
41
100
AcDbEntity
  8
Layer 1
 62
    22
420
 15540004
370
    25
100
AcDbVertex
100
AcDb2dVertex
 10
6.560441672583452
 20
-8.743664185974366
 30
0.0
  0
VERTEX
  5
85
330
41
100
AcDbEntity
  8
Layer 1
 62
    22
420
 15540004
370
    25
100
AcDbVertex
100
AcDb2dVertex
 10
6.590260099209495
 20
-8.661769193798465
 30
0.0
  0
VERTEX
  5
86
330
41
100
AcDbEntity
  8
Layer 1
 62
    22
420
 15540004
370
    25
100
AcDbVertex
100
AcDb2dVertex
 10
6.605986054299327
 20
-8.621276647565574
 30
0.0
  0
VERTEX
  5
87
330
41
100
AcDbEntity
  8
Layer 1
 62
    22
420
 15540004
370
    25
100
AcDbVertex
100
AcDb2dVertex
 10
6.623013416833209
 20
-8.581475696146514
 30
0.0
  0
VERTEX
  5
88
330
41
100
AcDbEntity
  8
Layer 1
 62
    22
420
 15540004
370
    25
100
AcDbVertex
100
AcDb2dVertex
 10
6.641909953731543
 20
-8.54265756696322
 30
0.0
  0
VERTEX
  5
89
330
41
100
AcDbEntity
  8
Layer 1
 62
    22
420
 15540004
370
    25
100
AcDbVertex
100
AcDb2dVertex
 10
6.663243346320213
 20
-8.505113461484306
 30
0.0
  0
VERTEX
  5
8A
330
41
100
AcDbEntity
  8
Layer 1
 62
    22
420
 15540004
370
    25
100
AcDbVertex
100
AcDb2dVertex
 10
6.729400410419593
 20
-8.437933417344185
 30
0.0
  0
VERTEX
  5
8B
330
41
100
AcDbEntity
  8
Layer 1
 62
    22
420
 15540004
370
    25
100
AcDbVertex
100
AcDb2dVertex
 10
6.798198967129261
 20
-8.373391885533035
 30
0.0
  0
VERTEX
  5
8C
330
41
100
AcDbEntity
  8
Layer 1
 62
    22
420
 15540004
370
    25
100
AcDbVertex
100
AcDb2dVertex
 10
6.869318891755142
 20
-8.311393220777694
 30
0.0
  0
VERTEX
  5
8D
330
41
100
AcDbEntity
  8
Layer 1
 62
    22
420
 15540004
370
    25
100
AcDbVertex
100
AcDb2dVertex
 10
6.942440086055146
 20
-8.251841813864884
 30
0.0
  0
VERTEX
  5
8E
330
41
100
AcDbEntity
  8
Layer 1
 62
    22
420
 15540004
370
    25
100
AcDbVertex
100
AcDb2dVertex
 10
7.042782827475194
 20
-8.211214512144528
 30
0.0
  0
VERTEX
  5
8F
330
41
100
AcDbEntity
  8
Layer 1
 62
    22
420
 15540004
370
    25
100
AcDbVertex
100
AcDb2dVertex
 10
7.145133848268288
 20
-8.174397037557506
 30
0.0
  0
VERTEX
  5
90
330
41
100
AcDbEntity
  8
Layer 1
 62
    22
420
 15540004
370
    25
100
AcDbVertex
100
AcDb2dVertex
 10
7.197008200597666
 20
-8.157899000504736
 30
0.0
  0
VERTEX
  5
91
330
41
100
AcDbEntity
  8
Layer 1
 62
    22
420
 15540004
370
    25
100
AcDbVertex
100
AcDb2dVertex
 10
7.249319498912061
 20
-8.142931860049732
 30
0.0
  0
VERTEX
  5
92
330
41
100
AcDbEntity
  8
Layer 1
 62
    22
420
 15540004
370
    25
100
AcDbVertex
100
AcDb2dVertex
 10
7.302046049763614
 20
-8.129688425294438
 30
0.0
  0
VERTEX
  5
93
330
41
100
AcDbEntity
  8
Layer 1
 62
    22
420
 15540004
370
    25
100
AcDbVertex
100
AcDb2dVertex
 10
7.355166136621555
 20
-8.118361488995522
 30
0.0
  0
VERTEX
  5
94
330
41
100
AcDbEntity
  8
Layer 1
 62
    22
420
 15540004
370
    25
100
AcDbVertex
100
AcDb2dVertex
 10
7.497263919970287
 20
-8.11226552254344
 30
0.0
  0
VERTEX
  5
95
330
41
100
AcDbEntity
  8
Layer 1
 62
    22
420
 15540004
370
    25
100
AcDbVertex
100
AcDb2dVertex
 10
7.568547318357875
 20
-8.10956802747599
 30
0.0
  0
VERTEX
  5
96
330
41
100
AcDbEntity
  8
Layer 1
 62
    22
420
 15540004
370
    25
100
AcDbVertex
100
AcDb2dVertex
 10
7.639774846505411
 20
-8.10857576956318
 30
0.0
  0
VERTEX
  5
97
330
41
100
AcDbEntity
  8
Layer 1
 62
    22
420
 15540004
370
    25
100
AcDbVertex
100
AcDb2dVertex
 10
7.710787408735351
 20
-8.110392518654685
 30
0.0
  0
VERTEX
  5
98
330
41
100
AcDbEntity
  8
Layer 1
 62
    22
420
 15540004
370
    25
100
AcDbVertex
100
AcDb2dVertex
 10
7.781425869442955
 20
-8.11612192968337
 30
0.0
  0
VERTEX
  5
99
330
41
100
AcDbEntity
  8
Layer 1
 62
    22
420
 15540004
370
    25
100
AcDbVertex
100
AcDb2dVertex
 10
7.851531093521922
 20
-8.126867779236438
 30
0.0
  0
VERTEX
  5
9A
330
41
100
AcDbEntity
  8
Layer 1
 62
    22
420
 15540004
370
    25
100
AcDbVertex
100
AcDb2dVertex
 10
7.88633399872338
 20
-8.134466742596247
 30
0.0
  0
VERTEX
  5
9B
330
41
100
AcDbEntity
  8
Layer 1
 62
    22
420
 15540004
370
    25
100
AcDbVertex
100
AcDb2dVertex
 10
7.920943925653445
 20
-8.143733725615574
 30
0.0
  0
VERTEX
  5
9C
330
41
100
AcDbEntity
  8
Layer 1
 62
    22
420
 15540004
370
    25
100
AcDbVertex
100
AcDb2dVertex
 10
7.978019527989773
 20
-8.157820853136375
 30
0.0
  0
VERTEX
  5
9D
330
41
100
AcDbEntity
  8
Layer 1
 62
    22
420
 15540004
370
    25
100
AcDbVertex
100
AcDb2dVertex
 10
8.035727150721767
 20
-8.169553946688135
 30
0.0
  0
VERTEX
  5
9E
330
41
100
AcDbEntity
  8
Layer 1
 62
    22
420
 15540004
370
    25
100
AcDbVertex
100
AcDb2dVertex
 10
8.151891825327828
 20
-8.189962408462595
 30
0.0
  0
VERTEX
  5
9F
330
41
100
AcDbEntity
  8
Layer 1
 62
    22
420
 15540004
370
    25
100
AcDbVertex
100
AcDb2dVertex
 10
8.209775582827255
 20
-8.20064003228995
 30
0.0
  0
VERTEX
  5
A0
330
41
100
AcDbEntity
  8
Layer 1
 62
    22
420
 15540004
370
    25
100
AcDbVertex
100
AcDb2dVertex
 10
8.267144735414995
 20
-8.212968038155003
 30
0.0
  0
VERTEX
  5
A1
330
41
100
AcDbEntity
  8
Layer 1
 62
    22
420
 15540004
370
    25
100
AcDbVertex
100
AcDb2dVertex
 10
8.32371262292698
 20
-8.227947596657321
 30
0.0
  0
VERTEX
  5
A2
330
41
100
AcDbEntity
  8
Layer 1
 62
    22
420
 15540004
370
    25
100
AcDbVertex
100
AcDb2dVertex
 10
8.379192627498089
 20
-8.246579769718892
 30
0.0
  0
VERTEX
  5
A3
330
41
100
AcDbEntity
  8
Layer 1
 62
    22
420
 15540004
370
    25
100
AcDbVertex
100
AcDb2dVertex
 10
8.593855879700337
 20
-8.382628534243079
 30
0.0
  0
VERTEX
  5
A4
330
41
100
AcDbEntity
  8
Layer 1
 62
    22
420
 15540004
370
    25
100
AcDbVertex
100
AcDb2dVertex
 10
8.807585989177987
 20
-8.520132611430691
 30
0.0
  0
VERTEX
  5
A5
330
41
100
AcDbEntity
  8
Layer 1
 62
    22
420
 15540004
370
    25
100
AcDbVertex
100
AcDb2dVertex
 10
9.233108111944778
 20
-8.798184468412614
 30
0.0
  0
VERTEX
  5
A6
330
41
100
AcDbEntity
  8
Layer 1
 62
    22
420
 15540004
370
    25
100
AcDbVertex
100
AcDb2dVertex
 10
9.657481883862323
 20
-9.07809099392355
 30
0.0
  0
VERTEX
  5
A7
330
41
100
AcDbEntity
  8
Layer 1
 62
    22
420
 15540004
370
    25
100
AcDbVertex
100
AcDb2dVertex
 10
10.08243018338657
 20
-9.357207903734004
 30
0.0
  0
VERTEX
  5
A8
330
41
100
AcDbEntity
  8
Layer 1
 62
    22
420
 15540004
370
    25
100
AcDbVertex
100
AcDb2dVertex
 10
16.83539831068929
 20
-13.79455309499005
 30
0.0
  0
VERTEX
  5
A9
330
41
100
AcDbEntity
  8
Layer 1
 62
    22
420
 15540004
370
    25
100
AcDbVertex
100
AcDb2dVertex
 10
16.89238037024016
 20
-13.83153194262535
 30
0.0
  0
VERTEX
  5
AA
330
41
100
AcDbEntity
  8
Layer 1
 62
    22
420
 15540004
370
    25
100
AcDbVertex
100
AcDb2dVertex
 10
16.95162538593602
 20
-13.86403569521039
 30
0.0
  0
VERTEX
  5
AB
330
41
100
AcDbEntity
  8
Layer 1
 62
    22
420
 15540004
370
    25
100
AcDbVertex
100
AcDb2dVertex
 10
17.01267399230349
 20
-13.89292768400888
 30
0.0
  0
VERTEX
  5
AC
330
41
100
AcDbEntity
  8
Layer 1
 62
    22
420
 15540004
370
    25
100
AcDbVertex
100
AcDb2dVertex
 10
17.07506677146413
 20
-13.91907128981951
 30
0.0
  0
VERTEX
  5
AD
330
41
100
AcDbEntity
  8
Layer 1
 62
    22
420
 15540004
370
    25
100
AcDbVertex
100
AcDb2dVertex
 10
17.20204720597247
 20
-13.96656680979149
 30
0.0
  0
VERTEX
  5
AE
330
41
100
AcDbEntity
  8
Layer 1
 62
    22
420
 15540004
370
    25
100
AcDbVertex
100
AcDb2dVertex
 10
17.32889144787411
 20
-14.01342918273164
 30
0.0
  0
VERTEX
  5
AF
330
41
100
AcDbEntity
  8
Layer 1
 62
    22
420
 15540004
370
    25
100
AcDbVertex
100
AcDb2dVertex
 10
17.35641723978296
 20
-14.02350531097304
 30
0.0
  0
VERTEX
  5
B0
330
41
100
AcDbEntity
  8
Layer 1
 62
    22
420
 15540004
370
    25
100
AcDbVertex
100
AcDb2dVertex
 10
17.38445101272484
 20
-14.03114496021499
 30
0.0
  0
VERTEX
  5
B1
330
41
100
AcDbEntity
  8
Layer 1
 62
    22
420
 15540004
370
    25
100
AcDbVertex
100
AcDb2dVertex
 10
17.41287126528467
 20
-14.03641886677389
 30
0.0
  0
VERTEX
  5
B2
330
41
100
AcDbEntity
  8
Layer 1
 62
    22
420
 15540004
370
    25
100
AcDbVertex
100
AcDb2dVertex
 10
17.44155654845238
 20
-14.03939771743131
 30
0.0
  0
VERTEX
  5
B3
330
41
100
AcDbEntity
  8
Layer 1
 62
    22
420
 15540004
370
    25
100
AcDbVertex
100
AcDb2dVertex
 10
17.47038540361018
 20
-14.04015226148033
 30
0.0
  0
VERTEX
  5
B4
330
41
100
AcDbEntity
  8
Layer 1
 62
    22
420
 15540004
370
    25
100
AcDbVertex
100
AcDb2dVertex
 10
17.49923637837934
 20
-14.03875316598828
 30
0.0
  0
VERTEX
  5
B5
330
41
100
AcDbEntity
  8
Layer 1
 62
    22
420
 15540004
370
    25
100
AcDbVertex
100
AcDb2dVertex
 10
17.52798799105891
 20
-14.03527116390278
 30
0.0
  0
VERTEX
  5
B6
330
41
100
AcDbEntity
  8
Layer 1
 62
    22
420
 15540004
370
    25
100
AcDbVertex
100
AcDb2dVertex
 10
17.55651879937644
 20
-14.02977698143392
 30
0.0
  0
VERTEX
  5
B7
330
41
100
AcDbEntity
  8
Layer 1
 62
    22
420
 15540004
370
    25
100
AcDbVertex
100
AcDb2dVertex
 10
17.61801902952261
 20
-14.02255039448102
 30
0.0
  0
VERTEX
  5
B8
330
41
100
AcDbEntity
  8
Layer 1
 62
    22
420
 15540004
370
    25
100
AcDbVertex
100
AcDb2dVertex
 10
17.67723906614992
 20
-14.00991405973496
 30
0.0
  0
VERTEX
  5
B9
330
41
100
AcDbEntity
  8
Layer 1
 62
    22
420
 15540004
370
    25
100
AcDbVertex
100
AcDb2dVertex
 10
17.73432648292934
 20
-13.99232407736047
 30
0.0
  0
VERTEX
  5
BA
330
41
100
AcDbEntity
  8
Layer 1
 62
    22
420
 15540004
370
    25
100
AcDbVertex
100
AcDb2dVertex
 10
17.78942885690063
 20
-13.97023656723655
 30
0.0
  0
VERTEX
  5
BB
330
41
100
AcDbEntity
  8
Layer 1
 62
    22
420
 15540004
370
    25
100
AcDbVertex
100
AcDb2dVertex
 10
17.84269376173471
 20
-13.94410762952793
 30
0.0
  0
VERTEX
  5
BC
330
41
100
AcDbEntity
  8
Layer 1
 62
    22
420
 15540004
370
    25
100
AcDbVertex
100
AcDb2dVertex
 10
17.89426874801946
 20
-13.91439334805386
 30
0.0
  0
VERTEX
  5
BD
330
41
100
AcDbEntity
  8
Layer 1
 62
    22
420
 15540004
370
    25
100
AcDbVertex
100
AcDb2dVertex
 10
17.94430140914013
 20
-13.8815498196103
 30
0.0
  0
VERTEX
  5
BE
330
41
100
AcDbEntity
  8
Layer 1
 62
    22
420
 15540004
370
    25
100
AcDbVertex
100
AcDb2dVertex
 10
17.99293931876764
 20
-13.84603314436201
 30
0.0
  0
VERTEX
  5
BF
330
41
100
AcDbEntity
  8
Layer 1
 62
    22
420
 15540004
370
    25
100
AcDbVertex
100
AcDb2dVertex
 10
18.04033003085869
 20
-13.80829942584245
 30
0.0
  0
VERTEX
  5
C0
330
41
100
AcDbEntity
  8
Layer 1
 62
    22
420
 15540004
370
    25
100
AcDbVertex
100
AcDb2dVertex
 10
18.08662112245295
 20
-13.76880478393068
 30
0.0
  0
VERTEX
  5
C1
330
41
100
AcDbEntity
  8
Layer 1
 62
    22
420
 15540004
370
    25
100
AcDbVertex
100
AcDb2dVertex
 10
18.17649476478851
 20
-13.68635704499474
 30
0.0
  0
VERTEX
  5
C2
330
41
100
AcDbEntity
  8
Layer 1
 62
    22
420
 15540004
370
    25
100
AcDbVertex
100
AcDb2dVertex
 10
18.26374077263037
 20
-13.60233871926411
 30
0.0
  0
VERTEX
  5
C3
330
41
100
AcDbEntity
  8
Layer 1
 62
    22
420
 15540004
370
    25
100
AcDbVertex
100
AcDb2dVertex
 10
18.34953977477456
 20
-13.52039860131914
 30
0.0
  0
VERTEX
  5
C4
330
41
100
AcDbEntity
  8
Layer 1
 62
    22
420
 15540004
370
    25
100
AcDbVertex
100
AcDb2dVertex
 10
18.39102394371667
 20
-13.44466340391578
 30
0.0
  0
VERTEX
  5
C5
330
41
100
AcDbEntity
  8
Layer 1
 62
    22
420
 15540004
370
    25
100
AcDbVertex
100
AcDb2dVertex
 10
18.42948846813778
 20
-13.3673680179992
 30
0.0
  0
VERTEX
  5
C6
330
41
100
AcDbEntity
  8
Layer 1
 62
    22
420
 15540004
370
    25
100
AcDbVertex
100
AcDb2dVertex
 10
18.46549336116676
 20
-13.288822769939
 30
0.0
  0
VERTEX
  5
C7
330
41
100
AcDbEntity
  8
Layer 1
 62
    22
420
 15540004
370
    25
100
AcDbVertex
100
AcDb2dVertex
 10
18.4995986883379
 20
-13.20933793656987
 30
0.0
  0
VERTEX
  5
C8
330
41
100
AcDbEntity
  8
Layer 1
 62
    22
420
 15540004
370
    25
100
AcDbVertex
100
AcDb2dVertex
 10
18.56435076300419
 20
-13.04879072705086
 30
0.0
  0
VERTEX
  5
C9
330
41
100
AcDbEntity
  8
Layer 1
 62
    22
420
 15540004
370
    25
100
AcDbVertex
100
AcDb2dVertex
 10
18.62822500005175
 20
-12.88820876283075
 30
0.0
  0
VERTEX
  5
CA
330
41
100
AcDbEntity
  8
Layer 1
 62
    22
420
 15540004
370
    25
100
AcDbVertex
100
AcDb2dVertex
 10
18.64129015735698
 20
-12.85597300084935
 30
0.0
  0
VERTEX
  5
CB
330
41
100
AcDbEntity
  8
Layer 1
 62
    22
420
 15540004
370
    25
100
AcDbVertex
100
AcDb2dVertex
 10
18.6521881252905
 20
-12.82327937514842
 30
0.0
  0
VERTEX
  5
CC
330
41
100
AcDbEntity
  8
Layer 1
 62
    22
420
 15540004
370
    25
100
AcDbVertex
100
AcDb2dVertex
 10
18.66109416775516
 20
-12.79017597159397
 30
0.0
  0
VERTEX
  5
CD
330
41
100
AcDbEntity
  8
Layer 1
 62
    22
420
 15540004
370
    25
100
AcDbVertex
100
AcDb2dVertex
 10
18.66818347940458
 20
-12.75671082701567
 30
0.0
  0
VERTEX
  5
CE
330
41
100
AcDbEntity
  8
Layer 1
 62
    22
420
 15540004
370
    25
100
AcDbVertex
100
AcDb2dVertex
 10
18.67363136693888
 20
-12.7229320402563
 30
0.0
  0
VERTEX
  5
CF
330
41
100
AcDbEntity
  8
Layer 1
 62
    22
420
 15540004
370
    25
100
AcDbVertex
100
AcDb2dVertex
 10
18.67761300529736
 20
-12.68888765151428
 30
0.0
  0
VERTEX
  5
D0
330
41
100
AcDbEntity
  8
Layer 1
 62
    22
420
 15540004
370
    25
100
AcDbVertex
100
AcDb2dVertex
 10
18.68187857999212
 20
-12.62019435240376
 30
0.0
  0
VERTEX
  5
D1
330
41
100
AcDbEntity
  8
Layer 1
 62
    22
420
 15540004
370
    25
100
AcDbVertex
100
AcDb2dVertex
 10
18.68238215312979
 20
-12.55101550219433
 30
0.0
  0
VERTEX
  5
D2
330
41
100
AcDbEntity
  8
Layer 1
 62
    22
420
 15540004
370
    25
100
AcDbVertex
100
AcDb2dVertex
 10
18.6805256051025
 20
-12.48173562435985
 30
0.0
  0
VERTEX
  5
D3
330
41
100
AcDbEntity
  8
Layer 1
 62
    22
420
 15540004
370
    25
100
AcDbVertex
100
AcDb2dVertex
 10
18.67533986763179
 20
-12.34441086573717
 30
0.0
  0
VERTEX
  5
D4
330
41
100
AcDbEntity
  8
Layer 1
 62
    22
420
 15540004
370
    25
100
AcDbVertex
100
AcDb2dVertex
 10
18.66196459801384
 20
-12.29810224798474
 30
0.0
  0
VERTEX
  5
D5
330
41
100
AcDbEntity
  8
Layer 1
 62
    22
420
 15540004
370
    25
100
AcDbVertex
100
AcDb2dVertex
 10
18.64665074839028
 20
-12.2526223033807
 30
0.0
  0
VERTEX
  5
D6
330
41
100
AcDbEntity
  8
Layer 1
 62
    22
420
 15540004
370
    25
100
AcDbVertex
100
AcDb2dVertex
 10
18.62953553866845
 20
-12.2079240068184
 30
0.0
  0
VERTEX
  5
D7
330
41
100
AcDbEntity
  8
Layer 1
 62
    22
420
 15540004
370
    25
100
AcDbVertex
100
AcDb2dVertex
 10
18.61075620173233
 20
-12.16396029039388
 30
0.0
  0
VERTEX
  5
D8
330
41
100
AcDbEntity
  8
Layer 1
 62
    22
420
 15540004
370
    25
100
AcDbVertex
100
AcDb2dVertex
 10
18.59044993777482
 20
-12.12068413236922
 30
0.0
  0
VERTEX
  5
D9
330
41
100
AcDbEntity
  8
Layer 1
 62
    22
420
 15540004
370
    25
100
AcDbVertex
100
AcDb2dVertex
 10
18.56875397967992
 20
-12.07804846484051
 30
0.0
  0
VERTEX
  5
DA
330
41
100
AcDbEntity
  8
Layer 1
 62
    22
420
 15540004
370
    25
100
AcDbVertex
100
AcDb2dVertex
 10
18.52174191648083
 20
-11.99451047102361
 30
0.0
  0
VERTEX
  5
DB
330
41
100
AcDbEntity
  8
Layer 1
 62
    22
420
 15540004
370
    25
100
AcDbVertex
100
AcDb2dVertex
 10
18.47081776415714
 20
-11.912969947007
 30
0.0
  0
VERTEX
  5
DC
330
41
100
AcDbEntity
  8
Layer 1
 62
    22
420
 15540004
370
    25
100
AcDbVertex
100
AcDb2dVertex
 10
18.41707929444505
 20
-11.8330505274857
 30
0.0
  0
VERTEX
  5
DD
330
41
100
AcDbEntity
  8
Layer 1
 62
    22
420
 15540004
370
    25
100
AcDbVertex
100
AcDb2dVertex
 10
18.30555061145499
 20
-11.67656954021099
 30
0.0
  0
VERTEX
  5
DE
330
41
100
AcDbEntity
  8
Layer 1
 62
    22
420
 15540004
370
    25
100
AcDbVertex
100
AcDb2dVertex
 10
9.840166272221179
 20
-0.4702265487222677
 30
0.0
  0
SEQEND
  5
DF
330
41
100
AcDbEntity
  8
Layer 1
 62
    22
420
 15540004
370
    25
  0
POLYLINE
  5
E0
330
1F
100
AcDbEntity
  8
Layer 1
 62
    22
420
 15540004
370
    25
100
AcDb2dPolyline
 66
     1
 10
0.0
 20
0.0
 30
0.0
  0
VERTEX
  5
E1
330
E0
100
AcDbEntity
  8
Layer 1
 62
    22
420
 15540004
370
    25
100
AcDbVertex
100
AcDb2dVertex
 10
12.2551284168065
 20
-23.40796577681686
 30
0.0
  0
VERTEX
  5
E2
330
E0
100
AcDbEntity
  8
Layer 1
 62
    22
420
 15540004
370
    25
100
AcDbVertex
100
AcDb2dVertex
 10
12.80685216185227
 20
-23.72700283259099
 30
0.0
  0
VERTEX
  5
E3
330
E0
100
AcDbEntity
  8
Layer 1
 62
    22
420
 15540004
370
    25
100
AcDbVertex
100
AcDb2dVertex
 10
12.87890384151054
 20
-23.76579906040607
 30
0.0
  0
VERTEX
  5
E4
330
E0
100
AcDbEntity
  8
Layer 1
 62
    22
420
 15540004
370
    25
100
AcDbVertex
100
AcDb2dVertex
 10
12.95019485652817
 20
-23.80593818963706
 30
0.0
  0
VERTEX
  5
E5
330
E0
100
AcDbEntity
  8
Layer 1
 62
    22
420
 15540004
370
    25
100
AcDbVertex
100
AcDb2dVertex
 10
13.09152145662347
 20
-23.88848188742819
 30
0.0
  0
VERTEX
  5
E6
330
E0
100
AcDbEntity
  8
Layer 1
 62
    22
420
 15540004
370
    25
100
AcDbVertex
100
AcDb2dVertex
 10
13.23288521359397
 20
-23.97110749980935
 30
0.0
  0
VERTEX
  5
E7
330
E0
100
AcDbEntity
  8
Layer 1
 62
    22
420
 15540004
370
    25
100
AcDbVertex
100
AcDb2dVertex
 10
13.30422262603522
 20
-24.01134899922984
 30
0.0
  0
VERTEX
  5
E8
330
E0
100
AcDbEntity
  8
Layer 1
 62
    22
420
 15540004
370
    25
100
AcDbVertex
100
AcDb2dVertex
 10
13.37633928049768
 20
-24.05028858279383
 30
0.0
  0
VERTEX
  5
E9
330
E0
100
AcDbEntity
  8
Layer 1
 62
    22
420
 15540004
370
    25
100
AcDbVertex
100
AcDb2dVertex
 10
13.9260725339222
 20
-24.37462784603435
 30
0.0
  0
VERTEX
  5
EA
330
E0
100
AcDbEntity
  8
Layer 1
 62
    22
420
 15540004
370
    25
100
AcDbVertex
100
AcDb2dVertex
 10
13.99700218534892
 20
-24.4115030359442
 30
0.0
  0
VERTEX
  5
EB
330
E0
100
AcDbEntity
  8
Layer 1
 62
    22
420
 15540004
370
    25
100
AcDbVertex
100
AcDb2dVertex
 10
14.0672467566321
 20
-24.44967461976679
 30
0.0
  0
VERTEX
  5
EC
330
E0
100
AcDbEntity
  8
Layer 1
 62
    22
420
 15540004
370
    25
100
AcDbVertex
100
AcDb2dVertex
 10
14.20625518299206
 20
-24.52885127123366
 30
0.0
  0
VERTEX
  5
ED
330
E0
100
AcDbEntity
  8
Layer 1
 62
    22
420
 15540004
370
    25
100
AcDbVertex
100
AcDb2dVertex
 10
14.48237097690409
 20
-24.69114762434677
 30
0.0
  0
VERTEX
  5
EE
330
E0
100
AcDbEntity
  8
Layer 1
 62
    22
420
 15540004
370
    25
100
AcDbVertex
100
AcDb2dVertex
 10
15.00254903235332
 20
-24.9910827800465
 30
0.0
  0
VERTEX
  5
EF
330
E0
100
AcDbEntity
  8
Layer 1
 62
    22
420
 15540004
370
    25
100
AcDbVertex
100
AcDb2dVertex
 10
15.29060393285312
 20
-25.15388451420055
 30
0.0
  0
VERTEX
  5
F0
330
E0
100
AcDbEntity
  8
Layer 1
 62
    22
420
 15540004
370
    25
100
AcDbVertex
100
AcDb2dVertex
 10
15.57753028519291
 20
-25.31888295507871
 30
0.0
  0
VERTEX
  5
F1
330
E0
100
AcDbEntity
  8
Layer 1
 62
    22
420
 15540004
370
    25
100
AcDbVertex
100
AcDb2dVertex
 10
15.86429374009872
 20
-25.48440914755656
 30
0.0
  0
VERTEX
  5
F2
330
E0
100
AcDbEntity
  8
Layer 1
 62
    22
420
 15540004
370
    25
100
AcDbVertex
100
AcDb2dVertex
 10
16.15186001737296
 20
-25.64879418154949
 30
0.0
  0
VERTEX
  5
F3
330
E0
100
AcDbEntity
  8
Layer 1
 62
    22
420
 15540004
370
    25
100
AcDbVertex
100
AcDb2dVertex
 10
16.22036246737586
 20
-25.67790821493703
 30
0.0
  0
VERTEX
  5
F4
330
E0
100
AcDbEntity
  8
Layer 1
 62
    22
420
 15540004
370
    25
100
AcDbVertex
100
AcDb2dVertex
 10
16.29061462242862
 20
-25.7048884805496
 30
0.0
  0
VERTEX
  5
F5
330
E0
100
AcDbEntity
  8
Layer 1
 62
    22
420
 15540004
370
    25
100
AcDbVertex
100
AcDb2dVertex
 10
16.36234653056822
 20
-25.72863148282045
 30
0.0
  0
VERTEX
  5
F6
330
E0
100
AcDbEntity
  8
Layer 1
 62
    22
420
 15540004
370
    25
100
AcDbVertex
100
AcDb2dVertex
 10
16.43528816864162
 20
-25.74803373767276
 30
0.0
  0
VERTEX
  5
F7
330
E0
100
AcDbEntity
  8
Layer 1
 62
    22
420
 15540004
370
    25
100
AcDbVertex
100
AcDb2dVertex
 10
16.47212827693491
 20
-25.75576225220124
 30
0.0
  0
VERTEX
  5
F8
330
E0
100
AcDbEntity
  8
Layer 1
 62
    22
420
 15540004
370
    25
100
AcDbVertex
100
AcDb2dVertex
 10
16.50916955642101
 20
-25.76199174848266
 30
0.0
  0
VERTEX
  5
F9
330
E0
100
AcDbEntity
  8
Layer 1
 62
    22
420
 15540004
370
    25
100
AcDbVertex
100
AcDb2dVertex
 10
16.54637830287619
 20
-25.76658431405561
 30
0.0
  0
VERTEX
  5
FA
330
E0
100
AcDbEntity
  8
Layer 1
 62
    22
420
 15540004
370
    25
100
AcDbVertex
100
AcDb2dVertex
 10
16.58372071367891
 20
-25.7694020186267
 30
0.0
  0
VERTEX
  5
FB
330
E0
100
AcDbEntity
  8
Layer 1
 62
    22
420
 15540004
370
    25
100
AcDbVertex
100
AcDb2dVertex
 10
16.62116307205861
 20
-25.77030690680926
 30
0.0
  0
VERTEX
  5
FC
330
E0
100
AcDbEntity
  8
Layer 1
 62
    22
420
 15540004
370
    25
100
AcDbVertex
100
AcDb2dVertex
 10
16.6586716183192
 20
-25.76916103576342
 30
0.0
  0
VERTEX
  5
FD
330
E0
100
AcDbEntity
  8
Layer 1
 62
    22
420
 15540004
370
    25
100
AcDbVertex
100
AcDb2dVertex
 10
16.6962126053116
 20
-25.76582650557442
 30
0.0
  0
VERTEX
  5
FE
330
E0
100
AcDbEntity
  8
Layer 1
 62
    22
420
 15540004
370
    25
100
AcDbVertex
100
AcDb2dVertex
 10
16.73375228800038
 20
-25.76016535979819
 30
0.0
  0
VERTEX
  5
FF
330
E0
100
AcDbEntity
  8
Layer 1
 62
    22
420
 15540004
370
    25
100
AcDbVertex
100
AcDb2dVertex
 10
16.77529627589673
 20
-25.75743034544664
 30
0.0
  0
VERTEX
  5
100
330
E0
100
AcDbEntity
  8
Layer 1
 62
    22
420
 15540004
370
    25
100
AcDbVertex
100
AcDb2dVertex
 10
16.81654818466485
 20
-25.75276929827047
 30
0.0
  0
VERTEX
  5
101
330
E0
100
AcDbEntity
  8
Layer 1
 62
    22
420
 15540004
370
    25
100
AcDbVertex
100
AcDb2dVertex
 10
16.85749417607768
 20
-25.74628735990397
 30
0.0
  0
VERTEX
  5
102
330
E0
100
AcDbEntity
  8
Layer 1
 62
    22
420
 15540004
370
    25
100
AcDbVertex
100
AcDb2dVertex
 10
16.89812045377706
 20
-25.73808968769961
 30
0.0
  0
VERTEX
  5
103
330
E0
100
AcDbEntity
  8
Layer 1
 62
    22
420
 15540004
370
    25
100
AcDbVertex
100
AcDb2dVertex
 10
16.93841319419719
 20
-25.72828140968833
 30
0.0
  0
VERTEX
  5
104
330
E0
100
AcDbEntity
  8
Layer 1
 62
    22
420
 15540004
370
    25
100
AcDbVertex
100
AcDb2dVertex
 10
16.97835854550759
 20
-25.71696765284383
 30
0.0
  0
VERTEX
  5
105
330
E0
100
AcDbEntity
  8
Layer 1
 62
    22
420
 15540004
370
    25
100
AcDbVertex
100
AcDb2dVertex
 10
17.05715188176272
 20
-25.69024431740457
 30
0.0
  0
VERTEX
  5
106
330
E0
100
AcDbEntity
  8
Layer 1
 62
    22
420
 15540004
370
    25
100
AcDbVertex
100
AcDb2dVertex
 10
17.1343898991086
 20
-25.65876079147862
 30
0.0
  0
VERTEX
  5
107
330
E0
100
AcDbEntity
  8
Layer 1
 62
    22
420
 15540004
370
    25
100
AcDbVertex
100
AcDb2dVertex
 10
17.20996203411247
 20
-25.62335818516375
 30
0.0
  0
VERTEX
  5
108
330
E0
100
AcDbEntity
  8
Layer 1
 62
    22
420
 15540004
370
    25
100
AcDbVertex
100
AcDb2dVertex
 10
17.28375769507607
 20
-25.58487760750005
 30
0.0
  0
VERTEX
  5
109
330
E0
100
AcDbEntity
  8
Layer 1
 62
    22
420
 15540004
370
    25
100
AcDbVertex
100
AcDb2dVertex
 10
17.3556663604347
 20
-25.54416018430263
 30
0.0
  0
VERTEX
  5
10A
330
E0
100
AcDbEntity
  8
Layer 1
 62
    22
420
 15540004
370
    25
100
AcDbVertex
100
AcDb2dVertex
 10
17.39210921948739
 20
-25.52015956420256
 30
0.0
  0
VERTEX
  5
10B
330
E0
100
AcDbEntity
  8
Layer 1
 62
    22
420
 15540004
370
    25
100
AcDbVertex
100
AcDb2dVertex
 10
17.4252358262961
 20
-25.49298468650825
 30
0.0
  0
VERTEX
  5
10C
330
E0
100
AcDbEntity
  8
Layer 1
 62
    22
420
 15540004
370
    25
100
AcDbVertex
100
AcDb2dVertex
 10
17.45510009009811
 20
-25.46287651018669
 30
0.0
  0
VERTEX
  5
10D
330
E0
100
AcDbEntity
  8
Layer 1
 62
    22
420
 15540004
370
    25
100
AcDbVertex
100
AcDb2dVertex
 10
17.48175590652717
 20
-25.43007597954448
 30
0.0
  0
VERTEX
  5
10E
330
E0
100
AcDbEntity
  8
Layer 1
 62
    22
420
 15540004
370
    25
100
AcDbVertex
100
AcDb2dVertex
 10
17.50525721097104
 20
-25.39482411113459
 30
0.0
  0
VERTEX
  5
10F
330
E0
100
AcDbEntity
  8
Layer 1
 62
    22
420
 15540004
370
    25
100
AcDbVertex
100
AcDb2dVertex
 10
17.52565788545977
 20
-25.35736183460287
 30
0.0
  0
VERTEX
  5
110
330
E0
100
AcDbEntity
  8
Layer 1
 62
    22
420
 15540004
370
    25
100
AcDbVertex
100
AcDb2dVertex
 10
17.54301188004183
 20
-25.31793015289847
 30
0.0
  0
VERTEX
  5
111
330
E0
100
AcDbEntity
  8
Layer 1
 62
    22
420
 15540004
370
    25
100
AcDbVertex
100
AcDb2dVertex
 10
17.55737309035112
 20
-25.27677001032804
 30
0.0
  0
VERTEX
  5
112
330
E0
100
AcDbEntity
  8
Layer 1
 62
    22
420
 15540004
370
    25
100
AcDbVertex
100
AcDb2dVertex
 10
17.56879543922853
 20
-25.23412238051926
 30
0.0
  0
VERTEX
  5
113
330
E0
100
AcDbEntity
  8
Layer 1
 62
    22
420
 15540004
370
    25
100
AcDbVertex
100
AcDb2dVertex
 10
17.57733282125087
 20
-25.19022823604311
 30
0.0
  0
VERTEX
  5
114
330
E0
100
AcDbEntity
  8
Layer 1
 62
    22
420
 15540004
370
    25
100
AcDbVertex
100
AcDb2dVertex
 10
17.58303918752386
 20
-25.14532855158455
 30
0.0
  0
VERTEX
  5
115
330
E0
100
AcDbEntity
  8
Layer 1
 62
    22
420
 15540004
370
    25
100
AcDbVertex
100
AcDb2dVertex
 10
17.58596843368079
 20
-25.09966427144968
 30
0.0
  0
VERTEX
  5
116
330
E0
100
AcDbEntity
  8
Layer 1
 62
    22
420
 15540004
370
    25
100
AcDbVertex
100
AcDb2dVertex
 10
17.58617446684548
 20
-25.053476411135
 30
0.0
  0
VERTEX
  5
117
330
E0
100
AcDbEntity
  8
Layer 1
 62
    22
420
 15540004
370
    25
100
AcDbVertex
100
AcDb2dVertex
 10
17.58371121091598
 20
-25.00700591600386
 30
0.0
  0
VERTEX
  5
118
330
E0
100
AcDbEntity
  8
Layer 1
 62
    22
420
 15540004
370
    25
100
AcDbVertex
100
AcDb2dVertex
 10
17.57863258979018
 20
-24.96049373141927
 30
0.0
  0
VERTEX
  5
119
330
E0
100
AcDbEntity
  8
Layer 1
 62
    22
420
 15540004
370
    25
100
AcDbVertex
100
AcDb2dVertex
 10
17.57099249698796
 20
-24.914180858217
 30
0.0
  0
VERTEX
  5
11A
330
E0
100
AcDbEntity
  8
Layer 1
 62
    22
420
 15540004
370
    25
100
AcDbVertex
100
AcDb2dVertex
 10
17.56071549821687
 20
-24.85548828072125
 30
0.0
  0
VERTEX
  5
11B
330
E0
100
AcDbEntity
  8
Layer 1
 62
    22
420
 15540004
370
    25
100
AcDbVertex
100
AcDb2dVertex
 10
17.55167227343433
 20
-24.79639078676763
 30
0.0
  0
VERTEX
  5
11C
330
E0
100
AcDbEntity
  8
Layer 1
 62
    22
420
 15540004
370
    25
100
AcDbVertex
100
AcDb2dVertex
 10
17.53283475463407
 20
-24.67839162597566
 30
0.0
  0
VERTEX
  5
11D
330
E0
100
AcDbEntity
  8
Layer 1
 62
    22
420
 15540004
370
    25
100
AcDbVertex
100
AcDb2dVertex
 10
17.52081426660202
 20
-24.62019520498565
 30
0.0
  0
VERTEX
  5
11E
330
E0
100
AcDbEntity
  8
Layer 1
 62
    22
420
 15540004
370
    25
100
AcDbVertex
100
AcDb2dVertex
 10
17.50557514775483
 20
-24.56300442936673
 30
0.0
  0
VERTEX
  5
11F
330
E0
100
AcDbEntity
  8
Layer 1
 62
    22
420
 15540004
370
    25
100
AcDbVertex
100
AcDb2dVertex
 10
17.48600434348196
 20
-24.5071719236285
 30
0.0
  0
VERTEX
  5
120
330
E0
100
AcDbEntity
  8
Layer 1
 62
    22
420
 15540004
370
    25
100
AcDbVertex
100
AcDb2dVertex
 10
17.47424671274025
 20
-24.47987519879777
 30
0.0
  0
VERTEX
  5
121
330
E0
100
AcDbEntity
  8
Layer 1
 62
    22
420
 15540004
370
    25
100
AcDbVertex
100
AcDb2dVertex
 10
17.4609887290399
 20
-24.45305029550554
 30
0.0
  0
VERTEX
  5
122
330
E0
100
AcDbEntity
  8
Layer 1
 62
    22
420
 15540004
370
    25
100
AcDbVertex
100
AcDb2dVertex
 10
17.43099563952658
 20
-24.3915983296313
 30
0.0
  0
VERTEX
  5
123
330
E0
100
AcDbEntity
  8
Layer 1
 62
    22
420
 15540004
370
    25
100
AcDbVertex
100
AcDb2dVertex
 10
17.40247779587485
 20
-24.32949746706175
 30
0.0
  0
VERTEX
  5
124
330
E0
100
AcDbEntity
  8
Layer 1
 62
    22
420
 15540004
370
    25
100
AcDbVertex
100
AcDb2dVertex
 10
17.34725565580361
 20
-24.20463368278016
 30
0.0
  0
VERTEX
  5
125
330
E0
100
AcDbEntity
  8
Layer 1
 62
    22
420
 15540004
370
    25
100
AcDbVertex
100
AcDb2dVertex
 10
17.31924525007526
 20
-24.1425130760113
 30
0.0
  0
VERTEX
  5
126
330
E0
100
AcDbEntity
  8
Layer 1
 62
    22
420
 15540004
370
    25
100
AcDbVertex
100
AcDb2dVertex
 10
17.29009789879845
 20
-24.08102823175497
 30
0.0
  0
VERTEX
  5
127
330
E0
100
AcDbEntity
  8
Layer 1
 62
    22
420
 15540004
370
    25
100
AcDbVertex
100
AcDb2dVertex
 10
17.25916053371525
 20
-24.02050029282208
 30
0.0
  0
VERTEX
  5
128
330
E0
100
AcDbEntity
  8
Layer 1
 62
    22
420
 15540004
370
    25
100
AcDbVertex
100
AcDb2dVertex
 10
17.22578012843547
 20
-23.96125041774103
 30
0.0
  0
VERTEX
  5
129
330
E0
100
AcDbEntity
  8
Layer 1
 62
    22
420
 15540004
370
    25
100
AcDbVertex
100
AcDb2dVertex
 10
16.93504222046679
 20
-23.46387129215759
 30
0.0
  0
VERTEX
  5
12A
330
E0
100
AcDbEntity
  8
Layer 1
 62
    22
420
 15540004
370
    25
100
AcDbVertex
100
AcDb2dVertex
 10
16.7903810960097
 20
-23.2151179300646
 30
0.0
  0
VERTEX
  5
12B
330
E0
100
AcDbEntity
  8
Layer 1
 62
    22
420
 15540004
370
    25
100
AcDbVertex
100
AcDb2dVertex
 10
16.64738599349468
 20
-22.96554784374805
 30
0.0
  0
VERTEX
  5
12C
330
E0
100
AcDbEntity
  8
Layer 1
 62
    22
420
 15540004
370
    25
100
AcDbVertex
100
AcDb2dVertex
 10
16.18233560222552
 20
-22.1739166857353
 30
0.0
  0
VERTEX
  5
12D
330
E0
100
AcDbEntity
  8
Layer 1
 62
    22
420
 15540004
370
    25
100
AcDbVertex
100
AcDb2dVertex
 10
16.12897565755803
 20
-22.07998319548498
 30
0.0
  0
VERTEX
  5
12E
330
E0
100
AcDbEntity
  8
Layer 1
 62
    22
420
 15540004
370
    25
100
AcDbVertex
100
AcDb2dVertex
 10
16.0747826397515
 20
-21.98676645916695
 30
0.0
  0
VERTEX
  5
12F
330
E0
100
AcDbEntity
  8
Layer 1
 62
    22
420
 15540004
370
    25
100
AcDbVertex
100
AcDb2dVertex
 10
16.02141992474763
 20
-21.89329344340962
 30
0.0
  0
VERTEX
  5
130
330
E0
100
AcDbEntity
  8
Layer 1
 62
    22
420
 15540004
370
    25
100
AcDbVertex
100
AcDb2dVertex
 10
15.97055087277062
 20
-21.79859115671014
 30
0.0
  0
VERTEX
  5
131
330
E0
100
AcDbEntity
  8
Layer 1
 62
    22
420
 15540004
370
    25
100
AcDbVertex
100
AcDb2dVertex
 10
15.51119563387596
 20
-21.02240686145074
 30
0.0
  0
VERTEX
  5
132
330
E0
100
AcDbEntity
  8
Layer 1
 62
    22
420
 15540004
370
    25
100
AcDbVertex
100
AcDb2dVertex
 10
15.44855376726339
 20
-20.91054861869452
 30
0.0
  0
VERTEX
  5
133
330
E0
100
AcDbEntity
  8
Layer 1
 62
    22
420
 15540004
370
    25
100
AcDbVertex
100
AcDb2dVertex
 10
15.38450174293803
 20
-20.79938233712488
 30
0.0
  0
VERTEX
  5
134
330
E0
100
AcDbEntity
  8
Layer 1
 62
    22
420
 15540004
370
    25
100
AcDbVertex
100
AcDb2dVertex
 10
15.25449306330635
 20
-20.57819324755888
 30
0.0
  0
VERTEX
  5
135
330
E0
100
AcDbEntity
  8
Layer 1
 62
    22
420
 15540004
370
    25
100
AcDbVertex
100
AcDb2dVertex
 10
14.8176679873326
 20
-19.82256594262415
 30
0.0
  0
VERTEX
  5
136
330
E0
100
AcDbEntity
  8
Layer 1
 62
    22
420
 15540004
370
    25
100
AcDbVertex
100
AcDb2dVertex
 10
14.79219538245858
 20
-19.7841934734476
 30
0.0
  0
VERTEX
  5
137
330
E0
100
AcDbEntity
  8
Layer 1
 62
    22
420
 15540004
370
    25
100
AcDbVertex
100
AcDb2dVertex
 10
14.76825936532355
 20
-19.74130156878959
 30
0.0
  0
VERTEX
  5
138
330
E0
100
AcDbEntity
  8
Layer 1
 62
    22
420
 15540004
370
    25
100
AcDbVertex
100
AcDb2dVertex
 10
14.74426978484982
 20
-19.69682430275376
 30
0.0
  0
VERTEX
  5
139
330
E0
100
AcDbEntity
  8
Layer 1
 62
    22
420
 15540004
370
    25
100
AcDbVertex
100
AcDb2dVertex
 10
14.71863648784524
 20
-19.65369580597227
 30
0.0
  0
VERTEX
  5
13A
330
E0
100
AcDbEntity
  8
Layer 1
 62
    22
420
 15540004
370
    25
100
AcDbVertex
100
AcDb2dVertex
 10
14.7047065212605
 20
-19.63355427862348
 30
0.0
  0
VERTEX
  5
13B
330
E0
100
AcDbEntity
  8
Layer 1
 62
    22
420
 15540004
370
    25
100
AcDbVertex
100
AcDb2dVertex
 10
14.68976930645694
 20
-19.61485022268112
 30
0.0
  0
VERTEX
  5
13C
330
E0
100
AcDbEntity
  8
Layer 1
 62
    22
420
 15540004
370
    25
100
AcDbVertex
100
AcDb2dVertex
 10
14.67362608932591
 20
-19.5979504280339
 30
0.0
  0
VERTEX
  5
13D
330
E0
100
AcDbEntity
  8
Layer 1
 62
    22
420
 15540004
370
    25
100
AcDbVertex
100
AcDb2dVertex
 10
14.65607808855035
 20
-19.58322165524853
 30
0.0
  0
VERTEX
  5
13E
330
E0
100
AcDbEntity
  8
Layer 1
 62
    22
420
 15540004
370
    25
100
AcDbVertex
100
AcDb2dVertex
 10
14.63692655107838
 20
-19.57103066594901
 30
0.0
  0
VERTEX
  5
13F
330
E0
100
AcDbEntity
  8
Layer 1
 62
    22
420
 15540004
370
    25
100
AcDbVertex
100
AcDb2dVertex
 10
14.61597269559383
 20
-19.5617442207027
 30
0.0
  0
VERTEX
  5
140
330
E0
100
AcDbEntity
  8
Layer 1
 62
    22
420
 15540004
370
    25
100
AcDbVertex
100
AcDb2dVertex
 10
14.59301774077979
 20
-19.55572908007636
 30
0.0
  0
VERTEX
  5
141
330
E0
100
AcDbEntity
  8
Layer 1
 62
    22
420
 15540004
370
    25
100
AcDbVertex
100
AcDb2dVertex
 10
14.56786293252738
 20
-19.55335203395854
 30
0.0
  0
VERTEX
  5
142
330
E0
100
AcDbEntity
  8
Layer 1
 62
    22
420
 15540004
370
    25
100
AcDbVertex
100
AcDb2dVertex
 10
14.49710978941271
 20
-19.57540661705376
 30
0.0
  0
VERTEX
  5
143
330
E0
100
AcDbEntity
  8
Layer 1
 62
    22
420
 15540004
370
    25
100
AcDbVertex
100
AcDb2dVertex
 10
14.42722311829771
 20
-19.6001091959956
 30
0.0
  0
VERTEX
  5
144
330
E0
100
AcDbEntity
  8
Layer 1
 62
    22
420
 15540004
370
    25
100
AcDbVertex
100
AcDb2dVertex
 10
14.28868079611271
 20
-19.65316734654152
 30
0.0
  0
VERTEX
  5
145
330
E0
100
AcDbEntity
  8
Layer 1
 62
    22
420
 15540004
370
    25
100
AcDbVertex
100
AcDb2dVertex
 10
14.21934098318894
 20
-19.67937740082956
 30
0.0
  0
VERTEX
  5
146
330
E0
100
AcDbEntity
  8
Layer 1
 62
    22
420
 15540004
370
    25
100
AcDbVertex
100
AcDb2dVertex
 10
14.14949928817926
 20
-19.70394447180459
 30
0.0
  0
VERTEX
  5
147
330
E0
100
AcDbEntity
  8
Layer 1
 62
    22
420
 15540004
370
    25
100
AcDbVertex
100
AcDb2dVertex
 10
14.07881360975105
 20
-19.72579577881728
 30
0.0
  0
VERTEX
  5
148
330
E0
100
AcDbEntity
  8
Layer 1
 62
    22
420
 15540004
370
    25
100
AcDbVertex
100
AcDb2dVertex
 10
14.00694188738326
 20
-19.74385858520094
 30
0.0
  0
VERTEX
  5
149
330
E0
100
AcDbEntity
  8
Layer 1
 62
    22
420
 15540004
370
    25
100
AcDbVertex
100
AcDb2dVertex
 10
13.96786051269641
 20
-19.75091044105782
 30
0.0
  0
VERTEX
  5
14A
330
E0
100
AcDbEntity
  8
Layer 1
 62
    22
420
 15540004
370
    25
100
AcDbVertex
100
AcDb2dVertex
 10
13.92869361681187
 20
-19.75636716432859
 30
0.0
  0
VERTEX
  5
14B
330
E0
100
AcDbEntity
  8
Layer 1
 62
    22
420
 15540004
370
    25
100
AcDbVertex
100
AcDb2dVertex
 10
13.88947547506228
 20
-19.76025678410125
 30
0.0
  0
VERTEX
  5
14C
330
E0
100
AcDbEntity
  8
Layer 1
 62
    22
420
 15540004
370
    25
100
AcDbVertex
100
AcDb2dVertex
 10
13.85024036172328
 20
-19.76260735772823
 30
0.0
  0
VERTEX
  5
14D
330
E0
100
AcDbEntity
  8
Layer 1
 62
    22
420
 15540004
370
    25
100
AcDbVertex
100
AcDb2dVertex
 10
13.77185636347614
 20
-19.76280349861486
 30
0.0
  0
VERTEX
  5
14E
330
E0
100
AcDbEntity
  8
Layer 1
 62
    22
420
 15540004
370
    25
100
AcDbVertex
100
AcDb2dVertex
 10
13.69381583304989
 20
-19.75717997567472
 30
0.0
  0
VERTEX
  5
14F
330
E0
100
AcDbEntity
  8
Layer 1
 62
    22
420
 15540004
370
    25
100
AcDbVertex
100
AcDb2dVertex
 10
13.61639296887784
 20
-19.74596113466956
 30
0.0
  0
VERTEX
  5
150
330
E0
100
AcDbEntity
  8
Layer 1
 62
    22
420
 15540004
370
    25
100
AcDbVertex
100
AcDb2dVertex
 10
13.53986196727914
 20
-19.72937137788992
 30
0.0
  0
VERTEX
  5
151
330
E0
100
AcDbEntity
  8
Layer 1
 62
    22
420
 15540004
370
    25
100
AcDbVertex
100
AcDb2dVertex
 10
13.46449704240427
 20
-19.7076350092287
 30
0.0
  0
VERTEX
  5
152
330
E0
100
AcDbEntity
  8
Layer 1
 62
    22
420
 15540004
370
    25
100
AcDbVertex
100
AcDb2dVertex
 10
13.39057239057239
 20
-19.68097643097644
 30
0.0
  0
VERTEX
  5
153
330
E0
100
AcDbEntity
  8
Layer 1
 62
    22
420
 15540004
370
    25
100
AcDbVertex
100
AcDb2dVertex
 10
13.31836225208518
 20
-19.64962000461254
 30
0.0
  0
VERTEX
  5
154
330
E0
100
AcDbEntity
  8
Layer 1
 62
    22
420
 15540004
370
    25
100
AcDbVertex
100
AcDb2dVertex
 10
13.24814081177151
 20
-19.61379006123755
 30
0.0
  0
VERTEX
  5
155
330
E0
100
AcDbEntity
  8
Layer 1
 62
    22
420
 15540004
370
    25
100
AcDbVertex
100
AcDb2dVertex
 10
13.18018225234704
 20
-19.57371098848133
 30
0.0
  0
VERTEX
  5
156
330
E0
100
AcDbEntity
  8
Layer 1
 62
    22
420
 15540004
370
    25
100
AcDbVertex
100
AcDb2dVertex
 10
13.11476082771661
 20
-19.52960716248362
 30
0.0
  0
VERTEX
  5
157
330
E0
100
AcDbEntity
  8
Layer 1
 62
    22
420
 15540004
370
    25
100
AcDbVertex
100
AcDb2dVertex
 10
13.05215069444512
 20
-19.48170291328825
 30
0.0
  0
VERTEX
  5
158
330
E0
100
AcDbEntity
  8
Layer 1
 62
    22
420
 15540004
370
    25
100
AcDbVertex
100
AcDb2dVertex
 10
12.99262612004142
 20
-19.43022263169587
 30
0.0
  0
VERTEX
  5
159
330
E0
100
AcDbEntity
  8
Layer 1
 62
    22
420
 15540004
370
    25
100
AcDbVertex
100
AcDb2dVertex
 10
12.93646124640958
 20
-19.37539066135408
 30
0.0
  0
VERTEX
  5
15A
330
E0
100
AcDbEntity
  8
Layer 1
 62
    22
420
 15540004
370
    25
100
AcDbVertex
100
AcDb2dVertex
 10
12.88393034211539
 20
-19.31743136479887
 30
0.0
  0
VERTEX
  5
15B
330
E0
100
AcDbEntity
  8
Layer 1
 62
    22
420
 15540004
370
    25
100
AcDbVertex
100
AcDb2dVertex
 10
12.81968055395098
 20
-19.25643784410694
 30
0.0
  0
VERTEX
  5
15C
330
E0
100
AcDbEntity
  8
Layer 1
 62
    22
420
 15540004
370
    25
100
AcDbVertex
100
AcDb2dVertex
 10
12.75394942206064
 20
-19.19703247514957
 30
0.0
  0
VERTEX
  5
15D
330
E0
100
AcDbEntity
  8
Layer 1
 62
    22
420
 15540004
370
    25
100
AcDbVertex
100
AcDb2dVertex
 10
12.61947016045461
 20
-19.08142098810044
 30
0.0
  0
VERTEX
  5
15E
330
E0
100
AcDbEntity
  8
Layer 1
 62
    22
420
 15540004
370
    25
100
AcDbVertex
100
AcDb2dVertex
 10
12.48334665015368
 20
-18.96746655256227
 30
0.0
  0
VERTEX
  5
15F
330
E0
100
AcDbEntity
  8
Layer 1
 62
    22
420
 15540004
370
    25
100
AcDbVertex
100
AcDb2dVertex
 10
12.34843291388112
 20
-18.85203880067095
 30
0.0
  0
VERTEX
  5
160
330
E0
100
AcDbEntity
  8
Layer 1
 62
    22
420
 15540004
370
    25
100
AcDbVertex
100
AcDb2dVertex
 10
6.454742409405917
 20
-13.84555912144381
 30
0.0
  0
VERTEX
  5
161
330
E0
100
AcDbEntity
  8
Layer 1
 62
    22
420
 15540004
370
    25
100
AcDbVertex
100
AcDb2dVertex
 10
4.791961904762817
 20
-15.38846248483626
 30
0.0
  0
VERTEX
  5
162
330
E0
100
AcDbEntity
  8
Layer 1
 62
    22
420
 15540004
370
    25
100
AcDbVertex
100
AcDb2dVertex
 10
5.847770937028498
 20
-16.23430980699927
 30
0.0
  0
VERTEX
  5
163
330
E0
100
AcDbEntity
  8
Layer 1
 62
    22
420
 15540004
370
    25
100
AcDbVertex
100
AcDb2dVertex
 10
8.81319077406052
 20
-18.61155374156912
 30
0.0
  0
VERTEX
  5
164
330
E0
100
AcDbEntity
  8
Layer 1
 62
    22
420
 15540004
370
    25
100
AcDbVertex
100
AcDb2dVertex
 10
11.776474020514
 20
-20.99117546320738
 30
0.0
  0
VERTEX
  5
165
330
E0
100
AcDbEntity
  8
Layer 1
 62
    22
420
 15540004
370
    25
100
AcDbVertex
100
AcDb2dVertex
 10
11.82117460499025
 20
-21.15774336445202
 30
0.0
  0
VERTEX
  5
166
330
E0
100
AcDbEntity
  8
Layer 1
 62
    22
420
 15540004
370
    25
100
AcDbVertex
100
AcDb2dVertex
 10
11.86267654252208
 20
-21.3261346980043
 30
0.0
  0
VERTEX
  5
167
330
E0
100
AcDbEntity
  8
Layer 1
 62
    22
420
 15540004
370
    25
100
AcDbVertex
100
AcDb2dVertex
 10
11.88161727858778
 20
-21.41091722364624
 30
0.0
  0
VERTEX
  5
168
330
E0
100
AcDbEntity
  8
Layer 1
 62
    22
420
 15540004
370
    25
100
AcDbVertex
100
AcDb2dVertex
 10
11.89902545978339
 20
-21.49603927629545
 30
0.0
  0
VERTEX
  5
169
330
E0
100
AcDbEntity
  8
Layer 1
 62
    22
420
 15540004
370
    25
100
AcDbVertex
100
AcDb2dVertex
 10
11.91465684177895
 20
-21.58146210215336
 30
0.0
  0
VERTEX
  5
16A
330
E0
100
AcDbEntity
  8
Layer 1
 62
    22
420
 15540004
370
    25
100
AcDbVertex
100
AcDb2dVertex
 10
11.92826708290339
 20
-21.66714690132459
 30
0.0
  0
VERTEX
  5
16B
330
E0
100
AcDbEntity
  8
Layer 1
 62
    22
420
 15540004
370
    25
100
AcDbVertex
100
AcDb2dVertex
 10
11.93961191056206
 20
-21.75305491895341
 30
0.0
  0
VERTEX
  5
16C
330
E0
100
AcDbEntity
  8
Layer 1
 62
    22
420
 15540004
370
    25
100
AcDbVertex
100
AcDb2dVertex
 10
11.94844703961327
 20
-21.83914735725873
 30
0.0
  0
VERTEX
  5
16D
330
E0
100
AcDbEntity
  8
Layer 1
 62
    22
420
 15540004
370
    25
100
AcDbVertex
100
AcDb2dVertex
 10
11.95452815453691
 20
-21.92538547393145
 30
0.0
  0
VERTEX
  5
16E
330
E0
100
AcDbEntity
  8
Layer 1
 62
    22
420
 15540004
370
    25
100
AcDbVertex
100
AcDb2dVertex
 10
11.95761099845575
 20
-22.01173047224726
 30
0.0
  0
VERTEX
  5
16F
330
E0
100
AcDbEntity
  8
Layer 1
 62
    22
420
 15540004
370
    25
100
AcDbVertex
100
AcDb2dVertex
 10
11.95745127156744
 20
-22.09814356802892
 30
0.0
  0
VERTEX
  5
170
330
E0
100
AcDbEntity
  8
Layer 1
 62
    22
420
 15540004
370
    25
100
AcDbVertex
100
AcDb2dVertex
 10
11.95380465835199
 20
-22.18458601896747
 30
0.0
  0
VERTEX
  5
171
330
E0
100
AcDbEntity
  8
Layer 1
 62
    22
420
 15540004
370
    25
100
AcDbVertex
100
AcDb2dVertex
 10
11.946426901932
 20
-22.27101902833841
 30
0.0
  0
VERTEX
  5
172
330
E0
100
AcDbEntity
  8
Layer 1
 62
    22
420
 15540004
370
    25
100
AcDbVertex
100
AcDb2dVertex
 10
11.93507367318388
 20
-22.35740383917235
 30
0.0
  0
VERTEX
  5
173
330
E0
100
AcDbEntity
  8
Layer 1
 62
    22
420
 15540004
370
    25
100
AcDbVertex
100
AcDb2dVertex
 10
11.92457435045041
 20
-22.43636317955805
 30
0.0
  0
VERTEX
  5
174
330
E0
100
AcDbEntity
  8
Layer 1
 62
    22
420
 15540004
370
    25
100
AcDbVertex
100
AcDb2dVertex
 10
11.90998988592533
 20
-22.51473139557659
 30
0.0
  0
VERTEX
  5
175
330
E0
100
AcDbEntity
  8
Layer 1
 62
    22
420
 15540004
370
    25
100
AcDbVertex
100
AcDb2dVertex
 10
11.89273162890662
 20
-22.59272585322204
 30
0.0
  0
VERTEX
  5
176
330
E0
100
AcDbEntity
  8
Layer 1
 62
    22
420
 15540004
370
    25
100
AcDbVertex
100
AcDb2dVertex
 10
11.87421098522078
 20
-22.67056392060156
 30
0.0
  0
VERTEX
  5
177
330
E0
100
AcDbEntity
  8
Layer 1
 62
    22
420
 15540004
370
    25
100
AcDbVertex
100
AcDb2dVertex
 10
11.85583930416581
 20
-22.74846296370927
 30
0.0
  0
VERTEX
  5
178
330
E0
100
AcDbEntity
  8
Layer 1
 62
    22
420
 15540004
370
    25
100
AcDbVertex
100
AcDb2dVertex
 10
11.83902797690779
 20
-22.82664036425654
 30
0.0
  0
VERTEX
  5
179
330
E0
100
AcDbEntity
  8
Layer 1
 62
    22
420
 15540004
370
    25
100
AcDbVertex
100
AcDb2dVertex
 10
11.8251883527445
 20
-22.90531348823712
 30
0.0
  0
VERTEX
  5
17A
330
E0
100
AcDbEntity
  8
Layer 1
 62
    22
420
 15540004
370
    25
100
AcDbVertex
100
AcDb2dVertex
 10
11.81573183644583
 20
-22.9846997320233
 30
0.0
  0
VERTEX
  5
17B
330
E0
100
AcDbEntity
  8
Layer 1
 62
    22
420
 15540004
370
    25
100
AcDbVertex
100
AcDb2dVertex
 10
11.8342857871357
 20
-23.01820366202936
 30
0.0
  0
VERTEX
  5
17C
330
E0
100
AcDbEntity
  8
Layer 1
 62
    22
420
 15540004
370
    25
100
AcDbVertex
100
AcDb2dVertex
 10
11.85466634050442
 20
-23.05052119276012
 30
0.0
  0
VERTEX
  5
17D
330
E0
100
AcDbEntity
  8
Layer 1
 62
    22
420
 15540004
370
    25
100
AcDbVertex
100
AcDb2dVertex
 10
11.87673661261125
 20
-23.08170507308879
 30
0.0
  0
VERTEX
  5
17E
330
E0
100
AcDbEntity
  8
Layer 1
 62
    22
420
 15540004
370
    25
100
AcDbVertex
100
AcDb2dVertex
 10
11.90035968702332
 20
-23.11180816388989
 30
0.0
  0
VERTEX
  5
17F
330
E0
100
AcDbEntity
  8
Layer 1
 62
    22
420
 15540004
370
    25
100
AcDbVertex
100
AcDb2dVertex
 10
11.92539872061124
 20
-23.14088325801893
 30
0.0
  0
VERTEX
  5
180
330
E0
100
AcDbEntity
  8
Layer 1
 62
    22
420
 15540004
370
    25
100
AcDbVertex
100
AcDb2dVertex
 10
11.95171677079164
 20
-23.16898315876445
 30
0.0
  0
VERTEX
  5
181
330
E0
100
AcDbEntity
  8
Layer 1
 62
    22
420
 15540004
370
    25
100
AcDbVertex
100
AcDb2dVertex
 10
12.00764243006981
 20
-23.22246868862213
 30
0.0
  0
VERTEX
  5
182
330
E0
100
AcDbEntity
  8
Layer 1
 62
    22
420
 15540004
370
    25
100
AcDbVertex
100
AcDb2dVertex
 10
12.06704156070403
 20
-23.27268723855031
 30
0.0
  0
VERTEX
  5
183
330
E0
100
AcDbEntity
  8
Layer 1
 62
    22
420
 15540004
370
    25
100
AcDbVertex
100
AcDb2dVertex
 10
12.12881900306863
 20
-23.32006126325819
 30
0.0
  0
VERTEX
  5
184
330
E0
100
AcDbEntity
  8
Layer 1
 62
    22
420
 15540004
370
    25
100
AcDbVertex
100
AcDb2dVertex
 10
12.19187968021732
 20
-23.36501327715463
 30
0.0
  0
VERTEX
  5
185
330
E0
100
AcDbEntity
  8
Layer 1
 62
    22
420
 15540004
370
    25
100
AcDbVertex
100
AcDb2dVertex
 10
12.2551284168065
 20
-23.40796577681686
 30
0.0
  0
SEQEND
  5
186
330
E0
100
AcDbEntity
  8
Layer 1
 62
    22
420
 15540004
370
    25
  0
POLYLINE
  5
187
330
1F
100
AcDbEntity
  8
Layer 1
 62
    22
420
 15540004
370
    25
100
AcDb2dPolyline
 66
     1
 10
0.0
 20
0.0
 30
0.0
  0
VERTEX
  5
188
330
187
100
AcDbEntity
  8
Layer 1
 62
    22
420
 15540004
370
    25
100
AcDbVertex
100
AcDb2dVertex
 10
14.58535729219733
 20
-35.19782256633471
 30
0.0
  0
VERTEX
  5
189
330
187
100
AcDbEntity
  8
Layer 1
 62
    22
420
 15540004
370
    25
100
AcDbVertex
100
AcDb2dVertex
 10
23.52107599749047
 20
-33.75298616492773
 30
0.0
  0
VERTEX
  5
18A
330
187
100
AcDbEntity
  8
Layer 1
 62
    22
420
 15540004
370
    25
100
AcDbVertex
100
AcDb2dVertex
 10
23.60404402694076
 20
-20.04966582883331
 30
0.0
  0
VERTEX
  5
18B
330
187
100
AcDbEntity
  8
Layer 1
 62
    22
420
 15540004
370
    25
100
AcDbVertex
100
AcDb2dVertex
 10
23.60471774750156
 20
-19.8791648677453
 30
0.0
  0
VERTEX
  5
18C
330
187
100
AcDbEntity
  8
Layer 1
 62
    22
420
 15540004
370
    25
100
AcDbVertex
100
AcDb2dVertex
 10
23.60296397806087
 20
-19.70867453627463
 30
0.0
  0
VERTEX
  5
18D
330
187
100
AcDbEntity
  8
Layer 1
 62
    22
420
 15540004
370
    25
100
AcDbVertex
100
AcDb2dVertex
 10
23.59910355405686
 20
-19.53820975432882
 30
0.0
  0
VERTEX
  5
18E
330
187
100
AcDbEntity
  8
Layer 1
 62
    22
420
 15540004
370
    25
100
AcDbVertex
100
AcDb2dVertex
 10
23.59345723892736
 20
-19.36778537241803
 30
0.0
  0
VERTEX
  5
18F
330
187
100
AcDbEntity
  8
Layer 1
 62
    22
420
 15540004
370
    25
100
AcDbVertex
100
AcDb2dVertex
 10
23.57809009355621
 20
-19.0271173559219
 30
0.0
  0
VERTEX
  5
190
330
187
100
AcDbEntity
  8
Layer 1
 62
    22
420
 15540004
370
    25
100
AcDbVertex
100
AcDb2dVertex
 10
23.55942879286113
 20
-18.6867895513166
 30
0.0
  0
VERTEX
  5
191
330
187
100
AcDbEntity
  8
Layer 1
 62
    22
420
 15540004
370
    25
100
AcDbVertex
100
AcDb2dVertex
 10
23.55676129754005
 20
-18.65267698281872
 30
0.0
  0
VERTEX
  5
192
330
187
100
AcDbEntity
  8
Layer 1
 62
    22
420
 15540004
370
    25
100
AcDbVertex
100
AcDb2dVertex
 10
23.55139786166877
 20
-18.61945746868698
 30
0.0
  0
VERTEX
  5
193
330
187
100
AcDbEntity
  8
Layer 1
 62
    22
420
 15540004
370
    25
100
AcDbVertex
100
AcDb2dVertex
 10
23.5436111209867
 20
-18.58704354964695
 30
0.0
  0
VERTEX
  5
194
330
187
100
AcDbEntity
  8
Layer 1
 62
    22
420
 15540004
370
    25
100
AcDbVertex
100
AcDb2dVertex
 10
23.53367361890039
 20
-18.55534782187331
 30
0.0
  0
VERTEX
  5
195
330
187
100
AcDbEntity
  8
Layer 1
 62
    22
420
 15540004
370
    25
100
AcDbVertex
100
AcDb2dVertex
 10
23.52185797459841
 20
-18.52428284902751
 30
0.0
  0
VERTEX
  5
196
330
187
100
AcDbEntity
  8
Layer 1
 62
    22
420
 15540004
370
    25
100
AcDbVertex
100
AcDb2dVertex
 10
23.50843676778196
 20
-18.49376120115597
 30
0.0
  0
VERTEX
  5
197
330
187
100
AcDbEntity
  8
Layer 1
 62
    22
420
 15540004
370
    25
100
AcDbVertex
100
AcDb2dVertex
 10
23.47786802111631
 20
-18.43399825604633
 30
0.0
  0
VERTEX
  5
198
330
187
100
AcDbEntity
  8
Layer 1
 62
    22
420
 15540004
370
    25
100
AcDbVertex
100
AcDb2dVertex
 10
23.44414813816762
 20
-18.37535954750415
 30
0.0
  0
VERTEX
  5
199
330
187
100
AcDbEntity
  8
Layer 1
 62
    22
420
 15540004
370
    25
100
AcDbVertex
100
AcDb2dVertex
 10
23.40945778586698
 20
-18.31714569193824
 30
0.0
  0
VERTEX
  5
19A
330
187
100
AcDbEntity
  8
Layer 1
 62
    22
420
 15540004
370
    25
100
AcDbVertex
100
AcDb2dVertex
 10
23.37597772986328
 20
-18.25865728979564
 30
0.0
  0
VERTEX
  5
19B
330
187
100
AcDbEntity
  8
Layer 1
 62
    22
420
 15540004
370
    25
100
AcDbVertex
100
AcDb2dVertex
 10
23.34588865363869
 20
-18.19919493454919
 30
0.0
  0
VERTEX
  5
19C
330
187
100
AcDbEntity
  8
Layer 1
 62
    22
420
 15540004
370
    25
100
AcDbVertex
100
AcDb2dVertex
 10
23.33259449023815
 20
-18.17195306335066
 30
0.0
  0
VERTEX
  5
19D
330
187
100
AcDbEntity
  8
Layer 1
 62
    22
420
 15540004
370
    25
100
AcDbVertex
100
AcDb2dVertex
 10
23.31718669983992
 20
-18.14673210025828
 30
0.0
  0
VERTEX
  5
19E
330
187
100
AcDbEntity
  8
Layer 1
 62
    22
420
 15540004
370
    25
100
AcDbVertex
100
AcDb2dVertex
 10
23.29985996282747
 20
-18.12335966017859
 30
0.0
  0
VERTEX
  5
19F
330
187
100
AcDbEntity
  8
Layer 1
 62
    22
420
 15540004
370
    25
100
AcDbVertex
100
AcDb2dVertex
 10
23.28080897235433
 20
-18.10166343699257
 30
0.0
  0
VERTEX
  5
1A0
330
187
100
AcDbEntity
  8
Layer 1
 62
    22
420
 15540004
370
    25
100
AcDbVertex
100
AcDb2dVertex
 10
23.2602283890605
 20
-18.08147104879911
 30
0.0
  0
VERTEX
  5
1A1
330
187
100
AcDbEntity
  8
Layer 1
 62
    22
420
 15540004
370
    25
100
AcDbVertex
100
AcDb2dVertex
 10
23.23831288316342
 20
-18.06261017292799
 30
0.0
  0
VERTEX
  5
1A2
330
187
100
AcDbEntity
  8
Layer 1
 62
    22
420
 15540004
370
    25
100
AcDbVertex
100
AcDb2dVertex
 10
23.19125585760715
 20
-18.0281934935609
 30
0.0
  0
VERTEX
  5
1A3
330
187
100
AcDbEntity
  8
Layer 1
 62
    22
420
 15540004
370
    25
100
AcDbVertex
100
AcDb2dVertex
 10
23.14119531085922
 20
-17.99703464681079
 30
0.0
  0
VERTEX
  5
1A4
330
187
100
AcDbEntity
  8
Layer 1
 62
    22
420
 15540004
370
    25
100
AcDbVertex
100
AcDb2dVertex
 10
23.08968861222136
 20
-17.96775484749481
 30
0.0
  0
VERTEX
  5
1A5
330
187
100
AcDbEntity
  8
Layer 1
 62
    22
420
 15540004
370
    25
100
AcDbVertex
100
AcDb2dVertex
 10
23.03829322652076
 20
-17.93897527472455
 30
0.0
  0
VERTEX
  5
1A6
330
187
100
AcDbEntity
  8
Layer 1
 62
    22
420
 15540004
370
    25
100
AcDbVertex
100
AcDb2dVertex
 10
22.98856652944401
 20
-17.90931718280424
 30
0.0
  0
VERTEX
  5
1A7
330
187
100
AcDbEntity
  8
Layer 1
 62
    22
420
 15540004
370
    25
100
AcDbVertex
100
AcDb2dVertex
 10
22.95542216786407
 20
-17.88778912451964
 30
0.0
  0
VERTEX
  5
1A8
330
187
100
AcDbEntity
  8
Layer 1
 62
    22
420
 15540004
370
    25
100
AcDbVertex
100
AcDb2dVertex
 10
22.92138585408735
 20
-17.86845231615792
 30
0.0
  0
VERTEX
  5
1A9
330
187
100
AcDbEntity
  8
Layer 1
 62
    22
420
 15540004
370
    25
100
AcDbVertex
100
AcDb2dVertex
 10
22.88653571623392
 20
-17.85114491170967
 30
0.0
  0
VERTEX
  5
1AA
330
187
100
AcDbEntity
  8
Layer 1
 62
    22
420
 15540004
370
    25
100
AcDbVertex
100
AcDb2dVertex
 10
22.85094997794918
 20
-17.83570502945991
 30
0.0
  0
VERTEX
  5
1AB
330
187
100
AcDbEntity
  8
Layer 1
 62
    22
420
 15540004
370
    25
100
AcDbVertex
100
AcDb2dVertex
 10
22.81470674441713
 20
-17.82197080684806
 30
0.0
  0
VERTEX
  5
1AC
330
187
100
AcDbEntity
  8
Layer 1
 62
    22
420
 15540004
370
    25
100
AcDbVertex
100
AcDb2dVertex
 10
22.77788420618086
 20
-17.8097804080312
 30
0.0
  0
VERTEX
  5
1AD
330
187
100
AcDbEntity
  8
Layer 1
 62
    22
420
 15540004
370
    25
100
AcDbVertex
100
AcDb2dVertex
 10
22.70281389299844
 20
-17.78938359003892
 30
0.0
  0
VERTEX
  5
1AE
330
187
100
AcDbEntity
  8
Layer 1
 62
    22
420
 15540004
370
    25
100
AcDbVertex
100
AcDb2dVertex
 10
22.62636432380974
 20
-17.77321966399663
 30
0.0
  0
VERTEX
  5
1AF
330
187
100
AcDbEntity
  8
Layer 1
 62
    22
420
 15540004
370
    25
100
AcDbVertex
100
AcDb2dVertex
 10
22.54916081334348
 20
-17.75999377445618
 30
0.0
  0
VERTEX
  5
1B0
330
187
100
AcDbEntity
  8
Layer 1
 62
    22
420
 15540004
370
    25
100
AcDbVertex
100
AcDb2dVertex
 10
22.39499321212048
 20
-17.7371764627165
 30
0.0
  0
VERTEX
  5
1B1
330
187
100
AcDbEntity
  8
Layer 1
 62
    22
420
 15540004
370
    25
100
AcDbVertex
100
AcDb2dVertex
 10
22.28779841584999
 20
-17.74693043075782
 30
0.0
  0
VERTEX
  5
1B2
330
187
100
AcDbEntity
  8
Layer 1
 62
    22
420
 15540004
370
    25
100
AcDbVertex
100
AcDb2dVertex
 10
22.1809833772922
 20
-17.76186341058841
 30
0.0
  0
VERTEX
  5
1B3
330
187
100
AcDbEntity
  8
Layer 1
 62
    22
420
 15540004
370
    25
100
AcDbVertex
100
AcDb2dVertex
 10
22.07480762101601
 20
-17.78100995768692
 30
0.0
  0
VERTEX
  5
1B4
330
187
100
AcDbEntity
  8
Layer 1
 62
    22
420
 15540004
370
    25
100
AcDbVertex
100
AcDb2dVertex
 10
21.96953076652656
 20
-17.8034047134804
 30
0.0
  0
VERTEX
  5
1B5
330
187
100
AcDbEntity
  8
Layer 1
 62
    22
420
 15540004
370
    25
100
AcDbVertex
100
AcDb2dVertex
 10
21.93533140930827
 20
-17.82482966088898
 30
0.0
  0
VERTEX
  5
1B6
330
187
100
AcDbEntity
  8
Layer 1
 62
    22
420
 15540004
370
    25
100
AcDbVertex
100
AcDb2dVertex
 10
21.90318940178273
 20
-17.84896888034928
 30
0.0
  0
VERTEX
  5
1B7
330
187
100
AcDbEntity
  8
Layer 1
 62
    22
420
 15540004
370
    25
100
AcDbVertex
100
AcDb2dVertex
 10
21.87267879599954
 20
-17.87523543516684
 30
0.0
  0
VERTEX
  5
1B8
330
187
100
AcDbEntity
  8
Layer 1
 62
    22
420
 15540004
370
    25
100
AcDbVertex
100
AcDb2dVertex
 10
21.84337359435466
 20
-17.90304245745506
 30
0.0
  0
VERTEX
  5
1B9
330
187
100
AcDbEntity
  8
Layer 1
 62
    22
420
 15540004
370
    25
100
AcDbVertex
100
AcDb2dVertex
 10
21.78667561806315
 20
-17.96093019715247
 30
0.0
  0
VERTEX
  5
1BA
330
187
100
AcDbEntity
  8
Layer 1
 62
    22
420
 15540004
370
    25
100
AcDbVertex
100
AcDb2dVertex
 10
21.72968773076731
 20
-18.01793675307858
 30
0.0
  0
VERTEX
  5
1BB
330
187
100
AcDbEntity
  8
Layer 1
 62
    22
420
 15540004
370
    25
100
AcDbVertex
100
AcDb2dVertex
 10
21.69123609869222
 20
-18.05671246558978
 30
0.0
  0
VERTEX
  5
1BC
330
187
100
AcDbEntity
  8
Layer 1
 62
    22
420
 15540004
370
    25
100
AcDbVertex
100
AcDb2dVertex
 10
21.65152940399187
 20
-18.09477166225128
 30
0.0
  0
VERTEX
  5
1BD
330
187
100
AcDbEntity
  8
Layer 1
 62
    22
420
 15540004
370
    25
100
AcDbVertex
100
AcDb2dVertex
 10
21.61164422239411
 20
-18.13285730794246
 30
0.0
  0
VERTEX
  5
1BE
330
187
100
AcDbEntity
  8
Layer 1
 62
    22
420
 15540004
370
    25
100
AcDbVertex
100
AcDb2dVertex
 10
21.572657132819
 20
-18.17171238728616
 30
0.0
  0
VERTEX
  5
1BF
330
187
100
AcDbEntity
  8
Layer 1
 62
    22
420
 15540004
370
    25
100
AcDbVertex
100
AcDb2dVertex
 10
21.53564467150717
 20
-18.21207987154649
 30
0.0
  0
VERTEX
  5
1C0
330
187
100
AcDbEntity
  8
Layer 1
 62
    22
420
 15540004
370
    25
100
AcDbVertex
100
AcDb2dVertex
 10
21.50168343073763
 20
-18.25470270266684
 30
0.0
  0
VERTEX
  5
1C1
330
187
100
AcDbEntity
  8
Layer 1
 62
    22
420
 15540004
370
    25
100
AcDbVertex
100
AcDb2dVertex
 10
21.47184994994344
 20
-18.30032387165491
 30
0.0
  0
VERTEX
  5
1C2
330
187
100
AcDbEntity
  8
Layer 1
 62
    22
420
 15540004
370
    25
100
AcDbVertex
100
AcDb2dVertex
 10
21.45881755395208
 20
-18.32449101371149
 30
0.0
  0
VERTEX
  5
1C3
330
187
100
AcDbEntity
  8
Layer 1
 62
    22
420
 15540004
370
    25
100
AcDbVertex
100
AcDb2dVertex
 10
21.44722080485232
 20
-18.34968634339003
 30
0.0
  0
VERTEX
  5
1C4
330
187
100
AcDbEntity
  8
Layer 1
 62
    22
420
 15540004
370
    25
100
AcDbVertex
100
AcDb2dVertex
 10
21.33063505244763
 20
-18.60137655293253
 30
0.0
  0
VERTEX
  5
1C5
330
187
100
AcDbEntity
  8
Layer 1
 62
    22
420
 15540004
370
    25
100
AcDbVertex
100
AcDb2dVertex
 10
21.21315085559349
 20
-18.852609021785
 30
0.0
  0
VERTEX
  5
1C6
330
187
100
AcDbEntity
  8
Layer 1
 62
    22
420
 15540004
370
    25
100
AcDbVertex
100
AcDb2dVertex
 10
21.09624462641639
 20
-19.10404871319257
 30
0.0
  0
VERTEX
  5
1C7
330
187
100
AcDbEntity
  8
Layer 1
 62
    22
420
 15540004
370
    25
100
AcDbVertex
100
AcDb2dVertex
 10
20.98139275410722
 20
-19.35636057384924
 30
0.0
  0
VERTEX
  5
1C8
330
187
100
AcDbEntity
  8
Layer 1
 62
    22
420
 15540004
370
    25
100
AcDbVertex
100
AcDb2dVertex
 10
19.47552231135872
 20
-23.1147664460673
 30
0.0
  0
VERTEX
  5
1C9
330
187
100
AcDbEntity
  8
Layer 1
 62
    22
420
 15540004
370
    25
100
AcDbVertex
100
AcDb2dVertex
 10
17.97107257960761
 20
-26.87315686782381
 30
0.0
  0
VERTEX
  5
1CA
330
187
100
AcDbEntity
  8
Layer 1
 62
    22
420
 15540004
370
    25
100
AcDbVertex
100
AcDb2dVertex
 10
17.93892287157688
 20
-26.95403935158621
 30
0.0
  0
VERTEX
  5
1CB
330
187
100
AcDbEntity
  8
Layer 1
 62
    22
420
 15540004
370
    25
100
AcDbVertex
100
AcDb2dVertex
 10
17.9083734209475
 20
-27.03566446644792
 30
0.0
  0
VERTEX
  5
1CC
330
187
100
AcDbEntity
  8
Layer 1
 62
    22
420
 15540004
370
    25
100
AcDbVertex
100
AcDb2dVertex
 10
17.89228605416813
 20
-27.07601478979255
 30
0.0
  0
VERTEX
  5
1CD
330
187
100
AcDbEntity
  8
Layer 1
 62
    22
420
 15540004
370
    25
100
AcDbVertex
100
AcDb2dVertex
 10
17.87490351545087
 20
-27.11566191019827
 30
0.0
  0
VERTEX
  5
1CE
330
187
100
AcDbEntity
  8
Layer 1
 62
    22
420
 15540004
370
    25
100
AcDbVertex
100
AcDb2dVertex
 10
17.85566066440798
 20
-27.15430953553002
 30
0.0
  0
VERTEX
  5
1CF
330
187
100
AcDbEntity
  8
Layer 1
 62
    22
420
 15540004
370
    25
100
AcDbVertex
100
AcDb2dVertex
 10
17.83399244601075
 20
-27.19166140037027
 30
0.0
  0
VERTEX
  5
1D0
330
187
100
AcDbEntity
  8
Layer 1
 62
    22
420
 15540004
370
    25
100
AcDbVertex
100
AcDb2dVertex
 10
17.76723737543701
 20
-27.25824725482605
 30
0.0
  0
VERTEX
  5
1D1
330
187
100
AcDbEntity
  8
Layer 1
 62
    22
420
 15540004
370
    25
100
AcDbVertex
100
AcDb2dVertex
 10
17.69786450854028
 20
-27.32217108506484
 30
0.0
  0
VERTEX
  5
1D2
330
187
100
AcDbEntity
  8
Layer 1
 62
    22
420
 15540004
370
    25
100
AcDbVertex
100
AcDb2dVertex
 10
17.62619310206317
 20
-27.38353139474328
 30
0.0
  0
VERTEX
  5
1D3
330
187
100
AcDbEntity
  8
Layer 1
 62
    22
420
 15540004
370
    25
100
AcDbVertex
100
AcDb2dVertex
 10
17.55254238661976
 20
-27.44242665122311
 30
0.0
  0
VERTEX
  5
1D4
330
187
100
AcDbEntity
  8
Layer 1
 62
    22
420
 15540004
370
    25
100
AcDbVertex
100
AcDb2dVertex
 10
17.45184041086946
 20
-27.48215517348043
 30
0.0
  0
VERTEX
  5
1D5
330
187
100
AcDbEntity
  8
Layer 1
 62
    22
420
 15540004
370
    25
100
AcDbVertex
100
AcDb2dVertex
 10
17.34916429934535
 20
-27.51805606503818
 30
0.0
  0
VERTEX
  5
1D6
330
187
100
AcDbEntity
  8
Layer 1
 62
    22
420
 15540004
370
    25
100
AcDbVertex
100
AcDb2dVertex
 10
17.29714451298519
 20
-27.5340896386646
 30
0.0
  0
VERTEX
  5
1D7
330
187
100
AcDbEntity
  8
Layer 1
 62
    22
420
 15540004
370
    25
100
AcDbVertex
100
AcDb2dVertex
 10
17.24470148571595
 20
-27.54858847018903
 30
0.0
  0
VERTEX
  5
1D8
330
187
100
AcDbEntity
  8
Layer 1
 62
    22
420
 15540004
370
    25
100
AcDbVertex
100
AcDb2dVertex
 10
17.19185863400743
 20
-27.56135995217543
 30
0.0
  0
VERTEX
  5
1D9
330
187
100
AcDbEntity
  8
Layer 1
 62
    22
420
 15540004
370
    25
100
AcDbVertex
100
AcDb2dVertex
 10
17.1386393972653
 20
-27.57221149373875
 30
0.0
  0
VERTEX
  5
1DA
330
187
100
AcDbEntity
  8
Layer 1
 62
    22
420
 15540004
370
    25
100
AcDbVertex
100
AcDb2dVertex
 10
16.99649279017522
 20
-27.5770367328412
 30
0.0
  0
VERTEX
  5
1DB
330
187
100
AcDbEntity
  8
Layer 1
 62
    22
420
 15540004
370
    25
100
AcDbVertex
100
AcDb2dVertex
 10
16.92518812297397
 20
-27.57909678153939
 30
0.0
  0
VERTEX
  5
1DC
330
187
100
AcDbEntity
  8
Layer 1
 62
    22
420
 15540004
370
    25
100
AcDbVertex
100
AcDb2dVertex
 10
16.85395457015385
 20
-27.5794521607734
 30
0.0
  0
VERTEX
  5
1DD
330
187
100
AcDbEntity
  8
Layer 1
 62
    22
420
 15540004
370
    25
100
AcDbVertex
100
AcDb2dVertex
 10
16.78296108974173
 20
-27.57700056727241
 30
0.0
  0
VERTEX
  5
1DE
330
187
100
AcDbEntity
  8
Layer 1
 62
    22
420
 15540004
370
    25
100
AcDbVertex
100
AcDb2dVertex
 10
16.71237667866247
 20
-27.57063981303483
 30
0.0
  0
VERTEX
  5
1DF
330
187
100
AcDbEntity
  8
Layer 1
 62
    22
420
 15540004
370
    25
100
AcDbVertex
100
AcDb2dVertex
 10
16.64237033443035
 20
-27.55926758840514
 30
0.0
  0
VERTEX
  5
1E0
330
187
100
AcDbEntity
  8
Layer 1
 62
    22
420
 15540004
370
    25
100
AcDbVertex
100
AcDb2dVertex
 10
16.60763676198503
 20
-27.55135775909012
 30
0.0
  0
VERTEX
  5
1E1
330
187
100
AcDbEntity
  8
Layer 1
 62
    22
420
 15540004
370
    25
100
AcDbVertex
100
AcDb2dVertex
 10
16.57311107371361
 20
-27.5417817021892
 30
0.0
  0
VERTEX
  5
1E2
330
187
100
AcDbEntity
  8
Layer 1
 62
    22
420
 15540004
370
    25
100
AcDbVertex
100
AcDb2dVertex
 10
16.51616370449063
 20
-27.52718482983854
 30
0.0
  0
VERTEX
  5
1E3
330
187
100
AcDbEntity
  8
Layer 1
 62
    22
420
 15540004
370
    25
100
AcDbVertex
100
AcDb2dVertex
 10
16.45856329292517
 20
-27.51493624652608
 30
0.0
  0
VERTEX
  5
1E4
330
187
100
AcDbEntity
  8
Layer 1
 62
    22
420
 15540004
370
    25
100
AcDbVertex
100
AcDb2dVertex
 10
16.34258573175622
 20
-27.4934899824311
 30
0.0
  0
VERTEX
  5
1E5
330
187
100
AcDbEntity
  8
Layer 1
 62
    22
420
 15540004
370
    25
100
AcDbVertex
100
AcDb2dVertex
 10
16.28479975560228
 20
-27.48229525184976
 30
0.0
  0
VERTEX
  5
1E6
330
187
100
AcDbEntity
  8
Layer 1
 62
    22
420
 15540004
370
    25
100
AcDbVertex
100
AcDb2dVertex
 10
16.22754311971041
 20
-27.46945480623465
 30
0.0
  0
VERTEX
  5
1E7
330
187
100
AcDbEntity
  8
Layer 1
 62
    22
420
 15540004
370
    25
100
AcDbVertex
100
AcDb2dVertex
 10
16.17111142416439
 20
-27.45397007800685
 30
0.0
  0
VERTEX
  5
1E8
330
187
100
AcDbEntity
  8
Layer 1
 62
    22
420
 15540004
370
    25
100
AcDbVertex
100
AcDb2dVertex
 10
16.11580022577881
 20
-27.43484260788253
 30
0.0
  0
VERTEX
  5
1E9
330
187
100
AcDbEntity
  8
Layer 1
 62
    22
420
 15540004
370
    25
100
AcDbVertex
100
AcDb2dVertex
 10
15.9023619537751
 20
-27.29687999621301
 30
0.0
  0
VERTEX
  5
1EA
330
187
100
AcDbEntity
  8
Layer 1
 62
    22
420
 15540004
370
    25
100
AcDbVertex
100
AcDb2dVertex
 10
15.68986979901913
 20
-27.15747047319643
 30
0.0
  0
VERTEX
  5
1EB
330
187
100
AcDbEntity
  8
Layer 1
 62
    22
420
 15540004
370
    25
100
AcDbVertex
100
AcDb2dVertex
 10
15.26685072170385
 20
-26.87562517456189
 30
0.0
  0
VERTEX
  5
1EC
330
187
100
AcDbEntity
  8
Layer 1
 62
    22
420
 15540004
370
    25
100
AcDbVertex
100
AcDb2dVertex
 10
14.84499653176433
 20
-26.59193554883399
 30
0.0
  0
VERTEX
  5
1ED
330
187
100
AcDbEntity
  8
Layer 1
 62
    22
420
 15540004
370
    25
100
AcDbVertex
100
AcDb2dVertex
 10
14.42256077729846
 20
-26.30903037044466
 30
0.0
  0
VERTEX
  5
1EE
330
187
100
AcDbEntity
  8
Layer 1
 62
    22
420
 15540004
370
    25
100
AcDbVertex
100
AcDb2dVertex
 10
7.709536481327088
 20
-21.81148485356241
 30
0.0
  0
VERTEX
  5
1EF
330
187
100
AcDbEntity
  8
Layer 1
 62
    22
420
 15540004
370
    25
100
AcDbVertex
100
AcDb2dVertex
 10
7.652887323991611
 20
-21.77399801245416
 30
0.0
  0
VERTEX
  5
1F0
330
187
100
AcDbEntity
  8
Layer 1
 62
    22
420
 15540004
370
    25
100
AcDbVertex
100
AcDb2dVertex
 10
7.593935289534922
 20
-21.7409658546329
 30
0.0
  0
VERTEX
  5
1F1
330
187
100
AcDbEntity
  8
Layer 1
 62
    22
420
 15540004
370
    25
100
AcDbVertex
100
AcDb2dVertex
 10
7.533147444037505
 20
-21.71152919048894
 30
0.0
  0
VERTEX
  5
1F2
330
187
100
AcDbEntity
  8
Layer 1
 62
    22
420
 15540004
370
    25
100
AcDbVertex
100
AcDb2dVertex
 10
7.470990906425767
 20
-21.68482878134808
 30
0.0
  0
VERTEX
  5
1F3
330
187
100
AcDbEntity
  8
Layer 1
 62
    22
420
 15540004
370
    25
100
AcDbVertex
100
AcDb2dVertex
 10
7.344440200655627
 20
-21.63619983899462
 30
0.0
  0
VERTEX
  5
1F4
330
187
100
AcDbEntity
  8
Layer 1
 62
    22
420
 15540004
370
    25
100
AcDbVertex
100
AcDb2dVertex
 10
7.218020021136946
 20
-21.58820523605169
 30
0.0
  0
VERTEX
  5
1F5
330
187
100
AcDbEntity
  8
Layer 1
 62
    22
420
 15540004
370
    25
100
AcDbVertex
100
AcDb2dVertex
 10
7.190585419224286
 20
-21.57788340489434
 30
0.0
  0
VERTEX
  5
1F6
330
187
100
AcDbEntity
  8
Layer 1
 62
    22
420
 15540004
370
    25
100
AcDbVertex
100
AcDb2dVertex
 10
7.162621072240174
 20
-21.56999341353515
 30
0.0
  0
VERTEX
  5
1F7
330
187
100
AcDbEntity
  8
Layer 1
 62
    22
420
 15540004
370
    25
100
AcDbVertex
100
AcDb2dVertex
 10
7.134249109190263
 20
-21.56446561481849
 30
0.0
  0
VERTEX
  5
1F8
330
187
100
AcDbEntity
  8
Layer 1
 62
    22
420
 15540004
370
    25
100
AcDbVertex
100
AcDb2dVertex
 10
7.105591606234523
 20
-21.56123041065302
 30
0.0
  0
VERTEX
  5
1F9
330
187
100
AcDbEntity
  8
Layer 1
 62
    22
420
 15540004
370
    25
100
AcDbVertex
100
AcDb2dVertex
 10
7.076770649699104
 20
-21.56021814052431
 30
0.0
  0
VERTEX
  5
1FA
330
187
100
AcDbEntity
  8
Layer 1
 62
    22
420
 15540004
370
    25
100
AcDbVertex
100
AcDb2dVertex
 10
7.047908318936126
 20
-21.56135922608465
 30
0.0
  0
VERTEX
  5
1FB
330
187
100
AcDbEntity
  8
Layer 1
 62
    22
420
 15540004
370
    25
100
AcDbVertex
100
AcDb2dVertex
 10
7.019126723207894
 20
-21.5645840233707
 30
0.0
  0
VERTEX
  5
1FC
330
187
100
AcDbEntity
  8
Layer 1
 62
    22
420
 15540004
370
    25
100
AcDbVertex
100
AcDb2dVertex
 10
6.990547932289473
 20
-21.56982289480399
 30
0.0
  0
VERTEX
  5
1FD
330
187
100
AcDbEntity
  8
Layer 1
 62
    22
420
 15540004
370
    25
100
AcDbVertex
100
AcDb2dVertex
 10
6.928985548079885
 20
-21.57649932479679
 30
0.0
  0
VERTEX
  5
1FE
330
187
100
AcDbEntity
  8
Layer 1
 62
    22
420
 15540004
370
    25
100
AcDbVertex
100
AcDb2dVertex
 10
6.869654898172446
 20
-21.58860567335925
 30
0.0
  0
VERTEX
  5
1FF
330
187
100
AcDbEntity
  8
Layer 1
 62
    22
420
 15540004
370
    25
100
AcDbVertex
100
AcDb2dVertex
 10
6.812412492745996
 20
-21.60568453911424
 30
0.0
  0
VERTEX
  5
200
330
187
100
AcDbEntity
  8
Layer 1
 62
    22
420
 15540004
370
    25
100
AcDbVertex
100
AcDb2dVertex
 10
6.757114838786972
 20
-21.62727850094097
 30
0.0
  0
VERTEX
  5
201
330
187
100
AcDbEntity
  8
Layer 1
 62
    22
420
 15540004
370
    25
100
AcDbVertex
100
AcDb2dVertex
 10
6.703618446474239
 20
-21.65293015746223
 30
0.0
  0
VERTEX
  5
202
330
187
100
AcDbEntity
  8
Layer 1
 62
    22
420
 15540004
370
    25
100
AcDbVertex
100
AcDb2dVertex
 10
6.651779848922628
 20
-21.68218212385209
 30
0.0
  0
VERTEX
  5
203
330
187
100
AcDbEntity
  8
Layer 1
 62
    22
420
 15540004
370
    25
100
AcDbVertex
100
AcDb2dVertex
 10
6.601455536567325
 20
-21.71457700192571
 30
0.0
  0
VERTEX
  5
204
330
187
100
AcDbEntity
  8
Layer 1
 62
    22
420
 15540004
370
    25
100
AcDbVertex
100
AcDb2dVertex
 10
6.552502019587235
 20
-21.74965739030596
 30
0.0
  0
VERTEX
  5
205
330
187
100
AcDbEntity
  8
Layer 1
 62
    22
420
 15540004
370
    25
100
AcDbVertex
100
AcDb2dVertex
 10
6.504775827904723
 20
-21.78696588442318
 30
0.0
  0
VERTEX
  5
206
330
187
100
AcDbEntity
  8
Layer 1
 62
    22
420
 15540004
370
    25
100
AcDbVertex
100
AcDb2dVertex
 10
6.458133468506364
 20
-21.82604506315664
 30
0.0
  0
VERTEX
  5
207
330
187
100
AcDbEntity
  8
Layer 1
 62
    22
420
 15540004
370
    25
100
AcDbVertex
100
AcDb2dVertex
 10
6.367526260559518
 20
-21.90768595432266
 30
0.0
  0
VERTEX
  5
208
330
187
100
AcDbEntity
  8
Layer 1
 62
    22
420
 15540004
370
    25
100
AcDbVertex
100
AcDb2dVertex
 10
6.279532539600496
 20
-21.99092086295304
 30
0.0
  0
VERTEX
  5
209
330
187
100
AcDbEntity
  8
Layer 1
 62
    22
420
 15540004
370
    25
100
AcDbVertex
100
AcDb2dVertex
 10
6.193004347572885
 20
-22.07209058441496
 30
0.0
  0
VERTEX
  5
20A
330
187
100
AcDbEntity
  8
Layer 1
 62
    22
420
 15540004
370
    25
100
AcDbVertex
100
AcDb2dVertex
 10
6.150844695095113
 20
-22.14745184834742
 30
0.0
  0
VERTEX
  5
20B
330
187
100
AcDbEntity
  8
Layer 1
 62
    22
420
 15540004
370
    25
100
AcDbVertex
100
AcDb2dVertex
 10
6.111690616933629
 20
-22.22440023680527
 30
0.0
  0
VERTEX
  5
20C
330
187
100
AcDbEntity
  8
Layer 1
 62
    22
420
 15540004
370
    25
100
AcDbVertex
100
AcDb2dVertex
 10
6.074984896944316
 20
-22.30262042879516
 30
0.0
  0
VERTEX
  5
20D
330
187
100
AcDbEntity
  8
Layer 1
 62
    22
420
 15540004
370
    25
100
AcDbVertex
100
AcDb2dVertex
 10
6.040170266136784
 20
-22.38179715238801
 30
0.0
  0
VERTEX
  5
20E
330
187
100
AcDbEntity
  8
Layer 1
 62
    22
420
 15540004
370
    25
100
AcDbVertex
100
AcDb2dVertex
 10
5.97398534128547
 20
-22.54175900215336
 30
0.0
  0
VERTEX
  5
20F
330
187
100
AcDbEntity
  8
Layer 1
 62
    22
420
 15540004
370
    25
100
AcDbVertex
100
AcDb2dVertex
 10
5.908677908226397
 20
-22.70176345389905
 30
0.0
  0
VERTEX
  5
210
330
187
100
AcDbEntity
  8
Layer 1
 62
    22
420
 15540004
370
    25
100
AcDbVertex
100
AcDb2dVertex
 10
5.895325056053871
 20
-22.73388111297923
 30
0.0
  0
VERTEX
  5
211
330
187
100
AcDbEntity
  8
Layer 1
 62
    22
420
 15540004
370
    25
100
AcDbVertex
100
AcDb2dVertex
 10
5.884135212909945
 20
-22.76647599412594
 30
0.0
  0
VERTEX
  5
212
330
187
100
AcDbEntity
  8
Layer 1
 62
    22
420
 15540004
370
    25
100
AcDbVertex
100
AcDb2dVertex
 10
5.874933551828652
 20
-22.79949844637612
 30
0.0
  0
VERTEX
  5
213
330
187
100
AcDbEntity
  8
Layer 1
 62
    22
420
 15540004
370
    25
100
AcDbVertex
100
AcDb2dVertex
 10
5.867545314652059
 20
-22.83289886842034
 30
0.0
  0
VERTEX
  5
214
330
187
100
AcDbEntity
  8
Layer 1
 62
    22
420
 15540004
370
    25
100
AcDbVertex
100
AcDb2dVertex
 10
5.86179563173472
 20
-22.86662759593663
 30
0.0
  0
VERTEX
  5
215
330
187
100
AcDbEntity
  8
Layer 1
 62
    22
420
 15540004
370
    25
100
AcDbVertex
100
AcDb2dVertex
 10
5.857509764662305
 20
-22.90063502442333
 30
0.0
  0
VERTEX
  5
216
330
187
100
AcDbEntity
  8
Layer 1
 62
    22
420
 15540004
370
    25
100
AcDbVertex
100
AcDb2dVertex
 10
5.852630179765494
 20
-22.96928743968599
 30
0.0
  0
VERTEX
  5
217
330
187
100
AcDbEntity
  8
Layer 1
 62
    22
420
 15540004
370
    25
100
AcDbVertex
100
AcDb2dVertex
 10
5.851508104786401
 20
-23.03845902236228
 30
0.0
  0
VERTEX
  5
218
330
187
100
AcDbEntity
  8
Layer 1
 62
    22
420
 15540004
370
    25
100
AcDbVertex
100
AcDb2dVertex
 10
5.852745153357445
 20
-23.10775273025971
 30
0.0
  0
VERTEX
  5
219
330
187
100
AcDbEntity
  8
Layer 1
 62
    22
420
 15540004
370
    25
100
AcDbVertex
100
AcDb2dVertex
 10
5.856702875052203
 20
-23.24511836512837
 30
0.0
  0
VERTEX
  5
21A
330
187
100
AcDbEntity
  8
Layer 1
 62
    22
420
 15540004
370
    25
100
AcDbVertex
100
AcDb2dVertex
 10
5.869663568802833
 20
-23.29154471899122
 30
0.0
  0
VERTEX
  5
21B
330
187
100
AcDbEntity
  8
Layer 1
 62
    22
420
 15540004
370
    25
100
AcDbVertex
100
AcDb2dVertex
 10
5.884570174165788
 20
-23.33715976550032
 30
0.0
  0
VERTEX
  5
21C
330
187
100
AcDbEntity
  8
Layer 1
 62
    22
420
 15540004
370
    25
100
AcDbVertex
100
AcDb2dVertex
 10
5.901285056271162
 20
-23.38200930101185
 30
0.0
  0
VERTEX
  5
21D
330
187
100
AcDbEntity
  8
Layer 1
 62
    22
420
 15540004
370
    25
100
AcDbVertex
100
AcDb2dVertex
 10
5.919670566890343
 20
-23.42613916456124
 30
0.0
  0
VERTEX
  5
21E
330
187
100
AcDbEntity
  8
Layer 1
 62
    22
420
 15540004
370
    25
100
AcDbVertex
100
AcDb2dVertex
 10
5.939589090897205
 20
-23.46959514931217
 30
0.0
  0
VERTEX
  5
21F
330
187
100
AcDbEntity
  8
Layer 1
 62
    22
420
 15540004
370
    25
100
AcDbVertex
100
AcDb2dVertex
 10
5.960902980063161
 20
-23.51242309430022
 30
0.0
  0
VERTEX
  5
220
330
187
100
AcDbEntity
  8
Layer 1
 62
    22
420
 15540004
370
    25
100
AcDbVertex
100
AcDb2dVertex
 10
6.00716625835475
 20
-23.5963780797323
 30
0.0
  0
VERTEX
  5
221
330
187
100
AcDbEntity
  8
Layer 1
 62
    22
420
 15540004
370
    25
100
AcDbVertex
100
AcDb2dVertex
 10
6.057359328602312
 20
-23.67837065284667
 30
0.0
  0
VERTEX
  5
222
330
187
100
AcDbEntity
  8
Layer 1
 62
    22
420
 15540004
370
    25
100
AcDbVertex
100
AcDb2dVertex
 10
6.110381097899563
 20
-23.75876734882483
 30
0.0
  0
VERTEX
  5
223
330
187
100
AcDbEntity
  8
Layer 1
 62
    22
420
 15540004
370
    25
100
AcDbVertex
100
AcDb2dVertex
 10
6.220506240363799
 20
-23.91623924950937
 30
0.0
  0
VERTEX
  5
224
330
187
100
AcDbEntity
  8
Layer 1
 62
    22
420
 15540004
370
    25
100
AcDbVertex
100
AcDb2dVertex
 10
14.58535729219733
 20
-35.19782256633471
 30
0.0
  0
SEQEND
  5
225
330
187
100
AcDbEntity
  8
Layer 1
 62
    22
420
 15540004
370
    25
  0
POLYLINE
  5
226
330
1F
100
AcDbEntity
  8
Layer 1
 62
    22
420
 15540004
370
    25
100
AcDb2dPolyline
 66
     1
 10
0.0
 20
0.0
 30
0.0
  0
VERTEX
  5
227
330
226
100
AcDbEntity
  8
Layer 1
 62
    22
420
 15540004
370
    25
100
AcDbVertex
100
AcDb2dVertex
 10
12.53313011549199
 20
-12.12950598268681
 30
0.0
  0
VERTEX
  5
228
330
226
100
AcDbEntity
  8
Layer 1
 62
    22
420
 15540004
370
    25
100
AcDbVertex
100
AcDb2dVertex
 10
11.98140637044622
 20
-11.81046892691268
 30
0.0
  0
VERTEX
  5
229
330
226
100
AcDbEntity
  8
Layer 1
 62
    22
420
 15540004
370
    25
100
AcDbVertex
100
AcDb2dVertex
 10
11.90935469078795
 20
-11.77167269909759
 30
0.0
  0
VERTEX
  5
22A
330
226
100
AcDbEntity
  8
Layer 1
 62
    22
420
 15540004
370
    25
100
AcDbVertex
100
AcDb2dVertex
 10
11.83806367577032
 20
-11.7315335698666
 30
0.0
  0
VERTEX
  5
22B
330
226
100
AcDbEntity
  8
Layer 1
 62
    22
420
 15540004
370
    25
100
AcDbVertex
100
AcDb2dVertex
 10
11.69673707567502
 20
-11.64898987207548
 30
0.0
  0
VERTEX
  5
22C
330
226
100
AcDbEntity
  8
Layer 1
 62
    22
420
 15540004
370
    25
100
AcDbVertex
100
AcDb2dVertex
 10
11.55537331870452
 20
-11.56636425969432
 30
0.0
  0
VERTEX
  5
22D
330
226
100
AcDbEntity
  8
Layer 1
 62
    22
420
 15540004
370
    25
100
AcDbVertex
100
AcDb2dVertex
 10
11.48403590626327
 20
-11.52612276027383
 30
0.0
  0
VERTEX
  5
22E
330
226
100
AcDbEntity
  8
Layer 1
 62
    22
420
 15540004
370
    25
100
AcDbVertex
100
AcDb2dVertex
 10
11.41191925180081
 20
-11.48718317670984
 30
0.0
  0
VERTEX
  5
22F
330
226
100
AcDbEntity
  8
Layer 1
 62
    22
420
 15540004
370
    25
100
AcDbVertex
100
AcDb2dVertex
 10
10.86218599837629
 20
-11.16284391346932
 30
0.0
  0
VERTEX
  5
230
330
226
100
AcDbEntity
  8
Layer 1
 62
    22
420
 15540004
370
    25
100
AcDbVertex
100
AcDb2dVertex
 10
10.79125634694957
 20
-11.12596872355947
 30
0.0
  0
VERTEX
  5
231
330
226
100
AcDbEntity
  8
Layer 1
 62
    22
420
 15540004
370
    25
100
AcDbVertex
100
AcDb2dVertex
 10
10.72101177566639
 20
-11.08779713973689
 30
0.0
  0
VERTEX
  5
232
330
226
100
AcDbEntity
  8
Layer 1
 62
    22
420
 15540004
370
    25
100
AcDbVertex
100
AcDb2dVertex
 10
10.58200334930643
 20
-11.00862048827001
 30
0.0
  0
VERTEX
  5
233
330
226
100
AcDbEntity
  8
Layer 1
 62
    22
420
 15540004
370
    25
100
AcDbVertex
100
AcDb2dVertex
 10
10.30588755539439
 20
-10.84632413515691
 30
0.0
  0
VERTEX
  5
234
330
226
100
AcDbEntity
  8
Layer 1
 62
    22
420
 15540004
370
    25
100
AcDbVertex
100
AcDb2dVertex
 10
9.785709499945167
 20
-10.54638897945717
 30
0.0
  0
VERTEX
  5
235
330
226
100
AcDbEntity
  8
Layer 1
 62
    22
420
 15540004
370
    25
100
AcDbVertex
100
AcDb2dVertex
 10
9.497654599445367
 20
-10.38358724530312
 30
0.0
  0
VERTEX
  5
236
330
226
100
AcDbEntity
  8
Layer 1
 62
    22
420
 15540004
370
    25
100
AcDbVertex
100
AcDb2dVertex
 10
9.210728247105584
 20
-10.21858880442496
 30
0.0
  0
VERTEX
  5
237
330
226
100
AcDbEntity
  8
Layer 1
 62
    22
420
 15540004
370
    25
100
AcDbVertex
100
AcDb2dVertex
 10
8.923964792199765
 20
-10.05306261194711
 30
0.0
  0
VERTEX
  5
238
330
226
100
AcDbEntity
  8
Layer 1
 62
    22
420
 15540004
370
    25
100
AcDbVertex
100
AcDb2dVertex
 10
8.636398514925531
 20
-9.888677577954176
 30
0.0
  0
VERTEX
  5
239
330
226
100
AcDbEntity
  8
Layer 1
 62
    22
420
 15540004
370
    25
100
AcDbVertex
100
AcDb2dVertex
 10
8.56789606492263
 20
-9.85956354456664
 30
0.0
  0
VERTEX
  5
23A
330
226
100
AcDbEntity
  8
Layer 1
 62
    22
420
 15540004
370
    25
100
AcDbVertex
100
AcDb2dVertex
 10
8.497643909869868
 20
-9.832583278954075
 30
0.0
  0
VERTEX
  5
23B
330
226
100
AcDbEntity
  8
Layer 1
 62
    22
420
 15540004
370
    25
100
AcDbVertex
100
AcDb2dVertex
 10
8.425912001730264
 20
-9.808840276683226
 30
0.0
  0
VERTEX
  5
23C
330
226
100
AcDbEntity
  8
Layer 1
 62
    22
420
 15540004
370
    25
100
AcDbVertex
100
AcDb2dVertex
 10
8.352970363656873
 20
-9.78943802183091
 30
0.0
  0
VERTEX
  5
23D
330
226
100
AcDbEntity
  8
Layer 1
 62
    22
420
 15540004
370
    25
100
AcDbVertex
100
AcDb2dVertex
 10
8.316130255363582
 20
-9.781709507302429
 30
0.0
  0
VERTEX
  5
23E
330
226
100
AcDbEntity
  8
Layer 1
 62
    22
420
 15540004
370
    25
100
AcDbVertex
100
AcDb2dVertex
 10
8.279088975877483
 20
-9.775480011021006
 30
0.0
  0
VERTEX
  5
23F
330
226
100
AcDbEntity
  8
Layer 1
 62
    22
420
 15540004
370
    25
100
AcDbVertex
100
AcDb2dVertex
 10
8.241880229422298
 20
-9.77088744544806
 30
0.0
  0
VERTEX
  5
240
330
226
100
AcDbEntity
  8
Layer 1
 62
    22
420
 15540004
370
    25
100
AcDbVertex
100
AcDb2dVertex
 10
8.20453781861958
 20
-9.768069740876967
 30
0.0
  0
VERTEX
  5
241
330
226
100
AcDbEntity
  8
Layer 1
 62
    22
420
 15540004
370
    25
100
AcDbVertex
100
AcDb2dVertex
 10
8.167095460239882
 20
-9.767164852694412
 30
0.0
  0
VERTEX
  5
242
330
226
100
AcDbEntity
  8
Layer 1
 62
    22
420
 15540004
370
    25
100
AcDbVertex
100
AcDb2dVertex
 10
8.129586913979285
 20
-9.768310723740253
 30
0.0
  0
VERTEX
  5
243
330
226
100
AcDbEntity
  8
Layer 1
 62
    22
420
 15540004
370
    25
100
AcDbVertex
100
AcDb2dVertex
 10
8.092045926986884
 20
-9.77164525392925
 30
0.0
  0
VERTEX
  5
244
330
226
100
AcDbEntity
  8
Layer 1
 62
    22
420
 15540004
370
    25
100
AcDbVertex
100
AcDb2dVertex
 10
8.054506244298105
 20
-9.77730639970548
 30
0.0
  0
VERTEX
  5
245
330
226
100
AcDbEntity
  8
Layer 1
 62
    22
420
 15540004
370
    25
100
AcDbVertex
100
AcDb2dVertex
 10
8.012962256401755
 20
-9.780041414057033
 30
0.0
  0
VERTEX
  5
246
330
226
100
AcDbEntity
  8
Layer 1
 62
    22
420
 15540004
370
    25
100
AcDbVertex
100
AcDb2dVertex
 10
7.971710347633638
 20
-9.784702461233197
 30
0.0
  0
VERTEX
  5
247
330
226
100
AcDbEntity
  8
Layer 1
 62
    22
420
 15540004
370
    25
100
AcDbVertex
100
AcDb2dVertex
 10
7.930764356220808
 20
-9.791184399599702
 30
0.0
  0
VERTEX
  5
248
330
226
100
AcDbEntity
  8
Layer 1
 62
    22
420
 15540004
370
    25
100
AcDbVertex
100
AcDb2dVertex
 10
7.890138078521431
 20
-9.799382071804063
 30
0.0
  0
VERTEX
  5
249
330
226
100
AcDbEntity
  8
Layer 1
 62
    22
420
 15540004
370
    25
100
AcDbVertex
100
AcDb2dVertex
 10
7.849845338101304
 20
-9.80919034981534
 30
0.0
  0
VERTEX
  5
24A
330
226
100
AcDbEntity
  8
Layer 1
 62
    22
420
 15540004
370
    25
100
AcDbVertex
100
AcDb2dVertex
 10
7.809899986790898
 20
-9.820504106659843
 30
0.0
  0
VERTEX
  5
24B
330
226
100
AcDbEntity
  8
Layer 1
 62
    22
420
 15540004
370
    25
100
AcDbVertex
100
AcDb2dVertex
 10
7.731106650535771
 20
-9.847227442099097
 30
0.0
  0
VERTEX
  5
24C
330
226
100
AcDbEntity
  8
Layer 1
 62
    22
420
 15540004
370
    25
100
AcDbVertex
100
AcDb2dVertex
 10
7.653868633189884
 20
-9.878710968025048
 30
0.0
  0
VERTEX
  5
24D
330
226
100
AcDbEntity
  8
Layer 1
 62
    22
420
 15540004
370
    25
100
AcDbVertex
100
AcDb2dVertex
 10
7.578296498186015
 20
-9.914113574339922
 30
0.0
  0
VERTEX
  5
24E
330
226
100
AcDbEntity
  8
Layer 1
 62
    22
420
 15540004
370
    25
100
AcDbVertex
100
AcDb2dVertex
 10
7.50450083722242
 20
-9.952594152003623
 30
0.0
  0
VERTEX
  5
24F
330
226
100
AcDbEntity
  8
Layer 1
 62
    22
420
 15540004
370
    25
100
AcDbVertex
100
AcDb2dVertex
 10
7.43259217186379
 20
-9.993311575201043
 30
0.0
  0
VERTEX
  5
250
330
226
100
AcDbEntity
  8
Layer 1
 62
    22
420
 15540004
370
    25
100
AcDbVertex
100
AcDb2dVertex
 10
7.396149312811101
 20
-10.01731219530111
 30
0.0
  0
VERTEX
  5
251
330
226
100
AcDbEntity
  8
Layer 1
 62
    22
420
 15540004
370
    25
100
AcDbVertex
100
AcDb2dVertex
 10
7.363022706002387
 20
-10.04448707299542
 30
0.0
  0
VERTEX
  5
252
330
226
100
AcDbEntity
  8
Layer 1
 62
    22
420
 15540004
370
    25
100
AcDbVertex
100
AcDb2dVertex
 10
7.333158442200379
 20
-10.07459524931699
 30
0.0
  0
VERTEX
  5
253
330
226
100
AcDbEntity
  8
Layer 1
 62
    22
420
 15540004
370
    25
100
AcDbVertex
100
AcDb2dVertex
 10
7.306502625771322
 20
-10.10739577995919
 30
0.0
  0
VERTEX
  5
254
330
226
100
AcDbEntity
  8
Layer 1
 62
    22
420
 15540004
370
    25
100
AcDbVertex
100
AcDb2dVertex
 10
7.283001321327447
 20
-10.14264764836908
 30
0.0
  0
VERTEX
  5
255
330
226
100
AcDbEntity
  8
Layer 1
 62
    22
420
 15540004
370
    25
100
AcDbVertex
100
AcDb2dVertex
 10
7.262600646838715
 20
-10.1801099249008
 30
0.0
  0
VERTEX
  5
256
330
226
100
AcDbEntity
  8
Layer 1
 62
    22
420
 15540004
370
    25
100
AcDbVertex
100
AcDb2dVertex
 10
7.245246652256658
 20
-10.2195416066052
 30
0.0
  0
VERTEX
  5
257
330
226
100
AcDbEntity
  8
Layer 1
 62
    22
420
 15540004
370
    25
100
AcDbVertex
100
AcDb2dVertex
 10
7.230885441947369
 20
-10.26070174917563
 30
0.0
  0
VERTEX
  5
258
330
226
100
AcDbEntity
  8
Layer 1
 62
    22
420
 15540004
370
    25
100
AcDbVertex
100
AcDb2dVertex
 10
7.219463093069963
 20
-10.30334937898441
 30
0.0
  0
VERTEX
  5
259
330
226
100
AcDbEntity
  8
Layer 1
 62
    22
420
 15540004
370
    25
100
AcDbVertex
100
AcDb2dVertex
 10
7.210925711047619
 20
-10.34724352346056
 30
0.0
  0
VERTEX
  5
25A
330
226
100
AcDbEntity
  8
Layer 1
 62
    22
420
 15540004
370
    25
100
AcDbVertex
100
AcDb2dVertex
 10
7.20521934477463
 20
-10.39214320791912
 30
0.0
  0
VERTEX
  5
25B
330
226
100
AcDbEntity
  8
Layer 1
 62
    22
420
 15540004
370
    25
100
AcDbVertex
100
AcDb2dVertex
 10
7.202290098617696
 20
-10.43780748805399
 30
0.0
  0
VERTEX
  5
25C
330
226
100
AcDbEntity
  8
Layer 1
 62
    22
420
 15540004
370
    25
100
AcDbVertex
100
AcDb2dVertex
 10
7.202084065453012
 20
-10.48399534836867
 30
0.0
  0
VERTEX
  5
25D
330
226
100
AcDbEntity
  8
Layer 1
 62
    22
420
 15540004
370
    25
100
AcDbVertex
100
AcDb2dVertex
 10
7.204547321382506
 20
-10.53046584349981
 30
0.0
  0
VERTEX
  5
25E
330
226
100
AcDbEntity
  8
Layer 1
 62
    22
420
 15540004
370
    25
100
AcDbVertex
100
AcDb2dVertex
 10
7.209625942508309
 20
-10.5769780280844
 30
0.0
  0
VERTEX
  5
25F
330
226
100
AcDbEntity
  8
Layer 1
 62
    22
420
 15540004
370
    25
100
AcDbVertex
100
AcDb2dVertex
 10
7.217266035310533
 20
-10.62329090128667
 30
0.0
  0
VERTEX
  5
260
330
226
100
AcDbEntity
  8
Layer 1
 62
    22
420
 15540004
370
    25
100
AcDbVertex
100
AcDb2dVertex
 10
7.227543034081615
 20
-10.68198347878242
 30
0.0
  0
VERTEX
  5
261
330
226
100
AcDbEntity
  8
Layer 1
 62
    22
420
 15540004
370
    25
100
AcDbVertex
100
AcDb2dVertex
 10
7.236586258864159
 20
-10.74108097273603
 30
0.0
  0
VERTEX
  5
262
330
226
100
AcDbEntity
  8
Layer 1
 62
    22
420
 15540004
370
    25
100
AcDbVertex
100
AcDb2dVertex
 10
7.255423777664419
 20
-10.85908013352801
 30
0.0
  0
VERTEX
  5
263
330
226
100
AcDbEntity
  8
Layer 1
 62
    22
420
 15540004
370
    25
100
AcDbVertex
100
AcDb2dVertex
 10
7.267444265696465
 20
-10.91727655451803
 30
0.0
  0
VERTEX
  5
264
330
226
100
AcDbEntity
  8
Layer 1
 62
    22
420
 15540004
370
    25
100
AcDbVertex
100
AcDb2dVertex
 10
7.282683384543664
 20
-10.97446733013694
 30
0.0
  0
VERTEX
  5
265
330
226
100
AcDbEntity
  8
Layer 1
 62
    22
420
 15540004
370
    25
100
AcDbVertex
100
AcDb2dVertex
 10
7.30225418881653
 20
-11.03029983587517
 30
0.0
  0
VERTEX
  5
266
330
226
100
AcDbEntity
  8
Layer 1
 62
    22
420
 15540004
370
    25
100
AcDbVertex
100
AcDb2dVertex
 10
7.314011819558244
 20
-11.0575965607059
 30
0.0
  0
VERTEX
  5
267
330
226
100
AcDbEntity
  8
Layer 1
 62
    22
420
 15540004
370
    25
100
AcDbVertex
100
AcDb2dVertex
 10
7.327269803258584
 20
-11.08442146399813
 30
0.0
  0
VERTEX
  5
268
330
226
100
AcDbEntity
  8
Layer 1
 62
    22
420
 15540004
370
    25
100
AcDbVertex
100
AcDb2dVertex
 10
7.357262892771915
 20
-11.14587342987237
 30
0.0
  0
VERTEX
  5
269
330
226
100
AcDbEntity
  8
Layer 1
 62
    22
420
 15540004
370
    25
100
AcDbVertex
100
AcDb2dVertex
 10
7.385780736423637
 20
-11.20797429244192
 30
0.0
  0
VERTEX
  5
26A
330
226
100
AcDbEntity
  8
Layer 1
 62
    22
420
 15540004
370
    25
100
AcDbVertex
100
AcDb2dVertex
 10
7.441002876494874
 20
-11.33283807672351
 30
0.0
  0
VERTEX
  5
26B
330
226
100
AcDbEntity
  8
Layer 1
 62
    22
420
 15540004
370
    25
100
AcDbVertex
100
AcDb2dVertex
 10
7.469013282223234
 20
-11.39495868349237
 30
0.0
  0
VERTEX
  5
26C
330
226
100
AcDbEntity
  8
Layer 1
 62
    22
420
 15540004
370
    25
100
AcDbVertex
100
AcDb2dVertex
 10
7.498160633500042
 20
-11.4564435277487
 30
0.0
  0
VERTEX
  5
26D
330
226
100
AcDbEntity
  8
Layer 1
 62
    22
420
 15540004
370
    25
100
AcDbVertex
100
AcDb2dVertex
 10
7.529097998583236
 20
-11.51697146668159
 30
0.0
  0
VERTEX
  5
26E
330
226
100
AcDbEntity
  8
Layer 1
 62
    22
420
 15540004
370
    25
100
AcDbVertex
100
AcDb2dVertex
 10
7.562478403863022
 20
-11.57622134176264
 30
0.0
  0
VERTEX
  5
26F
330
226
100
AcDbEntity
  8
Layer 1
 62
    22
420
 15540004
370
    25
100
AcDbVertex
100
AcDb2dVertex
 10
7.853216311831702
 20
-12.07360046734608
 30
0.0
  0
VERTEX
  5
270
330
226
100
AcDbEntity
  8
Layer 1
 62
    22
420
 15540004
370
    25
100
AcDbVertex
100
AcDb2dVertex
 10
7.997877436288793
 20
-12.32235382943907
 30
0.0
  0
VERTEX
  5
271
330
226
100
AcDbEntity
  8
Layer 1
 62
    22
420
 15540004
370
    25
100
AcDbVertex
100
AcDb2dVertex
 10
8.140872538803807
 20
-12.57192391575562
 30
0.0
  0
VERTEX
  5
272
330
226
100
AcDbEntity
  8
Layer 1
 62
    22
420
 15540004
370
    25
100
AcDbVertex
100
AcDb2dVertex
 10
8.605922930072968
 20
-13.36355507376838
 30
0.0
  0
VERTEX
  5
273
330
226
100
AcDbEntity
  8
Layer 1
 62
    22
420
 15540004
370
    25
100
AcDbVertex
100
AcDb2dVertex
 10
8.659282874740459
 20
-13.45748856401869
 30
0.0
  0
VERTEX
  5
274
330
226
100
AcDbEntity
  8
Layer 1
 62
    22
420
 15540004
370
    25
100
AcDbVertex
100
AcDb2dVertex
 10
8.713475892546992
 20
-13.55070530033672
 30
0.0
  0
VERTEX
  5
275
330
226
100
AcDbEntity
  8
Layer 1
 62
    22
420
 15540004
370
    25
100
AcDbVertex
100
AcDb2dVertex
 10
8.766838607550856
 20
-13.64417831609405
 30
0.0
  0
VERTEX
  5
276
330
226
100
AcDbEntity
  8
Layer 1
 62
    22
420
 15540004
370
    25
100
AcDbVertex
100
AcDb2dVertex
 10
8.817707659527867
 20
-13.73888060279353
 30
0.0
  0
VERTEX
  5
277
330
226
100
AcDbEntity
  8
Layer 1
 62
    22
420
 15540004
370
    25
100
AcDbVertex
100
AcDb2dVertex
 10
9.277062898422527
 20
-14.51506489805293
 30
0.0
  0
VERTEX
  5
278
330
226
100
AcDbEntity
  8
Layer 1
 62
    22
420
 15540004
370
    25
100
AcDbVertex
100
AcDb2dVertex
 10
9.339704765035094
 20
-14.62692314080915
 30
0.0
  0
VERTEX
  5
279
330
226
100
AcDbEntity
  8
Layer 1
 62
    22
420
 15540004
370
    25
100
AcDbVertex
100
AcDb2dVertex
 10
9.403756789360461
 20
-14.7380894223788
 30
0.0
  0
VERTEX
  5
27A
330
226
100
AcDbEntity
  8
Layer 1
 62
    22
420
 15540004
370
    25
100
AcDbVertex
100
AcDb2dVertex
 10
9.533765468992138
 20
-14.95927851194479
 30
0.0
  0
VERTEX
  5
27B
330
226
100
AcDbEntity
  8
Layer 1
 62
    22
420
 15540004
370
    25
100
AcDbVertex
100
AcDb2dVertex
 10
9.970590544965892
 20
-15.71490581687952
 30
0.0
  0
VERTEX
  5
27C
330
226
100
AcDbEntity
  8
Layer 1
 62
    22
420
 15540004
370
    25
100
AcDbVertex
100
AcDb2dVertex
 10
9.996063149839907
 20
-15.75327828605606
 30
0.0
  0
VERTEX
  5
27D
330
226
100
AcDbEntity
  8
Layer 1
 62
    22
420
 15540004
370
    25
100
AcDbVertex
100
AcDb2dVertex
 10
10.01999916697494
 20
-15.79617019071408
 30
0.0
  0
VERTEX
  5
27E
330
226
100
AcDbEntity
  8
Layer 1
 62
    22
420
 15540004
370
    25
100
AcDbVertex
100
AcDb2dVertex
 10
10.04398874744867
 20
-15.8406474567499
 30
0.0
  0
VERTEX
  5
27F
330
226
100
AcDbEntity
  8
Layer 1
 62
    22
420
 15540004
370
    25
100
AcDbVertex
100
AcDb2dVertex
 10
10.06962204445325
 20
-15.88377595353139
 30
0.0
  0
VERTEX
  5
280
330
226
100
AcDbEntity
  8
Layer 1
 62
    22
420
 15540004
370
    25
100
AcDbVertex
100
AcDb2dVertex
 10
10.08355201103798
 20
-15.90391748088018
 30
0.0
  0
VERTEX
  5
281
330
226
100
AcDbEntity
  8
Layer 1
 62
    22
420
 15540004
370
    25
100
AcDbVertex
100
AcDb2dVertex
 10
10.09848922584155
 20
-15.92262153682254
 30
0.0
  0
VERTEX
  5
282
330
226
100
AcDbEntity
  8
Layer 1
 62
    22
420
 15540004
370
    25
100
AcDbVertex
100
AcDb2dVertex
 10
10.11463244297258
 20
-15.93952133146975
 30
0.0
  0
VERTEX
  5
283
330
226
100
AcDbEntity
  8
Layer 1
 62
    22
420
 15540004
370
    25
100
AcDbVertex
100
AcDb2dVertex
 10
10.13218044374814
 20
-15.95425010425513
 30
0.0
  0
VERTEX
  5
284
330
226
100
AcDbEntity
  8
Layer 1
 62
    22
420
 15540004
370
    25
100
AcDbVertex
100
AcDb2dVertex
 10
10.15133198122011
 20
-15.96644109355465
 30
0.0
  0
VERTEX
  5
285
330
226
100
AcDbEntity
  8
Layer 1
 62
    22
420
 15540004
370
    25
100
AcDbVertex
100
AcDb2dVertex
 10
10.17228583670466
 20
-15.97572753880096
 30
0.0
  0
VERTEX
  5
286
330
226
100
AcDbEntity
  8
Layer 1
 62
    22
420
 15540004
370
    25
100
AcDbVertex
100
AcDb2dVertex
 10
10.1952407915187
 20
-15.9817426794273
 30
0.0
  0
VERTEX
  5
287
330
226
100
AcDbEntity
  8
Layer 1
 62
    22
420
 15540004
370
    25
100
AcDbVertex
100
AcDb2dVertex
 10
10.22039559977111
 20
-15.98411972554512
 30
0.0
  0
VERTEX
  5
288
330
226
100
AcDbEntity
  8
Layer 1
 62
    22
420
 15540004
370
    25
100
AcDbVertex
100
AcDb2dVertex
 10
10.29114874288578
 20
-15.9620651424499
 30
0.0
  0
VERTEX
  5
289
330
226
100
AcDbEntity
  8
Layer 1
 62
    22
420
 15540004
370
    25
100
AcDbVertex
100
AcDb2dVertex
 10
10.36103541400078
 20
-15.93736256350806
 30
0.0
  0
VERTEX
  5
28A
330
226
100
AcDbEntity
  8
Layer 1
 62
    22
420
 15540004
370
    25
100
AcDbVertex
100
AcDb2dVertex
 10
10.49957773618578
 20
-15.88430441296214
 30
0.0
  0
VERTEX
  5
28B
330
226
100
AcDbEntity
  8
Layer 1
 62
    22
420
 15540004
370
    25
100
AcDbVertex
100
AcDb2dVertex
 10
10.56891754910955
 20
-15.8580943586741
 30
0.0
  0
VERTEX
  5
28C
330
226
100
AcDbEntity
  8
Layer 1
 62
    22
420
 15540004
370
    25
100
AcDbVertex
100
AcDb2dVertex
 10
10.63875924411923
 20
-15.83352728769907
 30
0.0
  0
VERTEX
  5
28D
330
226
100
AcDbEntity
  8
Layer 1
 62
    22
420
 15540004
370
    25
100
AcDbVertex
100
AcDb2dVertex
 10
10.70944492254744
 20
-15.81167598068638
 30
0.0
  0
VERTEX
  5
28E
330
226
100
AcDbEntity
  8
Layer 1
 62
    22
420
 15540004
370
    25
100
AcDbVertex
100
AcDb2dVertex
 10
10.78131664491522
 20
-15.79361317430273
 30
0.0
  0
VERTEX
  5
28F
330
226
100
AcDbEntity
  8
Layer 1
 62
    22
420
 15540004
370
    25
100
AcDbVertex
100
AcDb2dVertex
 10
10.82039801960208
 20
-15.78656131844586
 30
0.0
  0
VERTEX
  5
290
330
226
100
AcDbEntity
  8
Layer 1
 62
    22
420
 15540004
370
    25
100
AcDbVertex
100
AcDb2dVertex
 10
10.85956491548662
 20
-15.78110459517508
 30
0.0
  0
VERTEX
  5
291
330
226
100
AcDbEntity
  8
Layer 1
 62
    22
420
 15540004
370
    25
100
AcDbVertex
100
AcDb2dVertex
 10
10.89878305723621
 20
-15.77721497540242
 30
0.0
  0
VERTEX
  5
292
330
226
100
AcDbEntity
  8
Layer 1
 62
    22
420
 15540004
370
    25
100
AcDbVertex
100
AcDb2dVertex
 10
10.93801817057521
 20
-15.77486440177544
 30
0.0
  0
VERTEX
  5
293
330
226
100
AcDbEntity
  8
Layer 1
 62
    22
420
 15540004
370
    25
100
AcDbVertex
100
AcDb2dVertex
 10
11.01640216882235
 20
-15.77466826088881
 30
0.0
  0
VERTEX
  5
294
330
226
100
AcDbEntity
  8
Layer 1
 62
    22
420
 15540004
370
    25
100
AcDbVertex
100
AcDb2dVertex
 10
11.0944426992486
 20
-15.78029178382896
 30
0.0
  0
VERTEX
  5
295
330
226
100
AcDbEntity
  8
Layer 1
 62
    22
420
 15540004
370
    25
100
AcDbVertex
100
AcDb2dVertex
 10
11.17186556342065
 20
-15.79151062483411
 30
0.0
  0
VERTEX
  5
296
330
226
100
AcDbEntity
  8
Layer 1
 62
    22
420
 15540004
370
    25
100
AcDbVertex
100
AcDb2dVertex
 10
11.24839656501935
 20
-15.80810038161374
 30
0.0
  0
VERTEX
  5
297
330
226
100
AcDbEntity
  8
Layer 1
 62
    22
420
 15540004
370
    25
100
AcDbVertex
100
AcDb2dVertex
 10
11.32376148989422
 20
-15.82983675027496
 30
0.0
  0
VERTEX
  5
298
330
226
100
AcDbEntity
  8
Layer 1
 62
    22
420
 15540004
370
    25
100
AcDbVertex
100
AcDb2dVertex
 10
11.3976861417261
 20
-15.85649532852722
 30
0.0
  0
VERTEX
  5
299
330
226
100
AcDbEntity
  8
Layer 1
 62
    22
420
 15540004
370
    25
100
AcDbVertex
100
AcDb2dVertex
 10
11.46989628021331
 20
-15.88785175489112
 30
0.0
  0
VERTEX
  5
29A
330
226
100
AcDbEntity
  8
Layer 1
 62
    22
420
 15540004
370
    25
100
AcDbVertex
100
AcDb2dVertex
 10
11.54011772052698
 20
-15.92368169826611
 30
0.0
  0
VERTEX
  5
29B
330
226
100
AcDbEntity
  8
Layer 1
 62
    22
420
 15540004
370
    25
100
AcDbVertex
100
AcDb2dVertex
 10
11.60807627995145
 20
-15.96376077102233
 30
0.0
  0
VERTEX
  5
29C
330
226
100
AcDbEntity
  8
Layer 1
 62
    22
420
 15540004
370
    25
100
AcDbVertex
100
AcDb2dVertex
 10
11.67349770458188
 20
-16.00786459702004
 30
0.0
  0
VERTEX
  5
29D
330
226
100
AcDbEntity
  8
Layer 1
 62
    22
420
 15540004
370
    25
100
AcDbVertex
100
AcDb2dVertex
 10
11.73610783785337
 20
-16.05576884621541
 30
0.0
  0
VERTEX
  5
29E
330
226
100
AcDbEntity
  8
Layer 1
 62
    22
420
 15540004
370
    25
100
AcDbVertex
100
AcDb2dVertex
 10
11.79563241225707
 20
-16.10724912780779
 30
0.0
  0
VERTEX
  5
29F
330
226
100
AcDbEntity
  8
Layer 1
 62
    22
420
 15540004
370
    25
100
AcDbVertex
100
AcDb2dVertex
 10
11.8517972858889
 20
-16.16208109814958
 30
0.0
  0
VERTEX
  5
2A0
330
226
100
AcDbEntity
  8
Layer 1
 62
    22
420
 15540004
370
    25
100
AcDbVertex
100
AcDb2dVertex
 10
11.9043281901831
 20
-16.22004039470479
 30
0.0
  0
VERTEX
  5
2A1
330
226
100
AcDbEntity
  8
Layer 1
 62
    22
420
 15540004
370
    25
100
AcDbVertex
100
AcDb2dVertex
 10
11.96857797834751
 20
-16.28103391539672
 30
0.0
  0
VERTEX
  5
2A2
330
226
100
AcDbEntity
  8
Layer 1
 62
    22
420
 15540004
370
    25
100
AcDbVertex
100
AcDb2dVertex
 10
12.03430911023785
 20
-16.34043928435408
 30
0.0
  0
VERTEX
  5
2A3
330
226
100
AcDbEntity
  8
Layer 1
 62
    22
420
 15540004
370
    25
100
AcDbVertex
100
AcDb2dVertex
 10
12.16878837184388
 20
-16.45605077140322
 30
0.0
  0
VERTEX
  5
2A4
330
226
100
AcDbEntity
  8
Layer 1
 62
    22
420
 15540004
370
    25
100
AcDbVertex
100
AcDb2dVertex
 10
12.3049118821448
 20
-16.57000520694138
 30
0.0
  0
VERTEX
  5
2A5
330
226
100
AcDbEntity
  8
Layer 1
 62
    22
420
 15540004
370
    25
100
AcDbVertex
100
AcDb2dVertex
 10
12.43982561841737
 20
-16.68543295883271
 30
0.0
  0
VERTEX
  5
2A6
330
226
100
AcDbEntity
  8
Layer 1
 62
    22
420
 15540004
370
    25
100
AcDbVertex
100
AcDb2dVertex
 10
18.33351612289256
 20
-21.69191263805988
 30
0.0
  0
VERTEX
  5
2A7
330
226
100
AcDbEntity
  8
Layer 1
 62
    22
420
 15540004
370
    25
100
AcDbVertex
100
AcDb2dVertex
 10
19.99629662753566
 20
-20.1490092746674
 30
0.0
  0
VERTEX
  5
2A8
330
226
100
AcDbEntity
  8
Layer 1
 62
    22
420
 15540004
370
    25
100
AcDbVertex
100
AcDb2dVertex
 10
18.94048759526999
 20
-19.3031619525044
 30
0.0
  0
VERTEX
  5
2A9
330
226
100
AcDbEntity
  8
Layer 1
 62
    22
420
 15540004
370
    25
100
AcDbVertex
100
AcDb2dVertex
 10
15.97506775823796
 20
-16.92591801793454
 30
0.0
  0
VERTEX
  5
2AA
330
226
100
AcDbEntity
  8
Layer 1
 62
    22
420
 15540004
370
    25
100
AcDbVertex
100
AcDb2dVertex
 10
13.0117845117845
 20
-14.54629629629629
 30
0.0
  0
VERTEX
  5
2AB
330
226
100
AcDbEntity
  8
Layer 1
 62
    22
420
 15540004
370
    25
100
AcDbVertex
100
AcDb2dVertex
 10
12.96708392730824
 20
-14.37972839505166
 30
0.0
  0
VERTEX
  5
2AC
330
226
100
AcDbEntity
  8
Layer 1
 62
    22
420
 15540004
370
    25
100
AcDbVertex
100
AcDb2dVertex
 10
12.92558198977642
 20
-14.21133706149937
 30
0.0
  0
VERTEX
  5
2AD
330
226
100
AcDbEntity
  8
Layer 1
 62
    22
420
 15540004
370
    25
100
AcDbVertex
100
AcDb2dVertex
 10
12.90664125371071
 20
-14.12655453585743
 30
0.0
  0
VERTEX
  5
2AE
330
226
100
AcDbEntity
  8
Layer 1
 62
    22
420
 15540004
370
    25
100
AcDbVertex
100
AcDb2dVertex
 10
12.8892330725151
 20
-14.04143248320822
 30
0.0
  0
VERTEX
  5
2AF
330
226
100
AcDbEntity
  8
Layer 1
 62
    22
420
 15540004
370
    25
100
AcDbVertex
100
AcDb2dVertex
 10
12.87360169051954
 20
-13.95600965735031
 30
0.0
  0
VERTEX
  5
2B0
330
226
100
AcDbEntity
  8
Layer 1
 62
    22
420
 15540004
370
    25
100
AcDbVertex
100
AcDb2dVertex
 10
12.85999144939509
 20
-13.87032485817909
 30
0.0
  0
VERTEX
  5
2B1
330
226
100
AcDbEntity
  8
Layer 1
 62
    22
420
 15540004
370
    25
100
AcDbVertex
100
AcDb2dVertex
 10
12.84864662173643
 20
-13.78441684055026
 30
0.0
  0
VERTEX
  5
2B2
330
226
100
AcDbEntity
  8
Layer 1
 62
    22
420
 15540004
370
    25
100
AcDbVertex
100
AcDb2dVertex
 10
12.83981149268523
 20
-13.69832440224494
 30
0.0
  0
VERTEX
  5
2B3
330
226
100
AcDbEntity
  8
Layer 1
 62
    22
420
 15540004
370
    25
100
AcDbVertex
100
AcDb2dVertex
 10
12.83373037776159
 20
-13.61208628557222
 30
0.0
  0
VERTEX
  5
2B4
330
226
100
AcDbEntity
  8
Layer 1
 62
    22
420
 15540004
370
    25
100
AcDbVertex
100
AcDb2dVertex
 10
12.83064753384274
 20
-13.52574128725641
 30
0.0
  0
VERTEX
  5
2B5
330
226
100
AcDbEntity
  8
Layer 1
 62
    22
420
 15540004
370
    25
100
AcDbVertex
100
AcDb2dVertex
 10
12.83080726073104
 20
-13.43932819147475
 30
0.0
  0
VERTEX
  5
2B6
330
226
100
AcDbEntity
  8
Layer 1
 62
    22
420
 15540004
370
    25
100
AcDbVertex
100
AcDb2dVertex
 10
12.83445387394648
 20
-13.35288574053621
 30
0.0
  0
VERTEX
  5
2B7
330
226
100
AcDbEntity
  8
Layer 1
 62
    22
420
 15540004
370
    25
100
AcDbVertex
100
AcDb2dVertex
 10
12.84183163036649
 20
-13.26645273116526
 30
0.0
  0
VERTEX
  5
2B8
330
226
100
AcDbEntity
  8
Layer 1
 62
    22
420
 15540004
370
    25
100
AcDbVertex
100
AcDb2dVertex
 10
12.85318485911461
 20
-13.18006792033133
 30
0.0
  0
VERTEX
  5
2B9
330
226
100
AcDbEntity
  8
Layer 1
 62
    22
420
 15540004
370
    25
100
AcDbVertex
100
AcDb2dVertex
 10
12.86368418184808
 20
-13.10110857994562
 30
0.0
  0
VERTEX
  5
2BA
330
226
100
AcDbEntity
  8
Layer 1
 62
    22
420
 15540004
370
    25
100
AcDbVertex
100
AcDb2dVertex
 10
12.87826864637317
 20
-13.02274036392708
 30
0.0
  0
VERTEX
  5
2BB
330
226
100
AcDbEntity
  8
Layer 1
 62
    22
420
 15540004
370
    25
100
AcDbVertex
100
AcDb2dVertex
 10
12.89552690339188
 20
-12.94474590628163
 30
0.0
  0
VERTEX
  5
2BC
330
226
100
AcDbEntity
  8
Layer 1
 62
    22
420
 15540004
370
    25
100
AcDbVertex
100
AcDb2dVertex
 10
12.91404754707769
 20
-12.86690783890212
 30
0.0
  0
VERTEX
  5
2BD
330
226
100
AcDbEntity
  8
Layer 1
 62
    22
420
 15540004
370
    25
100
AcDbVertex
100
AcDb2dVertex
 10
12.93241922813268
 20
-12.7890087957944
 30
0.0
  0
VERTEX
  5
2BE
330
226
100
AcDbEntity
  8
Layer 1
 62
    22
420
 15540004
370
    25
100
AcDbVertex
100
AcDb2dVertex
 10
12.94923055539069
 20
-12.71083139524713
 30
0.0
  0
VERTEX
  5
2BF
330
226
100
AcDbEntity
  8
Layer 1
 62
    22
420
 15540004
370
    25
100
AcDbVertex
100
AcDb2dVertex
 10
12.963070179554
 20
-12.63215827126655
 30
0.0
  0
VERTEX
  5
2C0
330
226
100
AcDbEntity
  8
Layer 1
 62
    22
420
 15540004
370
    25
100
AcDbVertex
100
AcDb2dVertex
 10
12.97252669585264
 20
-12.55277202748037
 30
0.0
  0
VERTEX
  5
2C1
330
226
100
AcDbEntity
  8
Layer 1
 62
    22
420
 15540004
370
    25
100
AcDbVertex
100
AcDb2dVertex
 10
12.9539727451628
 20
-12.51926809747431
 30
0.0
  0
VERTEX
  5
2C2
330
226
100
AcDbEntity
  8
Layer 1
 62
    22
420
 15540004
370
    25
100
AcDbVertex
100
AcDb2dVertex
 10
12.93359219179405
 20
-12.48695056674356
 30
0.0
  0
VERTEX
  5
2C3
330
226
100
AcDbEntity
  8
Layer 1
 62
    22
420
 15540004
370
    25
100
AcDbVertex
100
AcDb2dVertex
 10
12.91152191968725
 20
-12.45576668641488
 30
0.0
  0
VERTEX
  5
2C4
330
226
100
AcDbEntity
  8
Layer 1
 62
    22
420
 15540004
370
    25
100
AcDbVertex
100
AcDb2dVertex
 10
12.88789884527518
 20
-12.42566359561378
 30
0.0
  0
VERTEX
  5
2C5
330
226
100
AcDbEntity
  8
Layer 1
 62
    22
420
 15540004
370
    25
100
AcDbVertex
100
AcDb2dVertex
 10
12.86285981168723
 20
-12.39658850148474
 30
0.0
  0
VERTEX
  5
2C6
330
226
100
AcDbEntity
  8
Layer 1
 62
    22
420
 15540004
370
    25
100
AcDbVertex
100
AcDb2dVertex
 10
12.83654176150685
 20
-12.36848860073922
 30
0.0
  0
VERTEX
  5
2C7
330
226
100
AcDbEntity
  8
Layer 1
 62
    22
420
 15540004
370
    25
100
AcDbVertex
100
AcDb2dVertex
 10
12.78061610222868
 20
-12.31500307088154
 30
0.0
  0
VERTEX
  5
2C8
330
226
100
AcDbEntity
  8
Layer 1
 62
    22
420
 15540004
370
    25
100
AcDbVertex
100
AcDb2dVertex
 10
12.72121697159446
 20
-12.26478452095336
 30
0.0
  0
VERTEX
  5
2C9
330
226
100
AcDbEntity
  8
Layer 1
 62
    22
420
 15540004
370
    25
100
AcDbVertex
100
AcDb2dVertex
 10
12.65943952922986
 20
-12.21741049624548
 30
0.0
  0
VERTEX
  5
2CA
330
226
100
AcDbEntity
  8
Layer 1
 62
    22
420
 15540004
370
    25
100
AcDbVertex
100
AcDb2dVertex
 10
12.59637885208116
 20
-12.17245848234904
 30
0.0
  0
VERTEX
  5
2CB
330
226
100
AcDbEntity
  8
Layer 1
 62
    22
420
 15540004
370
    25
100
AcDbVertex
100
AcDb2dVertex
 10
12.53313011549199
 20
-12.12950598268681
 30
0.0
  0
SEQEND
  5
2CC
330
226
100
AcDbEntity
  8
Layer 1
 62
    22
420
 15540004
370
    25
  0
INSERT
  5
2CE
330
1F
100
AcDbEntity
  8
Layer 1
100
AcDbBlockReference
  2
block 2
 10
0.0
 20
0.0
 30
0.0
  0
INSERT
  5
339
330
1F
100
AcDbEntity
  8
Layer 1
100
AcDbBlockReference
  2
block 3
 10
0.0
 20
0.0
 30
0.0
  0
ENDSEC
  0
SECTION
  2
OBJECTS
  0
DICTIONARY
  5
C
330
0
100
AcDbDictionary
281
     1
  3
ACAD_GROUP
350
D
  3
ACAD_LAYOUT
350
1A
  3
ACAD_MATERIAL
350
3B
  3
ACAD_MLEADERSTYLE
350
3A4
  3
ACAD_MLINESTYLE
350
17
  3
ACAD_PLOTSETTINGS
350
19
  3
ACAD_PLOTSTYLENAME
350
E
  3
ACAD_TABLESTYLE
350
3A3
  3
ACAD_VISUALSTYLE
350
2A
  0
SUN
  5
3F
330
29
100
AcDbSun
 90
        1
290
     0
 63
     7
421
 16777215
 40
1.0
291
     1
 91
  2455826
 92
 54000000
292
     0
 70
     2
 71
   256
280
     1
  0
DICTIONARY
  5
D
102
{ACAD_REACTORS
330
C
102
}
330
C
100
AcDbDictionary
281
     1
  0
DICTIONARY
  5
1A
102
{ACAD_REACTORS
330
C
102
}
330
C
100
AcDbDictionary
281
     1
  3
Layout1
350
1E
  3
Layout2
350
26
  3
Model
350
22
  0
DICTIONARY
  5
3B
102
{ACAD_REACTORS
330
C
102
}
330
C
100
AcDbDictionary
281
     1
  3
ByBlock
350
3D
  3
ByLayer
350
3C
  3
Global
350
3E
  0
DICTIONARY
  5
3A4
102
{ACAD_REACTORS
330
C
102
}
330
C
100
AcDbDictionary
281
     1
  0
DICTIONARY
  5
17
102
{ACAD_REACTORS
330
C
102
}
330
C
100
AcDbDictionary
281
     1
  3
Standard
350
18
  0
DICTIONARY
  5
19
102
{ACAD_REACTORS
330
C
102
}
330
C
100
AcDbDictionary
281
     1
  0
ACDBDICTIONARYWDFLT
  5
E
102
{ACAD_REACTORS
330
C
102
}
330
C
100
AcDbDictionary
281
     1
  3
Normal
350
F
100
AcDbDictionaryWithDefault
340
F
  0
DICTIONARY
  5
3A3
102
{ACAD_REACTORS
330
C
102
}
330
C
100
AcDbDictionary
281
     1
  0
DICTIONARY
  5
2A
102
{ACAD_REACTORS
330
C
102
}
330
C
100
AcDbDictionary
281
     1
  3
2dWireframe
350
2F
  3
3D Hidden
350
31
  3
3dWireframe
350
30
  3
Basic
350
32
  3
Brighten
350
36
  3
ColorChange
350
3A
  3
Conceptual
350
34
  3
Dim
350
35
  3
Facepattern
350
39
  3
Flat
350
2B
  3
FlatWithEdges
350
2C
  3
Gouraud
350
2D
  3
GouraudWithEdges
350
2E
  3
Linepattern
350
38
  3
Realistic
350
33
  3
Thicken
350
37
  0
LAYOUT
  5
1E
102
{ACAD_REACTORS
330
1A
102
}
330
1A
100
AcDbPlotSettings
  1

  2
none_device
  4

  6

 40
0.0
 41
0.0
 42
0.0
 43
0.0
 44
0.0
 45
0.0
 46
0.0
 47
0.0
 48
0.0
 49
0.0
140
0.0
141
0.0
142
1.0
143
1.0
 70
   688
 72
     0
 73
     0
 74
     5
  7

 75
    16
 76
     0
 77
     2
 78
   300
147
1.0
148
0.0
149
0.0
100
AcDbLayout
  1
Layout1
 70
     1
 71
     1
 10
0.0
 20
0.0
 11
12.0
 21
9.0
 12
0.0
 22
0.0
 32
0.0
 14
1.000000000000000E+20
 24
1.000000000000000E+20
 34
1.000000000000000E+20
 15
-1.000000000000000E+20
 25
-1.000000000000000E+20
 35
-1.000000000000000E+20
146
0.0
 13
0.0
 23
0.0
 33
0.0
 16
1.0
 26
0.0
 36
0.0
 17
0.0
 27
1.0
 37
0.0
 76
     0
330
1B
  0
LAYOUT
  5
26
102
{ACAD_REACTORS
330
1A
102
}
330
1A
100
AcDbPlotSettings
  1

  2
none_device
  4

  6

 40
0.0
 41
0.0
 42
0.0
 43
0.0
 44
0.0
 45
0.0
 46
0.0
 47
0.0
 48
0.0
 49
0.0
140
0.0
141
0.0
142
1.0
143
1.0
 70
   688
 72
     0
 73
     0
 74
     5
  7

 75
    16
 76
     0
 77
     2
 78
   300
147
1.0
148
0.0
149
0.0
100
AcDbLayout
  1
Layout2
 70
     1
 71
     2
 10
0.0
 20
0.0
 11
0.0
 21
0.0
 12
0.0
 22
0.0
 32
0.0
 14
0.0
 24
0.0
 34
0.0
 15
0.0
 25
0.0
 35
0.0
146
0.0
 13
0.0
 23
0.0
 33
0.0
 16
1.0
 26
0.0
 36
0.0
 17
0.0
 27
1.0
 37
0.0
 76
     0
330
23
  0
LAYOUT
  5
22
102
{ACAD_REACTORS
330
1A
102
}
330
1A
100
AcDbPlotSettings
  1

  2
none_device
  4

  6

 40
0.0
 41
0.0
 42
0.0
 43
0.0
 44
0.0
 45
0.0
 46
0.0
 47
0.0
 48
0.0
 49
0.0
140
0.0
141
0.0
142
1.0
143
1.0
 70
  1712
 72
     0
 73
     0
 74
     0
  7

 75
     0
 76
     0
 77
     2
 78
   300
147
1.0
148
0.0
149
0.0
100
AcDbLayout
  1
Model
 70
     1
 71
     0
 10
0.0
 20
0.0
 11
12.0
 21
9.0
 12
0.0
 22
0.0
 32
0.0
 14
1.000000000000000E+20
 24
1.000000000000000E+20
 34
1.000000000000000E+20
 15
-1.000000000000000E+20
 25
-1.000000000000000E+20
 35
-1.000000000000000E+20
146
0.0
 13
0.0
 23
0.0
 33
0.0
 16
1.0
 26
0.0
 36
0.0
 17
0.0
 27
1.0
 37
0.0
 76
     0
330
1F
331
29
  0
MATERIAL
  5
3D
102
{ACAD_REACTORS
330
3B
102
}
330
3B
100
AcDbMaterial
  1
ByBlock
 72
     1
 94
      127
  0
MATERIAL
  5
3C
102
{ACAD_REACTORS
330
3B
102
}
330
3B
100
AcDbMaterial
  1
ByLayer
 72
     1
 94
      127
  0
MATERIAL
  5
3E
102
{ACAD_REACTORS
330
3B
102
}
330
3B
100
AcDbMaterial
  1
Global
 72
     1
 94
      127
  0
MLINESTYLE
  5
18
102
{ACAD_REACTORS
330
17
102
}
330
17
100
AcDbMlineStyle
  2
Standard
 70
     0
  3

 62
   256
 51
90.0
 52
90.0
 71
     2
 49
0.5
 62
   256
  6
BYLAYER
 49
-0.5
 62
   256
  6
BYLAYER
  0
ACDBPLACEHOLDER
  5
F
102
{ACAD_REACTORS
330
E
102
}
330
E
  0
VISUALSTYLE
  5
2F
102
{ACAD_REACTORS
330
2A
102
}
330
2A
100
AcDbVisualStyle
  2
2dWireframe
 70
     4
177
     2
291
     0
 71
     0
176
     1
 72
     2
176
     1
 73
     0
176
     1
 90
        0
176
     1
 40
-0.6
176
     1
 41
-30.0
176
     1
 62
     5
 63
     7
421
 16777215
176
     1
 74
     1
176
     1
 91
        4
176
     1
 64
     7
176
     1
 65
   257
176
     1
 75
     1
176
     1
175
     1
176
     1
 42
1.0
176
     1
 92
        0
176
     1
 66
   257
176
     1
 43
1.0
176
     1
 76
     1
176
     1
 77
     6
176
     1
 78
     2
176
     1
 67
     7
176
     1
 79
     5
176
     1
170
     0
176
     1
171
     0
176
     1
290
     0
176
     1
 93
        1
176
     1
 44
0.0
176
     1
173
     0
176
     1
  0
VISUALSTYLE
  5
31
102
{ACAD_REACTORS
330
2A
102
}
330
2A
100
AcDbVisualStyle
  2
3D Hidden
 70
     6
177
     2
291
     0
 71
     1
176
     1
 72
     2
176
     1
 73
     2
176
     1
 90
        0
176
     1
 40
-0.6
176
     1
 41
-30.0
176
     1
 62
     5
 63
     7
421
 16777215
176
     1
 74
     2
176
     1
 91
        2
176
     1
 64
     7
176
     1
 65
   257
176
     1
 75
     2
176
     1
175
     1
176
     1
 42
40.0
176
     1
 92
        0
176
     1
 66
   257
176
     1
 43
1.0
176
     1
 76
     1
176
     1
 77
     6
176
     1
 78
     2
176
     1
 67
     7
176
     1
 79
     3
176
     1
170
     0
176
     1
171
     0
176
     1
290
     0
176
     1
 93
        1
176
     1
 44
0.0
176
     1
173
     0
176
     1
  0
VISUALSTYLE
  5
30
102
{ACAD_REACTORS
330
2A
102
}
330
2A
100
AcDbVisualStyle
  2
3dWireframe
 70
     5
177
     2
291
     0
 71
     0
176
     1
 72
     2
176
     1
 73
     0
176
     1
 90
        0
176
     1
 40
-0.6
176
     1
 41
-30.0
176
     1
 62
     5
 63
     7
421
 16777215
176
     1
 74
     1
176
     1
 91
        4
176
     1
 64
     7
176
     1
 65
   257
176
     1
 75
     1
176
     1
175
     1
176
     1
 42
1.0
176
     1
 92
        0
176
     1
 66
   257
176
     1
 43
1.0
176
     1
 76
     1
176
     1
 77
     6
176
     1
 78
     2
176
     1
 67
     7
176
     1
 79
     5
176
     1
170
     0
176
     1
171
     0
176
     1
290
     0
176
     1
 93
        1
176
     1
 44
0.0
176
     1
173
     0
176
     1
  0
VISUALSTYLE
  5
32
102
{ACAD_REACTORS
330
2A
102
}
330
2A
100
AcDbVisualStyle
  2
Basic
 70
     7
177
     2
291
     1
 71
     1
176
     1
 72
     0
176
     1
 73
     1
176
     1
 90
        0
176
     1
 40
-0.6
176
     1
 41
-30.0
176
     1
 62
     5
 63
     7
421
 16777215
176
     1
 74
     0
176
     1
 91
        4
176
     1
 64
     7
176
     1
 65
   257
176
     1
 75
     1
176
     1
175
     1
176
     1
 42
1.0
176
     1
 92
        8
176
     1
 66
     7
176
     1
 43
1.0
176
     1
 76
     1
176
     1
 77
     6
176
     1
 78
     2
176
     1
 67
     7
176
     1
 79
     5
176
     1
170
     0
176
     1
171
     0
176
     1
290
     0
176
     1
 93
        1
176
     1
 44
0.0
176
     1
173
     0
176
     1
  0
VISUALSTYLE
  5
36
102
{ACAD_REACTORS
330
2A
102
}
330
2A
100
AcDbVisualStyle
  2
Brighten
 70
    12
177
     2
291
     1
 71
     2
176
     1
 72
     2
176
     1
 73
     0
176
     1
 90
        0
176
     1
 40
-0.6
176
     1
 41
-30.0
176
     1
 62
     5
 63
     7
421
 16777215
176
     1
 74
     1
176
     1
 91
        4
176
     1
 64
     7
176
     1
 65
   257
176
     1
 75
     1
176
     1
175
     1
176
     1
 42
1.0
176
     1
 92
        8
176
     1
 66
     7
176
     1
 43
1.0
176
     1
 76
     1
176
     1
 77
     6
176
     1
 78
     2
176
     1
 67
     7
176
     1
 79
     5
176
     1
170
     0
176
     1
171
     0
176
     1
290
     0
176
     1
 93
        1
176
     1
 44
50.0
176
     1
173
     0
176
     1
  0
VISUALSTYLE
  5
3A
102
{ACAD_REACTORS
330
2A
102
}
330
2A
100
AcDbVisualStyle
  2
ColorChange
 70
    16
177
     2
291
     1
 71
     2
176
     1
 72
     2
176
     1
 73
     3
176
     1
 90
        0
176
     1
 40
-0.6
176
     1
 41
-30.0
176
     1
 62
     5
 63
     8
421
  8421504
176
     1
 74
     1
176
     1
 91
        4
176
     1
 64
     7
176
     1
 65
   257
176
     1
 75
     1
176
     1
175
     1
176
     1
 42
1.0
176
     1
 92
        8
176
     1
 66
     8
424
  8421504
176
     1
 43
1.0
176
     1
 76
     1
176
     1
 77
     6
176
     1
 78
     2
176
     1
 67
     7
176
     1
 79
     5
176
     1
170
     0
176
     1
171
     0
176
     1
290
     0
176
     1
 93
        1
176
     1
 44
0.0
176
     1
173
     0
176
     1
  0
VISUALSTYLE
  5
34
102
{ACAD_REACTORS
330
2A
102
}
330
2A
100
AcDbVisualStyle
  2
Conceptual
 70
     9
177
     2
291
     0
 71
     3
176
     1
 72
     2
176
     1
 73
     0
176
     1
 90
        0
176
     1
 40
-0.6
176
     1
 41
-30.0
176
     1
 62
     5
 63
     7
421
 16777215
176
     1
 74
     2
176
     1
 91
        2
176
     1
 64
     7
176
     1
 65
   257
176
     1
 75
     1
176
     1
175
     1
176
     1
 42
40.0
176
     1
 92
        8
176
     1
 66
     7
176
     1
 43
1.0
176
     1
 76
     1
176
     1
 77
     6
176
     1
 78
     2
176
     1
 67
     7
176
     1
 79
     3
176
     1
170
     0
176
     1
171
     0
176
     1
290
     0
176
     1
 93
        1
176
     1
 44
0.0
176
     1
173
     0
176
     1
  0
VISUALSTYLE
  5
35
102
{ACAD_REACTORS
330
2A
102
}
330
2A
100
AcDbVisualStyle
  2
Dim
 70
    11
177
     2
291
     1
 71
     2
176
     1
 72
     2
176
     1
 73
     0
176
     1
 90
        0
176
     1
 40
-0.6
176
     1
 41
-30.0
176
     1
 62
     5
 63
     7
421
 16777215
176
     1
 74
     1
176
     1
 91
        4
176
     1
 64
     7
176
     1
 65
   257
176
     1
 75
     1
176
     1
175
     1
176
     1
 42
1.0
176
     1
 92
        8
176
     1
 66
     7
176
     1
 43
1.0
176
     1
 76
     1
176
     1
 77
     6
176
     1
 78
     2
176
     1
 67
     7
176
     1
 79
     5
176
     1
170
     0
176
     1
171
     0
176
     1
290
     0
176
     1
 93
        1
176
     1
 44
-50.0
176
     1
173
     0
176
     1
  0
VISUALSTYLE
  5
39
102
{ACAD_REACTORS
330
2A
102
}
330
2A
100
AcDbVisualStyle
  2
Facepattern
 70
    15
177
     2
291
     1
 71
     2
176
     1
 72
     2
176
     1
 73
     0
176
     1
 90
        0
176
     1
 40
-0.6
176
     1
 41
-30.0
176
     1
 62
     5
 63
     7
421
 16777215
176
     1
 74
     1
176
     1
 91
        4
176
     1
 64
     7
176
     1
 65
   257
176
     1
 75
     1
176
     1
175
     1
176
     1
 42
1.0
176
     1
 92
        8
176
     1
 66
     7
176
     1
 43
1.0
176
     1
 76
     1
176
     1
 77
     6
176
     1
 78
     2
176
     1
 67
     7
176
     1
 79
     5
176
     1
170
     0
176
     1
171
     0
176
     1
290
     0
176
     1
 93
        1
176
     1
 44
0.0
176
     1
173
     0
176
     1
  0
VISUALSTYLE
  5
2B
102
{ACAD_REACTORS
330
2A
102
}
330
2A
100
AcDbVisualStyle
  2
Flat
 70
     0
177
     2
291
     1
 71
     2
176
     1
 72
     1
176
     1
 73
     1
176
     1
 90
        2
176
     1
 40
-0.6
176
     1
 41
30.0
176
     1
 62
     5
 63
     7
421
 16777215
176
     1
 74
     0
176
     1
 91
        4
176
     1
 64
     7
176
     1
 65
   257
176
     1
 75
     1
176
     1
175
     1
176
     1
 42
1.0
176
     1
 92
        8
176
     1
 66
     7
176
     1
 43
1.0
176
     1
 76
     1
176
     1
 77
     6
176
     1
 78
     2
176
     1
 67
     7
176
     1
 79
     5
176
     1
170
     0
176
     1
171
     0
176
     1
290
     0
176
     1
 93
       13
176
     1
 44
0.0
176
     1
173
     0
176
     1
  0
VISUALSTYLE
  5
2C
102
{ACAD_REACTORS
330
2A
102
}
330
2A
100
AcDbVisualStyle
  2
FlatWithEdges
 70
     1
177
     2
291
     1
 71
     2
176
     1
 72
     1
176
     1
 73
     1
176
     1
 90
        2
176
     1
 40
-0.6
176
     1
 41
30.0
176
     1
 62
     5
 63
     7
421
 16777215
176
     1
 74
     1
176
     1
 91
        4
176
     1
 64
     7
176
     1
 65
   257
176
     1
 75
     1
176
     1
175
     1
176
     1
 42
1.0
176
     1
 92
        0
176
     1
 66
   257
176
     1
 43
1.0
176
     1
 76
     1
176
     1
 77
     6
176
     1
 78
     2
176
     1
 67
     7
176
     1
 79
     5
176
     1
170
     0
176
     1
171
     0
176
     1
290
     0
176
     1
 93
       13
176
     1
 44
0.0
176
     1
173
     0
176
     1
  0
VISUALSTYLE
  5
2D
102
{ACAD_REACTORS
330
2A
102
}
330
2A
100
AcDbVisualStyle
  2
Gouraud
 70
     2
177
     2
291
     1
 71
     2
176
     1
 72
     2
176
     1
 73
     1
176
     1
 90
        2
176
     1
 40
-0.6
176
     1
 41
30.0
176
     1
 62
     5
 63
     7
421
 16777215
176
     1
 74
     0
176
     1
 91
        4
176
     1
 64
     7
176
     1
 65
   257
176
     1
 75
     1
176
     1
175
     1
176
     1
 42
1.0
176
     1
 92
        0
176
     1
 66
     7
176
     1
 43
1.0
176
     1
 76
     1
176
     1
 77
     6
176
     1
 78
     2
176
     1
 67
     7
176
     1
 79
     5
176
     1
170
     0
176
     1
171
     0
176
     1
290
     0
176
     1
 93
       13
176
     1
 44
0.0
176
     1
173
     0
176
     1
  0
VISUALSTYLE
  5
2E
102
{ACAD_REACTORS
330
2A
102
}
330
2A
100
AcDbVisualStyle
  2
GouraudWithEdges
 70
     3
177
     2
291
     1
 71
     2
176
     1
 72
     2
176
     1
 73
     1
176
     1
 90
        2
176
     1
 40
-0.6
176
     1
 41
30.0
176
     1
 62
     5
 63
     7
421
 16777215
176
     1
 74
     1
176
     1
 91
        4
176
     1
 64
     7
176
     1
 65
   257
176
     1
 75
     1
176
     1
175
     1
176
     1
 42
1.0
176
     1
 92
        0
176
     1
 66
   257
176
     1
 43
1.0
176
     1
 76
     1
176
     1
 77
     6
176
     1
 78
     2
176
     1
 67
     7
176
     1
 79
     5
176
     1
170
     0
176
     1
171
     0
176
     1
290
     0
176
     1
 93
       13
176
     1
 44
0.0
176
     1
173
     0
176
     1
  0
VISUALSTYLE
  5
38
102
{ACAD_REACTORS
330
2A
102
}
330
2A
100
AcDbVisualStyle
  2
Linepattern
 70
    14
177
     2
291
     1
 71
     2
176
     1
 72
     2
176
     1
 73
     0
176
     1
 90
        0
176
     1
 40
-0.6
176
     1
 41
-30.0
176
     1
 62
     5
 63
     7
421
 16777215
176
     1
 74
     1
176
     1
 91
        4
176
     1
 64
     7
176
     1
 65
   257
176
     1
 75
     7
176
     1
175
     7
176
     1
 42
1.0
176
     1
 92
        8
176
     1
 66
     7
176
     1
 43
1.0
176
     1
 76
     1
176
     1
 77
     6
176
     1
 78
     2
176
     1
 67
     7
176
     1
 79
     5
176
     1
170
     0
176
     1
171
     0
176
     1
290
     0
176
     1
 93
        1
176
     1
 44
0.0
176
     1
173
     0
176
     1
  0
VISUALSTYLE
  5
33
102
{ACAD_REACTORS
330
2A
102
}
330
2A
100
AcDbVisualStyle
  2
Realistic
 70
     8
177
     2
291
     0
 71
     2
176
     1
 72
     2
176
     1
 73
     0
176
     1
 90
        0
176
     1
 40
-0.6
176
     1
 41
-30.0
176
     1
 62
     5
 63
     7
421
 16777215
176
     1
 74
     1
176
     1
 91
        0
176
     1
 64
     7
176
     1
 65
   257
176
     1
 75
     1
176
     1
175
     1
176
     1
 42
1.0
176
     1
 92
        8
176
     1
 66
     8
424
  7895160
176
     1
 43
1.0
176
     1
 76
     1
176
     1
 77
     6
176
     1
 78
     2
176
     1
 67
     7
176
     1
 79
     5
176
     1
170
     0
176
     1
171
     0
176
     1
290
     0
176
     1
 93
       13
176
     1
 44
0.0
176
     1
173
     0
176
     1
  0
VISUALSTYLE
  5
37
102
{ACAD_REACTORS
330
2A
102
}
330
2A
100
AcDbVisualStyle
  2
Thicken
 70
    13
177
     2
291
     1
 71
     2
176
     1
 72
     2
176
     1
 73
     0
176
     1
 90
        0
176
     1
 40
-0.6
176
     1
 41
-30.0
176
     1
 62
     5
 63
     7
421
 16777215
176
     1
 74
     1
176
     1
 91
        4
176
     1
 64
     7
176
     1
 65
   257
176
     1
 75
     1
176
     1
175
     1
176
     1
 42
1.0
176
     1
 92
       12
176
     1
 66
     7
176
     1
 43
1.0
176
     1
 76
     1
176
     1
 77
     6
176
     1
 78
     2
176
     1
 67
     7
176
     1
 79
     5
176
     1
170
     0
176
     1
171
     0
176
     1
290
     0
176
     1
 93
        1
176
     1
 44
0.0
176
     1
173
     0
176
     1
  0
ENDSEC
  0
EOF
